<?xml version="1.0" encoding="UTF-8"?>
<svg version="1.1" xmlns="http://www.w3.org/2000/svg" width="460" height="261">
<path d="M0 0 C-0.14166357 1.91697937 -0.28849584 3.83357723 -0.4375 5.75 C-0.51871094 6.81734375 -0.59992188 7.8846875 -0.68359375 8.984375 C-0.94090773 11.43679962 -1.31812218 13.63921291 -2 16 C-2.639375 15.731875 -3.27875 15.46375 -3.9375 15.1875 C-6.46857161 14.20606407 -8.99924621 13.26748605 -11.5625 12.375 C-12.30628906 12.11460937 -13.05007812 11.85421875 -13.81640625 11.5859375 C-16.26708127 10.82722142 -16.26708127 10.82722142 -20 11 C-19.737186 14.75448571 -19.4600086 16.52944446 -16.78515625 19.265625 C-15.88667969 19.92046875 -14.98820312 20.5753125 -14.0625 21.25 C-13.16660156 21.91515625 -12.27070313 22.5803125 -11.34765625 23.265625 C-10.57292969 23.83796875 -9.79820312 24.4103125 -9 25 C-8.34 25.66 -7.68 26.32 -7 27 C-6.72027344 26.49210937 -6.44054687 25.98421875 -6.15234375 25.4609375 C-2.19617414 18.6680289 2.35556383 13.48415946 10 11 C17.32810972 10.13073457 23.98808169 10.41816849 30 15 C31.90464166 16.90929849 33.40540481 18.80743161 35 21 C36.47356888 15.36199733 37.64923261 9.74328278 38.625 4 C39.07875 1.36 39.5325 -1.28 40 -4 C45.94 -4 51.88 -4 58 -4 C57 4.1875 57 4.1875 56.68359375 6.73901367 C56.23107901 10.51580588 55.87775613 14.18751945 56 18 C57.3303125 16.824375 57.3303125 16.824375 58.6875 15.625 C63.93761166 10.98536644 69.20923975 10.55426115 75.99609375 10.6875 C83.53249763 11.47152121 88.06292992 15.56922291 93 21 C93.7425 20.236875 94.485 19.47375 95.25 18.6875 C102.9272903 11.18469357 109.95507315 10.66955624 120.375 10.375 C121.49261719 10.33632812 122.61023438 10.29765625 123.76171875 10.2578125 C126.50765161 10.16393445 129.25358476 10.07825089 132 10 C132.66 7.69 133.32 5.38 134 3 C139.94 3 145.88 3 152 3 C151.67 5.31 151.34 7.62 151 10 C153.64 10.66 156.28 11.32 159 12 C158.01 16.62 157.02 21.24 156 26 C153.03 26 150.06 26 147 26 C146.93941406 26.65226562 146.87882813 27.30453125 146.81640625 27.9765625 C146.36480009 32.68716217 145.85804961 37.34201638 145 42 C148.63 40.68 152.26 39.36 156 38 C156.1663067 52.96760259 156.1663067 52.96760259 155 56 C149.34055748 59.77296168 142.6328425 59.92173016 136 59 C133.19254582 57.56827835 131.22610848 56.22610848 129 54 C128.67 54.99 128.34 55.98 128 57 C123.63110917 59.53650167 119.09067553 59.33274433 114.1875 59.3125 C113.41857422 59.32861328 112.64964844 59.34472656 111.85742188 59.36132812 C105.54671656 59.36665361 99.78328001 58.42498464 94.90625 54.17578125 C94.4421875 53.56089844 93.978125 52.94601563 93.5 52.3125 C93.0153125 51.68988281 92.530625 51.06726563 92.03125 50.42578125 C91.6909375 49.95527344 91.350625 49.48476562 91 49 C90.85304688 49.55429688 90.70609375 50.10859375 90.5546875 50.6796875 C90.21824219 51.76636719 90.21824219 51.76636719 89.875 52.875 C89.56175781 53.95394531 89.56175781 53.95394531 89.2421875 55.0546875 C87.33927984 58.03471271 85.40165873 58.24017932 82 59 C79.18020434 59.28253905 76.39489896 59.32502166 73.5625 59.3125 C72.47485352 59.33666992 72.47485352 59.33666992 71.36523438 59.36132812 C63.96350445 59.36797838 58.53614726 57.06162035 53 52 C52.34 51.01 51.68 50.02 51 49 C50.01 53.95 50.01 53.95 49 59 C43.06 59 37.12 59 31 59 C30.67 58.34 30.34 57.68 30 57 C29.18273437 57.32226562 28.36546875 57.64453125 27.5234375 57.9765625 C23.4399975 59.16266148 19.85127063 59.38434705 15.625 59.375 C14.87130127 59.37338867 14.11760254 59.37177734 13.34106445 59.37011719 C6.21531572 59.2124713 1.91705478 57.62534931 -3.5 52.75 C-3.995 52.1725 -4.49 51.595 -5 51 C-5.44730469 51.40992188 -5.89460938 51.81984375 -6.35546875 52.2421875 C-6.96003906 52.78101563 -7.56460938 53.31984375 -8.1875 53.875 C-8.77917969 54.40867188 -9.37085938 54.94234375 -9.98046875 55.4921875 C-14.73759313 59.04392833 -19.39365058 59.38588588 -25.1875 59.375 C-25.93837891 59.37556396 -26.68925781 59.37612793 -27.46289062 59.37670898 C-33.46184331 59.25851257 -40.52657699 58.47342301 -45 54 C-45.30437704 48.21683615 -44.58813841 43.55848445 -43 38 C-42.20335937 38.3609375 -41.40671875 38.721875 -40.5859375 39.09375 C-39.52632812 39.5578125 -38.46671875 40.021875 -37.375 40.5 C-36.33085937 40.9640625 -35.28671875 41.428125 -34.2109375 41.90625 C-30.87639488 43.04210394 -28.49327502 43.36033782 -25 43 C-24.34 42.34 -23.68 41.68 -23 41 C-23.32161237 37.6086083 -24.67346289 35.98301046 -27.08984375 33.6875 C-27.70923828 33.08679688 -28.32863281 32.48609375 -28.96679688 31.8671875 C-29.61712891 31.25101563 -30.26746094 30.63484375 -30.9375 30 C-32.22204985 28.77564341 -33.50217286 27.54662178 -34.77734375 26.3125 C-35.34702881 25.77238281 -35.91671387 25.23226562 -36.50366211 24.67578125 C-40.17139913 20.56820303 -40.37897564 16.84652557 -40.24609375 11.53125 C-39.72671423 6.18906062 -37.94361005 2.94361005 -34.1875 -0.8125 C-23.63586869 -8.05381561 -10.8034992 -5.66014765 0 0 Z M14 25 C13.34 26.32 12.68 27.64 12 29 C14.64 29 17.28 29 20 29 C19.67 27.68 19.34 26.36 19 25 C17.35 25 15.7 25 14 25 Z M71 25 C70.34 26.32 69.68 27.64 69 29 C71.64 29 74.28 29 77 29 C76.67 27.68 76.34 26.36 76 25 C74.35 25 72.7 25 71 25 Z M107 33 C105.68291229 35.97919865 105.68291229 35.97919865 106 39 C107.37283423 41.54002013 107.37283423 41.54002013 110 43 C115.91118168 43.94578907 122.09656533 42.45325066 127 39 C128.41559677 36.03082411 128.84632264 33.26913647 129 30 C121.07120398 26.42989112 112.80604908 25.97162479 107 33 Z M9 41 C9.33 41.99 9.66 42.98 10 44 C15.71733113 46.45764298 19.5946705 45.84630933 25.4375 44.125 C26.16904297 43.92519531 26.90058594 43.72539062 27.65429688 43.51953125 C29.4407027 43.02914534 31.2210592 42.51681113 33 42 C33 41.67 33 41.34 33 41 C25.08 41 17.16 41 9 41 Z M67 41 C68.47946327 45.09720756 68.47946327 45.09720756 71.2421875 45.83203125 C74.47878714 46.02916126 76.99266592 45.51572367 80.125 44.6875 C81.15882813 44.42324219 82.19265625 44.15898437 83.2578125 43.88671875 C86.17211505 43.08154978 86.17211505 43.08154978 89 41 C81.74 41 74.48 41 67 41 Z " fill="#A7A7A7" transform="translate(257,178)"/>
<path d="M0 0 C16.44096059 11.52885913 26.25065332 27.36180341 29.92578125 47.1328125 C31.17585026 59.43147121 29.59035434 72.08619658 21.92578125 82.1328125 C19.7421875 83.9609375 19.7421875 83.9609375 17.48828125 85.3828125 C16.74707031 85.86234375 16.00585938 86.341875 15.2421875 86.8359375 C5.70858334 92.17346968 -4.67250925 91.92886927 -15.01953125 89.125 C-30.40519051 84.12761195 -41.08457323 72.85273657 -49.07421875 59.1328125 C-53.93112627 49.34757234 -56.45919838 40.1463243 -56.38671875 29.2578125 C-56.3810791 28.37448242 -56.37543945 27.49115234 -56.36962891 26.58105469 C-56.14325229 14.44637154 -52.83528672 6.89388047 -44.26171875 -1.6796875 C-30.81083042 -10.9106893 -13.35902568 -8.1138682 0 0 Z " fill="#E1E0E0" transform="translate(180.07421875,159.8671875)"/>
<path d="M0 0 C16.44096059 11.52885913 26.25065332 27.36180341 29.92578125 47.1328125 C31.17585026 59.43147121 29.59035434 72.08619658 21.92578125 82.1328125 C19.7421875 83.9609375 19.7421875 83.9609375 17.48828125 85.3828125 C16.74707031 85.86234375 16.00585938 86.341875 15.2421875 86.8359375 C5.70858334 92.17346968 -4.67250925 91.92886927 -15.01953125 89.125 C-30.40519051 84.12761195 -41.08457323 72.85273657 -49.07421875 59.1328125 C-53.93112627 49.34757234 -56.45919838 40.1463243 -56.38671875 29.2578125 C-56.3810791 28.37448242 -56.37543945 27.49115234 -56.36962891 26.58105469 C-56.14325229 14.44637154 -52.83528672 6.89388047 -44.26171875 -1.6796875 C-30.81083042 -10.9106893 -13.35902568 -8.1138682 0 0 Z M-40.07421875 5.1328125 C-40.73421875 6.1228125 -41.39421875 7.1128125 -42.07421875 8.1328125 C-41.69201172 8.65077393 -41.30980469 9.16873535 -40.91601562 9.70239258 C-26.87488051 28.73438243 -26.87488051 28.73438243 -20.07421875 38.1328125 C-21.58232571 42.38644752 -24.70688561 44.26171941 -28.32421875 46.6328125 C-28.88496094 47.01050781 -29.44570312 47.38820312 -30.0234375 47.77734375 C-31.70119528 48.90488997 -33.38687558 50.01967554 -35.07421875 51.1328125 C-36.21523326 51.89264458 -37.35588118 52.65302755 -38.49609375 53.4140625 C-39.346875 53.98125 -40.19765625 54.5484375 -41.07421875 55.1328125 C-36.72968686 67.15409006 -26.32450586 75.73994597 -15.07421875 81.1328125 C-13.92953125 81.68388672 -13.92953125 81.68388672 -12.76171875 82.24609375 C-6.23231557 84.40041718 3.1398957 84.43692845 9.48828125 81.5703125 C16.65284001 77.14697622 20.63766462 70.40238054 22.61328125 62.3203125 C24.17889054 46.35109777 19.41868 31.80907247 9.56640625 19.0859375 C1.30562943 9.59374053 -9.44182503 1.43854506 -22.30078125 -0.140625 C-29.17989986 -0.43192318 -34.36999969 1.23858603 -40.07421875 5.1328125 Z " fill="#B8B8B8" transform="translate(180.07421875,159.8671875)"/>
<path d="M0 0 C0.66918457 -0.00950684 1.33836914 -0.01901367 2.02783203 -0.02880859 C6.69405803 0.00226122 10.48834002 0.81436583 14.875 2.25 C14.73351011 3.8545556 14.58664314 5.45863767 14.4375 7.0625 C14.35628906 7.95582031 14.27507812 8.84914063 14.19140625 9.76953125 C13.875 12.25 13.875 12.25 12.875 15.25 C11.575625 15.085 10.27625 14.92 8.9375 14.75 C-2.48849374 13.51009138 -2.48849374 13.51009138 -13.125 17.25 C-17.6485634 21.40971156 -19.92554946 24.81670341 -20.4375 31.0625 C-20.35641086 35.4737492 -19.13269224 37.93382651 -16.125 41.25 C-10.72705466 44.84863023 -6.65087322 44.30600107 -0.3828125 43.28125 C0.69226562 42.9409375 1.76734375 42.600625 2.875 42.25 C3.62813477 42.0432666 4.38126953 41.8365332 5.15722656 41.62353516 C8.06561881 40.50478695 9.72529484 39.53064898 11.875 37.25 C13.72191504 31.80702822 14.28478322 26.32041165 14.875 20.625 C15.06258341 19.08286352 15.2539543 17.54118275 15.44921875 16 C15.72314837 13.83206885 15.99129289 11.66509209 16.23022461 9.49301147 C16.55058091 6.58494166 16.94577155 4.03768534 17.875 1.25 C22.825 1.25 27.775 1.25 32.875 1.25 C31.75928628 9.06530353 30.63817576 16.87980603 29.51196289 24.69360352 C29.12880442 27.35413215 28.74773456 30.01494776 28.3684082 32.67602539 C27.82372889 36.49162112 27.27373554 40.3064178 26.72265625 44.12109375 C26.5528273 45.31899033 26.38299835 46.5168869 26.20802307 47.75108337 C26.04793259 48.8521492 25.8878421 49.95321503 25.72290039 51.08764648 C25.58300186 52.06249496 25.44310333 53.03734344 25.29896545 54.04173279 C24.875 56.25 24.875 56.25 23.875 57.25 C21.52186445 57.32271741 19.16666332 57.33370868 16.8125 57.3125 C15.52214844 57.30347656 14.23179688 57.29445312 12.90234375 57.28515625 C11.90332031 57.27355469 10.90429688 57.26195312 9.875 57.25 C9.875 56.26 9.875 55.27 9.875 54.25 C9.25496094 54.53875 8.63492188 54.8275 7.99609375 55.125 C-1.54974674 59.12674973 -11.81694553 60.20449675 -21.6875 56.5625 C-28.96246826 53.09995292 -33.19356456 48.81160014 -36.125 41.25 C-38.52716115 33.27991566 -37.48488779 24.77374873 -34.125 17.25 C-29.34089491 9.02399708 -22.21594059 3.42521257 -13 0.875 C-8.69759096 0.12207842 -4.35857332 0.05087829 0 0 Z " fill="#B6B6B6" transform="translate(56.125,22.75)"/>
<path d="M0 0 C1.26596746 0.00334608 1.26596746 0.00334608 2.55751002 0.00675976 C3.447786 0.00519977 4.33806198 0.00363978 5.25531602 0.00203252 C8.26537569 -0.0019835 11.27538568 0.00121514 14.28544581 0.00434887 C16.43614191 0.00299454 18.58683778 0.00121443 20.73753321 -0.00096118 C26.61728678 -0.00554753 32.49702292 -0.00373692 38.37677681 -0.0005821 C44.57921325 0.00195408 50.78164822 -0.00040128 56.98408473 -0.00196826 C68.13696763 -0.00391132 79.28984422 -0.00078757 90.44272561 0.00429107 C100.41862311 0.0086955 110.39450854 0.00794585 120.37040675 0.00337231 C234.48506532 -0.0477746 234.48506532 -0.0477746 281.17851222 1.13374341 C281.17851222 3.44374341 281.17851222 5.75374341 281.17851222 8.13374341 C244.79488112 8.20236076 208.41126134 8.25524737 172.0275789 8.28693939 C167.7353606 8.29069166 163.44314243 8.29457461 159.15092432 8.29853833 C157.86913098 8.29971872 157.86913098 8.29971872 156.56144283 8.30092297 C142.71215008 8.3139886 128.86289456 8.33764879 115.01362392 8.36520179 C100.81048589 8.39322384 86.60736741 8.40991287 72.40420288 8.41600889 C63.63507789 8.42013199 54.86605813 8.43316973 46.09696553 8.45749281 C40.0894506 8.47331052 34.08199032 8.4781528 28.07445606 8.47424754 C24.6047306 8.47231978 21.13518943 8.47534275 17.66549647 8.49135983 C13.90916208 8.50618513 10.15328576 8.50273325 6.39694178 8.49450696 C4.74083275 8.50761474 4.74083275 8.50761474 3.05126697 8.52098733 C2.04904269 8.51501419 1.04681841 8.50904104 0.01422369 8.50288689 C-0.85343726 8.50402605 -1.72109821 8.50516521 -2.61505193 8.50633889 C-5.29976393 8.05297807 -6.22410264 7.30892555 -7.82148778 5.13374341 C-7.17608919 -0.35214467 -5.11520877 0.0175557 0 0 Z " fill="#BABABA" transform="translate(178.82148778438568,107.8662565946579)"/>
<path d="M0 0 C4.95 0 9.9 0 15 0 C14.7834375 1.51851562 14.566875 3.03703125 14.34375 4.6015625 C14.06228518 6.6093449 13.78104709 8.61715909 13.5 10.625 C13.28537109 12.12353516 13.28537109 12.12353516 13.06640625 13.65234375 C12.39647818 18.46944557 11.80021711 23.12196787 12 28 C13.27160666 26.41728767 14.54225285 24.83380365 15.8125 23.25 C16.52019531 22.36828125 17.22789062 21.4865625 17.95703125 20.578125 C20.01496749 18.14354909 20.01496749 18.14354909 21.21875 15.6875 C23.77332783 13.26737363 25.88666645 13.59022517 29.30664062 13.6484375 C30.09232422 13.68195312 30.87800781 13.71546875 31.6875 13.75 C32.48478516 13.76804687 33.28207031 13.78609375 34.10351562 13.8046875 C36.06952449 13.85177753 38.03491494 13.92352101 40 14 C38.31170568 18.08587205 35.44018303 21.15461519 32.5625 24.4375 C29.32457146 28.1349506 26.38762838 31.66989429 24 36 C24.39380859 36.5347998 24.78761719 37.06959961 25.19335938 37.62060547 C26.9671546 40.0351711 28.73364666 42.45498576 30.5 44.875 C31.43005859 46.13763672 31.43005859 46.13763672 32.37890625 47.42578125 C33.25869141 48.63427734 33.25869141 48.63427734 34.15625 49.8671875 C34.70087891 50.61081543 35.24550781 51.35444336 35.80664062 52.12060547 C37 54 37 54 37 56 C31.67489562 56.96212676 26.20416627 57.88579642 21 56 C16.03483125 51.7565818 13.00351365 45.70158523 10 40 C9.6839151 41.35333438 9.37235649 42.70772601 9.0625 44.0625 C8.88847656 44.81660156 8.71445312 45.57070312 8.53515625 46.34765625 C7.89080611 49.54118722 7.46073479 52.77485649 7 56 C2.05 56 -2.9 56 -8 56 C-6.59710192 43.42158853 -4.83644777 30.93968879 -2.875 18.4375 C-2.59476608 16.63611218 -2.31481674 14.83468006 -2.03515625 13.03320312 C-1.360035 8.68828685 -0.68111963 4.34397982 0 0 Z " fill="#B7B7B7" transform="translate(351,24)"/>
<path d="M0 0 C4.95 0 9.9 0 15 0 C14.7834375 1.51851562 14.566875 3.03703125 14.34375 4.6015625 C14.06228518 6.6093449 13.78104709 8.61715909 13.5 10.625 C13.28537109 12.12353516 13.28537109 12.12353516 13.06640625 13.65234375 C12.39647818 18.46944557 11.80021711 23.12196787 12 28 C13.27160666 26.41728767 14.54225285 24.83380365 15.8125 23.25 C16.52019531 22.36828125 17.22789062 21.4865625 17.95703125 20.578125 C20.01496749 18.14354909 20.01496749 18.14354909 21.21875 15.6875 C23.77332783 13.26737363 25.88666645 13.59022517 29.30664062 13.6484375 C30.09232422 13.68195312 30.87800781 13.71546875 31.6875 13.75 C32.48478516 13.76804687 33.28207031 13.78609375 34.10351562 13.8046875 C36.06952449 13.85177753 38.03491494 13.92352101 40 14 C38.31170568 18.08587205 35.44018303 21.15461519 32.5625 24.4375 C29.32457146 28.1349506 26.38762838 31.66989429 24 36 C24.39380859 36.5347998 24.78761719 37.06959961 25.19335938 37.62060547 C26.9671546 40.0351711 28.73364666 42.45498576 30.5 44.875 C31.43005859 46.13763672 31.43005859 46.13763672 32.37890625 47.42578125 C33.25869141 48.63427734 33.25869141 48.63427734 34.15625 49.8671875 C34.70087891 50.61081543 35.24550781 51.35444336 35.80664062 52.12060547 C37 54 37 54 37 56 C31.67489562 56.96212676 26.20416627 57.88579642 21 56 C16.03483125 51.7565818 13.00351365 45.70158523 10 40 C9.6839151 41.35333438 9.37235649 42.70772601 9.0625 44.0625 C8.88847656 44.81660156 8.71445313 45.57070312 8.53515625 46.34765625 C7.89080611 49.54118722 7.46073479 52.77485649 7 56 C2.05 56 -2.9 56 -8 56 C-6.59710192 43.42158853 -4.83644777 30.93968879 -2.875 18.4375 C-2.59476608 16.63611218 -2.31481674 14.83468006 -2.03515625 13.03320312 C-1.360035 8.68828685 -0.68111963 4.34397982 0 0 Z " fill="#B7B7B7" transform="translate(149,24)"/>
<path d="M0 0 C0.83208984 0.00515625 1.66417969 0.0103125 2.52148438 0.015625 C6.25871004 0.06357657 9.57268168 0.23506437 13.1875 1.25 C11.76586555 15.01740735 9.55309439 28.61598111 7.1875 42.25 C5.98351562 42.23839844 4.77953125 42.22679687 3.5390625 42.21484375 C1.96354321 42.20546566 0.38802225 42.19636548 -1.1875 42.1875 C-2.37859375 42.17493164 -2.37859375 42.17493164 -3.59375 42.16210938 C-7.83642222 42.01959849 -7.83642222 42.01959849 -11.8125 43.25 C-16.51947417 43.82425085 -19.93394792 43.70554552 -24.1875 41.5 C-28.613664 37.70614514 -31.01163676 34.11578214 -31.8125 28.25 C-31.91559614 21.34255833 -31.07061647 14.86185291 -26.8125 9.25 C-19.26909351 1.74072657 -10.34997253 -0.26264799 0 0 Z M-13.8125 15.25 C-16.73005432 19.62633148 -17.30461475 23.03358368 -16.8125 28.25 C-16.1525 29.24 -15.4925 30.23 -14.8125 31.25 C-10.93135107 31.67186401 -8.00091318 31.57846772 -4.8125 29.25 C-3.88377652 26.32346444 -3.88377652 26.32346444 -3.5625 22.9375 C-3.33820313 21.24173828 -3.33820313 21.24173828 -3.109375 19.51171875 C-2.85616381 16.72972733 -2.74968352 14.04009875 -2.8125 11.25 C-7.64606443 10.68134536 -10.11886689 12.19873787 -13.8125 15.25 Z " fill="#B5B5B5" transform="translate(231.8125,37.75)"/>
<path d="M0 0 C4.62 0 9.24 0 14 0 C14 1.32 14 2.64 14 4 C14.928125 3.34 15.85625 2.68 16.8125 2 C21.6635935 -0.75652767 26.56453321 -0.96611852 32 0 C36.32591908 3.00165813 37.75459279 5.97744229 39 11 C39.00323941 13.89243594 38.64445118 16.70013791 38.25 19.5625 C38.15219238 20.34737793 38.05438477 21.13225586 37.95361328 21.94091797 C37.10045965 28.64738801 36.08621319 35.32754754 35 42 C30.05 42 25.1 42 20 42 C20.2165625 40.40929687 20.433125 38.81859375 20.65625 37.1796875 C20.93770558 35.07815252 21.21894419 32.97658848 21.5 30.875 C21.64308594 29.82828125 21.78617187 28.7815625 21.93359375 27.703125 C22.58885754 22.77304508 23.20707401 17.98703253 23 13 C19.68611911 12.62127076 18.26466436 12.83148879 15.40942383 14.64941406 C12.53339699 17.45520861 12.17839576 18.92720114 11.63671875 22.859375 C11.47236328 23.97441406 11.30800781 25.08945312 11.13867188 26.23828125 C10.98978516 27.39714844 10.84089844 28.55601563 10.6875 29.75 C10.51927734 30.92433594 10.35105469 32.09867188 10.17773438 33.30859375 C9.76592042 36.20305751 9.38040891 39.1012416 9 42 C4.05 42 -0.9 42 -6 42 C-4.47714284 27.91357127 -2.30905022 13.97760015 0 0 Z " fill="#B6B6B6" transform="translate(306,38)"/>
<path d="M0 0 C1.12148438 -0.02578125 2.24296875 -0.0515625 3.3984375 -0.078125 C8.47178393 0.43780853 10.90991537 2.50241152 14.375 6.125 C18.60660801 12.00223334 17.625 15.61138116 17.625 23.25 C8.385 23.25 -0.855 23.25 -10.375 23.25 C-8.21639932 30.68446931 -8.21639932 30.68446931 -5.375 33.25 C-2.45247924 33.57111786 -2.45247924 33.57111786 0.875 33.5 C1.99390625 33.50515625 3.1128125 33.5103125 4.265625 33.515625 C7.68603339 33.2451741 10.43078847 32.46960804 13.625 31.25 C13.625 32.9 13.625 34.55 13.625 36.25 C14.285 36.25 14.945 36.25 15.625 36.25 C15.955 34.93 16.285 33.61 16.625 32.25 C16.295 35.88 15.965 39.51 15.625 43.25 C20.905 43.25 26.185 43.25 31.625 43.25 C32.12 42.26 32.12 42.26 32.625 41.25 C32.625 42.24 32.625 43.23 32.625 44.25 C26.685 44.25 20.745 44.25 14.625 44.25 C14.295 43.59 13.965 42.93 13.625 42.25 C10.655 42.745 10.655 42.745 7.625 43.25 C7.625 42.59 7.625 41.93 7.625 41.25 C6.47902344 41.29640625 5.33304687 41.3428125 4.15234375 41.390625 C2.62242209 41.42816909 1.09247199 41.46456641 -0.4375 41.5 C-1.18966797 41.53351563 -1.94183594 41.56703125 -2.71679688 41.6015625 C-8.45819139 41.70098059 -11.65061558 40.53678765 -16.375 37.25 C-19.53189533 33.76932053 -20.59344227 31.35266322 -20.5625 26.75 C-20.51996094 25.97785156 -20.47742188 25.20570313 -20.43359375 24.41015625 C-20.27508074 22.07451423 -20.27508074 22.07451423 -21.125 19.1875 C-21.50366408 14.73819709 -19.92736742 11.83711097 -17.375 8.25 C-11.88693224 2.51948748 -8.05087116 0.11053828 0 0 Z M-2.375 10.25 C-3.035 11.57 -3.695 12.89 -4.375 14.25 C-1.735 14.25 0.905 14.25 3.625 14.25 C3.295 12.93 2.965 11.61 2.625 10.25 C0.975 10.25 -0.675 10.25 -2.375 10.25 Z " fill="#B1B1B1" transform="translate(273.375,192.75)"/>
<path d="M0 0 C0.75023437 0.00064453 1.50046875 0.00128906 2.2734375 0.00195312 C5.80339537 0.03011768 8.9797127 0.24121823 12.375 1.1875 C12.23423685 3.1462043 12.0872324 5.10446093 11.9375 7.0625 C11.85628906 8.15304688 11.77507812 9.24359375 11.69140625 10.3671875 C11.375 13.1875 11.375 13.1875 10.375 15.1875 C9.735625 15.0225 9.09625 14.8575 8.4375 14.6875 C2.54255529 13.72506005 -4.33721504 13.09221124 -9.625 16.1875 C-11.59542092 19.93466799 -11.87601505 23.09216158 -10.9375 27.1875 C-7.59026314 30.08240756 -4.71586797 29.65932473 -0.4140625 29.55859375 C2.47124597 29.17469416 4.70097431 28.3009321 7.375 27.1875 C8.365 27.1875 9.355 27.1875 10.375 27.1875 C9.715 31.8075 9.055 36.4275 8.375 41.1875 C0.93715204 44.16263918 -8.38090424 44.53250454 -16.1875 42.1875 C-21.42020339 39.14301803 -24.71028213 34.9316536 -26.625 29.1875 C-27.29502398 21.77330018 -27.29528896 15.25365744 -22.625 9.1875 C-15.85738462 1.91591326 -9.76052112 -0.16098082 0 0 Z " fill="#B7B7B7" transform="translate(131.625,37.8125)"/>
<path d="M0 0 C3.31743931 2.07444939 5.20657465 4.80598775 6.85546875 8.27734375 C6.95453944 13.01709413 6.34174736 17.54717913 5.85546875 22.27734375 C-2.72453125 22.27734375 -11.30453125 22.27734375 -20.14453125 22.27734375 C-18.11837246 30.05011413 -18.11837246 30.05011413 -14.14453125 32.27734375 C-7.79420905 32.82510546 -1.40662672 32.41590656 4.85546875 31.27734375 C3.98046875 38.15234375 3.98046875 38.15234375 2.85546875 39.27734375 C3.51546875 39.93734375 4.17546875 40.59734375 4.85546875 41.27734375 C1.88546875 41.77234375 1.88546875 41.77234375 -1.14453125 42.27734375 C-1.14453125 41.61734375 -1.14453125 40.95734375 -1.14453125 40.27734375 C-2.88089844 40.32955078 -2.88089844 40.32955078 -4.65234375 40.3828125 C-6.19139165 40.41096582 -7.73045536 40.43826431 -9.26953125 40.46484375 C-10.03007812 40.48998047 -10.790625 40.51511719 -11.57421875 40.54101562 C-16.5381456 40.60520433 -19.8357596 40.0105198 -24.14453125 37.27734375 C-28.86933761 32.55253739 -31.03961571 28.39990722 -31.2109375 21.66796875 C-30.84490395 13.63741455 -28.46685913 8.35657447 -22.58203125 2.90234375 C-15.92200389 -1.53767449 -7.76479057 -2.61655056 0 0 Z M-12.14453125 9.27734375 C-12.80453125 10.59734375 -13.46453125 11.91734375 -14.14453125 13.27734375 C-11.50453125 13.27734375 -8.86453125 13.27734375 -6.14453125 13.27734375 C-6.47453125 11.95734375 -6.80453125 10.63734375 -7.14453125 9.27734375 C-8.79453125 9.27734375 -10.44453125 9.27734375 -12.14453125 9.27734375 Z " fill="#B1B1B1" transform="translate(340.14453125,193.72265625)"/>
<path d="M0 0 C-0.33 3.3 -0.66 6.6 -1 10 C-5.455 10.495 -5.455 10.495 -10 11 C-7.03 11.33 -4.06 11.66 -1 12 C-1 12.33 -1 12.66 -1 13 C-1.99580078 13.03867188 -1.99580078 13.03867188 -3.01171875 13.078125 C-8.47347154 13.42895292 -12.1783408 13.7006334 -16 18 C-17.33298974 20.61818456 -17.33298974 20.61818456 -18 23 C-18.66 22.67 -19.32 22.34 -20 22 C-19.67 24.31 -19.34 26.62 -19 29 C-11.48647597 31.93210694 -5.54036387 31.11659337 2 29 C2.28571429 37.57142857 2.28571429 37.57142857 0 41 C0.66 41.66 1.32 42.32 2 43 C-0.75078884 43.91692961 -2.35948913 44.10886083 -5.1875 44.0625 C-6.445625 44.041875 -7.70375 44.02125 -9 44 C-8.01 43.34 -7.02 42.68 -6 42 C-7.2684375 41.96132812 -7.2684375 41.96132812 -8.5625 41.921875 C-21.48931116 41.27553444 -21.48931116 41.27553444 -27 37 C-30.24466139 33.17296349 -31.6501916 30.01392039 -32 25 C-31.67 24.67 -31.34 24.34 -31 24 C-30.9465932 21.97944285 -30.90748453 19.95850179 -30.875 17.9375 C-30.44913482 11.9688357 -29.33469584 8.66125922 -24.99609375 4.5234375 C-17.49063945 -1.20479572 -9.01632656 -0.31698023 0 0 Z " fill="#B0B0B0" transform="translate(381,193)"/>
<path d="M0 0 C4.95 0 9.9 0 15 0 C13.88428628 7.81530353 12.76317576 15.62980603 11.63696289 23.44360352 C11.25380442 26.10413215 10.87273456 28.76494776 10.4934082 31.42602539 C9.94872889 35.24162112 9.39873554 39.0564178 8.84765625 42.87109375 C8.6778273 44.06899033 8.50799835 45.2668869 8.33302307 46.50108337 C8.17293259 47.6021492 8.0128421 48.70321503 7.84790039 49.83764648 C7.6380526 51.2999192 7.6380526 51.2999192 7.42396545 52.79173279 C7 55 7 55 6 56 C3.64686445 56.07271741 1.29166332 56.08370868 -1.0625 56.0625 C-2.35285156 56.05347656 -3.64320313 56.04445312 -4.97265625 56.03515625 C-5.97167969 56.02355469 -6.97070312 56.01195312 -8 56 C-7.38876722 45.83166847 -5.9111977 35.81099483 -4.41601562 25.74243164 C-3.99636254 22.91297489 -3.58374056 20.08255286 -3.171875 17.25195312 C-2.90666159 15.44785611 -2.64105125 13.6438174 -2.375 11.83984375 C-2.25205566 10.99614731 -2.12911133 10.15245087 -2.00244141 9.28318787 C-1.52399094 6.08089005 -1.02609076 3.07827229 0 0 Z " fill="#B5B5B5" transform="translate(270,24)"/>
<path d="M0 0 C5.94 0 11.88 0 18 0 C17.34 5.61 16.68 11.22 16 17 C15.67 17 15.34 17 15 17 C14.67 15.35 14.34 13.7 14 12 C11.73277003 22.76860338 9.91530508 33.55263514 8.3125 44.4375 C8.0856258 45.95903501 7.85841375 47.48051969 7.63085938 49.00195312 C7.0833651 52.66739993 6.54037088 56.33349541 6 60 C2.04 60 -1.92 60 -6 60 C-5.31069666 55.05144763 -4.61683297 50.1035646 -3.91870117 45.15625 C-3.68176252 43.47250778 -3.44607966 41.78858835 -3.21166992 40.10449219 C-2.87487073 37.68637365 -2.53358727 35.26892458 -2.19140625 32.8515625 C-2.08719864 32.0963028 -1.98299103 31.34104309 -1.87562561 30.56289673 C-1.11387171 25.22774341 -1.11387171 25.22774341 0 23 C-0.66 23.33 -1.32 23.66 -2 24 C-2.65555119 26.52733235 -2.65555119 26.52733235 -3 29 C-3.66 29 -4.32 29 -5 29 C-4.35845193 24.72851142 -3.7110314 20.45793344 -3.0625 16.1875 C-2.88009766 14.97255859 -2.69769531 13.75761719 -2.50976562 12.50585938 C-2.33251953 11.34248047 -2.15527344 10.17910156 -1.97265625 8.98046875 C-1.81031494 7.90692139 -1.64797363 6.83337402 -1.48071289 5.72729492 C-1 3 -1 3 0 0 Z " fill="#B0B0B0" transform="translate(297,174)"/>
<path d="M0 0 C3.95742693 1.31914231 5.24942013 3.8179349 7.5 7.125 C8.38176546 8.3913547 9.2646193 9.6569521 10.1484375 10.921875 C10.60959961 11.58509766 11.07076172 12.24832031 11.54589844 12.93164062 C14.02004885 16.45094928 16.57323383 19.91176964 19.125 23.375 C19.61033203 24.03516113 20.09566406 24.69532227 20.59570312 25.37548828 C21.7296285 26.91761038 22.86468197 28.4589029 24 30 C22.48023088 34.48644171 18.86564527 36.52175622 15.125 39.0625 C13.87740546 39.9280991 12.63000459 40.79397739 11.3828125 41.66015625 C10.79274414 42.06121582 10.20267578 42.46227539 9.59472656 42.87548828 C7.85462103 44.06608633 7.85462103 44.06608633 5.8046875 45.87109375 C4 47 4 47 1.91796875 47.078125 C-1.11566544 45.37286423 -1.54623585 42.9613805 -2.6875 39.75 C-3.10386719 38.61046875 -3.52023438 37.4709375 -3.94921875 36.296875 C-7.22327597 26.02436833 -7.62065924 14.86276901 -3.0703125 4.953125 C-2 3 -2 3 0 0 Z " fill="#58588D" transform="translate(137,168)"/>
<path d="M0 0 C3.96 0 7.92 0 12 0 C12 1.32 12 2.64 12 4 C14.97851562 3.90234375 14.97851562 3.90234375 17.95703125 3.8046875 C20 4 20 4 23 6 C22.34 8.97 21.68 11.94 21 15 C20.34 14.34 19.68 13.68 19 13 C18.67 13.99 18.34 14.98 18 16 C15.03 16 12.06 16 9 16 C8.50193543 19.21565963 8.00620627 22.43162601 7.515625 25.6484375 C7.22293116 27.55094744 6.92480244 29.45268934 6.609375 31.3515625 C5.9723728 34.77026111 5.9723728 34.77026111 7 38 C9.97 38 12.94 38 16 38 C16 40.97 16 43.94 16 47 C10.6207344 49.6896328 5.92875199 49.68034859 0 49 C-3.07365786 47.19196596 -4.43019732 46.13960536 -6 43 C-6.91616667 33.80309615 -4.88443823 24.93986467 -3 16 C-3.99 15.67 -4.98 15.34 -6 15 C-5.67 12.69 -5.34 10.38 -5 8 C-3.68 8 -2.36 8 -1 8 C-0.67 5.36 -0.34 2.72 0 0 Z " fill="#B0B0B0" transform="translate(393,185)"/>
<path d="M0 0 C1.67943809 2.04927824 3.15388108 4.05797873 4.625 6.25 C5.51301804 7.53475707 6.40236788 8.81859451 7.29296875 10.1015625 C7.96658447 11.07851074 7.96658447 11.07851074 8.65380859 12.07519531 C11.96837012 16.81440516 15.51003565 21.38953585 19 26 C20.00071306 27.33279824 21.00100241 28.66591545 22 30 C27.79536946 28.12869675 32.36956001 24.30827048 37.20507812 20.72460938 C37.89150391 20.23412109 38.57792969 19.74363281 39.28515625 19.23828125 C39.90269775 18.78493408 40.52023926 18.33158691 41.15649414 17.86450195 C43 17 43 17 45.23217773 17.36010742 C45.81555908 17.57127197 46.39894043 17.78243652 47 18 C47.495 19.98 47.495 19.98 48 22 C41.37084628 27.45731112 34.57205483 32.47677415 27.4375 37.25 C25.51614587 38.54702058 23.59558316 39.84521423 21.67578125 41.14453125 C20.72783691 41.78600098 19.77989258 42.4274707 18.80322266 43.08837891 C12.13805304 47.63360431 5.57099107 52.3201297 -1 57 C-2.9375 56.25 -2.9375 56.25 -5 55 C-5.62890625 52.921875 -5.62890625 52.921875 -6 51 C-5.43490723 50.62713867 -4.86981445 50.25427734 -4.28759766 49.87011719 C-1.72697981 48.17287162 0.82399937 46.46166278 3.375 44.75 C4.70917969 43.87021484 4.70917969 43.87021484 6.0703125 42.97265625 C7.34648437 42.11220703 7.34648437 42.11220703 8.6484375 41.234375 C9.43395996 40.71069336 10.21948242 40.18701172 11.02880859 39.64746094 C13.11485384 37.90400871 13.98872922 36.49731658 15 34 C14.61779297 33.48203857 14.23558594 32.96407715 13.84179688 32.43041992 C-0.19933824 13.39843007 -0.19933824 13.39843007 -7 4 C-3.375 0 -3.375 0 0 0 Z " fill="#EBEAE9" transform="translate(145,164)"/>
<path d="M0 0 C1.93166016 0.01740234 1.93166016 0.01740234 3.90234375 0.03515625 C5.19269531 0.04417969 6.48304688 0.05320313 7.8125 0.0625 C8.81152344 0.07410156 9.81054688 0.08570313 10.83984375 0.09765625 C10.2448795 9.41745816 9.1848511 18.60804056 7.83984375 27.84765625 C7.66195313 29.11609375 7.4840625 30.38453125 7.30078125 31.69140625 C7.12804687 32.8928125 6.9553125 34.09421875 6.77734375 35.33203125 C6.62136719 36.41709961 6.46539062 37.50216797 6.3046875 38.62011719 C5.83984375 41.09765625 5.83984375 41.09765625 4.83984375 42.09765625 C2.4867082 42.17037366 0.13150707 42.18136493 -2.22265625 42.16015625 C-3.51300781 42.15113281 -4.80335938 42.14210937 -6.1328125 42.1328125 C-7.13183594 42.12121094 -8.13085938 42.10960937 -9.16015625 42.09765625 C-8.565192 32.77785434 -7.5051636 23.58727194 -6.16015625 14.34765625 C-5.98226563 13.07921875 -5.804375 11.81078125 -5.62109375 10.50390625 C-5.44835937 9.3025 -5.275625 8.10109375 -5.09765625 6.86328125 C-4.94167969 5.77821289 -4.78570312 4.69314453 -4.625 3.57519531 C-3.93675452 -0.09303742 -3.85944497 0.11926591 0 0 Z " fill="#B7B7B7" transform="translate(290.16015625,37.90234375)"/>
<path d="M0 0 C1.93166016 0.01740234 1.93166016 0.01740234 3.90234375 0.03515625 C5.19269531 0.04417969 6.48304687 0.05320313 7.8125 0.0625 C8.81152344 0.07410156 9.81054688 0.08570313 10.83984375 0.09765625 C10.2448795 9.41745816 9.1848511 18.60804056 7.83984375 27.84765625 C7.66195312 29.11609375 7.4840625 30.38453125 7.30078125 31.69140625 C7.12804687 32.8928125 6.9553125 34.09421875 6.77734375 35.33203125 C6.62136719 36.41709961 6.46539062 37.50216797 6.3046875 38.62011719 C5.83984375 41.09765625 5.83984375 41.09765625 4.83984375 42.09765625 C2.4867082 42.17037366 0.13150707 42.18136493 -2.22265625 42.16015625 C-3.51300781 42.15113281 -4.80335937 42.14210937 -6.1328125 42.1328125 C-7.13183594 42.12121094 -8.13085938 42.10960937 -9.16015625 42.09765625 C-8.565192 32.77785434 -7.5051636 23.58727194 -6.16015625 14.34765625 C-5.98226562 13.07921875 -5.804375 11.81078125 -5.62109375 10.50390625 C-5.44835937 9.3025 -5.275625 8.10109375 -5.09765625 6.86328125 C-4.94167969 5.77821289 -4.78570312 4.69314453 -4.625 3.57519531 C-3.93675452 -0.09303742 -3.85944497 0.11926591 0 0 Z " fill="#B7B7B7" transform="translate(95.16015625,37.90234375)"/>
<path d="M0 0 C0.495 0.99 0.495 0.99 1 2 C0.29391602 2.01981934 -0.41216797 2.03963867 -1.13964844 2.06005859 C-4.34346994 2.15540415 -7.54664801 2.26504513 -10.75 2.375 C-12.41675781 2.42140625 -12.41675781 2.42140625 -14.1171875 2.46875 C-15.72207031 2.52675781 -15.72207031 2.52675781 -17.359375 2.5859375 C-18.83615723 2.63306885 -18.83615723 2.63306885 -20.34277344 2.68115234 C-23.00852201 3.00102258 -24.70616405 3.64368621 -27 5 C-27 5.66 -27 6.32 -27 7 C-27.9075 7.598125 -28.815 8.19625 -29.75 8.8125 C-33.04598468 11.03095123 -34.8170899 12.70941365 -37 16 C-37.65561818 19.20455047 -37.65561818 19.20455047 -37.6875 22.5625 C-37.93930224 28.78561238 -37.93930224 28.78561238 -38.609375 31.15234375 C-39.27546599 34.30295414 -37.9080296 36.37525457 -36.40234375 39.09765625 C-33.86827109 42.53524228 -31.09056008 43.9245184 -27 45 C-22.33512922 45.58687084 -17.69833177 45.86802439 -13 46 C-13.495 46.99 -13.495 46.99 -14 48 C-20.23982006 50.07994002 -27.10979831 49.67099908 -33.171875 47.1328125 C-36.4868064 45.07868834 -38.73691426 42.12888748 -41 39 C-41.66 41.31 -42.32 43.62 -43 46 C-44.32 45.67 -45.64 45.34 -47 45 C-46.01 42.36 -45.02 39.72 -44 37 C-45.36125 37.495 -45.36125 37.495 -46.75 38 C-52.08691589 39.49215812 -57.51702932 39.75439455 -63 39 C-66.1875 36.875 -66.1875 36.875 -68 34 C-68.33 32.02 -68.66 30.04 -69 28 C-60.42 28 -51.84 28 -43 28 C-42.13114277 18.81184038 -42.13114277 18.81184038 -44.75 10.25 C-48.07702587 6.92297413 -49.89488451 6.05878274 -54.671875 5.8046875 C-56.03138796 5.81788665 -57.39083332 5.84159893 -58.75 5.875 C-59.79607422 5.88853516 -59.79607422 5.88853516 -60.86328125 5.90234375 C-62.57566958 5.92580112 -64.28788004 5.96166896 -66 6 C-66 5.34 -66 4.68 -66 4 C-67.32 3.67 -68.64 3.34 -70 3 C-63.88605025 0.20569024 -57.14073266 -0.21259392 -50.65234375 1.6875 C-45.8548013 3.90601674 -42.53067299 7.11625971 -39 11 C-38.2575 10.236875 -37.515 9.47375 -36.75 8.6875 C-29.0727097 1.18469357 -22.04492685 0.66955624 -11.625 0.375 C-10.50738281 0.33632812 -9.38976562 0.29765625 -8.23828125 0.2578125 C-5.49234839 0.16393445 -2.74641524 0.07825089 0 0 Z M-65 31 C-63.52053673 35.09720756 -63.52053673 35.09720756 -60.7578125 35.83203125 C-57.52121286 36.02916126 -55.00733408 35.51572367 -51.875 34.6875 C-50.84117187 34.42324219 -49.80734375 34.15898437 -48.7421875 33.88671875 C-45.82788495 33.08154978 -45.82788495 33.08154978 -43 31 C-50.26 31 -57.52 31 -65 31 Z " fill="#A6A6A6" transform="translate(389,188)"/>
<path d="M0 0 C-0.14166357 1.91697937 -0.28849584 3.83357723 -0.4375 5.75 C-0.51871094 6.81734375 -0.59992188 7.8846875 -0.68359375 8.984375 C-0.94090773 11.43679962 -1.31812218 13.63921291 -2 16 C-2.99 15.67 -3.98 15.34 -5 15 C-5.6875 12.9375 -5.6875 12.9375 -6 11 C-5.34 11 -4.68 11 -4 11 C-4.495 6.545 -4.495 6.545 -5 2 C-13.32728177 -0.22060847 -22.72617121 -2.3333226 -30.625 2.125 C-33.04588371 3.92682197 -34.04053034 5.0713334 -35.5625 7.75 C-36.28447632 13.11325266 -36.25447008 17.89249027 -33.4375 22.625 C-30.68781982 25.30417556 -27.81076303 27.79965806 -24.90625 30.30859375 C-21.51960258 33.31354935 -19.2856498 35.47653441 -18.4375 40 C-19.21301416 44.13607554 -20.61322911 45.54999553 -24 48 C-30.19910645 49.07292227 -34.5534543 46.68137634 -40 44 C-40.66 46.97 -41.32 49.94 -42 53 C-34.73973247 55.17808026 -27.54673035 55.59722507 -20 56 C-21.71203481 58.13015553 -22.61903193 58.92963818 -25.34765625 59.43359375 C-32.30829603 59.44360906 -37.78816119 58.18260877 -44 55 C-45 54 -45 54 -45.1875 50.4375 C-45.14774773 46.04089906 -44.2047916 42.21677059 -43 38 C-42.20335937 38.3609375 -41.40671875 38.721875 -40.5859375 39.09375 C-39.52632812 39.5578125 -38.46671875 40.021875 -37.375 40.5 C-36.33085937 40.9640625 -35.28671875 41.428125 -34.2109375 41.90625 C-30.87639488 43.04210394 -28.49327502 43.36033782 -25 43 C-24.34 42.34 -23.68 41.68 -23 41 C-23.32161237 37.6086083 -24.67346289 35.98301046 -27.08984375 33.6875 C-27.70923828 33.08679688 -28.32863281 32.48609375 -28.96679688 31.8671875 C-29.61712891 31.25101563 -30.26746094 30.63484375 -30.9375 30 C-32.22204985 28.77564341 -33.50217286 27.54662178 -34.77734375 26.3125 C-35.34702881 25.77238281 -35.91671387 25.23226562 -36.50366211 24.67578125 C-40.17139913 20.56820303 -40.37897564 16.84652557 -40.24609375 11.53125 C-39.72671423 6.18906062 -37.94361005 2.94361005 -34.1875 -0.8125 C-23.63586869 -8.05381561 -10.8034992 -5.66014765 0 0 Z " fill="#A6A6A6" transform="translate(257,178)"/>
<path d="M0 0 C0.99 0.66 1.98 1.32 3 2 C2.67 3.65 2.34 5.3 2 7 C1.38511719 6.96519531 0.77023438 6.93039063 0.13671875 6.89453125 C-0.67152344 6.86746094 -1.47976562 6.84039062 -2.3125 6.8125 C-3.11300781 6.77769531 -3.91351563 6.74289063 -4.73828125 6.70703125 C-7.06535341 6.8188591 -7.06535341 6.8188591 -8.78125 8.34375 C-10.44546615 10.60537707 -10.22189312 12.26331821 -10 15 C-5.31034294 16.11658501 -2.46236469 15.80619523 2 14 C2.0825 13.236875 2.165 12.47375 2.25 11.6875 C3 9 3 9 4.5625 7.1875 C8.0757082 5.47593703 11.16577768 5.30858286 15 6 C17.5 7.5625 17.5 7.5625 19 10 C19.58860004 14.04662526 19.39565124 16.24166845 17.5 19.875 C14.58418081 22.35344631 12.72811122 22.93796832 8.97265625 23.21875 C5.82899604 22.8701461 4.13875651 21.20559265 2 19 C1.67 19.474375 1.34 19.94875 1 20.4375 C-2.03420173 22.8079701 -5.25790122 23.11339693 -9 23 C-12.57517139 21.78579085 -14.44327688 20.62855836 -16.9375 17.8125 C-18.40316578 13.93279645 -18.17528245 10.94958865 -17 7 C-12.77588568 0.06038362 -7.55516567 -0.48743004 0 0 Z M10 11 C9.34 11.66 8.68 12.32 8 13 C8 14.32 8 15.64 8 17 C9.32 17 10.64 17 12 17 C12.33 15.68 12.66 14.36 13 13 C12.01 12.34 11.02 11.68 10 11 Z " fill="#BEBEBE" transform="translate(40,96)"/>
<path d="M0 0 C5.94 0 11.88 0 18 0 C17.67 2.31 17.34 4.62 17 7 C16.01 7.33 15.02 7.66 14 8 C14 6.68 14 5.36 14 4 C10.04 4 6.08 4 2 4 C1.67 6.64 1.34 9.28 1 12 C-0.32 12 -1.64 12 -3 12 C-3 14.31 -3 16.62 -3 19 C-2.34 19.33 -1.68 19.66 -1 20 C-1.33 22.64 -1.66 25.28 -2 28 C-2.99 28.33 -3.98 28.66 -5 29 C-5 28.34 -5 27.68 -5 27 C-10.27913453 24.91613111 -15.39538469 24.42089996 -21 24 C-20.67 23.34 -20.34 22.68 -20 22 C-17.03 22 -14.06 22 -11 22 C-11.020625 20.906875 -11.04125 19.81375 -11.0625 18.6875 C-11 15 -11 15 -10 12 C-16.6 12.33 -23.2 12.66 -30 13 C-28 10 -28 10 -25 9 C-23.15389468 8.91760831 -21.30494836 8.89256641 -19.45703125 8.90234375 C-18.38388672 8.90556641 -17.31074219 8.90878906 -16.20507812 8.91210938 C-15.08552734 8.92048828 -13.96597656 8.92886719 -12.8125 8.9375 C-11.11577148 8.94426758 -11.11577148 8.94426758 -9.38476562 8.95117188 C-6.58979073 8.96296502 -3.7949218 8.9794235 -1 9 C-1.020625 7.88625 -1.04125 6.7725 -1.0625 5.625 C-1 2 -1 2 0 0 Z " fill="#999999" transform="translate(391,181)"/>
<path d="M0 0 C5 0 10 0 15 0 C16.010625 -0.04125 17.02125 -0.0825 18.0625 -0.125 C21 0 21 0 23 2 C23.23046875 4.2421875 23.23046875 4.2421875 23.1875 6.875 C23.18105469 7.73867187 23.17460938 8.60234375 23.16796875 9.4921875 C23.01393667 11.79192226 22.64161776 13.79283489 22 16 C20.02 16 18.04 16 16 16 C16.33 12.37 16.66 8.74 17 5 C16.01 5.495 16.01 5.495 15 6 C14.31068656 8.34907875 14.31068656 8.34907875 13.875 11.0625 C13.70742187 11.98160156 13.53984375 12.90070313 13.3671875 13.84765625 C13.24601562 14.55792969 13.12484375 15.26820312 13 16 C11.02 16 9.04 16 7 16 C7.33 12.37 7.66 8.74 8 5 C7.01 5.495 7.01 5.495 6 6 C5.31068656 8.34907875 5.31068656 8.34907875 4.875 11.0625 C4.70742187 11.98160156 4.53984375 12.90070313 4.3671875 13.84765625 C4.24601562 14.55792969 4.12484375 15.26820312 4 16 C1.69 16 -0.62 16 -3 16 C-2.69177379 13.7077546 -2.37829126 11.41621545 -2.0625 9.125 C-1.88847656 7.84882812 -1.71445313 6.57265625 -1.53515625 5.2578125 C-1 2 -1 2 0 0 Z " fill="#BDBDBD" transform="translate(90,102)"/>
<path d="M0 0 C5 0 10 0 15 0 C16.010625 -0.04125 17.02125 -0.0825 18.0625 -0.125 C21 0 21 0 23 2 C23.23046875 4.2421875 23.23046875 4.2421875 23.1875 6.875 C23.18105469 7.73867187 23.17460938 8.60234375 23.16796875 9.4921875 C23.01393667 11.79192226 22.64161776 13.79283489 22 16 C20.02 16 18.04 16 16 16 C16.33 12.37 16.66 8.74 17 5 C16.01 5.495 16.01 5.495 15 6 C14.31068656 8.34907875 14.31068656 8.34907875 13.875 11.0625 C13.70742187 11.98160156 13.53984375 12.90070313 13.3671875 13.84765625 C13.24601562 14.55792969 13.12484375 15.26820312 13 16 C11.02 16 9.04 16 7 16 C7.33 12.37 7.66 8.74 8 5 C7.01 5.495 7.01 5.495 6 6 C5.31068656 8.34907875 5.31068656 8.34907875 4.875 11.0625 C4.70742187 11.98160156 4.53984375 12.90070313 4.3671875 13.84765625 C4.24601562 14.55792969 4.12484375 15.26820312 4 16 C1.69 16 -0.62 16 -3 16 C-2.69177379 13.7077546 -2.37829126 11.41621545 -2.0625 9.125 C-1.88847656 7.84882812 -1.71445312 6.57265625 -1.53515625 5.2578125 C-1 2 -1 2 0 0 Z " fill="#BDBDBD" transform="translate(63,102)"/>
<path d="M0 0 C1.98 0 3.96 0 6 0 C5.55761615 7.53216715 4.86094772 14.6802723 3 22 C-2.81948657 23.10369573 -5.79774799 23.29898908 -11 20 C-12 19 -12 19 -12.375 15.25 C-12.32500989 11.76943834 -12.03663916 11.05064826 -9.875 8.0625 C-6.77431907 5.83809846 -4.7694321 5.26298363 -1 5 C-0.67 3.35 -0.34 1.7 0 0 Z M-4 11 C-4.66 11.66 -5.32 12.32 -6 13 C-5.91428339 15.09291157 -5.91428339 15.09291157 -5 17 C-4.01 17.33 -3.02 17.66 -2 18 C-1.67 15.69 -1.34 13.38 -1 11 C-1.99 11 -2.98 11 -4 11 Z " fill="#BCBCBC" transform="translate(165,96)"/>
<path d="M0 0 C-0.66 5.28 -1.32 10.56 -2 16 C-12.3199704 17.35142469 -12.3199704 17.35142469 -15.328125 15.796875 C-17.3876936 13.58331997 -17.54032587 12.55165479 -17.5 9.5625 C-17.35949445 6.23900338 -17.17842689 5.23790251 -15.125 2.5 C-10.25335186 -0.93881045 -5.87386565 -0.06830076 0 0 Z M-9 5 C-9.66 5.66 -10.32 6.32 -11 7 C-10.67958603 9.60280568 -10.67958603 9.60280568 -10 12 C-9.01 11.34 -8.02 10.68 -7 10 C-6.74969023 7.41619823 -6.74969023 7.41619823 -7 5 C-7.66 5 -8.32 5 -9 5 Z " fill="#BEBEBE" transform="translate(132,102)"/>
<path d="M0 0 C2.12438339 -0.08078641 4.2496323 -0.13909141 6.375 -0.1875 C7.55835938 -0.22230469 8.74171875 -0.25710937 9.9609375 -0.29296875 C11.46527344 -0.14794922 11.46527344 -0.14794922 13 0 C15.41311344 3.61967016 15.11082246 4.89177545 14.6875 9.125 C14.58824219 10.20007813 14.48898438 11.27515625 14.38671875 12.3828125 C14 15 14 15 13 16 C11.00041636 16.04080783 8.99954746 16.04254356 7 16 C7.66 12.37 8.32 8.74 9 5 C5.87729874 7.51830747 5.05476902 8.7261549 4.25 12.75 C4.1675 13.8225 4.085 14.895 4 16 C1.69 16 -0.62 16 -3 16 C-2.69177379 13.7077546 -2.37829126 11.41621545 -2.0625 9.125 C-1.88847656 7.84882812 -1.71445313 6.57265625 -1.53515625 5.2578125 C-1 2 -1 2 0 0 Z " fill="#BEBEBE" transform="translate(136,102)"/>
<path d="M0 0 C0.33 0 0.66 0 1 0 C1 2.31 1 4.62 1 7 C-1.97 7 -4.94 7 -8 7 C-8.06058594 7.65226563 -8.12117188 8.30453125 -8.18359375 8.9765625 C-8.63519991 13.68716217 -9.14195039 18.34201638 -10 23 C-4.555 21.02 -4.555 21.02 1 19 C1.15921288 33.32915921 1.15921288 33.32915921 0 37 C-2.54714915 38.86790938 -3.80869 39 -7 39 C-6.34 37.68 -5.68 36.36 -5 35 C-4.34 35 -3.68 35 -3 35 C-3 32.03 -3 29.06 -3 26 C-5.97 26.33 -8.94 26.66 -12 27 C-14.43644816 23.34532776 -14.04316434 22.49804967 -13.25 18.3125 C-13.05148437 17.25160156 -12.85296875 16.19070312 -12.6484375 15.09765625 C-11.86686704 11.3640094 -10.99165472 7.68328897 -10 4 C-7.03 4 -4.06 4 -1 4 C-0.67 2.68 -0.34 1.36 0 0 Z " fill="#A6A6A6" transform="translate(412,197)"/>
<path d="M0 0 C1.98828125 0.46875 1.98828125 0.46875 3.98828125 3.46875 C4.43089561 7.45227923 4.35366745 9.76842646 2.48828125 13.34375 C-1.11919376 16.41010376 -3.28247644 16.46875 -8.01171875 16.46875 C-10.51171875 15.53125 -10.51171875 15.53125 -12.01171875 13.46875 C-12.71823665 8.60162668 -12.74917467 6.61061724 -10.07421875 2.46875 C-6.43923243 0.09488138 -4.23968477 -0.05700416 0 0 Z M-5.01171875 4.46875 C-5.67171875 5.12875 -6.33171875 5.78875 -7.01171875 6.46875 C-7.01171875 7.78875 -7.01171875 9.10875 -7.01171875 10.46875 C-5.69171875 10.46875 -4.37171875 10.46875 -3.01171875 10.46875 C-2.68171875 9.14875 -2.35171875 7.82875 -2.01171875 6.46875 C-3.00171875 5.80875 -3.99171875 5.14875 -5.01171875 4.46875 Z " fill="#BCBCBC" transform="translate(55.01171875,102.53125)"/>
<path d="M0 0 C2.4375 1.5625 2.4375 1.5625 4 4 C3.9375 7.625 3.9375 7.625 3 11 C-0.46923881 13.31282587 -1.92205575 13.42478586 -6 13 C-7.875 11.9375 -7.875 11.9375 -9 10 C-9.63316583 4.09045226 -9.63316583 4.09045226 -7.875 1.0625 C-5.06487736 -0.52990283 -3.17235276 -0.45319325 0 0 Z " fill="#BCBCBC" transform="translate(298,23)"/>
<path d="M0 0 C2.4375 1.5625 2.4375 1.5625 4 4 C3.9375 7.625 3.9375 7.625 3 11 C-0.46923881 13.31282587 -1.92205575 13.42478586 -6 13 C-7.875 11.9375 -7.875 11.9375 -9 10 C-9.63316583 4.09045226 -9.63316583 4.09045226 -7.875 1.0625 C-5.06487736 -0.52990283 -3.17235276 -0.45319325 0 0 Z " fill="#BCBCBC" transform="translate(103,23)"/>
<path d="M0 0 C5.94 0 11.88 0 18 0 C17.67 3.3 17.34 6.6 17 10 C16.01 10 15.02 10 14 10 C14 8.02 14 6.04 14 4 C10.04 4 6.08 4 2 4 C1.67 8.62 1.34 13.24 1 18 C0.01 17.67 -0.98 17.34 -2 17 C-1.85899143 14.72886197 -1.71203245 12.45809275 -1.5625 10.1875 C-1.48128906 8.92292969 -1.40007812 7.65835938 -1.31640625 6.35546875 C-1 3 -1 3 0 0 Z " fill="#A6A6A6" transform="translate(297,174)"/>
<path d="M0 0 C2.875 -0.1875 2.875 -0.1875 6 0 C8 3 8 3 8 11 C2.72 11 -2.56 11 -8 11 C-6 6 -6 6 -3 4 C-3 4.99 -3 5.98 -3 7 C-0.36 7 2.28 7 5 7 C4.67 5.35 4.34 3.7 4 2 C2.35 2 0.7 2 -1 2 C-0.67 1.34 -0.34 0.68 0 0 Z " fill="#9C9C9C" transform="translate(329,200)"/>
<path d="M0 0 C2.625 0.3125 2.625 0.3125 4.4375 1.875 C5.625 4.3125 5.625 4.3125 5.625 11.3125 C0.345 11.3125 -4.935 11.3125 -10.375 11.3125 C-9.375 7.3125 -9.375 7.3125 -6.375 5.3125 C-6.375 6.3025 -6.375 7.2925 -6.375 8.3125 C-3.405 8.3125 -0.435 8.3125 2.625 8.3125 C1.4571734 4.49836998 1.4571734 4.49836998 -1.5 2 C-2.11875 1.773125 -2.7375 1.54625 -3.375 1.3125 C-2.375 0.3125 -2.375 0.3125 0 0 Z " fill="#939393" transform="translate(274.375,199.6875)"/>
<path d="M0 0 C0.99 0 1.98 0 3 0 C3 0.66 3 1.32 3 2 C8.57710648 3.06795656 13.39436958 2.82622671 19 2 C18.34 3.65 17.68 5.3 17 7 C14.91781638 7.10832169 12.83400871 7.18573541 10.75 7.25 C9.00976562 7.31960937 9.00976562 7.31960937 7.234375 7.390625 C4 7 4 7 1.578125 5.171875 C0 3 0 3 0 0 Z " fill="#A7A7A7" transform="translate(264,220)"/>
<path d="M0 0 C0.33 0 0.66 0 1 0 C0.67 3.63 0.34 7.26 0 11 C5.28 11 10.56 11 16 11 C16.33 10.34 16.66 9.68 17 9 C17 9.99 17 10.98 17 12 C11.06 12 5.12 12 -1 12 C-1.33 11.34 -1.66 10.68 -2 10 C-3.65 10 -5.3 10 -7 10 C-6.34 9.01 -5.68 8.02 -5 7 C-4.34 7 -3.68 7 -3 7 C-3 5.35 -3 3.7 -3 2 C-2.67 2.66 -2.34 3.32 -2 4 C-1.34 4 -0.68 4 0 4 C0 2.68 0 1.36 0 0 Z " fill="#C0C0C0" transform="translate(289,225)"/>
<path d="M0 0 C5.61 0 11.22 0 17 0 C17 0.99 17 1.98 17 3 C11.39 3 5.78 3 0 3 C0 2.01 0 1.02 0 0 Z " fill="#A2A2A2" transform="translate(322,234)"/>
<path d="M0 0 C1.258125 -0.04125 2.51625 -0.0825 3.8125 -0.125 C4.52019531 -0.14820313 5.22789062 -0.17140625 5.95703125 -0.1953125 C8 0 8 0 11 2 C10.67 3.65 10.34 5.3 10 7 C9.01 7 8.02 7 7 7 C7 6.01 7 5.02 7 4 C4.36 4 1.72 4 -1 4 C-0.67 2.68 -0.34 1.36 0 0 Z " fill="#AAAAAA" transform="translate(405,189)"/>
<path d="M0 0 C3.96 0 7.92 0 12 0 C12 0.99 12 1.98 12 3 C6.39 3 0.78 3 -5 3 C-5 2.67 -5 2.34 -5 2 C-3.35 1.67 -1.7 1.34 0 1 C0 0.67 0 0.34 0 0 Z " fill="#A7A7A7" transform="translate(269,234)"/>
<path d="M0 0 C0.33 0.99 0.66 1.98 1 3 C2.9587043 2.85923685 4.91696093 2.7122324 6.875 2.5625 C8.51082031 2.44068359 8.51082031 2.44068359 10.1796875 2.31640625 C12.94728971 2.16998297 12.94728971 2.16998297 15 1 C15 2.32 15 3.64 15 5 C9.72 5 4.44 5 -1 5 C-0.67 3.35 -0.34 1.7 0 0 Z " fill="#909090" transform="translate(290,231)"/>
<path d="M0 0 C0 0.33 0 0.66 0 1 C-1.60875 1.12375 -1.60875 1.12375 -3.25 1.25 C-7.37676065 2.07535213 -8.65081114 2.56657012 -11 6 C-11.36141955 8.32914823 -11.69699525 10.66253478 -12 13 C-12.99 13.66 -13.98 14.32 -15 15 C-15 13.35 -15 11.7 -15 10 C-15.66 9.67 -16.32 9.34 -17 9 C-15.68 8.67 -14.36 8.34 -13 8 C-12.9175 7.236875 -12.835 6.47375 -12.75 5.6875 C-12 3 -12 3 -10.4375 1.1875 C-6.8580787 -0.55632063 -3.95820158 -0.19791008 0 0 Z " fill="#D6D6D6" transform="translate(55,102)"/>
<path d="M0 0 C4.62 0 9.24 0 14 0 C13.67 0.66 13.34 1.32 13 2 C9.98509443 3.00496852 7.95818308 3.10335303 4.8125 3.0625 C3.46091797 3.04896484 3.46091797 3.04896484 2.08203125 3.03515625 C1.39496094 3.02355469 0.70789063 3.01195312 0 3 C0 2.01 0 1.02 0 0 Z " fill="#A0A0A0" transform="translate(362,234)"/>
<path d="M0 0 C3.3 0 6.6 0 10 0 C10 0.33 10 0.66 10 1 C7.36 1.33 4.72 1.66 2 2 C4.97 2.33 7.94 2.66 11 3 C11 3.33 11 3.66 11 4 C10.32453125 4.04898438 9.6490625 4.09796875 8.953125 4.1484375 C8.06109375 4.22320312 7.1690625 4.29796875 6.25 4.375 C5.36828125 4.44460937 4.4865625 4.51421875 3.578125 4.5859375 C1.00933618 4.99850055 -0.75841015 5.71160957 -3 7 C-2.67 5.35 -2.34 3.7 -2 2 C-1.34 2 -0.68 2 0 2 C0 1.34 0 0.68 0 0 Z " fill="#C4C4C4" transform="translate(369,202)"/>
<path d="M0 0 C2.475 0.99 2.475 0.99 5 2 C4.0409375 2.433125 4.0409375 2.433125 3.0625 2.875 C0.84793921 3.82823451 0.84793921 3.82823451 0 6 C2.31 6.33 4.62 6.66 7 7 C7 7.33 7 7.66 7 8 C4.03 8 1.06 8 -2 8 C-2.6875 5.6875 -2.6875 5.6875 -3 3 C-1.5625 1.1875 -1.5625 1.1875 0 0 Z " fill="#BDBDBD" transform="translate(270,200)"/>
<path d="M0 0 C4.29 0 8.58 0 13 0 C10 3 10 3 7.51953125 3.07421875 C6.62621094 2.94660156 5.73289063 2.81898438 4.8125 2.6875 C3.46091797 2.50767578 3.46091797 2.50767578 2.08203125 2.32421875 C1.05142578 2.16373047 1.05142578 2.16373047 0 2 C0 1.34 0 0.68 0 0 Z " fill="#979797" transform="translate(224,234)"/>
<path d="M0 0 C0.86625 0.12375 1.7325 0.2475 2.625 0.375 C4.4375 2.875 4.4375 2.875 5.625 5.375 C4.635 6.365 3.645 7.355 2.625 8.375 C2.3775 7.59125 2.13 6.8075 1.875 6 C0.47110901 3.05182892 -0.38175737 2.4725223 -3.375 1.375 C-2.375 0.375 -2.375 0.375 0 0 Z " fill="#9A9A9A" transform="translate(274.375,199.625)"/>
<path d="M0 0 C0.66 0.33 1.32 0.66 2 1 C1.67 1.99 1.34 2.98 1 4 C-3.455 4.495 -3.455 4.495 -8 5 C-5.31158141 2.74754119 -3.35358125 1.11786042 0 0 Z " fill="#A7A7A7" transform="translate(242,232)"/>
<path d="M0 0 C-1.55603771 3.81936528 -3.95604931 6.26044438 -7 9 C-7.66 9 -8.32 9 -9 9 C-9 6 -9 6 -7.5390625 4.39453125 C-6.59160156 3.61142578 -6.59160156 3.61142578 -5.625 2.8125 C-4.68527344 2.01779297 -4.68527344 2.01779297 -3.7265625 1.20703125 C-2 0 -2 0 0 0 Z " fill="#B8B8B8" transform="translate(319,192)"/>
<path d="M0 0 C0.66 0.33 1.32 0.66 2 1 C-1.3 4.3 -4.6 7.6 -8 11 C-8 6.67750434 -5.85084926 5.11604454 -3 2 C-2.01 1.34 -1.02 0.68 0 0 Z " fill="#CFCFCF" transform="translate(33,28)"/>
<path d="M0 0 C0.33 0 0.66 0 1 0 C1 3.3 1 6.6 1 10 C0.01 9.67 -0.98 9.34 -2 9 C-2.6875 6.9375 -2.6875 6.9375 -3 5 C-2.34 5 -1.68 5 -1 5 C-0.67 3.35 -0.34 1.7 0 0 Z " fill="#9E9E9E" transform="translate(254,184)"/>
<path d="M0 0 C0.556875 0.268125 1.11375 0.53625 1.6875 0.8125 C0.90375 1.26625 0.12 1.72 -0.6875 2.1875 C-3.34948031 3.69678742 -3.34948031 3.69678742 -5.3125 5.8125 C-5.71297444 8.13525177 -6.0522104 10.46989357 -6.3125 12.8125 C-6.6425 12.8125 -6.9725 12.8125 -7.3125 12.8125 C-7.92035141 5.63985331 -7.92035141 5.63985331 -5.0625 1.75 C-2.3125 -0.1875 -2.3125 -0.1875 0 0 Z " fill="#D4D4D4" transform="translate(160.3125,102.1875)"/>
<path d="M0 0 C0.66 0.33 1.32 0.66 2 1 C-0.97 3.97 -3.94 6.94 -7 10 C-7 6.04435836 -5.59478606 4.89133304 -3 2 C-2.01 1.34 -1.02 0.68 0 0 Z " fill="#D0D0D0" transform="translate(211,42)"/>
<path d="M0 0 C0.33 0 0.66 0 1 0 C1 3.96 1 7.92 1 12 C-2 8 -2 8 -1.75 4.3125 C-1 1 -1 1 0 0 Z " fill="#A1A1A1" transform="translate(311,185)"/>
<path d="M0 0 C-1.44077046 3.36179774 -3.24750021 5.59156268 -6 8 C-6.66 8 -7.32 8 -8 8 C-6.48291727 4.46014029 -4.24676932 0 0 0 Z " fill="#D6D6D6" transform="translate(138,158)"/>
<path d="M0 0 C0.99 0 1.98 0 3 0 C2.67 2.64 2.34 5.28 2 8 C1.34 8 0.68 8 0 8 C0 5.36 0 2.72 0 0 Z " fill="#A9A9A9" transform="translate(383,193)"/>
<path d="M0 0 C-1.39332574 3.36720387 -2.9789286 4.9859524 -6 7 C-5.37162381 3.35541809 -4.14650034 0 0 0 Z " fill="#B7B7B7" transform="translate(226,176)"/>
<path d="M0 0 C0.1875 2.875 0.1875 2.875 0 6 C-0.99 6.66 -1.98 7.32 -3 8 C-3 6.35 -3 4.7 -3 3 C-3.66 2.67 -4.32 2.34 -5 2 C-1.125 0 -1.125 0 0 0 Z " fill="#DEDEDE" transform="translate(43,109)"/>
</svg>
