<svg xmlns="http://www.w3.org/2000/svg" xmlns:v="https://svgstorm.com"
viewBox = "0 0 1204 289"
width="1204"
height="289">
<g fill="#000000" fill-opacity="0.00" stroke="None"><path d="
M 0.00 289.00 
L 40.00 289.00
C 29.95 288.23 23.40 284.18 12.78 283.22 C 2.15 282.27 1.23 272.69 4.33 263.33 C 7.43 253.96 5.43 246.04 7.00 237.00 C 8.57 227.96 9.69 219.52 10.00 210.00
C 25.61 207.23 39.53 215.37 55.22 217.78 C 70.91 220.19 92.91 221.43 108.07 216.07 C 123.23 210.72 132.75 193.46 129.67 178.33 C 126.59 163.20 111.34 157.43 99.75 149.25 C 88.17 141.07 73.95 135.16 61.77 128.23 C 49.59 121.30 36.91 113.34 27.00 103.00
C 20.09 86.63 22.82 64.69 36.25 52.25 C 49.68 39.81 63.87 31.88 82.07 26.07 C 100.28 20.27 120.75 15.21 139.00 15.00
C 139.36 15.22 140.00 15.00 140.00 15.00
C 141.90 10.83 152.26 13.25 155.00 13.00
C 159.26 12.24 161.88 11.77 166.00 12.00
C 171.12 11.75 177.44 11.74 182.00 12.00
C 196.84 10.82 212.85 10.93 227.00 16.00
C 231.50 14.79 231.84 9.71 233.00 6.00
C 260.52 1.48 290.09 3.09 318.00 0.00
L 0.00 0.00
L 0.00 289.00 Z"/>
</g>
<g fill="#E9E9E9" fill-opacity="0.17" stroke="None"><path d="
M 182.00 12.00 
C 176.84 12.41 171.17 12.29 166.00 12.00
C 161.88 11.77 159.26 12.24 155.00 13.00
C 153.72 13.23 151.78 13.86 151.00 14.00
C 152.33 14.00 153.67 14.00 155.00 14.00
C 169.74 14.00 191.29 10.14 205.00 15.00
C 205.44 15.16 206.00 15.00 206.00 15.00
C 207.27 14.06 216.71 12.79 214.00 16.00
C 215.64 16.00 217.37 15.84 219.00 16.00
C 221.58 16.26 224.06 17.18 227.00 17.00
C 227.50 16.97 228.54 16.86 229.00 17.00
C 231.69 17.81 232.85 16.64 234.00 14.00
C 235.38 6.58 237.61 7.00 245.00 7.00
C 247.10 6.80 250.23 6.00 253.00 6.00
C 274.75 6.00 295.95 2.90 318.00 4.00
C 316.49 33.72 307.71 64.44 304.00 95.00
C 330.64 78.92 354.63 56.26 382.00 41.00
C 385.98 37.95 388.59 35.35 393.00 33.00
C 393.53 32.64 393.67 31.46 394.00 31.00
C 397.73 25.78 405.39 24.26 410.08 20.08 C 414.78 15.91 421.63 12.48 426.00 11.00
C 430.86 8.08 433.93 5.62 440.00 6.00
C 440.50 6.03 441.50 6.00 442.00 6.00
C 444.58 4.78 445.74 5.77 448.00 6.00
C 464.69 7.69 480.96 8.66 498.00 9.00
C 500.63 9.05 503.04 8.56 505.00 10.00
C 505.30 10.22 505.77 10.95 506.00 11.00
C 520.70 11.59 534.63 14.00 549.00 14.00
C 551.02 13.68 552.24 11.65 556.00 14.00
C 556.32 14.20 556.77 14.95 557.00 15.00
C 572.56 15.44 587.65 17.67 603.00 19.00
C 602.05 31.59 598.21 43.46 597.00 56.00
C 596.96 58.46 597.51 61.18 596.00 64.00
C 595.82 64.33 595.16 64.73 595.00 65.00
C 590.42 72.49 592.93 85.11 590.00 95.00 C 587.07 104.89 587.56 116.79 585.22 127.22 C 582.89 137.65 581.72 149.19 580.00 160.00 C 578.28 170.81 577.76 182.24 576.22 193.22 C 574.68 204.20 572.78 215.80 572.00 227.00
C 571.89 228.65 572.03 230.34 572.00 232.00
C 571.95 234.60 570.02 238.80 571.00 236.00
C 570.15 239.88 570.00 244.48 570.00 249.00
C 570.00 252.06 570.02 254.59 569.00 257.00
C 569.00 257.50 568.98 258.50 569.00 259.00
C 569.11 261.91 568.47 264.23 568.00 267.00
C 567.97 271.65 569.39 274.21 563.00 274.00 C 556.61 273.79 555.17 273.70 550.00 273.00
C 548.67 273.00 547.33 272.99 546.00 273.00
C 543.54 273.01 540.73 272.17 539.00 272.00
C 537.00 271.97 535.00 272.00 533.00 272.00
C 530.22 272.27 526.49 273.24 523.00 273.00
C 512.37 272.28 499.59 272.13 489.00 271.00 C 478.41 269.87 464.16 271.02 454.00 270.00 C 443.84 268.98 430.40 271.76 423.75 264.25 C 417.11 256.73 413.90 250.08 409.00 242.00
C 408.13 240.97 406.86 240.09 406.00 239.00
C 403.59 236.54 401.87 234.84 400.00 232.00
C 397.94 229.55 395.78 227.76 394.00 225.00
C 392.43 222.56 390.75 220.28 389.00 218.00
C 388.76 217.68 389.00 217.00 389.00 217.00
C 387.17 215.25 385.49 213.17 384.00 211.00
C 380.09 206.77 376.93 201.85 375.00 198.00
C 372.56 195.17 371.07 192.01 369.00 189.00
C 362.03 178.84 352.30 170.39 346.08 159.92 C 339.86 149.45 328.32 141.87 323.00 131.00
C 320.27 128.27 313.81 122.81 312.23 119.77 C 310.65 116.73 303.56 107.95 301.00 111.00
C 300.16 113.07 301.00 115.82 300.00 118.00
C 299.90 120.70 299.87 122.17 299.00 125.00
C 298.52 131.77 297.64 139.40 296.00 146.00
C 295.94 147.73 295.26 147.99 295.00 149.00
C 294.83 150.98 295.04 153.02 295.00 155.00
C 294.94 157.51 294.77 159.08 294.00 161.00
C 294.00 161.50 294.05 162.50 294.00 163.00
C 293.87 164.37 293.35 165.63 293.00 167.00
C 292.94 168.38 293.42 170.30 293.00 172.00
C 292.44 174.28 291.86 176.79 291.00 179.00
C 290.15 185.37 289.69 191.80 289.00 198.00
C 287.21 214.01 282.93 231.12 283.00 247.00
C 283.11 249.52 284.18 251.21 283.00 254.00
C 283.00 254.50 283.15 255.55 283.00 256.00
C 281.90 259.18 281.77 262.49 282.00 266.00
C 266.72 265.23 252.21 267.49 237.00 267.00
C 234.33 267.00 231.67 267.00 229.00 267.00
C 226.25 267.27 222.42 268.00 219.00 268.00
C 216.67 268.00 214.33 268.00 212.00 268.00
C 208.40 268.34 203.31 269.82 199.00 269.00
C 198.41 257.94 201.85 247.90 202.00 237.00
C 192.41 243.63 184.19 253.95 175.00 261.00
C 169.55 266.56 162.12 269.39 156.00 271.00
C 152.29 272.73 148.79 273.74 145.00 275.00
C 135.15 278.28 124.07 281.38 113.00 283.00
C 106.86 285.32 101.62 286.59 94.00 286.00
C 83.67 285.21 72.74 287.95 62.00 287.00
C 56.82 287.50 52.81 286.93 48.00 286.00
C 41.29 286.00 31.21 284.82 25.32 282.68 C 19.43 280.53 6.71 282.36 6.01 274.99 C 5.31 267.62 9.35 259.58 9.00 252.00 C 8.65 244.42 11.60 235.28 12.00 228.00 C 12.40 220.71 11.23 209.17 19.67 212.33 C 28.12 215.49 32.76 215.48 41.00 218.00
C 43.73 218.25 44.53 218.33 47.00 219.00
C 49.29 219.27 51.71 219.49 54.00 220.00
C 58.84 221.07 62.71 221.89 68.00 222.00
C 70.63 222.05 73.05 221.56 75.00 223.00
C 75.50 223.00 76.00 223.00 76.00 223.00
C 96.04 223.00 117.43 221.52 127.92 202.92 C 138.42 184.33 132.66 165.54 114.00 156.00
C 110.45 154.19 106.54 151.94 104.00 149.00
C 103.29 148.17 102.78 147.68 102.00 147.00
C 99.40 145.49 96.60 144.63 94.00 143.00
C 89.44 140.87 76.08 136.83 74.00 132.00
C 73.82 131.58 74.00 131.00 74.00 131.00
C 73.01 130.62 72.00 130.58 71.00 130.00
C 68.22 129.29 65.32 127.21 64.00 126.00
C 49.43 117.88 33.49 108.83 28.00 92.00
C 27.62 90.84 27.28 89.57 27.00 88.00
C 26.04 82.60 25.79 78.44 28.00 73.00
C 29.02 69.63 29.47 66.28 31.00 63.00
C 33.14 58.43 39.83 48.78 45.00 47.00
C 45.45 46.85 46.64 47.22 47.00 47.00
C 54.12 39.59 66.33 34.79 76.00 32.00
C 77.23 31.45 78.53 30.55 80.00 30.00
C 94.20 24.70 110.86 19.49 126.00 18.00
C 127.65 17.84 129.35 18.18 131.00 18.00
C 133.32 17.52 136.10 17.12 139.00 17.00
C 139.04 17.00 139.00 16.00 139.00 16.00
C 139.00 15.50 139.00 15.00 139.00 15.00
C 120.75 15.21 100.28 20.27 82.07 26.07 C 63.87 31.88 49.68 39.81 36.25 52.25 C 22.82 64.69 20.09 86.63 27.00 103.00
C 36.91 113.34 49.59 121.30 61.77 128.23 C 73.95 135.16 88.17 141.07 99.75 149.25 C 111.34 157.43 126.59 163.20 129.67 178.33 C 132.75 193.46 123.23 210.72 108.07 216.07 C 92.91 221.43 70.91 220.19 55.22 217.78 C 39.53 215.37 25.61 207.23 10.00 210.00
C 9.69 219.52 8.57 227.96 7.00 237.00 C 5.43 246.04 7.43 253.96 4.33 263.33 C 1.23 272.69 2.15 282.27 12.78 283.22 C 23.40 284.18 29.95 288.23 40.00 289.00
L 96.00 289.00
C 133.47 284.66 170.96 274.03 198.00 245.00
C 198.75 253.93 193.48 262.81 196.00 272.00
C 225.25 270.45 253.64 268.83 283.00 269.00
C 289.31 243.72 288.89 216.80 293.00 191.00 C 297.11 165.20 300.79 139.13 303.00 114.00
C 347.58 162.30 386.15 218.82 425.00 271.00
C 436.76 271.23 446.04 272.78 457.25 272.80 C 468.45 272.83 480.02 273.01 492.23 274.21 C 504.44 275.41 516.84 274.11 529.22 274.22 C 541.60 274.34 551.17 275.88 563.08 276.07 C 574.99 276.25 572.73 255.23 573.99 243.99 C 575.25 232.75 576.00 218.76 577.79 207.77 C 579.57 196.78 579.16 183.86 581.33 172.33 C 583.50 160.80 584.86 148.09 587.00 136.00 C 589.14 123.91 589.94 113.58 591.99 100.99 C 594.05 88.40 595.81 78.01 598.98 64.98 C 602.14 51.95 599.76 42.96 604.78 28.78 C 609.79 14.60 591.53 13.70 580.25 13.41 C 568.98 13.11 558.73 11.66 546.33 10.67 C 533.93 9.68 521.65 8.06 510.00 8.00 C 498.35 7.94 488.97 5.61 476.75 5.20 C 464.54 4.78 452.54 3.82 440.99 3.01 C 429.45 2.19 421.09 10.86 411.30 16.30 C 401.52 21.75 394.76 29.05 385.70 34.70 C 376.64 40.35 367.00 45.69 358.30 52.30 C 349.60 58.91 341.91 64.79 332.92 70.92 C 323.93 77.04 315.45 84.43 307.00 90.00
C 312.98 61.10 319.05 30.43 322.00 1.00
C 321.00 0.89 319.27 1.47 319.00 0.00
L 318.00 0.00
C 290.09 3.09 260.52 1.48 233.00 6.00
C 231.84 9.71 231.50 14.79 227.00 16.00
C 212.85 10.93 196.84 10.82 182.00 12.00 Z"/>
</g>
<g fill="#000000" fill-opacity="0.00" stroke="None"><path d="
M 96.00 289.00 
L 1204.00 289.00
L 1204.00 177.00
C 1197.34 204.08 1175.61 217.25 1151.26 228.26 C 1126.90 239.26 1094.70 244.11 1069.00 246.00
C 1064.63 246.32 1061.24 247.24 1057.00 247.00
C 1030.07 248.34 999.26 258.08 971.92 259.07 C 944.58 260.06 919.97 268.52 891.78 269.78 C 863.59 271.04 836.79 274.36 808.00 275.00 C 779.21 275.64 751.28 279.58 722.00 277.00
C 719.25 277.02 715.95 279.19 713.00 277.00
C 712.50 277.00 712.00 277.00 712.00 277.00
C 708.76 281.02 700.58 277.45 695.92 278.07 C 691.27 278.69 682.23 280.44 678.00 277.00
C 677.50 277.00 677.00 277.00 677.00 277.00
C 674.87 280.96 661.98 278.04 657.26 278.60 C 652.53 279.16 641.84 279.06 637.00 277.00
C 636.50 277.00 635.50 277.00 635.00 277.00
C 631.98 278.28 629.60 277.02 627.00 277.00
C 614.08 278.14 603.24 278.41 589.00 277.00 C 574.76 275.59 584.52 255.91 584.00 244.00 C 583.48 232.09 587.10 217.46 587.78 205.78 C 588.46 194.10 590.68 181.71 592.59 170.25 C 594.51 158.80 593.80 147.23 596.33 135.33 C 598.86 123.43 599.79 109.83 601.99 96.99 C 604.19 84.16 606.50 70.91 608.93 57.93 C 611.35 44.95 611.75 30.58 616.00 18.00
C 625.69 18.93 639.25 20.23 649.00 21.00 C 658.75 21.77 672.17 24.14 681.03 24.98 C 689.88 25.81 707.14 23.29 705.01 35.01 C 702.88 46.73 701.02 57.88 699.22 69.22 C 697.42 80.56 696.00 90.65 694.02 101.02 C 692.05 111.40 692.01 119.70 690.00 131.00 C 688.00 142.31 686.21 153.02 685.00 164.00 C 683.79 174.99 682.07 183.52 681.22 194.22 C 680.37 204.93 678.16 215.83 678.00 226.00
C 717.33 228.37 758.45 229.04 796.00 228.00
C 797.02 198.81 800.55 170.20 806.00 142.00
C 806.06 141.51 806.00 141.00 806.00 141.00
C 801.15 134.78 809.71 124.81 808.93 116.93 C 808.15 109.04 811.35 99.74 811.98 91.97 C 812.61 84.21 814.92 75.69 815.80 67.75 C 816.68 59.81 818.65 50.47 819.60 42.26 C 820.54 34.04 834.37 37.60 842.00 38.00 C 849.63 38.40 859.53 38.65 867.68 38.34 C 875.83 38.03 883.03 40.19 891.07 39.07 C 899.12 37.95 912.89 36.99 911.00 47.00 C 909.12 57.01 908.30 61.72 907.07 71.07 C 905.85 80.42 903.95 90.29 903.01 99.01 C 902.07 107.72 900.75 113.80 900.02 122.02 C 899.29 130.24 896.96 140.02 896.67 148.67 C 896.38 157.32 893.80 164.65 893.07 173.07 C 892.35 181.49 891.64 189.76 891.00 199.00 C 890.36 208.24 888.15 216.29 889.00 225.00
C 919.95 224.23 948.89 219.33 980.00 218.00
C 979.83 206.15 980.69 195.38 992.23 198.79 C 1003.77 202.19 1015.55 202.37 1026.67 204.33 C 1037.79 206.29 1044.86 205.08 1055.25 206.20 C 1065.63 207.31 1079.79 203.01 1089.22 200.22 C 1098.66 197.44 1107.58 190.32 1106.02 179.97 C 1104.46 169.63 1092.98 167.60 1084.00 164.00 C 1075.02 160.40 1064.24 156.44 1054.93 153.07 C 1045.62 149.71 1035.63 145.31 1026.75 141.25 C 1017.88 137.18 1009.78 132.23 1002.25 125.75 C 994.73 119.26 990.78 110.94 990.01 100.99 C 989.24 91.05 992.01 80.82 996.92 71.92 C 1001.84 63.03 1008.95 58.18 1016.25 51.25 C 1023.54 44.31 1032.03 40.12 1040.68 35.68 C 1049.33 31.23 1060.11 28.89 1069.67 25.67 C 1079.23 22.45 1089.08 18.59 1099.08 17.08 C 1109.08 15.56 1119.90 14.28 1131.07 13.07 C 1142.24 11.87 1151.63 10.65 1164.00 10.00 C 1176.37 9.35 1191.39 10.49 1204.00 10.00
L 1204.00 0.00
L 319.00 0.00
C 319.27 1.47 321.00 0.89 322.00 1.00
C 319.05 30.43 312.98 61.10 307.00 90.00
C 315.45 84.43 323.93 77.04 332.92 70.92 C 341.91 64.79 349.60 58.91 358.30 52.30 C 367.00 45.69 376.64 40.35 385.70 34.70 C 394.76 29.05 401.52 21.75 411.30 16.30 C 421.09 10.86 429.45 2.19 440.99 3.01 C 452.54 3.82 464.54 4.78 476.75 5.20 C 488.97 5.61 498.35 7.94 510.00 8.00 C 521.65 8.06 533.93 9.68 546.33 10.67 C 558.73 11.66 568.98 13.11 580.25 13.41 C 591.53 13.70 609.79 14.60 604.78 28.78 C 599.76 42.96 602.14 51.95 598.98 64.98 C 595.81 78.01 594.05 88.40 591.99 100.99 C 589.94 113.58 589.14 123.91 587.00 136.00 C 584.86 148.09 583.50 160.80 581.33 172.33 C 579.16 183.86 579.57 196.78 577.79 207.77 C 576.00 218.76 575.25 232.75 573.99 243.99 C 572.73 255.23 574.99 276.25 563.08 276.07 C 551.17 275.88 541.60 274.34 529.22 274.22 C 516.84 274.11 504.44 275.41 492.23 274.21 C 480.02 273.01 468.45 272.83 457.25 272.80 C 446.04 272.78 436.76 271.23 425.00 271.00
C 386.15 218.82 347.58 162.30 303.00 114.00
C 300.79 139.13 297.11 165.20 293.00 191.00 C 288.89 216.80 289.31 243.72 283.00 269.00
C 253.64 268.83 225.25 270.45 196.00 272.00
C 193.48 262.81 198.75 253.93 198.00 245.00
C 170.96 274.03 133.47 284.66 96.00 289.00 Z"/>
</g>
<g fill="#818181" fill-opacity="1.00" stroke="None"><path d="
M 253.00 6.00 
C 250.90 6.20 247.77 7.00 245.00 7.00
C 237.61 7.00 235.38 6.58 234.00 14.00
C 232.11 24.19 230.27 34.75 229.00 45.00
C 228.69 47.49 229.79 51.68 227.00 53.00
C 224.13 58.02 225.90 66.67 224.22 72.22 C 222.54 77.77 221.61 83.35 221.00 89.00
C 220.93 90.52 221.58 92.10 221.00 94.00
C 220.12 99.23 219.03 105.00 218.00 111.00
C 218.19 122.08 217.30 134.75 214.00 146.00
C 209.90 145.85 205.75 138.83 206.00 136.00
C 199.16 127.12 190.82 119.30 181.00 114.00
C 178.33 112.56 176.28 110.58 174.00 109.00
C 168.43 105.14 162.85 103.06 157.00 101.00
C 151.58 99.09 145.67 95.43 140.32 93.68 C 134.98 91.93 129.48 86.77 124.31 85.69 C 119.13 84.62 113.76 73.50 116.00 75.00
C 110.10 64.68 121.04 56.09 130.08 52.08 C 139.11 48.06 152.60 46.79 164.00 47.00 C 175.40 47.21 188.93 48.55 200.00 51.00
C 206.34 51.36 214.25 52.10 221.00 55.00
C 222.38 49.10 223.32 42.45 225.00 37.00
C 226.40 32.21 228.16 28.02 229.00 23.00
C 229.08 21.01 227.75 19.33 227.00 17.00
C 224.06 17.18 221.58 16.26 219.00 16.00
C 216.87 15.95 215.53 17.44 213.00 16.00
C 212.25 15.86 211.77 15.20 211.00 15.00
C 209.08 15.09 207.04 15.38 205.00 15.00
C 191.29 10.14 169.74 14.00 155.00 14.00
C 151.71 14.40 147.89 15.87 144.00 16.00
C 142.66 16.26 140.92 16.92 139.00 17.00
C 136.10 17.12 133.32 17.52 131.00 18.00
C 129.31 18.35 127.34 17.99 126.00 18.00
C 110.86 19.49 94.20 24.70 80.00 30.00
C 78.33 30.92 78.16 31.37 76.00 32.00
C 66.33 34.79 54.12 39.59 47.00 47.00
C 39.14 55.18 32.03 63.09 28.00 73.00
C 25.79 78.44 26.04 82.60 27.00 88.00
C 25.91 84.88 27.63 90.05 28.00 92.00
C 33.49 108.83 49.43 117.88 64.00 126.00
C 65.71 126.95 67.19 127.41 69.00 128.00
C 82.11 132.28 98.50 141.60 107.00 150.00
C 109.49 151.47 111.68 154.43 114.00 156.00
C 132.66 165.54 138.42 184.33 127.92 202.92 C 117.43 221.52 96.04 223.00 76.00 223.00
C 73.74 223.22 70.31 225.39 68.00 223.00
C 67.75 222.74 68.00 222.00 68.00 222.00
C 62.71 221.89 58.84 221.07 54.00 220.00
C 51.72 219.75 47.69 219.55 45.00 219.00
C 43.07 219.06 42.30 218.40 41.00 218.00
C 32.76 215.48 28.12 215.49 19.67 212.33 C 11.23 209.17 12.40 220.71 12.00 228.00 C 11.60 235.28 8.65 244.42 9.00 252.00 C 9.35 259.58 5.31 267.62 6.01 274.99 C 6.71 282.36 19.43 280.53 25.32 282.68 C 31.21 284.82 41.29 286.00 48.00 286.00
C 49.33 286.00 50.67 286.00 52.00 286.00
C 66.88 283.97 84.57 284.00 100.00 284.00
C 104.60 284.00 108.61 283.64 113.00 283.00
C 124.07 281.38 135.15 278.28 145.00 275.00
C 149.23 272.62 153.99 269.22 159.07 268.07 C 164.16 266.93 167.99 261.86 173.00 261.00
C 173.49 260.92 174.70 261.24 175.00 261.00
C 184.19 253.95 192.41 243.63 202.00 237.00
C 201.85 247.90 198.41 257.94 199.00 269.00
C 203.31 269.82 208.40 268.34 212.00 268.00
C 209.00 268.00 206.00 268.00 203.00 268.00
C 207.42 265.75 213.82 267.61 219.00 267.00
C 219.50 267.00 220.00 267.00 220.00 267.00
C 224.01 264.04 232.89 266.60 237.00 267.00
C 252.21 267.49 266.72 265.23 282.00 266.00
C 281.77 262.49 281.90 259.18 283.00 256.00
C 283.04 254.22 282.49 252.07 283.00 250.00
C 283.00 249.00 283.00 248.00 283.00 247.00
C 282.93 231.12 287.21 214.01 289.00 198.00
C 288.48 191.18 288.48 185.49 291.00 179.00
C 291.86 176.79 292.44 174.28 293.00 172.00
C 293.10 170.10 292.53 168.85 293.00 167.00
C 293.35 165.63 293.87 164.37 294.00 163.00
C 294.02 162.30 291.40 153.27 294.00 155.00
C 294.35 155.23 295.00 155.00 295.00 155.00
C 295.04 153.02 294.83 150.98 295.00 149.00
C 295.12 147.60 295.79 146.86 296.00 146.00
C 297.64 139.40 298.52 131.77 299.00 125.00
C 299.14 123.02 299.00 120.98 299.00 119.00
C 299.00 113.82 300.57 103.64 305.75 109.25 C 310.93 114.86 312.37 115.14 316.00 121.00
C 316.69 122.11 317.13 123.78 318.00 125.00
C 319.52 126.80 321.90 127.75 323.00 130.00
C 323.20 130.40 323.00 131.00 323.00 131.00
C 328.32 141.87 339.86 149.45 346.08 159.92 C 352.30 170.39 362.03 178.84 369.00 189.00
C 373.80 194.20 379.48 199.75 383.00 206.00
C 384.86 209.30 386.71 214.01 389.00 217.00
C 397.38 220.50 404.69 234.89 409.00 242.00
C 413.90 250.08 417.11 256.73 423.75 264.25 C 430.40 271.76 443.84 268.98 454.00 270.00 C 464.16 271.02 478.41 269.87 489.00 271.00 C 499.59 272.13 512.37 272.28 523.00 273.00
C 523.22 272.96 523.70 272.22 524.00 272.00
C 528.24 268.87 538.52 271.41 544.00 271.00 C 549.48 270.59 557.91 273.20 563.00 273.00
C 568.28 272.28 567.17 271.92 568.00 267.00
C 568.47 264.23 569.11 261.91 569.00 259.00
C 568.90 256.65 568.37 254.53 569.00 252.00
C 569.11 250.65 569.82 249.80 570.00 249.00
C 570.00 244.48 570.15 239.88 571.00 236.00
C 571.05 235.77 571.13 233.08 571.00 233.00
C 570.58 231.09 571.01 231.65 570.00 229.00 C 569.00 226.34 572.10 226.76 572.00 227.00
C 572.78 215.80 574.68 204.20 576.22 193.22 C 577.76 182.24 578.28 170.81 580.00 160.00 C 581.72 149.19 582.89 137.65 585.22 127.22 C 587.56 116.79 587.07 104.89 590.00 95.00 C 592.93 85.11 590.42 72.49 595.00 65.00
C 594.91 61.99 593.70 61.02 596.00 58.00
C 596.15 57.20 596.85 56.85 597.00 56.00
C 598.21 43.46 602.05 31.59 603.00 19.00
C 587.65 17.67 572.56 15.44 557.00 15.00
C 554.49 14.93 552.93 14.77 551.00 14.00
C 550.50 14.00 549.50 14.00 549.00 14.00
C 534.63 14.00 520.70 11.59 506.00 11.00
C 503.94 10.92 502.46 10.36 501.00 10.00
C 499.62 9.90 498.81 9.18 498.00 9.00
C 480.96 8.66 464.69 7.69 448.00 6.00
C 445.64 6.18 442.30 6.18 440.00 6.00
C 433.93 5.62 430.86 8.08 426.00 11.00
C 424.62 11.83 423.27 12.30 422.00 13.00
C 417.99 15.79 414.31 19.32 410.00 22.00
C 409.64 22.22 409.00 22.00 409.00 22.00
C 408.10 23.76 406.97 24.83 405.00 25.00
C 404.50 25.04 404.00 25.00 404.00 25.00
C 399.16 31.93 389.16 37.26 382.00 41.00
C 354.63 56.26 330.64 78.92 304.00 95.00
C 307.71 64.44 316.49 33.72 318.00 4.00
C 295.95 2.90 274.75 6.00 253.00 6.00
M 513.00 44.00 
C 512.87 45.32 513.17 46.69 513.00 48.00
C 512.83 49.26 512.42 49.83 512.00 51.00
C 511.87 52.42 513.83 53.12 512.00 55.00
C 512.05 55.50 512.00 56.00 512.00 56.00
C 512.00 60.52 511.82 64.34 510.00 68.00
C 509.68 68.64 508.16 70.38 508.00 71.00
C 506.54 97.87 501.02 126.52 496.00 153.00
C 495.81 157.11 495.11 161.65 494.00 166.00
C 492.79 178.55 490.08 191.39 489.00 204.00
C 488.87 205.55 489.42 207.51 489.00 209.00
C 489.74 215.95 488.56 228.39 481.75 221.25 C 474.95 214.10 474.19 210.61 468.70 204.30 C 463.20 198.00 460.35 193.39 455.75 187.25 C 451.14 181.12 447.60 175.96 442.70 170.30 C 437.80 164.65 433.52 159.24 430.00 153.00
C 420.58 136.28 404.99 123.33 395.00 107.00
C 419.14 85.99 446.94 70.87 472.00 52.00
C 477.07 47.08 485.15 40.47 491.70 37.70 C 498.24 34.93 505.88 23.92 513.00 24.00
C 514.33 24.01 515.67 23.99 517.00 24.00
C 516.68 30.92 513.47 37.08 513.00 44.00 Z"/>
</g>
<g fill="#CFCFCF" fill-opacity="0.37" stroke="None"><path d="
M 442.00 6.00 
C 444.00 6.00 446.00 6.00 448.00 6.00
C 445.74 5.77 444.58 4.78 442.00 6.00 Z"/>
</g>
<g fill="#B6B6B6" fill-opacity="0.57" stroke="None"><path d="
M 245.00 7.00 
C 247.77 7.00 250.90 6.20 253.00 6.00
C 250.23 6.00 247.10 6.80 245.00 7.00 Z"/>
</g>
<g fill="#9C9C9C" fill-opacity="0.77" stroke="None"><path d="
M 448.00 6.00 
C 446.00 6.00 444.00 6.00 442.00 6.00
C 441.50 6.00 440.50 6.03 440.00 6.00
C 442.30 6.18 445.64 6.18 448.00 6.00 Z"/>
</g>
<g fill="#CCCCCC" fill-opacity="0.40" stroke="None"><path d="
M 501.00 10.00 
C 502.20 10.09 503.86 9.65 505.00 10.00
C 503.04 8.56 500.63 9.05 498.00 9.00
C 498.81 9.18 499.62 9.90 501.00 10.00 Z"/>
</g>
<g fill="#FFFFFF" fill-opacity="0.02" stroke="None"><path d="
M 166.00 12.00 
C 171.17 12.29 176.84 12.41 182.00 12.00
C 177.44 11.74 171.12 11.75 166.00 12.00 Z"/>
</g>
<g fill="#D1D1D1" fill-opacity="0.35" stroke="None"><path d="
M 394.00 31.00 
C 395.86 29.29 398.89 28.37 401.00 27.00
C 402.01 26.35 402.89 25.41 404.00 25.00
C 404.00 25.00 404.50 25.04 405.00 25.00
C 406.04 23.58 407.22 22.48 409.00 22.00
C 409.00 22.00 409.64 22.22 410.00 22.00
C 412.44 18.25 418.13 15.13 422.00 13.00
C 423.27 12.30 424.62 11.83 426.00 11.00
C 421.63 12.48 414.78 15.91 410.08 20.08 C 405.39 24.26 397.73 25.78 394.00 31.00 Z"/>
</g>
<g fill="#A2A2A2" fill-opacity="0.72" stroke="None"><path d="
M 506.00 11.00 
C 505.77 10.95 505.30 10.22 505.00 10.00
C 503.86 9.65 502.20 10.09 501.00 10.00
C 502.46 10.36 503.94 10.92 506.00 11.00 Z"/>
</g>
<g fill="#EBEBEB" fill-opacity="0.16" stroke="None"><path d="
M 806.00 141.00 
C 806.72 140.02 808.89 134.36 809.00 134.00
C 809.20 130.55 809.86 127.58 810.00 124.00
C 810.16 119.74 810.91 117.39 812.00 114.00
C 812.11 106.98 814.50 100.07 815.00 93.00
C 815.14 91.00 815.65 89.43 816.00 88.00
C 816.11 86.64 816.82 85.81 817.00 85.00
C 817.53 71.02 821.00 65.69 821.00 51.00 C 821.00 36.31 835.50 41.00 847.00 41.00
C 853.05 41.00 859.70 41.49 865.00 42.00
C 873.08 42.00 882.00 41.56 890.00 42.00 C 898.00 42.44 907.55 38.75 908.00 47.00
C 908.21 50.79 908.25 52.42 907.00 56.00
C 906.93 56.01 907.11 57.53 907.00 58.00
C 905.65 63.80 905.33 69.71 904.00 76.00
C 903.68 77.51 903.44 78.54 903.00 80.00
C 899.67 91.09 898.58 105.58 897.00 117.00
C 896.93 117.49 897.00 118.50 897.00 119.00
C 897.86 118.37 897.86 117.35 899.00 117.00
C 898.69 119.99 898.55 123.71 897.00 126.00
C 896.81 127.20 896.23 127.85 896.00 129.00
C 893.76 140.08 893.40 151.71 892.00 163.00
C 891.67 165.63 890.31 168.86 890.00 171.00
C 889.64 180.35 888.26 188.77 888.00 198.00
C 887.93 200.51 887.77 202.07 887.00 204.00
C 887.00 204.50 886.97 205.50 887.00 206.00
C 887.44 212.99 884.91 219.79 886.00 227.00
C 894.82 227.23 903.48 226.97 912.00 226.00
C 915.48 225.50 919.89 225.16 924.00 225.00
C 929.44 224.79 934.39 224.00 940.00 224.00
C 944.99 223.40 950.22 222.00 956.00 222.00
C 956.50 222.00 957.00 222.00 957.00 222.00
C 959.22 220.36 963.06 221.00 966.00 221.00
C 971.61 221.00 976.53 220.42 982.00 220.00
C 984.50 213.74 984.27 206.74 985.00 200.00
C 995.47 201.33 1005.57 204.16 1016.00 206.00
C 1017.62 206.16 1019.40 205.70 1021.00 206.00
C 1022.07 206.20 1022.79 206.84 1024.00 207.00
C 1025.28 207.17 1026.71 207.00 1028.00 207.00
C 1033.04 206.29 1038.91 207.51 1044.00 208.00
C 1065.96 208.00 1085.53 211.43 1103.25 195.25 C 1120.97 179.07 1096.18 162.60 1078.93 159.07 C 1061.68 155.54 1042.60 143.97 1025.98 138.03 C 1009.35 132.08 991.92 115.30 993.01 96.99 C 994.10 78.69 1004.89 60.70 1021.00 51.00
C 1022.34 49.98 1023.50 48.99 1025.00 48.00
C 1026.03 47.32 1026.27 46.86 1027.00 46.00
C 1028.89 43.77 1031.12 42.68 1034.00 42.00
C 1034.47 41.89 1035.00 42.00 1035.00 42.00
C 1036.54 41.19 1037.79 39.93 1039.00 39.00
C 1041.86 36.81 1043.24 36.67 1047.00 36.00
C 1047.32 35.80 1047.76 35.26 1048.00 35.00
C 1050.29 32.52 1053.16 33.42 1055.00 33.00
C 1074.21 22.07 1102.38 19.30 1124.00 16.00
C 1129.58 15.15 1135.54 14.43 1141.00 14.00
C 1160.38 10.26 1184.31 9.09 1204.00 13.00
L 1204.00 10.00
C 1191.39 10.49 1176.37 9.35 1164.00 10.00 C 1151.63 10.65 1142.24 11.87 1131.07 13.07 C 1119.90 14.28 1109.08 15.56 1099.08 17.08 C 1089.08 18.59 1079.23 22.45 1069.67 25.67 C 1060.11 28.89 1049.33 31.23 1040.68 35.68 C 1032.03 40.12 1023.54 44.31 1016.25 51.25 C 1008.95 58.18 1001.84 63.03 996.92 71.92 C 992.01 80.82 989.24 91.05 990.01 100.99 C 990.78 110.94 994.73 119.26 1002.25 125.75 C 1009.78 132.23 1017.88 137.18 1026.75 141.25 C 1035.63 145.31 1045.62 149.71 1054.93 153.07 C 1064.24 156.44 1075.02 160.40 1084.00 164.00 C 1092.98 167.60 1104.46 169.63 1106.02 179.97 C 1107.58 190.32 1098.66 197.44 1089.22 200.22 C 1079.79 203.01 1065.63 207.31 1055.25 206.20 C 1044.86 205.08 1037.79 206.29 1026.67 204.33 C 1015.55 202.37 1003.77 202.19 992.23 198.79 C 980.69 195.38 979.83 206.15 980.00 218.00
C 948.89 219.33 919.95 224.23 889.00 225.00
C 888.15 216.29 890.36 208.24 891.00 199.00 C 891.64 189.76 892.35 181.49 893.07 173.07 C 893.80 164.65 896.38 157.32 896.67 148.67 C 896.96 140.02 899.29 130.24 900.02 122.02 C 900.75 113.80 902.07 107.72 903.01 99.01 C 903.95 90.29 905.85 80.42 907.07 71.07 C 908.30 61.72 909.12 57.01 911.00 47.00 C 912.89 36.99 899.12 37.95 891.07 39.07 C 883.03 40.19 875.83 38.03 867.68 38.34 C 859.53 38.65 849.63 38.40 842.00 38.00 C 834.37 37.60 820.54 34.04 819.60 42.26 C 818.65 50.47 816.68 59.81 815.80 67.75 C 814.92 75.69 812.61 84.21 811.98 91.97 C 811.35 99.74 808.15 109.04 808.93 116.93 C 809.71 124.81 801.15 134.78 806.00 141.00 Z"/>
</g>
<g fill="#DADADA" fill-opacity="0.29" stroke="None"><path d="
M 1141.00 14.00 
C 1161.02 12.41 1181.62 13.16 1202.00 13.00
C 1202.00 14.67 1202.00 16.33 1202.00 18.00
C 1202.10 17.80 1203.50 18.00 1204.00 18.00
L 1204.00 13.00
C 1184.31 9.09 1160.38 10.26 1141.00 14.00 Z"/>
</g>
<g fill="#FFFFFF" fill-opacity="0.02" stroke="None"><path d="
M 140.00 15.00 
C 143.09 13.23 147.48 14.00 151.00 14.00
C 151.78 13.86 153.72 13.23 155.00 13.00
C 152.26 13.25 141.90 10.83 140.00 15.00 Z"/>
</g>
<g fill="#D3D3D3" fill-opacity="0.34" stroke="None"><path d="
M 549.00 14.00 
C 549.50 14.00 550.50 14.00 551.00 14.00
C 552.47 14.00 554.59 13.61 556.00 14.00
C 552.24 11.65 551.02 13.68 549.00 14.00 Z"/>
</g>
<g fill="#A8A8A8" fill-opacity="0.67" stroke="None"><path d="
M 410.00 22.00 
C 414.31 19.32 417.99 15.79 422.00 13.00
C 418.13 15.13 412.44 18.25 410.00 22.00 Z"/>
</g>
<g fill="#9D9D9D" fill-opacity="0.76" stroke="None"><path d="
M 1141.00 14.00 
C 1135.54 14.43 1129.58 15.15 1124.00 16.00
C 1148.18 14.63 1174.42 14.07 1200.00 14.00
C 1201.40 19.11 1197.38 24.78 1200.00 29.00
C 1200.08 28.77 1201.00 26.99 1201.00 27.00
C 1201.13 24.54 1200.92 20.17 1202.00 18.00
C 1202.00 16.33 1202.00 14.67 1202.00 13.00
C 1181.62 13.16 1161.02 12.41 1141.00 14.00 Z"/>
</g>
<g fill="#CCCCCC" fill-opacity="0.39" stroke="None"><path d="
M 140.00 15.00 
C 140.00 15.00 139.36 15.22 139.00 15.00
C 139.00 15.00 139.00 15.50 139.00 16.00
C 140.27 16.44 142.65 16.05 144.00 16.00
C 147.89 15.87 151.71 14.40 155.00 14.00
C 153.67 14.00 152.33 14.00 151.00 14.00
C 147.48 14.00 143.09 13.23 140.00 15.00 Z"/>
</g>
<g fill="#CDCDCD" fill-opacity="0.38" stroke="None"><path d="
M 206.00 15.00 
C 207.50 15.00 209.55 14.63 211.00 15.00
C 211.77 15.20 212.25 15.86 213.00 16.00
C 213.48 16.09 214.00 16.00 214.00 16.00
C 216.71 12.79 207.27 14.06 206.00 15.00 Z"/>
</g>
<g fill="#D5D5D5" fill-opacity="0.32" stroke="None"><path d="
M 229.00 17.00 
C 231.23 18.78 229.23 21.59 229.00 23.00
C 228.16 28.02 226.40 32.21 225.00 37.00
C 224.35 41.43 225.11 46.98 224.00 52.00
C 225.17 50.62 225.96 49.81 227.00 52.00
C 227.74 49.92 228.56 46.79 229.00 45.00
C 230.27 34.75 232.11 24.19 234.00 14.00
C 232.85 16.64 231.69 17.81 229.00 17.00 Z"/>
</g>
<g fill="#A0A0A0" fill-opacity="0.74" stroke="None"><path d="
M 557.00 15.00 
C 556.77 14.95 556.32 14.20 556.00 14.00
C 554.59 13.61 552.47 14.00 551.00 14.00
C 552.93 14.77 554.49 14.93 557.00 15.00 Z"/>
</g>
<g fill="#818181" fill-opacity="0.99" stroke="None"><path d="
M 1124.00 16.00 
C 1102.38 19.30 1074.21 22.07 1055.00 33.00
C 1051.25 35.14 1045.00 40.59 1041.00 39.00
C 1040.57 39.17 1039.42 38.82 1039.00 39.00
C 1037.79 39.93 1036.54 41.19 1035.00 42.00
C 1033.08 43.40 1031.59 45.29 1029.00 46.00
C 1028.53 46.13 1027.44 45.83 1027.00 46.00
C 1026.27 46.86 1026.03 47.32 1025.00 48.00
C 1023.41 49.53 1022.77 49.94 1021.00 51.00
C 1004.89 60.70 994.10 78.69 993.01 96.99 C 991.92 115.30 1009.35 132.08 1025.98 138.03 C 1042.60 143.97 1061.68 155.54 1078.93 159.07 C 1096.18 162.60 1120.97 179.07 1103.25 195.25 C 1085.53 211.43 1065.96 208.00 1044.00 208.00
C 1043.50 208.00 1043.00 208.00 1043.00 208.00
C 1038.82 211.09 1028.19 208.42 1024.00 207.00
C 1022.79 206.84 1022.07 206.20 1021.00 206.00
C 1019.91 205.91 1017.42 206.29 1016.00 206.00
C 1005.57 204.16 995.47 201.33 985.00 200.00
C 984.27 206.74 984.50 213.74 982.00 220.00
C 976.53 220.42 971.61 221.00 966.00 221.00
C 965.77 221.05 965.30 221.78 965.00 222.00
C 962.71 223.69 959.00 222.89 956.00 223.00
C 952.09 223.15 948.88 223.87 945.00 224.00
C 936.89 225.32 921.80 229.31 914.00 226.00
C 913.50 226.00 912.50 226.03 912.00 226.00
C 903.48 226.97 894.82 227.23 886.00 227.00
C 884.91 219.79 887.44 212.99 887.00 206.00
C 886.87 203.72 885.91 202.55 887.00 200.00
C 887.15 198.92 887.84 198.61 888.00 198.00
C 888.26 188.77 889.64 180.35 890.00 171.00
C 890.13 167.51 891.35 165.64 892.00 163.00
C 893.40 151.71 893.76 140.08 896.00 129.00
C 896.05 125.73 896.15 120.64 897.00 117.00
C 898.58 105.58 899.67 91.09 903.00 80.00
C 903.02 78.90 900.93 75.84 902.00 74.00
C 903.26 74.08 902.56 76.06 904.00 76.00
C 905.33 69.71 905.65 63.80 907.00 58.00
C 907.04 57.04 906.87 54.14 907.00 53.00
C 906.96 50.71 907.75 48.59 908.00 47.00
C 907.55 38.75 898.00 42.44 890.00 42.00 C 882.00 41.56 873.08 42.00 865.00 42.00
C 858.95 42.00 852.30 41.51 847.00 41.00
C 835.50 41.00 821.00 36.31 821.00 51.00 C 821.00 65.69 817.53 71.02 817.00 85.00
C 816.90 87.58 817.83 91.23 816.00 93.00
C 815.74 93.25 815.00 93.00 815.00 93.00
C 814.50 100.07 812.11 106.98 812.00 114.00
C 811.87 122.27 811.43 131.71 809.00 140.00
C 808.81 141.44 808.27 142.53 808.00 144.00
C 807.30 147.78 806.87 151.31 806.00 155.00
C 805.88 160.58 808.20 169.86 804.00 175.00
C 803.77 175.28 803.05 175.77 803.00 176.00
C 802.84 183.97 802.94 190.14 802.00 198.00 C 801.06 205.86 799.05 211.14 800.00 220.00 C 800.95 228.86 795.67 232.40 787.00 231.00 C 778.33 229.60 771.35 231.64 763.00 231.00 C 754.65 230.36 747.27 231.32 739.00 231.00
C 724.37 232.42 708.23 231.38 694.00 230.00
C 687.44 230.00 681.61 228.73 675.00 229.00
C 675.00 225.00 675.00 221.00 675.00 217.00
C 675.07 214.49 675.23 212.93 676.00 211.00
C 676.00 210.50 676.02 209.50 676.00 209.00
C 675.94 207.07 676.61 206.30 677.00 205.00
C 677.14 204.54 677.00 203.50 677.00 203.00
C 675.00 198.30 676.73 194.96 678.00 191.00
C 677.81 180.26 680.15 165.30 683.00 155.00
C 683.22 151.59 680.32 140.52 685.00 138.00
C 685.39 137.79 686.00 138.00 686.00 138.00
C 686.54 123.91 689.75 109.84 691.00 96.00 C 692.25 82.16 698.37 69.05 698.00 55.00
C 697.97 54.00 698.00 53.00 698.00 52.00
C 698.00 45.66 701.08 39.28 701.00 34.00
C 701.17 26.04 684.31 28.00 678.00 28.00
C 676.27 28.00 667.79 28.57 672.00 27.00
C 672.16 26.94 672.00 26.00 672.00 26.00
C 661.37 25.58 651.69 24.30 641.00 24.00
C 638.65 23.93 636.72 23.40 635.00 23.00
C 630.24 20.28 623.36 21.75 618.00 21.00
C 617.05 27.66 615.85 34.28 615.00 41.00
C 614.81 43.46 614.66 43.89 614.00 46.00
C 613.35 50.51 612.27 55.99 612.00 61.00
C 611.64 67.63 610.66 74.48 609.67 80.67 C 608.68 86.86 607.32 93.93 606.00 97.00
C 604.31 114.50 601.35 135.54 597.00 153.00
C 597.05 158.96 598.18 163.77 596.00 170.00
C 592.62 179.62 593.11 190.39 591.00 200.00
C 590.81 200.88 591.00 202.09 591.00 203.00
C 591.65 205.95 592.22 208.00 591.00 211.00
C 590.86 211.92 590.10 212.54 590.00 213.00
C 589.90 215.48 589.26 218.19 589.00 220.00
C 587.36 231.50 586.00 244.46 586.00 256.00
C 586.00 257.67 586.03 259.33 586.00 261.00
C 585.79 272.44 584.07 274.00 597.00 274.00
C 606.33 274.00 616.44 274.17 625.00 275.00
C 631.00 275.00 637.00 275.00 643.00 275.00
C 663.00 275.00 683.00 275.00 703.00 275.00
C 713.93 273.94 726.36 274.00 738.00 274.00
C 743.00 274.00 748.00 274.00 753.00 274.00
C 763.17 274.00 774.30 275.04 784.00 273.00
C 795.79 270.52 810.26 271.50 822.00 272.00
C 848.25 271.11 874.78 265.90 901.02 265.02 C 927.27 264.14 953.10 257.32 979.00 256.00
C 980.65 255.92 982.36 256.17 984.00 256.00
C 1000.73 252.53 1018.66 251.65 1036.00 249.00
C 1040.71 247.78 1044.72 243.69 1051.00 245.00 C 1057.28 246.31 1064.02 244.67 1070.00 244.00
C 1093.06 241.42 1124.62 237.34 1144.68 228.68 C 1164.73 220.01 1188.52 209.60 1197.00 188.00
C 1193.56 190.30 1197.49 183.30 1197.78 180.78 C 1198.07 178.26 1200.56 171.27 1201.00 169.00
C 1201.13 165.65 1200.53 163.02 1200.00 160.00
C 1197.59 152.28 1193.12 145.72 1187.00 140.00
C 1184.97 138.49 1182.90 136.33 1181.00 135.00
C 1180.10 134.74 1178.87 134.33 1178.00 134.00
C 1171.30 131.42 1165.06 128.24 1159.00 125.00
C 1147.21 118.70 1130.97 116.84 1118.93 112.07 C 1106.88 107.30 1090.52 106.65 1084.68 93.32 C 1078.84 79.99 1096.47 71.37 1106.00 66.00
C 1109.48 64.04 1111.89 64.25 1115.00 64.00
C 1122.28 59.84 1131.65 61.79 1140.01 60.01 C 1148.37 58.23 1160.35 61.41 1169.00 60.00 C 1177.65 58.59 1188.90 64.02 1195.00 60.00
C 1199.99 52.38 1196.84 37.64 1200.00 29.00
C 1197.38 24.78 1201.40 19.11 1200.00 14.00
C 1174.42 14.07 1148.18 14.63 1124.00 16.00 Z"/>
</g>
<g fill="#959595" fill-opacity="0.83" stroke="None"><path d="
M 211.00 15.00 
C 209.55 14.63 207.50 15.00 206.00 15.00
C 206.00 15.00 205.44 15.16 205.00 15.00
C 207.04 15.38 209.08 15.09 211.00 15.00 Z"/>
</g>
<g fill="#999999" fill-opacity="0.80" stroke="None"><path d="
M 139.00 17.00 
C 140.92 16.92 142.66 16.26 144.00 16.00
C 142.65 16.05 140.27 16.44 139.00 16.00
C 139.00 16.00 139.04 17.00 139.00 17.00 Z"/>
</g>
<g fill="#949494" fill-opacity="0.84" stroke="None"><path d="
M 219.00 16.00 
C 217.37 15.84 215.64 16.00 214.00 16.00
C 214.00 16.00 213.48 16.09 213.00 16.00
C 215.53 17.44 216.87 15.95 219.00 16.00 Z"/>
</g>
<g fill="#B1B1B1" fill-opacity="0.61" stroke="None"><path d="
M 229.00 23.00 
C 229.23 21.59 231.23 18.78 229.00 17.00
C 228.54 16.86 227.50 16.97 227.00 17.00
C 227.75 19.33 229.08 21.01 229.00 23.00 Z"/>
</g>
<g fill="#959595" fill-opacity="0.82" stroke="None"><path d="
M 131.00 18.00 
C 129.35 18.18 127.65 17.84 126.00 18.00
C 127.34 17.99 129.31 18.35 131.00 18.00 Z"/>
</g>
<g fill="#E8E8E8" fill-opacity="0.18" stroke="None"><path d="
M 627.00 277.00 
C 629.62 276.77 632.37 277.00 635.00 277.00
C 635.50 277.00 636.50 277.00 637.00 277.00
C 650.33 277.00 663.67 277.00 677.00 277.00
C 677.00 277.00 677.50 277.00 678.00 277.00
C 689.33 277.00 700.67 277.00 712.00 277.00
C 712.00 277.00 712.50 277.00 713.00 277.00
C 715.96 277.00 719.05 276.74 722.00 277.00
C 751.28 279.58 779.21 275.64 808.00 275.00 C 836.79 274.36 863.59 271.04 891.78 269.78 C 919.97 268.52 944.58 260.06 971.92 259.07 C 999.26 258.08 1030.07 248.34 1057.00 247.00
C 1049.38 246.57 1042.94 247.94 1036.00 249.00
C 1018.66 251.65 1000.73 252.53 984.00 256.00
C 982.22 256.37 980.48 256.03 979.00 256.00
C 953.10 257.32 927.27 264.14 901.02 265.02 C 874.78 265.90 848.25 271.11 822.00 272.00
C 820.34 272.06 818.66 272.00 817.00 272.00
C 813.25 272.40 808.43 273.00 804.00 273.00
C 803.50 273.00 803.00 273.00 803.00 273.00
C 798.50 276.33 788.62 273.01 784.00 273.00
C 774.30 275.04 763.17 274.00 753.00 274.00
C 752.77 274.05 752.30 274.78 752.00 275.00
C 748.26 277.76 740.76 275.36 737.00 275.00
C 733.00 275.00 729.00 275.00 725.00 275.00
C 699.29 277.49 668.64 277.48 643.00 275.00
C 637.00 275.00 631.00 275.00 625.00 275.00
C 616.31 275.00 606.59 276.24 598.00 275.00
C 595.16 275.27 584.54 278.70 583.08 273.92 C 581.63 269.13 583.15 261.88 585.00 258.00
C 584.96 258.09 586.06 255.75 586.00 256.00
C 586.00 244.46 587.36 231.50 589.00 220.00
C 588.63 213.30 589.86 204.26 591.00 200.00
C 593.11 190.39 592.62 179.62 596.00 170.00
C 596.10 166.55 595.47 162.05 596.00 158.00
C 596.25 156.11 596.66 154.37 597.00 153.00
C 601.35 135.54 604.31 114.50 606.00 97.00
C 607.19 84.71 610.12 72.59 612.00 61.00
C 612.27 55.99 613.35 50.51 614.00 46.00
C 614.26 44.18 614.69 42.31 615.00 41.00
C 615.85 34.28 617.05 27.66 618.00 21.00
C 623.36 21.75 630.24 20.28 635.00 23.00
C 635.38 23.22 636.00 23.00 636.00 23.00
C 637.05 22.18 642.36 20.96 641.00 23.00
C 640.77 23.35 641.00 24.00 641.00 24.00
C 651.69 24.30 661.37 25.58 672.00 26.00
C 674.16 26.09 675.45 25.71 677.00 27.00
C 677.28 27.23 677.77 27.95 678.00 28.00
C 684.31 28.00 701.17 26.04 701.00 34.00
C 700.98 35.00 700.99 36.00 701.00 37.00
C 701.99 41.05 701.07 43.15 700.00 47.00
C 699.88 48.70 700.06 48.86 699.00 50.00
C 699.05 50.50 699.00 51.00 699.00 51.00
C 700.74 53.02 698.44 53.24 698.00 55.00
C 698.37 69.05 692.25 82.16 691.00 96.00 C 689.75 109.84 686.54 123.91 686.00 138.00
C 685.87 141.52 685.97 145.33 684.00 148.00
C 684.27 150.23 683.56 151.43 683.00 153.00
C 683.03 153.50 683.13 154.54 683.00 155.00
C 680.15 165.30 677.81 180.26 678.00 191.00
C 678.04 193.46 679.18 195.23 678.00 198.00
C 678.00 198.50 677.97 199.50 678.00 200.00
C 678.15 202.40 676.87 205.31 677.00 205.00
C 676.61 206.30 675.94 207.07 676.00 209.00
C 676.12 211.37 677.92 213.39 676.00 216.00
C 675.78 216.30 675.05 216.77 675.00 217.00
C 675.00 221.00 675.00 225.00 675.00 229.00
C 681.61 228.73 687.44 230.00 694.00 230.00
C 709.09 230.00 724.26 230.44 739.00 231.00
C 747.27 231.32 754.65 230.36 763.00 231.00 C 771.35 231.64 778.33 229.60 787.00 231.00 C 795.67 232.40 800.95 228.86 800.00 220.00 C 799.05 211.14 801.06 205.86 802.00 198.00 C 802.94 190.14 802.84 183.97 803.00 176.00
C 803.11 170.68 802.55 160.64 806.00 157.00
C 805.97 156.50 805.89 155.47 806.00 155.00
C 806.87 151.31 807.30 147.78 808.00 144.00
C 807.55 143.13 805.73 144.35 806.00 142.00
C 800.55 170.20 797.02 198.81 796.00 228.00
C 758.45 229.04 717.33 228.37 678.00 226.00
C 678.16 215.83 680.37 204.93 681.22 194.22 C 682.07 183.52 683.79 174.99 685.00 164.00 C 686.21 153.02 688.00 142.31 690.00 131.00 C 692.01 119.70 692.05 111.40 694.02 101.02 C 696.00 90.65 697.42 80.56 699.22 69.22 C 701.02 57.88 702.88 46.73 705.01 35.01 C 707.14 23.29 689.88 25.81 681.03 24.98 C 672.17 24.14 658.75 21.77 649.00 21.00 C 639.25 20.23 625.69 18.93 616.00 18.00
C 611.75 30.58 611.35 44.95 608.93 57.93 C 606.50 70.91 604.19 84.16 601.99 96.99 C 599.79 109.83 598.86 123.43 596.33 135.33 C 593.80 147.23 594.51 158.80 592.59 170.25 C 590.68 181.71 588.46 194.10 587.78 205.78 C 587.10 217.46 583.48 232.09 584.00 244.00 C 584.52 255.91 574.76 275.59 589.00 277.00 C 603.24 278.41 614.08 278.14 627.00 277.00
M 799.00 217.00 
C 800.26 224.32 796.06 221.99 799.00 217.00 Z"/>
</g>
<g fill="#EBEBEB" fill-opacity="0.15" stroke="None"><path d="
M 1201.00 27.00 
C 1200.66 33.28 1200.73 39.19 1199.02 45.02 C 1197.31 50.86 1198.57 57.65 1195.00 60.00
C 1188.90 64.02 1177.65 58.59 1169.00 60.00 C 1160.35 61.41 1148.37 58.23 1140.01 60.01 C 1131.65 61.79 1122.28 59.84 1115.00 64.00
C 1114.62 64.22 1114.00 64.00 1114.00 64.00
C 1112.59 65.84 1110.33 66.09 1108.00 66.00
C 1107.50 65.98 1106.40 65.80 1106.00 66.00
C 1096.47 71.37 1078.84 79.99 1084.68 93.32 C 1090.52 106.65 1106.88 107.30 1118.93 112.07 C 1130.97 116.84 1147.21 118.70 1159.00 125.00
C 1164.30 126.86 1172.63 128.01 1177.00 132.00
C 1187.65 135.72 1196.54 146.57 1202.00 157.00
C 1204.73 152.09 1194.85 142.40 1190.92 138.08 C 1186.98 133.76 1176.71 128.96 1170.33 126.67 C 1163.95 124.38 1155.41 119.01 1147.78 117.22 C 1140.14 115.44 1131.41 113.34 1123.99 111.01 C 1116.57 108.67 1107.38 105.70 1099.98 103.02 C 1092.58 100.35 1084.53 93.48 1087.78 85.78 C 1091.02 78.07 1095.99 73.28 1104.08 70.08 C 1112.17 66.88 1121.28 65.09 1130.01 64.01 C 1138.74 62.92 1146.44 62.35 1155.25 62.80 C 1164.05 63.25 1172.40 61.33 1182.01 63.99 C 1191.62 66.66 1200.86 63.17 1199.99 51.99 C 1199.13 40.81 1203.44 37.55 1204.00 27.00
L 1204.00 18.00
C 1203.50 18.00 1202.10 17.80 1202.00 18.00
C 1200.92 20.17 1201.13 24.54 1201.00 27.00 Z"/>
</g>
<g fill="#A2A2A2" fill-opacity="0.73" stroke="None"><path d="
M 405.00 25.00 
C 406.97 24.83 408.10 23.76 409.00 22.00
C 407.22 22.48 406.04 23.58 405.00 25.00 Z"/>
</g>
<g fill="#CCCCCC" fill-opacity="0.40" stroke="None"><path d="
M 636.00 23.00 
C 637.39 23.00 639.69 22.55 641.00 23.00
C 642.36 20.96 637.05 22.18 636.00 23.00 Z"/>
</g>
<g fill="#9A9A9A" fill-opacity="0.80" stroke="None"><path d="
M 641.00 24.00 
C 641.00 24.00 640.77 23.35 641.00 23.00
C 639.69 22.55 637.39 23.00 636.00 23.00
C 636.00 23.00 635.38 23.22 635.00 23.00
C 636.72 23.40 638.65 23.93 641.00 24.00 Z"/>
</g>
<g fill="#989898" fill-opacity="0.80" stroke="None"><path d="
M 472.00 52.00 
C 474.81 49.97 477.94 48.65 481.00 47.00
C 482.95 45.66 484.79 44.28 487.00 43.00
C 490.34 41.06 493.57 38.12 497.00 36.00
C 499.24 34.26 501.10 32.05 504.00 31.00
C 504.44 30.84 505.00 31.00 505.00 31.00
C 506.10 29.86 511.73 24.18 513.00 24.00
C 505.88 23.92 498.24 34.93 491.70 37.70 C 485.15 40.47 477.07 47.08 472.00 52.00 Z"/>
</g>
<g fill="#C7C7C7" fill-opacity="0.43" stroke="None"><path d="
M 505.00 31.00 
C 508.16 29.86 510.31 26.58 514.00 27.00
C 514.81 32.71 510.88 39.17 513.00 44.00
C 513.47 37.08 516.68 30.92 517.00 24.00
C 515.67 23.99 514.33 24.01 513.00 24.00
C 511.73 24.18 506.10 29.86 505.00 31.00 Z"/>
</g>
<g fill="#9A9A9A" fill-opacity="0.78" stroke="None"><path d="
M 401.00 27.00 
C 398.50 29.06 396.01 31.40 393.00 33.00
C 388.59 35.35 385.98 37.95 382.00 41.00
C 389.16 37.26 399.16 31.93 404.00 25.00
C 402.89 25.41 402.01 26.35 401.00 27.00 Z"/>
</g>
<g fill="#C1C1C1" fill-opacity="0.47" stroke="None"><path d="
M 672.00 27.00 
C 673.49 27.51 675.47 26.57 677.00 27.00
C 675.45 25.71 674.16 26.09 672.00 26.00
C 672.00 26.00 672.16 26.94 672.00 27.00 Z"/>
</g>
<g fill="#AEAEAE" fill-opacity="0.63" stroke="None"><path d="
M 394.00 31.00 
C 393.67 31.46 393.53 32.64 393.00 33.00
C 396.01 31.40 398.50 29.06 401.00 27.00
C 398.89 28.37 395.86 29.29 394.00 31.00 Z"/>
</g>
<g fill="#E9E9E9" fill-opacity="0.17" stroke="None"><path d="
M 505.00 31.00 
C 505.00 31.00 504.44 30.84 504.00 31.00
C 501.89 33.20 499.62 34.38 497.00 36.00
C 493.57 38.12 490.34 41.06 487.00 43.00
C 484.95 44.60 483.30 45.76 481.00 47.00
C 477.94 48.65 474.81 49.97 472.00 52.00
C 446.94 70.87 419.14 85.99 395.00 107.00
C 404.99 123.33 420.58 136.28 430.00 153.00
C 431.94 155.23 433.53 156.58 435.00 159.00
C 437.99 162.64 441.04 166.32 444.00 170.00
C 445.28 171.26 445.14 171.56 446.00 173.00
C 447.35 174.86 449.90 175.76 451.00 178.00
C 451.20 178.40 451.00 179.00 451.00 179.00
C 455.76 182.10 460.04 189.24 463.00 194.00
C 463.22 194.36 463.00 195.00 463.00 195.00
C 465.55 196.66 467.30 199.53 469.00 202.00
C 470.64 204.39 472.38 206.63 474.00 209.00
C 478.30 213.65 481.82 219.88 487.00 223.00
C 488.68 220.94 487.92 212.75 488.00 210.00
C 488.07 207.66 488.62 205.71 489.00 204.00
C 490.08 191.39 492.79 178.55 494.00 166.00
C 494.44 161.41 495.17 157.39 496.00 153.00
C 501.02 126.52 506.54 97.87 508.00 71.00
C 508.20 67.36 509.45 64.03 510.00 61.00
C 510.00 60.01 509.95 58.99 510.00 58.00
C 510.09 56.35 510.24 55.44 511.00 54.00
C 511.21 53.61 511.00 53.00 511.00 53.00
C 510.66 49.23 512.94 48.15 513.00 48.00
C 513.17 46.69 512.87 45.32 513.00 44.00
C 510.88 39.17 514.81 32.71 514.00 27.00
C 510.31 26.58 508.16 29.86 505.00 31.00
M 512.00 30.00 
C 501.34 92.35 491.83 155.48 484.00 217.00
C 456.71 180.15 426.22 143.03 399.00 107.00
C 435.98 80.12 473.43 54.14 512.00 30.00 Z"/>
</g>
<g fill="#969696" fill-opacity="0.82" stroke="None"><path d="
M 678.00 28.00 
C 677.77 27.95 677.28 27.23 677.00 27.00
C 675.47 26.57 673.49 27.51 672.00 27.00
C 667.79 28.57 676.27 28.00 678.00 28.00 Z"/>
</g>
<g fill="#CBCBCB" fill-opacity="0.40" stroke="None"><path d="
M 1200.00 29.00 
C 1196.84 37.64 1199.99 52.38 1195.00 60.00
C 1198.57 57.65 1197.31 50.86 1199.02 45.02 C 1200.73 39.19 1200.66 33.28 1201.00 27.00
C 1201.00 26.99 1200.08 28.77 1200.00 29.00 Z"/>
</g>
<g fill="#000000" fill-opacity="0.00" stroke="None"><path d="
M 1202.00 157.00 
C 1201.79 157.38 1202.00 158.00 1202.00 158.00
C 1202.31 158.58 1203.28 159.68 1204.00 160.00
L 1204.00 27.00
C 1203.44 37.55 1199.13 40.81 1199.99 51.99 C 1200.86 63.17 1191.62 66.66 1182.01 63.99 C 1172.40 61.33 1164.05 63.25 1155.25 62.80 C 1146.44 62.35 1138.74 62.92 1130.01 64.01 C 1121.28 65.09 1112.17 66.88 1104.08 70.08 C 1095.99 73.28 1091.02 78.07 1087.78 85.78 C 1084.53 93.48 1092.58 100.35 1099.98 103.02 C 1107.38 105.70 1116.57 108.67 1123.99 111.01 C 1131.41 113.34 1140.14 115.44 1147.78 117.22 C 1155.41 119.01 1163.95 124.38 1170.33 126.67 C 1176.71 128.96 1186.98 133.76 1190.92 138.08 C 1194.85 142.40 1204.73 152.09 1202.00 157.00 Z"/>
</g>
<g fill="#9A9A9A" fill-opacity="0.79" stroke="None"><path d="
M 76.00 32.00 
C 78.16 31.37 78.33 30.92 80.00 30.00
C 78.53 30.55 77.23 31.45 76.00 32.00 Z"/>
</g>
<g fill="#000000" fill-opacity="0.00" stroke="None"><path d="
M 512.00 30.00 
C 473.43 54.14 435.98 80.12 399.00 107.00
C 426.22 143.03 456.71 180.15 484.00 217.00
C 491.83 155.48 501.34 92.35 512.00 30.00 Z"/>
</g>
<g fill="#B0B0B0" fill-opacity="0.61" stroke="None"><path d="
M 497.00 36.00 
C 499.62 34.38 501.89 33.20 504.00 31.00
C 501.10 32.05 499.24 34.26 497.00 36.00 Z"/>
</g>
<g fill="#CBCBCB" fill-opacity="0.40" stroke="None"><path d="
M 1048.00 35.00 
C 1050.38 34.36 1052.67 33.89 1055.00 33.00
C 1053.16 33.42 1050.29 32.52 1048.00 35.00 Z"/>
</g>
<g fill="#979797" fill-opacity="0.81" stroke="None"><path d="
M 1048.00 35.00 
C 1047.76 35.26 1047.32 35.80 1047.00 36.00
C 1045.35 37.02 1043.04 38.20 1041.00 39.00
C 1045.00 40.59 1051.25 35.14 1055.00 33.00
C 1052.67 33.89 1050.38 34.36 1048.00 35.00 Z"/>
</g>
<g fill="#999999" fill-opacity="0.80" stroke="None"><path d="
M 698.00 52.00 
C 698.32 52.02 698.96 51.35 699.00 51.00
C 699.00 51.00 699.05 50.50 699.00 50.00
C 698.74 47.28 699.54 45.02 700.00 43.00
C 700.23 41.03 701.02 39.27 701.00 37.00
C 700.99 36.00 700.98 35.00 701.00 34.00
C 701.08 39.28 698.00 45.66 698.00 52.00 Z"/>
</g>
<g fill="#CACACA" fill-opacity="0.41" stroke="None"><path d="
M 1039.00 39.00 
C 1039.42 38.82 1040.57 39.17 1041.00 39.00
C 1043.04 38.20 1045.35 37.02 1047.00 36.00
C 1043.24 36.67 1041.86 36.81 1039.00 39.00 Z"/>
</g>
<g fill="#9E9E9E" fill-opacity="0.76" stroke="None"><path d="
M 200.00 51.00 
C 207.75 52.72 215.07 55.88 223.00 57.00
C 223.39 55.43 222.06 52.78 224.00 52.00
C 225.11 46.98 224.35 41.43 225.00 37.00
C 223.32 42.45 222.38 49.10 221.00 55.00
C 214.25 52.10 206.34 51.36 200.00 51.00 Z"/>
</g>
<g fill="#D0D0D0" fill-opacity="0.36" stroke="None"><path d="
M 700.00 43.00 
C 699.85 44.31 700.09 45.68 700.00 47.00
C 701.07 43.15 701.99 41.05 701.00 37.00
C 701.02 39.27 700.23 41.03 700.00 43.00 Z"/>
</g>
<g fill="#A1A1A1" fill-opacity="0.73" stroke="None"><path d="
M 614.00 46.00 
C 614.66 43.89 614.81 43.46 615.00 41.00
C 614.69 42.31 614.26 44.18 614.00 46.00 Z"/>
</g>
<g fill="#ABABAB" fill-opacity="0.65" stroke="None"><path d="
M 865.00 42.00 
C 859.70 41.49 853.05 41.00 847.00 41.00
C 852.30 41.51 858.95 42.00 865.00 42.00 Z"/>
</g>
<g fill="#CFCFCF" fill-opacity="0.37" stroke="None"><path d="
M 1027.00 46.00 
C 1027.44 45.83 1028.53 46.13 1029.00 46.00
C 1030.63 44.69 1032.41 43.27 1034.00 42.00
C 1031.12 42.68 1028.89 43.77 1027.00 46.00 Z"/>
</g>
<g fill="#A6A6A6" fill-opacity="0.69" stroke="None"><path d="
M 1029.00 46.00 
C 1031.59 45.29 1033.08 43.40 1035.00 42.00
C 1035.00 42.00 1034.47 41.89 1034.00 42.00
C 1032.41 43.27 1030.63 44.69 1029.00 46.00 Z"/>
</g>
<g fill="#CFCFCF" fill-opacity="0.37" stroke="None"><path d="
M 481.00 47.00 
C 483.30 45.76 484.95 44.60 487.00 43.00
C 484.79 44.28 482.95 45.66 481.00 47.00 Z"/>
</g>
<g fill="#AFAFAF" fill-opacity="0.62" stroke="None"><path d="
M 699.00 50.00 
C 700.06 48.86 699.88 48.70 700.00 47.00
C 700.09 45.68 699.85 44.31 700.00 43.00
C 699.54 45.02 698.74 47.28 699.00 50.00 Z"/>
</g>
<g fill="#ACACAC" fill-opacity="0.64" stroke="None"><path d="
M 227.00 52.00 
C 226.84 52.44 227.00 53.00 227.00 53.00
C 229.79 51.68 228.69 47.49 229.00 45.00
C 228.56 46.79 227.74 49.92 227.00 52.00 Z"/>
</g>
<g fill="#C8C8C8" fill-opacity="0.43" stroke="None"><path d="
M 31.00 63.00 
C 33.89 58.12 40.30 50.64 45.00 47.00
C 39.83 48.78 33.14 58.43 31.00 63.00 Z"/>
</g>
<g fill="#9C9C9C" fill-opacity="0.77" stroke="None"><path d="
M 31.00 63.00 
C 29.47 66.28 29.02 69.63 28.00 73.00
C 32.03 63.09 39.14 55.18 47.00 47.00
C 46.64 47.22 45.45 46.85 45.00 47.00
C 40.30 50.64 33.89 58.12 31.00 63.00 Z"/>
</g>
<g fill="#E9E9E9" fill-opacity="0.17" stroke="None"><path d="
M 116.00 75.00 
C 116.22 75.38 116.00 76.00 116.00 76.00
C 118.72 77.90 120.57 81.10 123.00 83.00
C 133.38 89.91 146.47 95.08 157.00 101.00
C 162.85 103.06 168.43 105.14 174.00 109.00
C 175.82 109.72 179.08 110.20 181.00 113.00
C 181.23 113.34 181.00 114.00 181.00 114.00
C 190.82 119.30 199.16 127.12 206.00 136.00
C 207.05 137.37 208.09 138.67 209.00 140.00
C 210.04 140.99 211.51 142.05 213.00 142.00
C 213.52 134.89 214.52 127.23 217.00 121.00
C 217.32 117.45 217.41 114.42 218.00 111.00
C 219.03 105.00 220.12 99.23 221.00 94.00
C 221.27 92.38 220.82 90.63 221.00 89.00
C 221.61 83.35 222.54 77.77 224.22 72.22 C 225.90 66.67 224.13 58.02 227.00 53.00
C 227.00 53.00 226.84 52.44 227.00 52.00
C 225.96 49.81 225.17 50.62 224.00 52.00
C 222.06 52.78 223.39 55.43 223.00 57.00
C 215.07 55.88 207.75 52.72 200.00 51.00
C 188.93 48.55 175.40 47.21 164.00 47.00 C 152.60 46.79 139.11 48.06 130.08 52.08 C 121.04 56.09 110.10 64.68 116.00 75.00
M 223.00 59.00 
C 218.42 85.88 215.09 110.76 211.00 137.00
C 202.50 125.29 191.42 115.89 178.30 108.70 C 165.19 101.50 152.61 92.32 138.26 87.74 C 123.90 83.17 109.28 66.81 125.92 56.92 C 142.55 47.02 156.55 50.09 174.00 50.00 C 191.45 49.91 206.58 56.89 223.00 59.00 Z"/>
</g>
<g fill="#C7C7C7" fill-opacity="0.44" stroke="None"><path d="
M 511.00 53.00 
C 511.56 52.16 511.60 52.11 512.00 51.00
C 512.42 49.83 512.83 49.26 513.00 48.00
C 512.94 48.15 510.66 49.23 511.00 53.00 Z"/>
</g>
<g fill="#C9C9C9" fill-opacity="0.41" stroke="None"><path d="
M 907.00 53.00 
C 907.00 53.20 907.05 55.99 907.00 56.00
C 908.25 52.42 908.21 50.79 908.00 47.00
C 907.75 48.59 906.96 50.71 907.00 53.00 Z"/>
</g>
<g fill="#A8A8A8" fill-opacity="0.67" stroke="None"><path d="
M 1021.00 51.00 
C 1022.77 49.94 1023.41 49.53 1025.00 48.00
C 1023.50 48.99 1022.34 49.98 1021.00 51.00 Z"/>
</g>
<g fill="#000000" fill-opacity="0.00" stroke="None"><path d="
M 223.00 59.00 
C 206.58 56.89 191.45 49.91 174.00 50.00 C 156.55 50.09 142.55 47.02 125.92 56.92 C 109.28 66.81 123.90 83.17 138.26 87.74 C 152.61 92.32 165.19 101.50 178.30 108.70 C 191.42 115.89 202.50 125.29 211.00 137.00
C 215.09 110.76 218.42 85.88 223.00 59.00 Z"/>
</g>
<g fill="#969696" fill-opacity="0.82" stroke="None"><path d="
M 511.00 53.00 
C 511.00 53.00 511.21 53.61 511.00 54.00
C 511.12 54.26 511.97 54.65 512.00 55.00
C 513.83 53.12 511.87 52.42 512.00 51.00
C 511.60 52.11 511.56 52.16 511.00 53.00 Z"/>
</g>
<g fill="#C1C1C1" fill-opacity="0.49" stroke="None"><path d="
M 698.00 52.00 
C 698.00 53.00 697.97 54.00 698.00 55.00
C 698.44 53.24 700.74 53.02 699.00 51.00
C 698.96 51.35 698.32 52.02 698.00 52.00 Z"/>
</g>
<g fill="#AFAFAF" fill-opacity="0.62" stroke="None"><path d="
M 907.00 58.00 
C 907.11 57.53 906.93 56.01 907.00 56.00
C 907.05 55.99 907.00 53.20 907.00 53.00
C 906.87 54.14 907.04 57.04 907.00 58.00 Z"/>
</g>
<g fill="#B9B9B9" fill-opacity="0.55" stroke="None"><path d="
M 510.00 58.00 
C 510.15 57.45 511.75 56.48 512.00 56.00
C 512.00 56.00 512.05 55.50 512.00 55.00
C 511.97 54.65 511.12 54.26 511.00 54.00
C 510.24 55.44 510.09 56.35 510.00 58.00 Z"/>
</g>
<g fill="#979797" fill-opacity="0.81" stroke="None"><path d="
M 510.00 58.00 
C 509.95 58.99 510.00 60.01 510.00 61.00
C 510.00 63.11 510.51 65.96 510.00 68.00
C 511.82 64.34 512.00 60.52 512.00 56.00
C 511.75 56.48 510.15 57.45 510.00 58.00 Z"/>
</g>
<g fill="#D3D3D3" fill-opacity="0.34" stroke="None"><path d="
M 596.00 58.00 
C 595.91 58.48 596.00 59.50 596.00 60.00
C 596.00 61.14 596.33 62.92 596.00 64.00
C 597.51 61.18 596.96 58.46 597.00 56.00
C 596.85 56.85 596.15 57.20 596.00 58.00 Z"/>
</g>
<g fill="#939393" fill-opacity="0.85" stroke="None"><path d="
M 595.00 65.00 
C 593.86 63.58 595.69 60.87 596.00 60.00
C 596.00 59.50 595.91 58.48 596.00 58.00
C 593.70 61.02 594.91 61.99 595.00 65.00 Z"/>
</g>
<g fill="#B4B4B4" fill-opacity="0.58" stroke="None"><path d="
M 595.00 65.00 
C 595.16 64.73 595.82 64.33 596.00 64.00
C 596.33 62.92 596.00 61.14 596.00 60.00
C 595.69 60.87 593.86 63.58 595.00 65.00 Z"/>
</g>
<g fill="#BEBEBE" fill-opacity="0.51" stroke="None"><path d="
M 508.00 71.00 
C 508.16 70.38 509.68 68.64 510.00 68.00
C 510.51 65.96 510.00 63.11 510.00 61.00
C 509.45 64.03 508.20 67.36 508.00 71.00 Z"/>
</g>
<g fill="#989898" fill-opacity="0.80" stroke="None"><path d="
M 606.00 97.00 
C 607.32 93.93 608.68 86.86 609.67 80.67 C 610.66 74.48 611.64 67.63 612.00 61.00
C 610.12 72.59 607.19 84.71 606.00 97.00 Z"/>
</g>
<g fill="#979797" fill-opacity="0.82" stroke="None"><path d="
M 1106.00 66.00 
C 1106.40 65.80 1107.50 65.98 1108.00 66.00
C 1109.73 65.40 1111.86 64.40 1114.00 64.00
C 1114.00 64.00 1114.62 64.22 1115.00 64.00
C 1111.89 64.25 1109.48 64.04 1106.00 66.00 Z"/>
</g>
<g fill="#C2C2C2" fill-opacity="0.47" stroke="None"><path d="
M 1108.00 66.00 
C 1110.33 66.09 1112.59 65.84 1114.00 64.00
C 1111.86 64.40 1109.73 65.40 1108.00 66.00 Z"/>
</g>
<g fill="#9A9A9A" fill-opacity="0.79" stroke="None"><path d="
M 157.00 101.00 
C 146.47 95.08 133.38 89.91 123.00 83.00
C 120.58 81.39 117.28 78.61 116.00 76.00
C 116.00 76.00 116.22 75.38 116.00 75.00
C 113.76 73.50 119.13 84.62 124.31 85.69 C 129.48 86.77 134.98 91.93 140.32 93.68 C 145.67 95.43 151.58 99.09 157.00 101.00 Z"/>
</g>
<g fill="#A1A1A1" fill-opacity="0.73" stroke="None"><path d="
M 903.00 80.00 
C 903.44 78.54 903.68 77.51 904.00 76.00
C 902.56 76.06 903.26 74.08 902.00 74.00
C 900.93 75.84 903.02 78.90 903.00 80.00 Z"/>
</g>
<g fill="#C0C0C0" fill-opacity="0.48" stroke="None"><path d="
M 123.00 83.00 
C 120.57 81.10 118.72 77.90 116.00 76.00
C 117.28 78.61 120.58 81.39 123.00 83.00 Z"/>
</g>
<g fill="#9B9B9B" fill-opacity="0.78" stroke="None"><path d="
M 816.00 88.00 
C 815.88 89.48 816.48 91.61 816.00 93.00
C 817.83 91.23 816.90 87.58 817.00 85.00
C 816.82 85.81 816.11 86.64 816.00 88.00 Z"/>
</g>
<g fill="#A6A6A6" fill-opacity="0.69" stroke="None"><path d="
M 27.00 88.00 
C 27.28 89.57 27.62 90.84 28.00 92.00
C 27.63 90.05 25.91 84.88 27.00 88.00 Z"/>
</g>
<g fill="#B8B8B8" fill-opacity="0.55" stroke="None"><path d="
M 815.00 93.00 
C 815.00 93.00 815.74 93.25 816.00 93.00
C 816.48 91.61 815.88 89.48 816.00 88.00
C 815.65 89.43 815.14 91.00 815.00 93.00 Z"/>
</g>
<g fill="#A3A3A3" fill-opacity="0.72" stroke="None"><path d="
M 221.00 94.00 
C 221.58 92.10 220.93 90.52 221.00 89.00
C 220.82 90.63 221.27 92.38 221.00 94.00 Z"/>
</g>
<g fill="#969696" fill-opacity="0.82" stroke="None"><path d="
M 299.00 119.00 
C 299.09 118.75 299.84 118.34 300.00 118.00
C 301.00 115.82 300.16 113.07 301.00 111.00
C 303.28 105.37 313.15 117.12 316.00 121.00
C 312.37 115.14 310.93 114.86 305.75 109.25 C 300.57 103.64 299.00 113.82 299.00 119.00 Z"/>
</g>
<g fill="#D3D3D3" fill-opacity="0.35" stroke="None"><path d="
M 174.00 109.00 
C 176.45 110.23 178.60 111.72 181.00 113.00
C 179.08 110.20 175.82 109.72 174.00 109.00 Z"/>
</g>
<g fill="#BDBDBD" fill-opacity="0.51" stroke="None"><path d="
M 301.00 111.00 
C 303.56 107.95 310.65 116.73 312.23 119.77 C 313.81 122.81 320.27 128.27 323.00 131.00
C 323.00 131.00 323.20 130.40 323.00 130.00
C 320.98 128.59 319.39 126.96 318.00 125.00
C 317.13 123.78 316.69 122.11 316.00 121.00
C 313.15 117.12 303.28 105.37 301.00 111.00 Z"/>
</g>
<g fill="#ACACAC" fill-opacity="0.65" stroke="None"><path d="
M 181.00 114.00 
C 181.00 114.00 181.23 113.34 181.00 113.00
C 178.60 111.72 176.45 110.23 174.00 109.00
C 176.28 110.58 178.33 112.56 181.00 114.00 Z"/>
</g>
<g fill="#959595" fill-opacity="0.83" stroke="None"><path d="
M 217.00 121.00 
C 216.29 128.76 215.18 136.60 213.00 144.00
C 211.43 143.04 209.75 141.68 209.00 140.00
C 208.09 138.67 207.05 137.37 206.00 136.00
C 205.75 138.83 209.90 145.85 214.00 146.00
C 217.30 134.75 218.19 122.08 218.00 111.00
C 217.41 114.42 217.32 117.45 217.00 121.00 Z"/>
</g>
<g fill="#CCCCCC" fill-opacity="0.39" stroke="None"><path d="
M 810.00 124.00 
C 810.41 121.16 811.89 117.32 812.00 114.00
C 810.91 117.39 810.16 119.74 810.00 124.00 Z"/>
</g>
<g fill="#9E9E9E" fill-opacity="0.76" stroke="None"><path d="
M 810.00 124.00 
C 809.86 127.58 809.20 130.55 809.00 134.00
C 808.88 135.97 809.26 138.04 809.00 140.00
C 811.43 131.71 811.87 122.27 812.00 114.00
C 811.89 117.32 810.41 121.16 810.00 124.00 Z"/>
</g>
<g fill="#A6A6A6" fill-opacity="0.69" stroke="None"><path d="
M 896.00 129.00 
C 896.23 127.85 896.81 127.20 897.00 126.00
C 897.35 123.79 897.00 121.24 897.00 119.00
C 897.00 118.50 896.93 117.49 897.00 117.00
C 896.15 120.64 896.05 125.73 896.00 129.00 Z"/>
</g>
<g fill="#D5D5D5" fill-opacity="0.32" stroke="None"><path d="
M 897.00 119.00 
C 897.00 121.24 897.35 123.79 897.00 126.00
C 898.55 123.71 898.69 119.99 899.00 117.00
C 897.86 117.35 897.86 118.37 897.00 119.00 Z"/>
</g>
<g fill="#BFBFBF" fill-opacity="0.49" stroke="None"><path d="
M 299.00 119.00 
C 299.00 120.98 299.14 123.02 299.00 125.00
C 299.87 122.17 299.90 120.70 300.00 118.00
C 299.84 118.34 299.09 118.75 299.00 119.00 Z"/>
</g>
<g fill="#B8B8B8" fill-opacity="0.55" stroke="None"><path d="
M 209.00 140.00 
C 209.75 141.68 211.43 143.04 213.00 144.00
C 215.18 136.60 216.29 128.76 217.00 121.00
C 214.52 127.23 213.52 134.89 213.00 142.00
C 211.51 142.05 210.04 140.99 209.00 140.00 Z"/>
</g>
<g fill="#9C9C9C" fill-opacity="0.78" stroke="None"><path d="
M 323.00 130.00 
C 321.90 127.75 319.52 126.80 318.00 125.00
C 319.39 126.96 320.98 128.59 323.00 130.00 Z"/>
</g>
<g fill="#9B9B9B" fill-opacity="0.78" stroke="None"><path d="
M 1178.00 134.00 
C 1177.51 133.60 1177.40 132.36 1177.00 132.00
C 1172.63 128.01 1164.30 126.86 1159.00 125.00
C 1165.06 128.24 1171.30 131.42 1178.00 134.00 Z"/>
</g>
<g fill="#CDCDCD" fill-opacity="0.38" stroke="None"><path d="
M 71.00 130.00 
C 70.06 129.46 69.68 128.50 69.00 128.00
C 67.19 127.41 65.71 126.95 64.00 126.00
C 65.32 127.21 68.22 129.29 71.00 130.00 Z"/>
</g>
<g fill="#909090" fill-opacity="0.86" stroke="None"><path d="
M 71.00 130.00 
C 72.00 130.58 73.01 130.62 74.00 131.00
C 77.51 132.35 84.02 134.83 86.00 138.00
C 86.43 138.17 87.00 138.00 87.00 138.00
C 92.14 139.13 98.17 143.63 102.00 147.00
C 102.78 147.68 103.29 148.17 104.00 149.00
C 104.61 149.40 106.21 149.54 107.00 150.00
C 98.50 141.60 82.11 132.28 69.00 128.00
C 69.68 128.50 70.06 129.46 71.00 130.00 Z"/>
</g>
<g fill="#ACACAC" fill-opacity="0.64" stroke="None"><path d="
M 74.00 132.00 
C 77.78 134.17 81.95 136.41 86.00 138.00
C 84.02 134.83 77.51 132.35 74.00 131.00
C 74.00 131.00 73.82 131.58 74.00 132.00 Z"/>
</g>
<g fill="#D7D7D7" fill-opacity="0.31" stroke="None"><path d="
M 1177.00 132.00 
C 1177.40 132.36 1177.51 133.60 1178.00 134.00
C 1178.87 134.33 1180.10 134.74 1181.00 135.00
C 1190.25 137.70 1198.28 150.19 1200.00 160.00
C 1200.53 163.02 1201.13 165.65 1201.00 169.00
C 1200.88 172.21 1200.75 174.97 1200.00 178.00
C 1203.65 171.57 1203.25 165.67 1202.00 158.00
C 1202.00 158.00 1201.79 157.38 1202.00 157.00
C 1196.54 146.57 1187.65 135.72 1177.00 132.00 Z"/>
</g>
<g fill="#D4D4D4" fill-opacity="0.34" stroke="None"><path d="
M 94.00 143.00 
C 91.78 141.61 88.88 139.84 87.00 138.00
C 87.00 138.00 86.43 138.17 86.00 138.00
C 81.95 136.41 77.78 134.17 74.00 132.00
C 76.08 136.83 89.44 140.87 94.00 143.00 Z"/>
</g>
<g fill="#D3D3D3" fill-opacity="0.34" stroke="None"><path d="
M 806.00 141.00 
C 806.00 141.00 806.06 141.51 806.00 142.00
C 805.73 144.35 807.55 143.13 808.00 144.00
C 808.27 142.53 808.81 141.44 809.00 140.00
C 809.26 138.04 808.88 135.97 809.00 134.00
C 808.89 134.36 806.72 140.02 806.00 141.00 Z"/>
</g>
<g fill="#B2B2B2" fill-opacity="0.60" stroke="None"><path d="
M 1181.00 135.00 
C 1183.59 136.05 1185.13 138.25 1187.00 140.00
C 1193.12 145.72 1197.59 152.28 1200.00 160.00
C 1198.28 150.19 1190.25 137.70 1181.00 135.00 Z"/>
</g>
<g fill="#9D9D9D" fill-opacity="0.77" stroke="None"><path d="
M 1187.00 140.00 
C 1185.13 138.25 1183.59 136.05 1181.00 135.00
C 1182.90 136.33 1184.97 138.49 1187.00 140.00 Z"/>
</g>
<g fill="#ABABAB" fill-opacity="0.65" stroke="None"><path d="
M 94.00 143.00 
C 96.60 144.63 99.40 145.49 102.00 147.00
C 98.17 143.63 92.14 139.13 87.00 138.00
C 88.88 139.84 91.78 141.61 94.00 143.00 Z"/>
</g>
<g fill="#969696" fill-opacity="0.82" stroke="None"><path d="
M 683.00 155.00 
C 683.13 154.54 683.03 153.50 683.00 153.00
C 682.86 150.61 683.67 148.69 684.00 147.00
C 684.07 143.82 684.96 141.27 685.00 138.00
C 680.32 140.52 683.22 151.59 683.00 155.00 Z"/>
</g>
<g fill="#C8C8C8" fill-opacity="0.42" stroke="None"><path d="
M 684.00 147.00 
C 683.99 147.50 684.00 148.00 684.00 148.00
C 685.97 145.33 685.87 141.52 686.00 138.00
C 686.00 138.00 685.39 137.79 685.00 138.00
C 684.96 141.27 684.07 143.82 684.00 147.00 Z"/>
</g>
<g fill="#BDBDBD" fill-opacity="0.51" stroke="None"><path d="
M 295.00 149.00 
C 295.26 147.99 295.94 147.73 296.00 146.00
C 295.79 146.86 295.12 147.60 295.00 149.00 Z"/>
</g>
<g fill="#B0B0B0" fill-opacity="0.62" stroke="None"><path d="
M 683.00 153.00 
C 683.56 151.43 684.27 150.23 684.00 148.00
C 684.00 148.00 683.99 147.50 684.00 147.00
C 683.67 148.69 682.86 150.61 683.00 153.00 Z"/>
</g>
<g fill="#D1D1D1" fill-opacity="0.36" stroke="None"><path d="
M 114.00 156.00 
C 111.68 154.43 109.49 151.47 107.00 150.00
C 106.21 149.54 104.61 149.40 104.00 149.00
C 106.54 151.94 110.45 154.19 114.00 156.00 Z"/>
</g>
<g fill="#959595" fill-opacity="0.82" stroke="None"><path d="
M 489.00 209.00 
C 488.90 209.35 488.05 209.77 488.00 210.00
C 487.92 212.75 488.68 220.94 487.00 223.00
C 484.53 226.04 475.52 211.21 474.00 209.00
C 472.38 206.63 470.64 204.39 469.00 202.00
C 466.87 199.55 464.75 197.82 463.00 195.00
C 463.00 195.00 463.22 194.36 463.00 194.00
C 458.24 190.90 453.96 183.76 451.00 179.00
C 451.00 179.00 451.20 178.40 451.00 178.00
C 449.05 176.64 447.20 175.02 446.00 173.00
C 445.14 171.56 445.28 171.26 444.00 170.00
C 440.66 166.70 437.47 163.07 435.00 159.00
C 433.53 156.58 431.94 155.23 430.00 153.00
C 433.52 159.24 437.80 164.65 442.70 170.30 C 447.60 175.96 451.14 181.12 455.75 187.25 C 460.35 193.39 463.20 198.00 468.70 204.30 C 474.19 210.61 474.95 214.10 481.75 221.25 C 488.56 228.39 489.74 215.95 489.00 209.00 Z"/>
</g>
<g fill="#A1A1A1" fill-opacity="0.73" stroke="None"><path d="
M 494.00 166.00 
C 495.11 161.65 495.81 157.11 496.00 153.00
C 495.17 157.39 494.44 161.41 494.00 166.00 Z"/>
</g>
<g fill="#C4C4C4" fill-opacity="0.46" stroke="None"><path d="
M 596.00 158.00 
C 596.30 156.81 597.80 154.84 597.00 153.00
C 596.66 154.37 596.25 156.11 596.00 158.00 Z"/>
</g>
<g fill="#A1A1A1" fill-opacity="0.73" stroke="None"><path d="
M 596.00 158.00 
C 595.47 162.05 596.10 166.55 596.00 170.00
C 598.18 163.77 597.05 158.96 597.00 153.00
C 597.80 154.84 596.30 156.81 596.00 158.00 Z"/>
</g>
<g fill="#9A9A9A" fill-opacity="0.79" stroke="None"><path d="
M 294.00 163.00 
C 294.05 162.50 294.00 161.50 294.00 161.00
C 294.00 159.14 293.62 156.82 294.00 155.00
C 291.40 153.27 294.02 162.30 294.00 163.00 Z"/>
</g>
<g fill="#BBBBBB" fill-opacity="0.52" stroke="None"><path d="
M 294.00 161.00 
C 294.77 159.08 294.94 157.51 295.00 155.00
C 295.00 155.00 294.35 155.23 294.00 155.00
C 293.62 156.82 294.00 159.14 294.00 161.00 Z"/>
</g>
<g fill="#9C9C9C" fill-opacity="0.77" stroke="None"><path d="
M 806.00 157.00 
C 806.40 162.76 805.00 169.38 804.00 175.00
C 808.20 169.86 805.88 160.58 806.00 155.00
C 805.89 155.47 805.97 156.50 806.00 157.00 Z"/>
</g>
<g fill="#CCCCCC" fill-opacity="0.40" stroke="None"><path d="
M 803.00 176.00 
C 803.05 175.77 803.77 175.28 804.00 175.00
C 805.00 169.38 806.40 162.76 806.00 157.00
C 802.55 160.64 803.11 170.68 803.00 176.00 Z"/>
</g>
<g fill="#E7E7E7" fill-opacity="0.19" stroke="None"><path d="
M 1200.00 178.00 
C 1199.72 179.11 1199.32 179.90 1199.00 181.00
C 1198.33 183.30 1198.49 185.16 1197.00 187.00
C 1196.98 187.50 1197.00 188.00 1197.00 188.00
C 1188.52 209.60 1164.73 220.01 1144.68 228.68 C 1124.62 237.34 1093.06 241.42 1070.00 244.00
C 1069.51 244.20 1069.32 245.75 1069.00 246.00
C 1094.70 244.11 1126.90 239.26 1151.26 228.26 C 1175.61 217.25 1197.34 204.08 1204.00 177.00
L 1204.00 160.00
C 1203.28 159.68 1202.31 158.58 1202.00 158.00
C 1203.25 165.67 1203.65 171.57 1200.00 178.00 Z"/>
</g>
<g fill="#AAAAAA" fill-opacity="0.66" stroke="None"><path d="
M 444.00 170.00 
C 441.04 166.32 437.99 162.64 435.00 159.00
C 437.47 163.07 440.66 166.70 444.00 170.00 Z"/>
</g>
<g fill="#AAAAAA" fill-opacity="0.66" stroke="None"><path d="
M 890.00 171.00 
C 890.31 168.86 891.67 165.63 892.00 163.00
C 891.35 165.64 890.13 167.51 890.00 171.00 Z"/>
</g>
<g fill="#BFBFBF" fill-opacity="0.49" stroke="None"><path d="
M 293.00 172.00 
C 293.42 170.30 292.94 168.38 293.00 167.00
C 292.53 168.85 293.10 170.10 293.00 172.00 Z"/>
</g>
<g fill="#949494" fill-opacity="0.84" stroke="None"><path d="
M 1197.00 188.00 
C 1197.00 188.00 1196.98 187.50 1197.00 187.00
C 1197.10 184.50 1198.07 182.92 1199.00 181.00
C 1199.32 179.90 1199.72 179.11 1200.00 178.00
C 1200.75 174.97 1200.88 172.21 1201.00 169.00
C 1200.56 171.27 1198.07 178.26 1197.78 180.78 C 1197.49 183.30 1193.56 190.30 1197.00 188.00 Z"/>
</g>
<g fill="#B5B5B5" fill-opacity="0.57" stroke="None"><path d="
M 451.00 178.00 
C 449.90 175.76 447.35 174.86 446.00 173.00
C 447.20 175.02 449.05 176.64 451.00 178.00 Z"/>
</g>
<g fill="#999999" fill-opacity="0.79" stroke="None"><path d="
M 289.00 198.00 
C 289.69 191.80 290.15 185.37 291.00 179.00
C 288.48 185.49 288.48 191.18 289.00 198.00 Z"/>
</g>
<g fill="#BBBBBB" fill-opacity="0.53" stroke="None"><path d="
M 463.00 194.00 
C 460.04 189.24 455.76 182.10 451.00 179.00
C 453.96 183.76 458.24 190.90 463.00 194.00 Z"/>
</g>
<g fill="#ACACAC" fill-opacity="0.64" stroke="None"><path d="
M 1197.00 187.00 
C 1198.49 185.16 1198.33 183.30 1199.00 181.00
C 1198.07 182.92 1197.10 184.50 1197.00 187.00 Z"/>
</g>
<g fill="#929292" fill-opacity="0.85" stroke="None"><path d="
M 375.00 198.00 
C 377.30 200.67 380.86 203.21 383.00 206.00
C 379.48 199.75 373.80 194.20 369.00 189.00
C 371.07 192.01 372.56 195.17 375.00 198.00 Z"/>
</g>
<g fill="#919191" fill-opacity="0.85" stroke="None"><path d="
M 677.00 203.00 
C 677.00 202.00 677.03 201.00 677.00 200.00
C 676.92 197.22 677.09 195.14 678.00 193.00
C 678.00 192.50 678.10 191.02 678.00 191.00
C 676.73 194.96 675.00 198.30 677.00 203.00 Z"/>
</g>
<g fill="#CDCDCD" fill-opacity="0.39" stroke="None"><path d="
M 678.00 193.00 
C 678.00 194.67 678.00 196.33 678.00 198.00
C 679.18 195.23 678.04 193.46 678.00 191.00
C 678.10 191.02 678.00 192.50 678.00 193.00 Z"/>
</g>
<g fill="#AEAEAE" fill-opacity="0.63" stroke="None"><path d="
M 677.00 200.00 
C 677.27 199.75 678.00 200.00 678.00 200.00
C 677.97 199.50 678.00 198.50 678.00 198.00
C 678.00 196.33 678.00 194.67 678.00 193.00
C 677.09 195.14 676.92 197.22 677.00 200.00 Z"/>
</g>
<g fill="#ACACAC" fill-opacity="0.64" stroke="None"><path d="
M 469.00 202.00 
C 467.30 199.53 465.55 196.66 463.00 195.00
C 464.75 197.82 466.87 199.55 469.00 202.00 Z"/>
</g>
<g fill="#D7D7D7" fill-opacity="0.31" stroke="None"><path d="
M 384.00 211.00 
C 381.00 206.63 378.05 202.31 375.00 198.00
C 376.93 201.85 380.09 206.77 384.00 211.00 Z"/>
</g>
<g fill="#AFAFAF" fill-opacity="0.62" stroke="None"><path d="
M 384.00 211.00 
C 385.49 213.17 387.17 215.25 389.00 217.00
C 386.71 214.01 384.86 209.30 383.00 206.00
C 380.86 203.21 377.30 200.67 375.00 198.00
C 378.05 202.31 381.00 206.63 384.00 211.00 Z"/>
</g>
<g fill="#BBBBBB" fill-opacity="0.53" stroke="None"><path d="
M 887.00 200.00 
C 886.82 201.27 887.00 202.71 887.00 204.00
C 887.77 202.07 887.93 200.51 888.00 198.00
C 887.84 198.61 887.15 198.92 887.00 200.00 Z"/>
</g>
<g fill="#CECECE" fill-opacity="0.38" stroke="None"><path d="
M 589.00 220.00 
C 589.26 218.19 589.90 215.48 590.00 213.00
C 590.11 210.37 590.56 208.00 591.00 206.00
C 591.00 205.00 591.00 204.00 591.00 203.00
C 591.00 202.09 590.81 200.88 591.00 200.00
C 589.86 204.26 588.63 213.30 589.00 220.00 Z"/>
</g>
<g fill="#CDCDCD" fill-opacity="0.38" stroke="None"><path d="
M 677.00 203.00 
C 677.00 203.50 677.14 204.54 677.00 205.00
C 676.87 205.31 678.15 202.40 678.00 200.00
C 678.00 200.00 677.27 199.75 677.00 200.00
C 677.03 201.00 677.00 202.00 677.00 203.00 Z"/>
</g>
<g fill="#9A9A9A" fill-opacity="0.79" stroke="None"><path d="
M 887.00 206.00 
C 886.97 205.50 887.00 204.50 887.00 204.00
C 887.00 202.71 886.82 201.27 887.00 200.00
C 885.91 202.55 886.87 203.72 887.00 206.00 Z"/>
</g>
<g fill="#939393" fill-opacity="0.84" stroke="None"><path d="
M 591.00 206.00 
C 591.00 207.61 591.23 209.41 591.00 211.00
C 592.22 208.00 591.65 205.95 591.00 203.00
C 591.00 204.00 591.00 205.00 591.00 206.00 Z"/>
</g>
<g fill="#C4C4C4" fill-opacity="0.45" stroke="None"><path d="
M 488.00 210.00 
C 488.05 209.77 488.90 209.35 489.00 209.00
C 489.42 207.51 488.87 205.55 489.00 204.00
C 488.62 205.71 488.07 207.66 488.00 210.00 Z"/>
</g>
<g fill="#ADADAD" fill-opacity="0.64" stroke="None"><path d="
M 590.00 213.00 
C 590.10 212.54 590.86 211.92 591.00 211.00
C 591.23 209.41 591.00 207.61 591.00 206.00
C 590.56 208.00 590.11 210.37 590.00 213.00 Z"/>
</g>
<g fill="#969696" fill-opacity="0.81" stroke="None"><path d="
M 1021.00 206.00 
C 1019.40 205.70 1017.62 206.16 1016.00 206.00
C 1017.42 206.29 1019.91 205.91 1021.00 206.00 Z"/>
</g>
<g fill="#D4D4D4" fill-opacity="0.33" stroke="None"><path d="
M 1028.00 207.00 
C 1033.13 207.01 1037.73 208.00 1043.00 208.00
C 1043.00 208.00 1043.50 208.00 1044.00 208.00
C 1038.91 207.51 1033.04 206.29 1028.00 207.00 Z"/>
</g>
<g fill="#9F9F9F" fill-opacity="0.75" stroke="None"><path d="
M 1043.00 208.00 
C 1037.73 208.00 1033.13 207.01 1028.00 207.00
C 1026.71 207.00 1025.28 207.17 1024.00 207.00
C 1028.19 208.42 1038.82 211.09 1043.00 208.00 Z"/>
</g>
<g fill="#B3B3B3" fill-opacity="0.58" stroke="None"><path d="
M 487.00 223.00 
C 481.82 219.88 478.30 213.65 474.00 209.00
C 475.52 211.21 484.53 226.04 487.00 223.00 Z"/>
</g>
<g fill="#CCCCCC" fill-opacity="0.40" stroke="None"><path d="
M 676.00 211.00 
C 676.00 212.47 676.39 214.59 676.00 216.00
C 677.92 213.39 676.12 211.37 676.00 209.00
C 676.02 209.50 676.00 210.50 676.00 211.00 Z"/>
</g>
<g fill="#AAAAAA" fill-opacity="0.66" stroke="None"><path d="
M 675.00 217.00 
C 675.05 216.77 675.78 216.30 676.00 216.00
C 676.39 214.59 676.00 212.47 676.00 211.00
C 675.23 212.93 675.07 214.49 675.00 217.00 Z"/>
</g>
<g fill="#C3C3C3" fill-opacity="0.46" stroke="None"><path d="
M 41.00 218.00 
C 42.30 218.40 43.07 219.06 45.00 219.00
C 45.50 218.98 46.51 218.94 47.00 219.00
C 44.53 218.33 43.73 218.25 41.00 218.00 Z"/>
</g>
<g fill="#959595" fill-opacity="0.83" stroke="None"><path d="
M 389.00 218.00 
C 396.31 223.11 400.65 232.20 406.00 239.00
C 406.86 240.09 408.13 240.97 409.00 242.00
C 404.69 234.89 397.38 220.50 389.00 217.00
C 389.00 217.00 388.76 217.68 389.00 218.00 Z"/>
</g>
<g fill="#CFCFCF" fill-opacity="0.37" stroke="None"><path d="
M 799.00 217.00 
C 796.06 221.99 800.26 224.32 799.00 217.00 Z"/>
</g>
<g fill="#BABABA" fill-opacity="0.54" stroke="None"><path d="
M 394.00 225.00 
C 395.92 227.36 398.26 229.35 400.00 232.00
C 401.87 234.84 403.59 236.54 406.00 239.00
C 400.65 232.20 396.31 223.11 389.00 218.00
C 390.75 220.28 392.43 222.56 394.00 225.00 Z"/>
</g>
<g fill="#AEAEAE" fill-opacity="0.63" stroke="None"><path d="
M 54.00 220.00 
C 51.71 219.49 49.29 219.27 47.00 219.00
C 46.51 218.94 45.50 218.98 45.00 219.00
C 47.69 219.55 51.72 219.75 54.00 220.00 Z"/>
</g>
<g fill="#CACACA" fill-opacity="0.41" stroke="None"><path d="
M 957.00 222.00 
C 959.58 222.00 962.45 222.37 965.00 222.00
C 965.30 221.78 965.77 221.05 966.00 221.00
C 963.06 221.00 959.22 220.36 957.00 222.00 Z"/>
</g>
<g fill="#C7C7C7" fill-opacity="0.44" stroke="None"><path d="
M 68.00 223.00 
C 70.24 223.30 72.74 223.00 75.00 223.00
C 73.05 221.56 70.63 222.05 68.00 222.00
C 68.00 222.00 67.75 222.74 68.00 223.00 Z"/>
</g>
<g fill="#BCBCBC" fill-opacity="0.52" stroke="None"><path d="
M 940.00 224.00 
C 941.66 224.00 943.34 224.06 945.00 224.00
C 948.88 223.87 952.09 223.15 956.00 223.00
C 955.98 223.00 956.00 222.00 956.00 222.00
C 950.22 222.00 944.99 223.40 940.00 224.00 Z"/>
</g>
<g fill="#9C9C9C" fill-opacity="0.77" stroke="None"><path d="
M 956.00 223.00 
C 959.00 222.89 962.71 223.69 965.00 222.00
C 962.45 222.37 959.58 222.00 957.00 222.00
C 957.00 222.00 956.50 222.00 956.00 222.00
C 956.00 222.00 955.98 223.00 956.00 223.00 Z"/>
</g>
<g fill="#9E9E9E" fill-opacity="0.75" stroke="None"><path d="
M 76.00 223.00 
C 76.00 223.00 75.50 223.00 75.00 223.00
C 72.74 223.00 70.24 223.30 68.00 223.00
C 70.31 225.39 73.74 223.22 76.00 223.00 Z"/>
</g>
<g fill="#9D9D9D" fill-opacity="0.76" stroke="None"><path d="
M 924.00 225.00 
C 921.14 225.41 917.50 226.00 914.00 226.00
C 921.80 229.31 936.89 225.32 945.00 224.00
C 943.34 224.06 941.66 224.00 940.00 224.00
C 934.39 224.00 929.44 224.79 924.00 225.00 Z"/>
</g>
<g fill="#D3D3D3" fill-opacity="0.34" stroke="None"><path d="
M 400.00 232.00 
C 398.26 229.35 395.92 227.36 394.00 225.00
C 395.78 227.76 397.94 229.55 400.00 232.00 Z"/>
</g>
<g fill="#C4C4C4" fill-opacity="0.45" stroke="None"><path d="
M 912.00 226.00 
C 912.50 226.03 913.50 226.00 914.00 226.00
C 917.50 226.00 921.14 225.41 924.00 225.00
C 919.89 225.16 915.48 225.50 912.00 226.00 Z"/>
</g>
<g fill="#989898" fill-opacity="0.80" stroke="None"><path d="
M 571.00 233.00 
C 570.98 232.99 571.88 232.26 572.00 232.00
C 572.03 230.34 571.89 228.65 572.00 227.00
C 572.10 226.76 569.00 226.34 570.00 229.00 C 571.01 231.65 570.58 231.09 571.00 233.00 Z"/>
</g>
<g fill="#9F9F9F" fill-opacity="0.75" stroke="None"><path d="
M 739.00 231.00 
C 724.26 230.44 709.09 230.00 694.00 230.00
C 708.23 231.38 724.37 232.42 739.00 231.00 Z"/>
</g>
<g fill="#C6C6C6" fill-opacity="0.44" stroke="None"><path d="
M 571.00 233.00 
C 571.13 233.08 571.05 235.77 571.00 236.00
C 570.02 238.80 571.95 234.60 572.00 232.00
C 571.88 232.26 570.98 232.99 571.00 233.00 Z"/>
</g>
<g fill="#CECECE" fill-opacity="0.37" stroke="None"><path d="
M 1036.00 249.00 
C 1042.94 247.94 1049.38 246.57 1057.00 247.00
C 1061.24 247.24 1064.63 246.32 1069.00 246.00
C 1069.32 245.75 1069.51 244.20 1070.00 244.00
C 1064.02 244.67 1057.28 246.31 1051.00 245.00 C 1044.72 243.69 1040.71 247.78 1036.00 249.00 Z"/>
</g>
<g fill="#C5C5C5" fill-opacity="0.44" stroke="None"><path d="
M 283.00 250.00 
C 283.00 251.33 283.00 252.67 283.00 254.00
C 284.18 251.21 283.11 249.52 283.00 247.00
C 283.00 248.00 283.00 249.00 283.00 250.00 Z"/>
</g>
<g fill="#B4B4B4" fill-opacity="0.58" stroke="None"><path d="
M 569.00 252.00 
C 568.87 253.64 569.00 255.35 569.00 257.00
C 570.02 254.59 570.00 252.06 570.00 249.00
C 569.82 249.80 569.11 250.65 569.00 252.00 Z"/>
</g>
<g fill="#A3A3A3" fill-opacity="0.72" stroke="None"><path d="
M 283.00 256.00 
C 283.15 255.55 283.00 254.50 283.00 254.00
C 283.00 252.67 283.00 251.33 283.00 250.00
C 282.49 252.07 283.04 254.22 283.00 256.00 Z"/>
</g>
<g fill="#979797" fill-opacity="0.81" stroke="None"><path d="
M 569.00 259.00 
C 568.98 258.50 569.00 257.50 569.00 257.00
C 569.00 255.35 568.87 253.64 569.00 252.00
C 568.37 254.53 568.90 256.65 569.00 259.00 Z"/>
</g>
<g fill="#B9B9B9" fill-opacity="0.55" stroke="None"><path d="
M 585.00 258.00 
C 584.86 259.63 585.80 260.06 586.00 261.00
C 586.03 259.33 586.00 257.67 586.00 256.00
C 586.06 255.75 584.96 258.09 585.00 258.00 Z"/>
</g>
<g fill="#CCCCCC" fill-opacity="0.39" stroke="None"><path d="
M 984.00 256.00 
C 982.36 256.17 980.65 255.92 979.00 256.00
C 980.48 256.03 982.22 256.37 984.00 256.00 Z"/>
</g>
<g fill="#D5D5D5" fill-opacity="0.32" stroke="None"><path d="
M 598.00 275.00 
C 597.65 274.95 597.23 274.05 597.00 274.00
C 584.07 274.00 585.79 272.44 586.00 261.00
C 585.80 260.06 584.86 259.63 585.00 258.00
C 583.15 261.88 581.63 269.13 583.08 273.92 C 584.54 278.70 595.16 275.27 598.00 275.00 Z"/>
</g>
<g fill="#9C9C9C" fill-opacity="0.77" stroke="None"><path d="
M 145.00 275.00 
C 148.79 273.74 152.29 272.73 156.00 271.00
C 159.03 269.58 162.01 268.29 165.00 267.00
C 166.73 266.05 169.13 264.20 171.00 263.00
C 171.18 262.83 173.05 260.98 173.00 261.00
C 167.99 261.86 164.16 266.93 159.07 268.07 C 153.99 269.22 149.23 272.62 145.00 275.00 Z"/>
</g>
<g fill="#D0D0D0" fill-opacity="0.36" stroke="None"><path d="
M 171.00 263.00 
C 169.09 264.72 167.50 265.92 165.00 267.00
C 162.01 268.29 159.03 269.58 156.00 271.00
C 162.12 269.39 169.55 266.56 175.00 261.00
C 174.70 261.24 173.49 260.92 173.00 261.00
C 173.05 260.98 171.18 262.83 171.00 263.00 Z"/>
</g>
<g fill="#B9B9B9" fill-opacity="0.54" stroke="None"><path d="
M 165.00 267.00 
C 167.50 265.92 169.09 264.72 171.00 263.00
C 169.13 264.20 166.73 266.05 165.00 267.00 Z"/>
</g>
<g fill="#969696" fill-opacity="0.82" stroke="None"><path d="
M 220.00 267.00 
C 223.00 267.00 226.00 267.00 229.00 267.00
C 231.67 267.00 234.33 267.00 237.00 267.00
C 232.89 266.60 224.01 264.04 220.00 267.00 Z"/>
</g>
<g fill="#979797" fill-opacity="0.81" stroke="None"><path d="
M 212.00 268.00 
C 214.33 268.00 216.67 268.00 219.00 268.00
C 219.07 267.99 219.00 267.00 219.00 267.00
C 213.82 267.61 207.42 265.75 203.00 268.00
C 206.00 268.00 209.00 268.00 212.00 268.00 Z"/>
</g>
<g fill="#B3B3B3" fill-opacity="0.59" stroke="None"><path d="
M 219.00 268.00 
C 222.42 268.00 226.25 267.27 229.00 267.00
C 226.00 267.00 223.00 267.00 220.00 267.00
C 220.00 267.00 219.50 267.00 219.00 267.00
C 219.00 267.00 219.07 267.99 219.00 268.00 Z"/>
</g>
<g fill="#CDCDCD" fill-opacity="0.38" stroke="None"><path d="
M 563.00 273.00 
C 558.84 273.57 554.20 273.00 550.00 273.00
C 555.17 273.70 556.61 273.79 563.00 274.00 C 569.39 274.21 567.97 271.65 568.00 267.00
C 567.17 271.92 568.28 272.28 563.00 273.00 Z"/>
</g>
<g fill="#A1A1A1" fill-opacity="0.74" stroke="None"><path d="
M 524.00 272.00 
C 526.86 271.59 530.10 272.00 533.00 272.00
C 535.00 272.00 537.00 271.97 539.00 272.00
C 541.52 272.03 544.18 272.75 546.00 273.00
C 547.33 272.99 548.67 273.00 550.00 273.00
C 554.20 273.00 558.84 273.57 563.00 273.00
C 557.91 273.20 549.48 270.59 544.00 271.00 C 538.52 271.41 528.24 268.87 524.00 272.00 Z"/>
</g>
<g fill="#949494" fill-opacity="0.84" stroke="None"><path d="
M 784.00 273.00 
C 790.33 273.00 796.67 273.00 803.00 273.00
C 803.00 273.00 803.50 273.00 804.00 273.00
C 806.86 270.88 813.25 272.00 817.00 272.00
C 818.66 272.00 820.34 272.06 822.00 272.00
C 810.26 271.50 795.79 270.52 784.00 273.00 Z"/>
</g>
<g fill="#D5D5D5" fill-opacity="0.33" stroke="None"><path d="
M 523.00 273.00 
C 526.49 273.24 530.22 272.27 533.00 272.00
C 530.10 272.00 526.86 271.59 524.00 272.00
C 523.70 272.22 523.22 272.96 523.00 273.00 Z"/>
</g>
<g fill="#BCBCBC" fill-opacity="0.52" stroke="None"><path d="
M 546.00 273.00 
C 544.18 272.75 541.52 272.03 539.00 272.00
C 540.73 272.17 543.54 273.01 546.00 273.00 Z"/>
</g>
<g fill="#B2B2B2" fill-opacity="0.60" stroke="None"><path d="
M 804.00 273.00 
C 808.43 273.00 813.25 272.40 817.00 272.00
C 813.25 272.00 806.86 270.88 804.00 273.00 Z"/>
</g>
<g fill="#C4C4C4" fill-opacity="0.46" stroke="None"><path d="
M 803.00 273.00 
C 796.67 273.00 790.33 273.00 784.00 273.00
C 788.62 273.01 798.50 276.33 803.00 273.00 Z"/>
</g>
<g fill="#ABABAB" fill-opacity="0.65" stroke="None"><path d="
M 598.00 275.00 
C 606.59 276.24 616.31 275.00 625.00 275.00
C 616.44 274.17 606.33 274.00 597.00 274.00
C 597.23 274.05 597.65 274.95 598.00 275.00 Z"/>
</g>
<g fill="#929292" fill-opacity="0.85" stroke="None"><path d="
M 703.00 275.00 
C 710.33 275.00 717.67 275.00 725.00 275.00
C 729.00 275.00 733.00 275.00 737.00 275.00
C 737.50 275.00 738.00 275.00 738.00 275.00
C 738.25 274.75 738.00 274.00 738.00 274.00
C 726.36 274.00 713.93 273.94 703.00 275.00 Z"/>
</g>
<g fill="#A5A5A5" fill-opacity="0.70" stroke="None"><path d="
M 738.00 275.00 
C 742.51 275.00 747.54 275.64 752.00 275.00
C 752.30 274.78 752.77 274.05 753.00 274.00
C 748.00 274.00 743.00 274.00 738.00 274.00
C 738.00 274.00 738.25 274.75 738.00 275.00 Z"/>
</g>
<g fill="#B3B3B3" fill-opacity="0.59" stroke="None"><path d="
M 725.00 275.00 
C 717.67 275.00 710.33 275.00 703.00 275.00
C 683.00 275.00 663.00 275.00 643.00 275.00
C 668.64 277.48 699.29 277.49 725.00 275.00 Z"/>
</g>
<g fill="#D4D4D4" fill-opacity="0.33" stroke="None"><path d="
M 752.00 275.00 
C 747.54 275.64 742.51 275.00 738.00 275.00
C 738.00 275.00 737.50 275.00 737.00 275.00
C 740.76 275.36 748.26 277.76 752.00 275.00 Z"/>
</g>
<g fill="#FFFFFF" fill-opacity="0.01" stroke="None"><path d="
M 635.00 277.00 
C 632.37 277.00 629.62 276.77 627.00 277.00
C 629.60 277.02 631.98 278.28 635.00 277.00 Z"/>
</g>
<g fill="#FDFDFD" fill-opacity="0.03" stroke="None"><path d="
M 677.00 277.00 
C 663.67 277.00 650.33 277.00 637.00 277.00
C 641.84 279.06 652.53 279.16 657.26 278.60 C 661.98 278.04 674.87 280.96 677.00 277.00 Z"/>
</g>
<g fill="#FCFCFC" fill-opacity="0.03" stroke="None"><path d="
M 712.00 277.00 
C 700.67 277.00 689.33 277.00 678.00 277.00
C 682.23 280.44 691.27 278.69 695.92 278.07 C 700.58 277.45 708.76 281.02 712.00 277.00 Z"/>
</g>
<g fill="#FFFFFF" fill-opacity="0.02" stroke="None"><path d="
M 722.00 277.00 
C 719.05 276.74 715.96 277.00 713.00 277.00
C 715.95 279.19 719.25 277.02 722.00 277.00 Z"/>
</g>
<g fill="#D2D2D2" fill-opacity="0.34" stroke="None"><path d="
M 100.00 284.00 
C 98.41 284.26 96.03 285.72 94.00 286.00
C 101.62 286.59 106.86 285.32 113.00 283.00
C 108.61 283.64 104.60 284.00 100.00 284.00 Z"/>
</g>
<g fill="#989898" fill-opacity="0.80" stroke="None"><path d="
M 52.00 286.00 
C 55.61 286.00 58.66 286.71 62.00 287.00
C 72.74 287.95 83.67 285.21 94.00 286.00
C 96.03 285.72 98.41 284.26 100.00 284.00
C 84.57 284.00 66.88 283.97 52.00 286.00 Z"/>
</g>
<g fill="#CECECE" fill-opacity="0.37" stroke="None"><path d="
M 62.00 287.00 
C 58.66 286.71 55.61 286.00 52.00 286.00
C 50.67 286.00 49.33 286.00 48.00 286.00
C 52.81 286.93 56.82 287.50 62.00 287.00 Z"/>
</g>
</svg>