<svg xmlns="http://www.w3.org/2000/svg" xmlns:v="https://svgstorm.com"
viewBox = "0 0 1716 1491"
width="1716"
height="1491">
<g fill="None" fill-opacity="0.0" stroke="#000000" stroke-opacity="0.00" stroke-width="0.3"><path d="
M 0.00 1491.00 
L 1716.00 1491.00
L 1716.00 0.00
L 1537.00 0.00
C 1599.17 0.83 1677.41 20.21 1698.92 84.08 C 1720.44 147.94 1691.34 222.10 1668.22 282.22 C 1645.11 342.34 1614.35 398.96 1583.03 454.03 C 1551.71 509.09 1518.18 559.34 1484.25 612.25 C 1450.32 665.16 1416.06 715.10 1381.75 766.75 C 1347.44 818.39 1312.70 868.96 1278.08 920.08 C 1243.47 971.20 1209.32 1020.63 1174.08 1072.08
C 1266.79 1045.74 1361.08 1022.39 1460.00 1018.00
C 1451.82 1047.21 1442.01 1076.98 1432.00 1105.00
C 1431.98 1105.50 1432.00 1106.00 1432.00 1106.00
C 1429.80 1119.40 1423.81 1132.45 1420.00 1145.00
C 1419.39 1149.25 1418.85 1151.25 1417.00 1155.00
C 1412.56 1168.85 1412.48 1188.30 1404.00 1200.00
C 1403.94 1200.49 1403.98 1201.50 1404.00 1202.00
C 1404.25 1208.55 1401.21 1223.55 1397.00 1228.00
C 1397.03 1228.50 1397.01 1229.50 1397.00 1230.00
C 1396.88 1234.59 1394.91 1242.93 1392.00 1246.00
C 1391.94 1246.49 1391.98 1247.50 1392.00 1248.00
C 1392.25 1254.65 1389.57 1265.39 1387.22 1271.22 C 1384.87 1277.05 1385.80 1289.34 1381.00 1293.00
C 1381.03 1293.50 1381.00 1294.00 1381.00 1294.00
C 1382.47 1307.53 1374.59 1323.49 1372.00 1336.00
C 1371.83 1340.14 1371.58 1342.34 1370.00 1346.00
C 1367.29 1359.34 1366.22 1368.98 1364.01 1383.01 C 1361.79 1397.04 1348.85 1387.72 1337.78 1384.22 C 1326.70 1380.73 1314.94 1378.77 1303.33 1375.67 C 1291.72 1372.57 1279.64 1370.89 1267.33 1368.67 C 1255.02 1366.45 1241.89 1365.69 1229.00 1364.00 C 1216.11 1362.31 1202.51 1361.78 1189.00 1361.00 C 1175.49 1360.22 1160.98 1360.08 1147.00 1360.00 C 1133.02 1359.92 1118.66 1360.47 1105.00 1361.00 C 1091.34 1361.53 1078.29 1363.06 1064.93 1363.93 C 1051.56 1364.80 1038.37 1366.99 1025.00 1367.00
C 1024.50 1367.00 1024.00 1367.00 1024.00 1367.00
C 1016.65 1372.44 1002.33 1368.35 993.00 1371.00 C 983.66 1373.64 971.84 1373.96 961.93 1375.93 C 952.02 1377.90 940.84 1379.01 930.78 1380.78 C 920.72 1382.54 910.71 1383.53 900.78 1385.78 C 890.85 1388.03 880.02 1389.11 870.00 1391.00 C 859.97 1392.89 849.90 1394.95 839.93 1396.93 C 829.96 1398.91 820.65 1400.47 810.78 1402.78 C 800.91 1405.09 789.96 1406.10 780.00 1408.00 C 770.04 1409.89 760.85 1413.50 750.78 1414.78 C 740.71 1416.06 730.20 1419.78 720.00 1420.00
C 719.50 1420.01 719.00 1420.00 719.00 1420.00
C 710.56 1424.62 699.24 1423.79 689.78 1426.78 C 680.32 1429.77 668.80 1430.00 659.00 1432.00
C 653.64 1433.09 648.55 1434.21 643.00 1435.00
C 641.63 1435.20 639.06 1436.90 637.00 1436.00
C 631.07 1416.45 653.19 1406.71 664.25 1394.25 C 675.30 1381.79 687.92 1370.92 699.25 1358.25 C 710.58 1345.57 722.28 1332.82 733.25 1320.25 C 744.23 1307.69 755.49 1295.22 766.25 1282.25 C 777.00 1269.27 787.57 1256.43 798.25 1243.25 C 808.92 1230.07 819.83 1216.34 830.25 1203.25 C 840.67 1190.16 850.73 1176.31 861.25 1163.25 C 871.77 1150.19 880.73 1135.66 891.30 1122.30 C 901.88 1108.95 911.59 1093.66 923.00 1082.00
C 923.22 1081.64 923.00 1081.00 923.00 1081.00
C 925.77 1068.37 940.37 1059.55 946.10 1048.10 C 951.83 1036.65 962.77 1026.34 969.75 1014.75 C 976.73 1003.17 985.29 992.20 992.92 980.92 C 1000.55 969.63 1008.09 958.01 1015.77 946.77 C 1023.45 935.53 1030.67 924.17 1037.92 912.92 C 1045.17 901.66 1053.47 890.51 1060.75 878.75 C 1068.03 866.99 1075.59 855.51 1082.77 843.77 C 1089.95 832.03 1097.67 820.63 1104.77 808.77 C 1111.87 796.91 1119.15 785.23 1126.25 773.25 C 1133.36 761.28 1139.33 749.86 1146.77 737.77 C 1154.21 725.69 1159.97 713.30 1166.92 700.92 C 1173.88 688.55 1180.55 676.41 1186.92 663.92 C 1193.29 651.43 1199.65 638.29 1205.78 625.78 C 1211.90 613.27 1218.00 601.15 1223.97 587.97 C 1229.95 574.80 1235.62 561.46 1240.93 547.93 C 1246.23 534.39 1252.20 520.57 1256.75 506.75 C 1261.31 492.94 1264.75 473.40 1266.00 459.00 C 1267.25 444.60 1263.57 429.02 1254.25 417.75 C 1244.93 406.49 1236.77 401.80 1223.25 397.41 C 1209.73 393.02 1187.14 395.04 1172.98 397.98 C 1158.81 400.91 1143.00 407.10 1129.92 411.92 C 1116.85 416.75 1104.87 422.71 1092.31 429.31 C 1079.74 435.90 1067.08 440.84 1055.25 448.25 C 1043.43 455.67 1031.50 462.43 1019.92 469.92 C 1008.35 477.42 997.64 486.48 987.10 494.10 C 976.56 501.72 965.88 510.72 955.75 519.75 C 945.63 528.78 935.29 537.78 925.77 546.77 C 916.25 555.76 907.08 565.42 897.75 574.75 C 888.43 584.09 877.59 592.98 868.75 602.75 C 859.92 612.53 848.79 620.93 840.25 631.25 C 831.70 641.57 815.30 649.27 817.97 662.03 C 820.64 674.80 831.58 692.39 830.00 707.00
C 829.95 707.49 830.00 708.00 830.00 708.00
C 834.61 709.23 833.41 722.42 835.00 728.00 C 836.58 733.59 838.28 742.96 838.99 750.01 C 839.70 757.05 841.01 766.26 841.00 774.00 C 840.99 781.74 841.81 789.20 843.00 797.00 C 844.19 804.81 842.07 814.91 843.00 823.00 C 843.93 831.09 842.59 840.03 841.00 847.00
C 841.00 848.33 841.00 849.67 841.00 851.00
C 841.00 858.85 840.51 866.46 840.00 874.00
C 839.54 880.82 840.23 889.47 839.00 896.00 C 837.77 902.53 838.42 911.25 836.07 917.07 C 833.72 922.90 836.95 933.18 832.00 937.00
C 832.05 937.49 832.00 938.00 832.00 938.00
C 832.92 946.48 828.52 956.68 828.00 965.00 C 827.48 973.32 823.86 982.28 822.02 990.02 C 820.19 997.77 818.61 1008.01 816.01 1015.01 C 813.41 1022.00 813.79 1034.85 808.00 1039.00
C 807.92 1039.49 808.00 1040.00 808.00 1040.00
C 807.27 1044.44 806.51 1048.28 804.00 1051.00
C 803.93 1051.49 804.01 1052.50 804.00 1053.00
C 803.52 1071.31 790.66 1090.31 785.68 1107.68 C 780.70 1125.04 771.02 1142.57 764.23 1159.23 C 757.44 1175.89 748.35 1192.22 740.08 1208.08 C 731.81 1223.95 722.58 1239.27 713.23 1254.23 C 703.88 1269.19 693.66 1283.29 683.23 1297.23 C 672.80 1311.17 661.44 1323.92 649.75 1336.75 C 638.06 1349.58 626.25 1361.18 612.75 1372.75 C 599.26 1384.32 586.56 1394.68 571.77 1404.77 C 556.98 1414.86 542.75 1424.50 525.77 1431.77 C 508.79 1439.05 491.19 1446.13 472.93 1451.93 C 454.66 1457.72 434.76 1463.43 415.33 1467.33 C 395.90 1471.23 374.66 1478.89 354.00 1479.00
C 353.50 1479.00 353.00 1479.00 353.00 1479.00
C 346.16 1484.06 335.57 1480.20 327.00 1483.00 C 318.43 1485.79 306.37 1482.23 297.00 1484.00 C 287.63 1485.77 278.09 1481.45 270.00 1480.00
C 265.49 1479.76 261.30 1479.34 257.00 1479.00
C 243.24 1477.91 227.23 1478.36 215.00 1473.00
C 214.50 1473.00 214.00 1473.00 214.00 1473.00
C 208.38 1472.87 197.21 1470.41 193.00 1467.00
C 192.50 1466.98 192.00 1467.00 192.00 1467.00
C 179.42 1466.71 166.50 1458.11 154.98 1454.02 C 143.46 1449.94 132.97 1441.56 122.75 1435.25 C 112.54 1428.93 103.83 1421.33 95.25 1412.75 C 86.67 1404.18 78.57 1395.48 71.75 1385.25 C 64.92 1375.03 57.93 1365.79 52.70 1354.30 C 47.46 1342.81 41.50 1330.96 37.68 1318.32 C 33.86 1305.68 29.24 1293.27 26.22 1279.78 C 23.21 1266.28 20.61 1250.86 18.22 1236.78 C 15.83 1222.70 14.45 1208.38 13.07 1193.93 C 11.69 1179.47 11.48 1161.02 11.33 1147.33 C 11.18 1133.63 9.15 1115.98 10.67 1103.33 C 12.19 1090.68 6.68 1071.54 12.00 1059.00
C 12.00 1058.50 11.85 1057.45 12.00 1057.00
C 8.15 1048.99 13.48 1034.03 12.00 1024.00 C 10.52 1013.97 13.58 1001.84 13.02 991.97 C 12.47 982.10 14.73 969.33 16.00 960.00
C 16.00 958.67 16.00 957.33 16.00 956.00
C 16.00 938.63 17.75 920.53 20.00 904.00
C 20.00 902.67 20.00 901.33 20.00 900.00
C 20.00 891.18 21.22 882.11 22.00 874.00
C 22.00 870.07 22.68 866.64 23.00 863.00
C 23.38 858.68 23.50 853.67 24.00 850.00
C 24.00 848.67 24.00 847.33 24.00 846.00
C 24.00 827.20 25.76 808.96 27.78 790.78 C 29.80 772.60 28.21 753.27 32.00 736.00
C 32.00 735.00 32.00 734.00 32.00 733.00
C 32.00 720.60 33.71 708.11 35.00 696.00
C 35.00 694.33 35.00 692.67 35.00 691.00
C 35.00 682.75 36.00 675.26 36.00 667.00
C 36.00 666.50 36.00 666.00 36.00 666.00
C 36.00 623.10 50.27 578.89 71.25 543.25 C 92.24 507.62 109.63 480.63 140.75 452.75 C 171.87 424.87 199.30 405.58 238.08 389.08 C 276.85 372.57 325.85 361.99 370.00 361.00 C 414.15 360.01 468.59 369.02 508.02 382.98 C 547.46 396.93 582.65 413.19 616.08 435.92 C 649.51 458.66 676.62 481.11 707.75 504.25 C 738.88 527.39 761.87 557.69 783.00 590.00
C 784.84 570.46 786.85 550.60 787.20 530.75 C 787.55 510.91 790.41 489.98 789.67 470.33 C 788.93 450.68 793.69 431.44 791.00 412.00 C 788.31 392.55 801.84 380.38 815.10 368.10 C 828.36 355.81 837.59 343.70 850.30 332.30 C 863.01 320.90 874.66 308.37 887.30 297.30 C 899.94 286.22 912.15 275.41 925.25 264.25 C 938.34 253.08 951.31 242.23 964.75 231.75 C 978.18 221.26 991.83 210.77 1005.08 201.08 C 1018.34 191.39 1033.19 181.06 1047.25 171.25 C 1061.30 161.43 1076.35 153.20 1091.07 144.07 C 1105.80 134.95 1120.64 125.34 1136.23 117.23 C 1151.82 109.12 1166.90 99.69 1183.23 93.23
C 1185.05 92.53 1185.97 92.40 1187.00 92.00
C 1288.61 34.45 1401.23 7.12 1515.00 0.00
L 0.00 0.00
L 0.00 1491.00 Z"/>
</g>
<g fill="None" fill-opacity="0.0" stroke="#DADADA" stroke-opacity="0.10" stroke-width="0.3"><path d="
M 1187.00 92.00 
C 1223.95 77.76 1251.22 59.96 1288.22 48.22 C 1325.23 36.48 1363.37 23.01 1403.22 15.22 C 1443.08 7.43 1496.68 1.60 1539.00 3.00 C 1581.32 4.40 1621.88 10.77 1656.08 33.92 C 1690.28 57.07 1704.71 94.24 1704.00 134.00 C 1703.29 173.76 1690.35 218.63 1677.68 254.68 C 1665.01 290.73 1649.51 324.66 1633.08 358.08 C 1616.64 391.49 1599.51 421.14 1581.70 452.70 C 1563.88 484.25 1545.84 513.71 1526.70 543.70 C 1507.55 573.68 1488.13 603.86 1468.70 633.70 C 1449.26 663.53 1429.52 692.35 1410.08 722.08 C 1390.64 751.80 1369.84 780.84 1350.25 810.25 C 1330.65 839.66 1310.79 869.60 1290.75 898.75 C 1270.71 927.90 1250.74 957.33 1230.75 986.75 C 1210.76 1016.16 1190.31 1045.32 1171.00 1075.00
C 1264.54 1049.46 1358.43 1023.92 1458.00 1021.00
C 1449.92 1049.06 1439.02 1076.43 1432.00 1105.00
C 1442.01 1076.98 1451.82 1047.21 1460.00 1018.00
C 1361.08 1022.39 1266.79 1045.74 1174.00 1073.00
C 1209.32 1020.63 1243.47 971.20 1278.08 920.08 C 1312.70 868.96 1347.44 818.39 1381.75 766.75 C 1416.06 715.10 1450.32 665.16 1484.25 612.25 C 1518.18 559.34 1551.71 509.09 1583.03 454.03 C 1614.35 398.96 1645.11 342.34 1668.22 282.22 C 1691.34 222.10 1720.44 147.94 1698.92 84.08 C 1677.41 20.21 1599.17 0.83 1537.00 0.00
L 1515.00 0.00
C 1401.23 7.12 1288.61 34.45 1187.00 92.00 Z"/>
</g>
<g fill="None" fill-opacity="0.0" stroke="#8D8D8D" stroke-opacity="0.44" stroke-width="0.3"><path d="
M 1187.00 92.00 
C 1185.97 92.40 1185.05 92.53 1184.00 93.00
C 1170.97 101.48 1156.05 107.79 1142.31 115.31 C 1128.56 122.82 1115.00 130.65 1101.77 138.77 C 1088.54 146.89 1074.99 154.47 1062.30 163.30 C 1049.62 172.14 1036.87 180.09 1024.25 189.25 C 1011.64 198.42 999.08 207.39 986.77 216.77 C 974.46 226.15 962.71 235.16 950.77 244.77 C 938.83 254.38 928.12 264.70 916.25 274.25 C 904.38 283.80 893.83 294.25 882.30 304.30 C 870.78 314.35 860.63 324.39 849.75 335.75 C 838.87 347.11 828.11 356.07 817.25 368.25 C 806.39 380.43 790.45 387.98 792.00 407.00 C 793.55 426.02 791.23 450.28 791.00 470.00 C 790.77 489.72 789.78 512.06 789.00 532.00 C 788.22 551.94 785.90 572.03 785.00 592.00
C 771.03 577.63 760.02 557.33 744.25 541.75 C 728.47 526.17 714.11 510.35 696.25 497.75 C 678.39 485.15 661.57 471.94 644.25 457.75 C 626.92 443.56 608.12 432.87 588.77 421.23 C 569.42 409.59 548.26 400.01 526.78 391.22 C 505.29 382.44 484.77 377.67 460.33 371.67 C 435.88 365.68 402.78 362.50 376.00 363.00 C 349.22 363.50 318.20 366.52 293.78 372.78 C 269.36 379.04 247.19 386.06 225.77 396.77 C 204.35 407.48 186.72 417.22 168.25 431.25 C 149.79 445.28 136.29 458.24 120.25 475.25 C 104.21 492.26 94.12 508.62 81.08 528.08 C 68.04 547.55 60.96 568.06 51.01 590.01 C 41.05 611.96 38.26 641.76 36.00 666.00
C 36.00 666.00 36.00 666.50 36.00 667.00
C 39.74 672.06 35.58 685.56 35.00 691.00
C 35.00 692.67 35.00 694.33 35.00 696.00
C 35.00 708.57 33.47 720.65 33.00 733.00
C 32.68 741.27 31.72 749.55 31.00 757.00
C 31.00 786.20 27.85 817.72 24.00 846.00
C 24.00 847.33 24.00 848.67 24.00 850.00
C 24.00 854.53 23.78 859.18 23.00 863.00
C 22.68 866.64 22.00 870.07 22.00 874.00
C 22.00 882.98 21.11 891.84 20.00 900.00
C 20.00 901.33 20.00 902.67 20.00 904.00
C 20.00 921.73 18.27 939.32 16.00 956.00
C 16.00 957.33 16.00 958.67 16.00 960.00
C 16.00 975.92 16.30 992.56 14.02 1008.02 C 11.75 1023.49 17.06 1042.35 12.00 1057.00
C 11.85 1057.45 12.00 1058.50 12.00 1059.00
C 12.00 1075.11 12.20 1091.96 12.00 1108.00 C 11.80 1124.04 12.35 1140.44 13.00 1156.00 C 13.65 1171.56 14.13 1188.17 16.00 1203.00 C 17.87 1217.83 18.88 1232.57 21.33 1246.67 C 23.78 1260.77 26.94 1273.63 29.93 1287.07 C 32.92 1300.52 37.29 1310.94 40.92 1322.08 C 44.55 1333.22 50.30 1345.77 55.77 1356.23 C 61.24 1366.69 67.05 1377.23 74.30 1386.70 C 81.56 1396.16 89.11 1404.69 97.75 1413.25 C 106.39 1421.80 115.46 1427.56 124.75 1435.25 C 134.03 1442.95 146.39 1445.87 156.23 1452.77 C 166.07 1459.67 183.38 1459.58 192.00 1467.00
C 192.00 1467.00 192.50 1466.98 193.00 1467.00
C 199.06 1467.23 208.96 1470.23 214.00 1473.00
C 214.00 1473.00 214.50 1473.00 215.00 1473.00
C 228.89 1473.00 243.93 1476.48 257.00 1479.00
C 261.30 1479.34 265.49 1479.76 270.00 1480.00
C 283.20 1480.72 298.00 1483.55 312.00 1483.00 C 326.00 1482.45 339.35 1477.67 353.00 1479.00
C 353.00 1479.00 353.50 1479.00 354.00 1479.00
C 370.66 1471.73 396.04 1473.05 414.01 1467.01 C 431.97 1460.97 451.51 1457.81 468.75 1451.41 C 485.99 1445.01 504.02 1440.48 520.68 1432.68 C 537.33 1424.88 552.66 1416.50 567.23 1406.23 C 581.80 1395.96 595.90 1385.99 609.25 1374.25 C 622.59 1362.50 634.71 1349.93 647.25 1337.25 C 659.78 1324.56 670.31 1311.03 681.25 1297.25 C 692.18 1283.47 701.49 1269.47 711.30 1254.30 C 721.11 1239.13 729.68 1223.57 738.77 1207.77 C 747.86 1191.97 754.23 1174.48 762.33 1158.33 C 770.43 1142.17 777.39 1123.56 784.33 1106.33 C 791.27 1089.09 795.77 1069.83 804.00 1053.00
C 804.01 1052.50 803.93 1051.49 804.00 1051.00
C 804.54 1047.07 806.29 1043.25 808.00 1040.00
C 808.00 1040.00 807.92 1039.49 808.00 1039.00
C 809.77 1028.20 813.08 1016.78 816.33 1006.33 C 819.57 995.88 820.35 981.97 824.00 972.00 C 827.65 962.03 825.55 945.96 832.00 938.00
C 832.00 938.00 832.05 937.49 832.00 937.00
C 830.86 926.46 836.18 916.54 836.00 906.00 C 835.82 895.46 838.29 884.49 839.00 874.00
C 839.54 866.08 840.02 858.17 841.00 851.00
C 841.00 849.67 841.00 848.33 841.00 847.00
C 841.00 831.10 840.89 812.65 841.00 797.00 C 841.11 781.35 836.59 766.09 837.00 751.00 C 837.41 735.91 828.40 722.49 830.00 708.00
C 830.00 708.00 829.95 707.49 830.00 707.00
C 824.06 704.30 827.28 690.44 823.22 684.78 C 819.16 679.11 820.91 669.18 816.22 662.78 C 811.54 656.37 818.59 650.37 823.75 645.75 C 828.91 641.13 833.73 635.52 838.75 630.75 C 843.77 625.98 848.31 621.08 853.25 616.25 C 858.18 611.41 862.84 606.66 867.75 601.75 C 872.66 596.85 877.86 591.70 882.75 586.75 C 887.65 581.80 892.40 577.28 897.25 572.25 C 902.10 567.22 906.95 562.69 912.08 558.08 C 917.22 553.48 922.63 548.36 927.75 543.75 C 932.88 539.15 937.44 534.06 942.75 529.75 C 948.06 525.44 952.01 519.44 957.75 515.75 C 963.49 512.06 967.62 506.31 973.25 502.25 C 978.87 498.19 984.85 493.86 990.25 489.25 C 995.64 484.64 1001.59 481.38 1007.25 477.25 C 1012.90 473.11 1018.83 469.53 1024.74 465.74 C 1030.66 461.96 1036.97 457.70 1043.08 454.08 C 1049.19 450.46 1054.94 446.64 1061.23 443.23 C 1067.52 439.82 1073.54 436.27 1080.08 433.08 C 1086.62 429.89 1093.57 426.62 1100.08 423.08 C 1106.59 419.54 1113.29 417.12 1120.08 414.08 C 1126.88 411.04 1133.28 408.56 1140.25 405.25 C 1147.21 401.93 1156.51 401.53 1164.02 399.02 C 1171.54 396.52 1179.90 395.12 1188.00 394.00 C 1196.10 392.88 1207.25 392.44 1215.22 393.78 C 1223.20 395.11 1230.16 397.09 1237.08 400.92 C 1243.99 404.76 1248.61 407.75 1254.25 413.75 C 1259.88 419.76 1262.19 424.41 1264.78 432.22 C 1267.37 440.03 1267.97 449.17 1268.00 458.00 C 1268.03 466.83 1266.60 476.28 1264.22 484.22 C 1261.84 492.16 1261.25 499.49 1257.69 506.69 C 1254.14 513.90 1253.76 521.53 1250.69 528.69 C 1247.62 535.85 1245.08 543.10 1242.07 550.07 C 1239.07 557.05 1236.86 563.64 1233.23 570.23 C 1229.60 576.82 1228.38 584.18 1224.69 590.69 C 1221.01 597.21 1218.09 604.37 1215.03 611.03 C 1211.96 617.69 1208.59 624.11 1205.68 630.68 C 1202.77 637.25 1198.33 642.95 1195.70 649.70 C 1193.06 656.44 1189.38 662.49 1185.75 668.75 C 1182.11 675.00 1179.18 682.25 1175.69 688.70 C 1172.21 695.14 1168.71 700.88 1165.23 707.23 C 1161.75 713.58 1158.64 719.90 1155.23 726.23 C 1151.82 732.56 1147.06 738.67 1144.22 745.22 C 1141.39 751.78 1136.51 756.93 1133.25 763.25 C 1129.98 769.56 1125.99 775.37 1122.70 781.70 C 1119.40 788.02 1114.68 794.01 1111.25 800.25 C 1107.81 806.48 1104.16 812.32 1100.23 818.23 C 1096.30 824.14 1093.30 830.22 1089.23 836.23 C 1085.16 842.24 1081.44 848.58 1077.70 854.70 C 1073.95 860.81 1070.37 866.45 1066.25 872.25 C 1062.12 878.04 1059.26 884.37 1055.08 890.08 C 1050.90 895.79 1047.71 901.70 1043.25 907.25 C 1038.79 912.80 1036.53 920.37 1031.75 925.75 C 1026.97 931.12 1024.26 937.44 1020.23 943.23 C 1016.20 949.02 1012.23 954.40 1008.25 960.25 C 1004.26 966.10 1000.63 972.63 996.25 978.25 C 991.87 983.87 989.32 990.03 984.25 995.25 C 979.18 1000.47 977.41 1007.28 972.75 1012.75 C 968.09 1018.22 964.71 1025.00 960.23 1030.23 C 955.75 1035.46 952.98 1042.10 948.25 1047.25 C 943.52 1052.39 940.94 1059.07 936.23 1064.23 C 931.52 1069.39 928.81 1076.92 923.00 1081.00
C 923.00 1081.00 923.22 1081.64 923.00 1082.00
C 914.10 1096.31 902.47 1109.02 892.75 1122.75 C 883.03 1136.49 872.95 1150.07 862.25 1163.25 C 851.55 1176.43 842.47 1190.65 831.70 1203.70 C 820.92 1216.75 810.53 1229.99 800.23 1243.23 C 789.93 1256.47 778.03 1268.57 767.75 1281.75 C 757.47 1294.94 745.99 1307.41 735.25 1320.25 C 724.51 1333.08 712.56 1344.82 701.25 1357.25 C 689.94 1369.68 677.67 1380.85 666.25 1393.25 C 654.83 1405.65 634.35 1416.72 639.00 1435.00
C 640.33 1435.00 641.67 1435.00 643.00 1435.00
C 648.55 1434.21 653.64 1433.09 659.00 1432.00
C 676.86 1426.20 699.65 1420.45 719.00 1420.00
C 719.00 1420.00 719.50 1420.01 720.00 1420.00
C 732.37 1413.24 749.08 1414.49 763.02 1411.02 C 776.97 1407.55 792.58 1404.11 807.00 1402.00
C 812.79 1400.52 819.68 1399.62 825.00 1399.00
C 837.84 1396.06 850.91 1393.00 864.00 1391.00 C 877.09 1389.01 891.03 1386.07 904.00 1384.00 C 916.98 1381.94 930.94 1377.12 944.00 1377.00 C 957.06 1376.88 969.97 1371.27 983.02 1371.02 C 996.08 1370.77 1011.58 1362.54 1024.00 1367.00
C 1024.00 1367.00 1024.50 1367.00 1025.00 1367.00
C 1032.30 1361.60 1045.62 1365.48 1055.00 1363.00 C 1064.38 1360.52 1076.04 1362.02 1086.22 1360.22 C 1096.40 1358.42 1109.40 1360.44 1120.00 1359.00 C 1130.60 1357.56 1141.91 1358.46 1153.00 1358.00 C 1164.09 1357.54 1175.11 1358.91 1186.00 1359.00 C 1196.89 1359.09 1208.44 1360.34 1219.00 1361.00 C 1229.56 1361.66 1239.03 1363.40 1249.07 1364.93 C 1259.12 1366.46 1269.16 1367.54 1279.01 1368.99 C 1288.86 1370.45 1298.56 1372.81 1308.02 1374.98 C 1317.48 1377.14 1325.90 1379.33 1335.07 1381.93 C 1344.24 1384.52 1352.92 1387.16 1362.00 1390.00
C 1363.61 1375.16 1365.10 1359.59 1370.00 1346.00
C 1371.58 1342.34 1371.83 1340.14 1372.00 1336.00
C 1372.50 1323.66 1375.22 1304.52 1381.00 1294.00
C 1381.00 1294.00 1381.03 1293.50 1381.00 1293.00
C 1380.49 1285.33 1385.53 1277.60 1385.99 1269.99 C 1386.46 1262.39 1389.65 1254.73 1392.00 1248.00
C 1391.98 1247.50 1391.94 1246.49 1392.00 1246.00
C 1392.62 1240.79 1394.18 1234.16 1397.00 1230.00
C 1397.01 1229.50 1397.03 1228.50 1397.00 1228.00
C 1396.49 1220.77 1400.17 1207.64 1404.00 1202.00
C 1403.98 1201.50 1403.94 1200.49 1404.00 1200.00
C 1405.62 1186.36 1411.03 1167.07 1417.00 1155.00
C 1418.85 1151.25 1419.39 1149.25 1420.00 1145.00
C 1420.89 1138.75 1422.77 1130.84 1424.98 1124.98 C 1427.18 1119.11 1428.23 1110.63 1432.00 1106.00
C 1432.00 1106.00 1431.98 1105.50 1432.00 1105.00
C 1439.02 1076.43 1449.92 1049.06 1458.00 1021.00
C 1358.43 1023.92 1264.54 1049.46 1171.00 1075.00
C 1190.31 1045.32 1210.76 1016.16 1230.75 986.75 C 1250.74 957.33 1270.71 927.90 1290.75 898.75 C 1310.79 869.60 1330.65 839.66 1350.25 810.25 C 1369.84 780.84 1390.64 751.80 1410.08 722.08 C 1429.52 692.35 1449.26 663.53 1468.70 633.70 C 1488.13 603.86 1507.55 573.68 1526.70 543.70 C 1545.84 513.71 1563.88 484.25 1581.70 452.70 C 1599.51 421.14 1616.64 391.49 1633.08 358.08 C 1649.51 324.66 1665.01 290.73 1677.68 254.68 C 1690.35 218.63 1703.29 173.76 1704.00 134.00 C 1704.71 94.24 1690.28 57.07 1656.08 33.92 C 1621.88 10.77 1581.32 4.40 1539.00 3.00 C 1496.68 1.60 1443.08 7.43 1403.22 15.22 C 1363.37 23.01 1325.23 36.48 1288.22 48.22 C 1251.22 59.96 1223.95 77.76 1187.00 92.00
M 479.00 1166.00 
C 478.92 1166.49 479.00 1167.00 479.00 1167.00
C 476.04 1185.02 468.18 1204.87 460.08 1221.08 C 451.97 1237.28 445.97 1253.71 433.25 1267.25 C 420.52 1280.78 401.41 1284.19 384.98 1292.98 C 368.54 1301.76 345.65 1303.80 326.99 1307.99 C 308.34 1312.18 282.82 1308.56 274.08 1289.92 C 265.35 1271.28 252.79 1258.72 252.00 1238.00
C 251.98 1237.50 252.00 1237.00 252.00 1237.00
C 245.25 1224.66 246.08 1209.94 243.00 1195.00 C 239.92 1180.05 239.03 1162.06 238.00 1146.00 C 236.98 1129.94 237.49 1108.56 239.00 1093.00
C 239.00 1090.35 238.82 1087.64 239.00 1085.00
C 238.23 1077.01 238.00 1067.68 238.00 1059.00
C 238.00 1048.36 238.04 1036.87 239.00 1027.00
C 239.00 1021.35 238.22 1015.02 239.78 1009.78 C 241.34 1004.53 237.84 996.27 241.00 992.00
C 240.78 991.62 241.00 991.00 241.00 991.00
C 241.00 986.16 241.16 981.13 242.00 977.00
C 242.99 972.13 243.00 967.19 243.00 962.00
C 243.00 954.23 242.04 944.29 244.00 937.00 C 245.96 929.71 243.30 919.48 247.00 913.00
C 247.22 912.62 247.00 912.00 247.00 912.00
C 247.00 864.44 260.09 806.18 271.20 763.75 C 282.30 721.33 307.64 672.99 357.00 673.00
C 357.50 673.00 358.00 673.00 358.00 673.00
C 374.20 673.00 392.37 675.33 405.70 683.31 C 419.02 691.28 428.70 697.54 439.25 708.75 C 449.80 719.96 456.40 729.93 464.30 742.70 C 472.21 755.46 476.68 768.10 482.99 782.01 C 489.30 795.91 494.07 810.08 498.98 825.02 C 503.88 839.97 508.16 855.68 511.33 871.67 C 514.50 887.66 518.87 904.00 520.00 921.00 C 521.13 938.00 524.38 959.40 523.00 977.00 C 521.62 994.60 525.59 1017.79 520.67 1033.67 C 515.75 1049.55 509.30 1058.62 501.75 1072.75 C 494.19 1086.87 497.28 1104.72 491.22 1119.22 C 485.17 1133.72 488.80 1153.91 479.00 1166.00 Z"/>
</g>
<g fill="None" fill-opacity="0.0" stroke="#DDDDDD" stroke-opacity="0.08" stroke-width="0.3"><path d="
M 36.00 666.00 
C 38.26 641.76 41.05 611.96 51.01 590.01 C 60.96 568.06 68.04 547.55 81.08 528.08 C 94.12 508.62 104.21 492.26 120.25 475.25 C 136.29 458.24 149.79 445.28 168.25 431.25 C 186.72 417.22 204.35 407.48 225.77 396.77 C 247.19 386.06 269.36 379.04 293.78 372.78 C 318.20 366.52 349.22 363.50 376.00 363.00 C 402.78 362.50 435.88 365.68 460.33 371.67 C 484.77 377.67 505.29 382.44 526.78 391.22 C 548.26 400.01 569.42 409.59 588.77 421.23 C 608.12 432.87 626.92 443.56 644.25 457.75 C 661.57 471.94 678.39 485.15 696.25 497.75 C 714.11 510.35 728.47 526.17 744.25 541.75 C 760.02 557.33 771.03 577.63 785.00 593.00
C 785.90 572.03 788.22 551.94 789.00 532.00 C 789.78 512.06 790.77 489.72 791.00 470.00 C 791.23 450.28 793.55 426.02 792.00 407.00 C 790.45 387.98 806.39 380.43 817.25 368.25 C 828.11 356.07 838.87 347.11 849.75 335.75 C 860.63 324.39 870.78 314.35 882.30 304.30 C 893.83 294.25 904.38 283.80 916.25 274.25 C 928.12 264.70 938.83 254.38 950.77 244.77 C 962.71 235.16 974.46 226.15 986.77 216.77 C 999.08 207.39 1011.64 198.42 1024.25 189.25 C 1036.87 180.09 1049.62 172.14 1062.30 163.30 C 1074.99 154.47 1088.54 146.89 1101.77 138.77 C 1115.00 130.65 1128.56 122.82 1142.31 115.31 C 1156.05 107.79 1170.97 101.48 1184.00 93.00
C 1166.90 99.69 1151.82 109.12 1136.23 117.23 C 1120.64 125.34 1105.80 134.95 1091.07 144.07 C 1076.35 153.20 1061.30 161.43 1047.25 171.25 C 1033.19 181.06 1018.34 191.39 1005.08 201.08 C 991.83 210.77 978.18 221.26 964.75 231.75 C 951.31 242.23 938.34 253.08 925.25 264.25 C 912.15 275.41 899.94 286.22 887.30 297.30 C 874.66 308.37 863.01 320.90 850.30 332.30 C 837.59 343.70 828.36 355.81 815.10 368.10 C 801.84 380.38 788.31 392.55 791.00 412.00 C 793.69 431.44 788.93 450.68 789.67 470.33 C 790.41 489.98 787.55 510.91 787.20 530.75 C 786.85 550.60 784.84 570.46 783.00 590.00
C 761.87 557.69 738.88 527.39 707.75 504.25 C 676.62 481.11 649.51 458.66 616.08 435.92 C 582.65 413.19 547.46 396.93 508.02 382.98 C 468.59 369.02 414.15 360.01 370.00 361.00 C 325.85 361.99 276.85 372.57 238.08 389.08 C 199.30 405.58 171.87 424.87 140.75 452.75 C 109.63 480.63 92.24 507.62 71.25 543.25 C 50.27 578.89 36.00 623.10 36.00 666.00 Z"/>
</g>
<g fill="None" fill-opacity="0.0" stroke="#DBDBDB" stroke-opacity="0.09" stroke-width="0.3"><path d="
M 830.00 707.00 
C 831.58 692.39 820.64 674.80 817.97 662.03 C 815.30 649.27 831.70 641.57 840.25 631.25 C 848.79 620.93 859.92 612.53 868.75 602.75 C 877.59 592.98 888.43 584.09 897.75 574.75 C 907.08 565.42 916.25 555.76 925.77 546.77 C 935.29 537.78 945.63 528.78 955.75 519.75 C 965.88 510.72 976.56 501.72 987.10 494.10 C 997.64 486.48 1008.35 477.42 1019.92 469.92 C 1031.50 462.43 1043.43 455.67 1055.25 448.25 C 1067.08 440.84 1079.74 435.90 1092.31 429.31 C 1104.87 422.71 1116.85 416.75 1129.92 411.92 C 1143.00 407.10 1158.81 400.91 1172.98 397.98 C 1187.14 395.04 1209.73 393.02 1223.25 397.41 C 1236.77 401.80 1244.93 406.49 1254.25 417.75 C 1263.57 429.02 1267.25 444.60 1266.00 459.00 C 1264.75 473.40 1261.31 492.94 1256.75 506.75 C 1252.20 520.57 1246.23 534.39 1240.93 547.93 C 1235.62 561.46 1229.95 574.80 1223.97 587.97 C 1218.00 601.15 1211.90 613.27 1205.78 625.78 C 1199.65 638.29 1193.29 651.43 1186.92 663.92 C 1180.55 676.41 1173.88 688.55 1166.92 700.92 C 1159.97 713.30 1154.21 725.69 1146.77 737.77 C 1139.33 749.86 1133.36 761.28 1126.25 773.25 C 1119.15 785.23 1111.87 796.91 1104.77 808.77 C 1097.67 820.63 1089.95 832.03 1082.77 843.77 C 1075.59 855.51 1068.03 866.99 1060.75 878.75 C 1053.47 890.51 1045.17 901.66 1037.92 912.92 C 1030.67 924.17 1023.45 935.53 1015.77 946.77 C 1008.09 958.01 1000.55 969.63 992.92 980.92 C 985.29 992.20 976.73 1003.17 969.75 1014.75 C 962.77 1026.34 951.83 1036.65 946.10 1048.10 C 940.37 1059.55 925.77 1068.37 923.00 1081.00
C 928.81 1076.92 931.52 1069.39 936.23 1064.23 C 940.94 1059.07 943.52 1052.39 948.25 1047.25 C 952.98 1042.10 955.75 1035.46 960.23 1030.23 C 964.71 1025.00 968.09 1018.22 972.75 1012.75 C 977.41 1007.28 979.18 1000.47 984.25 995.25 C 989.32 990.03 991.87 983.87 996.25 978.25 C 1000.63 972.63 1004.26 966.10 1008.25 960.25 C 1012.23 954.40 1016.20 949.02 1020.23 943.23 C 1024.26 937.44 1026.97 931.12 1031.75 925.75 C 1036.53 920.37 1038.79 912.80 1043.25 907.25 C 1047.71 901.70 1050.90 895.79 1055.08 890.08 C 1059.26 884.37 1062.12 878.04 1066.25 872.25 C 1070.37 866.45 1073.95 860.81 1077.70 854.70 C 1081.44 848.58 1085.16 842.24 1089.23 836.23 C 1093.30 830.22 1096.30 824.14 1100.23 818.23 C 1104.16 812.32 1107.81 806.48 1111.25 800.25 C 1114.68 794.01 1119.40 788.02 1122.70 781.70 C 1125.99 775.37 1129.98 769.56 1133.25 763.25 C 1136.51 756.93 1141.39 751.78 1144.22 745.22 C 1147.06 738.67 1151.82 732.56 1155.23 726.23 C 1158.64 719.90 1161.75 713.58 1165.23 707.23 C 1168.71 700.88 1172.21 695.14 1175.69 688.70 C 1179.18 682.25 1182.11 675.00 1185.75 668.75 C 1189.38 662.49 1193.06 656.44 1195.70 649.70 C 1198.33 642.95 1202.77 637.25 1205.68 630.68 C 1208.59 624.11 1211.96 617.69 1215.03 611.03 C 1218.09 604.37 1221.01 597.21 1224.69 590.69 C 1228.38 584.18 1229.60 576.82 1233.23 570.23 C 1236.86 563.64 1239.07 557.05 1242.07 550.07 C 1245.08 543.10 1247.62 535.85 1250.69 528.69 C 1253.76 521.53 1254.14 513.90 1257.69 506.69 C 1261.25 499.49 1261.84 492.16 1264.22 484.22 C 1266.60 476.28 1268.03 466.83 1268.00 458.00 C 1267.97 449.17 1267.37 440.03 1264.78 432.22 C 1262.19 424.41 1259.88 419.76 1254.25 413.75 C 1248.61 407.75 1243.99 404.76 1237.08 400.92 C 1230.16 397.09 1223.20 395.11 1215.22 393.78 C 1207.25 392.44 1196.10 392.88 1188.00 394.00 C 1179.90 395.12 1171.54 396.52 1164.02 399.02 C 1156.51 401.53 1147.21 401.93 1140.25 405.25 C 1133.28 408.56 1126.88 411.04 1120.08 414.08 C 1113.29 417.12 1106.59 419.54 1100.08 423.08 C 1093.57 426.62 1086.62 429.89 1080.08 433.08 C 1073.54 436.27 1067.52 439.82 1061.23 443.23 C 1054.94 446.64 1049.19 450.46 1043.08 454.08 C 1036.97 457.70 1030.66 461.96 1024.74 465.74 C 1018.83 469.53 1012.90 473.11 1007.25 477.25 C 1001.59 481.38 995.64 484.64 990.25 489.25 C 984.85 493.86 978.87 498.19 973.25 502.25 C 967.62 506.31 963.49 512.06 957.75 515.75 C 952.01 519.44 948.06 525.44 942.75 529.75 C 937.44 534.06 932.88 539.15 927.75 543.75 C 922.63 548.36 917.22 553.48 912.08 558.08 C 906.95 562.69 902.10 567.22 897.25 572.25 C 892.40 577.28 887.65 581.80 882.75 586.75 C 877.86 591.70 872.66 596.85 867.75 601.75 C 862.84 606.66 858.18 611.41 853.25 616.25 C 848.31 621.08 843.77 625.98 838.75 630.75 C 833.73 635.52 828.91 641.13 823.75 645.75 C 818.59 650.37 811.54 656.37 816.22 662.78 C 820.91 669.18 819.16 679.11 823.22 684.78 C 827.28 690.44 824.06 704.30 830.00 707.00 Z"/>
</g>
<g fill="None" fill-opacity="0.0" stroke="#DCDCDC" stroke-opacity="0.11" stroke-width="0.3"><path d="
M 35.00 691.00 
C 35.58 685.56 39.74 672.06 36.00 667.00
C 36.00 675.26 35.00 682.75 35.00 691.00 Z"/>
</g>
<g fill="None" fill-opacity="0.0" stroke="#DDDDDD" stroke-opacity="0.09" stroke-width="0.3"><path d="
M 247.00 912.00 
C 254.20 895.47 249.36 870.83 254.00 852.00 C 258.64 833.17 260.50 812.99 264.78 793.78 C 269.06 774.57 274.26 759.11 280.93 740.93 C 287.59 722.74 296.39 711.23 308.75 695.75 C 321.11 680.28 341.52 679.76 357.00 673.00
C 307.64 672.99 282.30 721.33 271.20 763.75 C 260.09 806.18 247.00 864.44 247.00 912.00 Z"/>
</g>
<g fill="None" fill-opacity="0.0" stroke="#000000" stroke-opacity="0.00" stroke-width="0.3"><path d="
M 247.00 912.00 
C 247.00 912.00 247.22 912.62 247.00 913.00
C 250.50 917.80 245.16 929.85 245.67 936.67 C 246.18 943.49 243.64 955.38 243.00 962.00
C 243.00 967.19 242.99 972.13 242.00 977.00
C 241.78 981.01 243.63 987.45 241.00 991.00
C 241.00 991.00 240.78 991.62 241.00 992.00
C 244.00 997.25 240.95 1007.28 241.00 1014.00 C 241.05 1020.72 240.00 1030.68 240.00 1038.00
C 240.00 1040.00 240.00 1042.00 240.00 1044.00
C 240.00 1048.33 240.00 1052.67 240.00 1057.00
C 240.00 1057.50 239.98 1058.50 240.00 1059.00
C 240.33 1067.49 239.59 1076.31 239.00 1085.00
C 238.82 1087.64 239.00 1090.35 239.00 1093.00
C 239.00 1109.63 240.66 1126.51 240.00 1143.00 C 239.34 1159.49 243.25 1176.30 244.00 1192.00 C 244.75 1207.71 253.03 1221.46 252.00 1237.00
C 252.00 1237.00 251.98 1237.50 252.00 1238.00
C 260.10 1247.98 259.33 1265.80 267.75 1276.25 C 276.18 1286.70 278.36 1301.42 292.70 1306.31 C 307.03 1311.19 327.59 1306.26 342.07 1304.07 C 356.55 1301.89 371.24 1296.83 384.69 1291.70 C 398.15 1286.56 408.29 1280.58 421.08 1274.08 C 433.86 1267.57 438.86 1255.73 446.31 1244.31 C 453.75 1232.88 457.22 1218.51 463.93 1206.93 C 470.63 1195.34 470.58 1176.80 479.00 1167.00
C 479.00 1167.00 478.92 1166.49 479.00 1166.00
C 480.64 1156.00 483.37 1146.62 485.78 1136.78 C 488.18 1126.93 490.42 1116.02 492.00 1106.00 C 493.58 1095.98 494.05 1084.60 498.77 1075.77 C 503.49 1066.94 507.05 1060.50 511.31 1051.31 C 515.56 1042.11 519.78 1034.68 520.93 1023.93 C 522.07 1013.18 521.80 999.41 522.00 988.00 C 522.20 976.59 521.90 964.08 521.07 952.93 C 520.25 941.77 519.94 929.67 518.02 918.98 C 516.11 908.28 516.14 896.57 513.67 886.33 C 511.21 876.09 509.14 866.24 506.67 856.33 C 504.20 846.42 502.20 836.63 498.68 827.32 C 495.16 818.02 492.99 808.64 489.22 799.78 C 485.46 790.91 482.32 782.88 478.74 774.26 C 475.17 765.63 470.71 757.67 466.69 749.31 C 462.68 740.94 457.21 734.20 452.08 726.92 C 446.96 719.64 441.25 713.67 434.77 707.23 C 428.29 700.79 422.00 695.57 414.77 690.23 C 407.54 684.90 397.56 683.13 389.78 678.22 C 382.00 673.31 364.89 678.09 358.00 673.00
C 358.00 673.00 357.50 673.00 357.00 673.00
C 341.52 679.76 321.11 680.28 308.75 695.75 C 296.39 711.23 287.59 722.74 280.93 740.93 C 274.26 759.11 269.06 774.57 264.78 793.78 C 260.50 812.99 258.64 833.17 254.00 852.00 C 249.36 870.83 254.20 895.47 247.00 912.00 Z"/>
</g>
<g fill="None" fill-opacity="0.0" stroke="#DBDBDB" stroke-opacity="0.09" stroke-width="0.3"><path d="
M 479.00 1166.00 
C 488.80 1153.91 485.17 1133.72 491.22 1119.22 C 497.28 1104.72 494.19 1086.87 501.75 1072.75 C 509.30 1058.62 515.75 1049.55 520.67 1033.67 C 525.59 1017.79 521.62 994.60 523.00 977.00 C 524.38 959.40 521.13 938.00 520.00 921.00 C 518.87 904.00 514.50 887.66 511.33 871.67 C 508.16 855.68 503.88 839.97 498.98 825.02 C 494.07 810.08 489.30 795.91 482.99 782.01 C 476.68 768.10 472.21 755.46 464.30 742.70 C 456.40 729.93 449.80 719.96 439.25 708.75 C 428.70 697.54 419.02 691.28 405.70 683.31 C 392.37 675.33 374.20 673.00 358.00 673.00
C 364.89 678.09 382.00 673.31 389.78 678.22 C 397.56 683.13 407.54 684.90 414.77 690.23 C 422.00 695.57 428.29 700.79 434.77 707.23 C 441.25 713.67 446.96 719.64 452.08 726.92 C 457.21 734.20 462.68 740.94 466.69 749.31 C 470.71 757.67 475.17 765.63 478.74 774.26 C 482.32 782.88 485.46 790.91 489.22 799.78 C 492.99 808.64 495.16 818.02 498.68 827.32 C 502.20 836.63 504.20 846.42 506.67 856.33 C 509.14 866.24 511.21 876.09 513.67 886.33 C 516.14 896.57 516.11 908.28 518.02 918.98 C 519.94 929.67 520.25 941.77 521.07 952.93 C 521.90 964.08 522.20 976.59 522.00 988.00 C 521.80 999.41 522.07 1013.18 520.93 1023.93 C 519.78 1034.68 515.56 1042.11 511.31 1051.31 C 507.05 1060.50 503.49 1066.94 498.77 1075.77 C 494.05 1084.60 493.58 1095.98 492.00 1106.00 C 490.42 1116.02 488.18 1126.93 485.78 1136.78 C 483.37 1146.62 480.64 1156.00 479.00 1166.00 Z"/>
</g>
<g fill="None" fill-opacity="0.0" stroke="#D3D3D3" stroke-opacity="0.14" stroke-width="0.3"><path d="
M 32.00 733.00 
C 32.27 732.75 33.00 733.00 33.00 733.00
C 33.47 720.65 35.00 708.57 35.00 696.00
C 33.71 708.11 32.00 720.60 32.00 733.00 Z"/>
</g>
<g fill="None" fill-opacity="0.0" stroke="#E5E5E5" stroke-opacity="0.08" stroke-width="0.3"><path d="
M 841.00 847.00 
C 842.59 840.03 843.93 831.09 843.00 823.00 C 842.07 814.91 844.19 804.81 843.00 797.00 C 841.81 789.20 840.99 781.74 841.00 774.00 C 841.01 766.26 839.70 757.05 838.99 750.01 C 838.28 742.96 836.58 733.59 835.00 728.00 C 833.41 722.42 834.61 709.23 830.00 708.00
C 828.40 722.49 837.41 735.91 837.00 751.00 C 836.59 766.09 841.11 781.35 841.00 797.00 C 840.89 812.65 841.00 831.10 841.00 847.00 Z"/>
</g>
<g fill="None" fill-opacity="0.0" stroke="#9F9F9F" stroke-opacity="0.29" stroke-width="0.3"><path d="
M 32.00 736.00 
C 32.00 743.27 31.00 749.75 31.00 757.00
C 31.72 749.55 32.68 741.27 33.00 733.00
C 33.00 733.00 32.27 732.75 32.00 733.00
C 32.00 734.00 32.00 735.00 32.00 736.00 Z"/>
</g>
<g fill="None" fill-opacity="0.0" stroke="#CECECE" stroke-opacity="0.09" stroke-width="0.3"><path d="
M 24.00 846.00 
C 27.85 817.72 31.00 786.20 31.00 757.00
C 31.00 749.75 32.00 743.27 32.00 736.00
C 28.21 753.27 29.80 772.60 27.78 790.78 C 25.76 808.96 24.00 827.20 24.00 846.00 Z"/>
</g>
<g fill="None" fill-opacity="0.0" stroke="#DCDCDC" stroke-opacity="0.13" stroke-width="0.3"><path d="
M 23.00 863.00 
C 23.78 859.18 24.00 854.53 24.00 850.00
C 23.50 853.67 23.38 858.68 23.00 863.00 Z"/>
</g>
<g fill="None" fill-opacity="0.0" stroke="#CDCDCD" stroke-opacity="0.19" stroke-width="0.3"><path d="
M 839.00 874.00 
C 839.01 873.94 840.00 874.00 840.00 874.00
C 840.51 866.46 841.00 858.85 841.00 851.00
C 840.02 858.17 839.54 866.08 839.00 874.00 Z"/>
</g>
<g fill="None" fill-opacity="0.0" stroke="#E4E4E4" stroke-opacity="0.08" stroke-width="0.3"><path d="
M 20.00 900.00 
C 21.11 891.84 22.00 882.98 22.00 874.00
C 21.22 882.11 20.00 891.18 20.00 900.00 Z"/>
</g>
<g fill="None" fill-opacity="0.0" stroke="#DCDCDC" stroke-opacity="0.08" stroke-width="0.3"><path d="
M 832.00 937.00 
C 836.95 933.18 833.72 922.90 836.07 917.07 C 838.42 911.25 837.77 902.53 839.00 896.00 C 840.23 889.47 839.54 880.82 840.00 874.00
C 840.00 874.00 839.01 873.94 839.00 874.00
C 838.29 884.49 835.82 895.46 836.00 906.00 C 836.18 916.54 830.86 926.46 832.00 937.00 Z"/>
</g>
<g fill="None" fill-opacity="0.0" stroke="#CCCCCC" stroke-opacity="0.11" stroke-width="0.3"><path d="
M 16.00 956.00 
C 18.27 939.32 20.00 921.73 20.00 904.00
C 17.75 920.53 16.00 938.63 16.00 956.00 Z"/>
</g>
<g fill="None" fill-opacity="0.0" stroke="#E6E6E6" stroke-opacity="0.06" stroke-width="0.3"><path d="
M 243.00 962.00 
C 243.64 955.38 246.18 943.49 245.67 936.67 C 245.16 929.85 250.50 917.80 247.00 913.00
C 243.30 919.48 245.96 929.71 244.00 937.00 C 242.04 944.29 243.00 954.23 243.00 962.00 Z"/>
</g>
<g fill="None" fill-opacity="0.0" stroke="#DCDCDC" stroke-opacity="0.09" stroke-width="0.3"><path d="
M 808.00 1039.00 
C 813.79 1034.85 813.41 1022.00 816.01 1015.01 C 818.61 1008.01 820.19 997.77 822.02 990.02 C 823.86 982.28 827.48 973.32 828.00 965.00 C 828.52 956.68 832.92 946.48 832.00 938.00
C 825.55 945.96 827.65 962.03 824.00 972.00 C 820.35 981.97 819.57 995.88 816.33 1006.33 C 813.08 1016.78 809.77 1028.20 808.00 1039.00 Z"/>
</g>
<g fill="None" fill-opacity="0.0" stroke="#CCCCCC" stroke-opacity="0.10" stroke-width="0.3"><path d="
M 12.00 1057.00 
C 17.06 1042.35 11.75 1023.49 14.02 1008.02 C 16.30 992.56 16.00 975.92 16.00 960.00
C 14.73 969.33 12.47 982.10 13.02 991.97 C 13.58 1001.84 10.52 1013.97 12.00 1024.00 C 13.48 1034.03 8.15 1048.99 12.00 1057.00 Z"/>
</g>
<g fill="None" fill-opacity="0.0" stroke="#E2E2E2" stroke-opacity="0.10" stroke-width="0.3"><path d="
M 241.00 991.00 
C 243.63 987.45 241.78 981.01 242.00 977.00
C 241.16 981.13 241.00 986.16 241.00 991.00 Z"/>
</g>
<g fill="None" fill-opacity="0.0" stroke="#DADADA" stroke-opacity="0.13" stroke-width="0.3"><path d="
M 239.00 1027.00 
C 239.00 1030.75 239.71 1034.99 240.00 1038.00
C 240.00 1030.68 241.05 1020.72 241.00 1014.00 C 240.95 1007.28 244.00 997.25 241.00 992.00
C 237.84 996.27 241.34 1004.53 239.78 1009.78 C 238.22 1015.02 239.00 1021.35 239.00 1027.00 Z"/>
</g>
<g fill="None" fill-opacity="0.0" stroke="#ACACAC" stroke-opacity="0.23" stroke-width="0.3"><path d="
M 238.00 1059.00 
C 238.08 1058.81 239.75 1059.25 240.00 1059.00
C 239.98 1058.50 240.00 1057.50 240.00 1057.00
C 238.22 1052.80 239.61 1048.00 240.00 1044.00
C 240.00 1042.00 240.00 1040.00 240.00 1038.00
C 239.71 1034.99 239.00 1030.75 239.00 1027.00
C 238.04 1036.87 238.00 1048.36 238.00 1059.00 Z"/>
</g>
<g fill="None" fill-opacity="0.0" stroke="#E7E7E7" stroke-opacity="0.08" stroke-width="0.3"><path d="
M 804.00 1051.00 
C 806.51 1048.28 807.27 1044.44 808.00 1040.00
C 806.29 1043.25 804.54 1047.07 804.00 1051.00 Z"/>
</g>
<g fill="None" fill-opacity="0.0" stroke="#EEEEEE" stroke-opacity="0.02" stroke-width="0.3"><path d="
M 240.00 1057.00 
C 240.00 1052.67 240.00 1048.33 240.00 1044.00
C 239.61 1048.00 238.22 1052.80 240.00 1057.00 Z"/>
</g>
<g fill="None" fill-opacity="0.0" stroke="#DBDBDB" stroke-opacity="0.08" stroke-width="0.3"><path d="
M 354.00 1479.00 
C 374.66 1478.89 395.90 1471.23 415.33 1467.33 C 434.76 1463.43 454.66 1457.72 472.93 1451.93 C 491.19 1446.13 508.79 1439.05 525.77 1431.77 C 542.75 1424.50 556.98 1414.86 571.77 1404.77 C 586.56 1394.68 599.26 1384.32 612.75 1372.75 C 626.25 1361.18 638.06 1349.58 649.75 1336.75 C 661.44 1323.92 672.80 1311.17 683.23 1297.23 C 693.66 1283.29 703.88 1269.19 713.23 1254.23 C 722.58 1239.27 731.81 1223.95 740.08 1208.08 C 748.35 1192.22 757.44 1175.89 764.23 1159.23 C 771.02 1142.57 780.70 1125.04 785.68 1107.68 C 790.66 1090.31 803.52 1071.31 804.00 1053.00
C 795.77 1069.83 791.27 1089.09 784.33 1106.33 C 777.39 1123.56 770.43 1142.17 762.33 1158.33 C 754.23 1174.48 747.86 1191.97 738.77 1207.77 C 729.68 1223.57 721.11 1239.13 711.30 1254.30 C 701.49 1269.47 692.18 1283.47 681.25 1297.25 C 670.31 1311.03 659.78 1324.56 647.25 1337.25 C 634.71 1349.93 622.59 1362.50 609.25 1374.25 C 595.90 1385.99 581.80 1395.96 567.23 1406.23 C 552.66 1416.50 537.33 1424.88 520.68 1432.68 C 504.02 1440.48 485.99 1445.01 468.75 1451.41 C 451.51 1457.81 431.97 1460.97 414.01 1467.01 C 396.04 1473.05 370.66 1471.73 354.00 1479.00 Z"/>
</g>
<g fill="None" fill-opacity="0.0" stroke="#D5D5D5" stroke-opacity="0.10" stroke-width="0.3"><path d="
M 192.00 1467.00 
C 183.38 1459.58 166.07 1459.67 156.23 1452.77 C 146.39 1445.87 134.03 1442.95 124.75 1435.25 C 115.46 1427.56 106.39 1421.80 97.75 1413.25 C 89.11 1404.69 81.56 1396.16 74.30 1386.70 C 67.05 1377.23 61.24 1366.69 55.77 1356.23 C 50.30 1345.77 44.55 1333.22 40.92 1322.08 C 37.29 1310.94 32.92 1300.52 29.93 1287.07 C 26.94 1273.63 23.78 1260.77 21.33 1246.67 C 18.88 1232.57 17.87 1217.83 16.00 1203.00 C 14.13 1188.17 13.65 1171.56 13.00 1156.00 C 12.35 1140.44 11.80 1124.04 12.00 1108.00 C 12.20 1091.96 12.00 1075.11 12.00 1059.00
C 6.68 1071.54 12.19 1090.68 10.67 1103.33 C 9.15 1115.98 11.18 1133.63 11.33 1147.33 C 11.48 1161.02 11.69 1179.47 13.07 1193.93 C 14.45 1208.38 15.83 1222.70 18.22 1236.78 C 20.61 1250.86 23.21 1266.28 26.22 1279.78 C 29.24 1293.27 33.86 1305.68 37.68 1318.32 C 41.50 1330.96 47.46 1342.81 52.70 1354.30 C 57.93 1365.79 64.92 1375.03 71.75 1385.25 C 78.57 1395.48 86.67 1404.18 95.25 1412.75 C 103.83 1421.33 112.54 1428.93 122.75 1435.25 C 132.97 1441.56 143.46 1449.94 154.98 1454.02 C 166.50 1458.11 179.42 1466.71 192.00 1467.00 Z"/>
</g>
<g fill="None" fill-opacity="0.0" stroke="#E0E0E0" stroke-opacity="0.06" stroke-width="0.3"><path d="
M 239.00 1085.00 
C 239.59 1076.31 240.33 1067.49 240.00 1059.00
C 239.75 1059.25 238.08 1058.81 238.00 1059.00
C 238.00 1067.68 238.23 1077.01 239.00 1085.00 Z"/>
</g>
<g fill="None" fill-opacity="0.0" stroke="#D9D9D9" stroke-opacity="0.08" stroke-width="0.3"><path d="
M 643.00 1435.00 
C 641.67 1435.00 640.33 1435.00 639.00 1435.00
C 634.35 1416.72 654.83 1405.65 666.25 1393.25 C 677.67 1380.85 689.94 1369.68 701.25 1357.25 C 712.56 1344.82 724.51 1333.08 735.25 1320.25 C 745.99 1307.41 757.47 1294.94 767.75 1281.75 C 778.03 1268.57 789.93 1256.47 800.23 1243.23 C 810.53 1229.99 820.92 1216.75 831.70 1203.70 C 842.47 1190.65 851.55 1176.43 862.25 1163.25 C 872.95 1150.07 883.03 1136.49 892.75 1122.75 C 902.47 1109.02 914.10 1096.31 923.00 1082.00
C 911.59 1093.66 901.88 1108.95 891.30 1122.30 C 880.73 1135.66 871.77 1150.19 861.25 1163.25 C 850.73 1176.31 840.67 1190.16 830.25 1203.25 C 819.83 1216.34 808.92 1230.07 798.25 1243.25 C 787.57 1256.43 777.00 1269.27 766.25 1282.25 C 755.49 1295.22 744.23 1307.69 733.25 1320.25 C 722.28 1332.82 710.58 1345.57 699.25 1358.25 C 687.92 1370.92 675.30 1381.79 664.25 1394.25 C 653.19 1406.71 631.07 1416.45 637.00 1436.00
C 639.06 1436.90 641.63 1435.20 643.00 1435.00 Z"/>
</g>
<g fill="None" fill-opacity="0.0" stroke="#DDDDDD" stroke-opacity="0.08" stroke-width="0.3"><path d="
M 252.00 1237.00 
C 253.03 1221.46 244.75 1207.71 244.00 1192.00 C 243.25 1176.30 239.34 1159.49 240.00 1143.00 C 240.66 1126.51 239.00 1109.63 239.00 1093.00
C 237.49 1108.56 236.98 1129.94 238.00 1146.00 C 239.03 1162.06 239.92 1180.05 243.00 1195.00 C 246.08 1209.94 245.25 1224.66 252.00 1237.00 Z"/>
</g>
<g fill="None" fill-opacity="0.0" stroke="#DCDCDC" stroke-opacity="0.08" stroke-width="0.3"><path d="
M 1420.00 1145.00 
C 1423.81 1132.45 1429.80 1119.40 1432.00 1106.00
C 1428.23 1110.63 1427.18 1119.11 1424.98 1124.98 C 1422.77 1130.84 1420.89 1138.75 1420.00 1145.00 Z"/>
</g>
<g fill="None" fill-opacity="0.0" stroke="#D9D9D9" stroke-opacity="0.09" stroke-width="0.3"><path d="
M 1404.00 1200.00 
C 1412.48 1188.30 1412.56 1168.85 1417.00 1155.00
C 1411.03 1167.07 1405.62 1186.36 1404.00 1200.00 Z"/>
</g>
<g fill="None" fill-opacity="0.0" stroke="#D7D7D7" stroke-opacity="0.09" stroke-width="0.3"><path d="
M 252.00 1238.00 
C 252.79 1258.72 265.35 1271.28 274.08 1289.92 C 282.82 1308.56 308.34 1312.18 326.99 1307.99 C 345.65 1303.80 368.54 1301.76 384.98 1292.98 C 401.41 1284.19 420.52 1280.78 433.25 1267.25 C 445.97 1253.71 451.97 1237.28 460.08 1221.08 C 468.18 1204.87 476.04 1185.02 479.00 1167.00
C 470.58 1176.80 470.63 1195.34 463.93 1206.93 C 457.22 1218.51 453.75 1232.88 446.31 1244.31 C 438.86 1255.73 433.86 1267.57 421.08 1274.08 C 408.29 1280.58 398.15 1286.56 384.69 1291.70 C 371.24 1296.83 356.55 1301.89 342.07 1304.07 C 327.59 1306.26 307.03 1311.19 292.70 1306.31 C 278.36 1301.42 276.18 1286.70 267.75 1276.25 C 259.33 1265.80 260.10 1247.98 252.00 1238.00 Z"/>
</g>
<g fill="None" fill-opacity="0.0" stroke="#D2D2D2" stroke-opacity="0.10" stroke-width="0.3"><path d="
M 1397.00 1228.00 
C 1401.21 1223.55 1404.25 1208.55 1404.00 1202.00
C 1400.17 1207.64 1396.49 1220.77 1397.00 1228.00 Z"/>
</g>
<g fill="None" fill-opacity="0.0" stroke="#DDDDDD" stroke-opacity="0.08" stroke-width="0.3"><path d="
M 1392.00 1246.00 
C 1394.91 1242.93 1396.88 1234.59 1397.00 1230.00
C 1394.18 1234.16 1392.62 1240.79 1392.00 1246.00 Z"/>
</g>
<g fill="None" fill-opacity="0.0" stroke="#D9D9D9" stroke-opacity="0.09" stroke-width="0.3"><path d="
M 1381.00 1293.00 
C 1385.80 1289.34 1384.87 1277.05 1387.22 1271.22 C 1389.57 1265.39 1392.25 1254.65 1392.00 1248.00
C 1389.65 1254.73 1386.46 1262.39 1385.99 1269.99 C 1385.53 1277.60 1380.49 1285.33 1381.00 1293.00 Z"/>
</g>
<g fill="None" fill-opacity="0.0" stroke="#D2D2D2" stroke-opacity="0.10" stroke-width="0.3"><path d="
M 1372.00 1336.00 
C 1374.59 1323.49 1382.47 1307.53 1381.00 1294.00
C 1375.22 1304.52 1372.50 1323.66 1372.00 1336.00 Z"/>
</g>
<g fill="None" fill-opacity="0.0" stroke="#EAEAEA" stroke-opacity="0.06" stroke-width="0.3"><path d="
M 1025.00 1367.00 
C 1038.37 1366.99 1051.56 1364.80 1064.93 1363.93 C 1078.29 1363.06 1091.34 1361.53 1105.00 1361.00 C 1118.66 1360.47 1133.02 1359.92 1147.00 1360.00 C 1160.98 1360.08 1175.49 1360.22 1189.00 1361.00 C 1202.51 1361.78 1216.11 1362.31 1229.00 1364.00 C 1241.89 1365.69 1255.02 1366.45 1267.33 1368.67 C 1279.64 1370.89 1291.72 1372.57 1303.33 1375.67 C 1314.94 1378.77 1326.70 1380.73 1337.78 1384.22 C 1348.85 1387.72 1361.79 1397.04 1364.01 1383.01 C 1366.22 1368.98 1367.29 1359.34 1370.00 1346.00
C 1365.10 1359.59 1363.61 1375.16 1362.00 1390.00
C 1352.92 1387.16 1344.24 1384.52 1335.07 1381.93 C 1325.90 1379.33 1317.48 1377.14 1308.02 1374.98 C 1298.56 1372.81 1288.86 1370.45 1279.01 1368.99 C 1269.16 1367.54 1259.12 1366.46 1249.07 1364.93 C 1239.03 1363.40 1229.56 1361.66 1219.00 1361.00 C 1208.44 1360.34 1196.89 1359.09 1186.00 1359.00 C 1175.11 1358.91 1164.09 1357.54 1153.00 1358.00 C 1141.91 1358.46 1130.60 1357.56 1120.00 1359.00 C 1109.40 1360.44 1096.40 1358.42 1086.22 1360.22 C 1076.04 1362.02 1064.38 1360.52 1055.00 1363.00 C 1045.62 1365.48 1032.30 1361.60 1025.00 1367.00 Z"/>
</g>
<g fill="None" fill-opacity="0.0" stroke="#D3D3D3" stroke-opacity="0.09" stroke-width="0.3"><path d="
M 825.00 1399.00 
C 819.10 1400.35 813.03 1401.12 807.00 1402.00
C 792.58 1404.11 776.97 1407.55 763.02 1411.02 C 749.08 1414.49 732.37 1413.24 720.00 1420.00
C 730.20 1419.78 740.71 1416.06 750.78 1414.78 C 760.85 1413.50 770.04 1409.89 780.00 1408.00 C 789.96 1406.10 800.91 1405.09 810.78 1402.78 C 820.65 1400.47 829.96 1398.91 839.93 1396.93 C 849.90 1394.95 859.97 1392.89 870.00 1391.00 C 880.02 1389.11 890.85 1388.03 900.78 1385.78 C 910.71 1383.53 920.72 1382.54 930.78 1380.78 C 940.84 1379.01 952.02 1377.90 961.93 1375.93 C 971.84 1373.96 983.66 1373.64 993.00 1371.00 C 1002.33 1368.35 1016.65 1372.44 1024.00 1367.00
C 1011.58 1362.54 996.08 1370.77 983.02 1371.02 C 969.97 1371.27 957.06 1376.88 944.00 1377.00 C 930.94 1377.12 916.98 1381.94 904.00 1384.00 C 891.03 1386.07 877.09 1389.01 864.00 1391.00 C 850.91 1393.00 837.84 1396.06 825.00 1399.00 Z"/>
</g>
<g fill="None" fill-opacity="0.0" stroke="#9B9B9B" stroke-opacity="0.29" stroke-width="0.3"><path d="
M 807.00 1402.00 
C 813.03 1401.12 819.10 1400.35 825.00 1399.00
C 819.68 1399.62 812.79 1400.52 807.00 1402.00 Z"/>
</g>
<g fill="None" fill-opacity="0.0" stroke="#BFBFBF" stroke-opacity="0.13" stroke-width="0.3"><path d="
M 659.00 1432.00 
C 668.80 1430.00 680.32 1429.77 689.78 1426.78 C 699.24 1423.79 710.56 1424.62 719.00 1420.00
C 699.65 1420.45 676.86 1426.20 659.00 1432.00 Z"/>
</g>
<g fill="None" fill-opacity="0.0" stroke="#DFDFDF" stroke-opacity="0.09" stroke-width="0.3"><path d="
M 214.00 1473.00 
C 208.96 1470.23 199.06 1467.23 193.00 1467.00
C 197.21 1470.41 208.38 1472.87 214.00 1473.00 Z"/>
</g>
<g fill="None" fill-opacity="0.0" stroke="#BBBBBB" stroke-opacity="0.12" stroke-width="0.3"><path d="
M 257.00 1479.00 
C 243.93 1476.48 228.89 1473.00 215.00 1473.00
C 227.23 1478.36 243.24 1477.91 257.00 1479.00 Z"/>
</g>
<g fill="None" fill-opacity="0.0" stroke="#E1E1E1" stroke-opacity="0.08" stroke-width="0.3"><path d="
M 270.00 1480.00 
C 278.09 1481.45 287.63 1485.77 297.00 1484.00 C 306.37 1482.23 318.43 1485.79 327.00 1483.00 C 335.57 1480.20 346.16 1484.06 353.00 1479.00
C 339.35 1477.67 326.00 1482.45 312.00 1483.00 C 298.00 1483.55 283.20 1480.72 270.00 1480.00 Z"/>
</g>
<g fill="#000000" fill-opacity="0.00" stroke="None">
<path d="
M 0.00 1491.00 
L 1716.00 1491.00
L 1716.00 0.00
L 1537.00 0.00
C 1599.17 0.83 1677.41 20.21 1698.92 84.08 C 1720.44 147.94 1691.34 222.10 1668.22 282.22 C 1645.11 342.34 1614.35 398.96 1583.03 454.03 C 1551.71 509.09 1518.18 559.34 1484.25 612.25 C 1450.32 665.16 1416.06 715.10 1381.75 766.75 C 1347.44 818.39 1312.70 868.96 1278.08 920.08 C 1243.47 971.20 1209.32 1020.63 1174.08 1072.08
C 1266.79 1045.74 1361.08 1022.39 1460.00 1018.00
C 1451.82 1047.21 1442.01 1076.98 1432.00 1105.00
C 1431.98 1105.50 1432.00 1106.00 1432.00 1106.00
C 1429.80 1119.40 1423.81 1132.45 1420.00 1145.00
C 1419.39 1149.25 1418.85 1151.25 1417.00 1155.00
C 1412.56 1168.85 1412.48 1188.30 1404.00 1200.00
C 1403.94 1200.49 1403.98 1201.50 1404.00 1202.00
C 1404.25 1208.55 1401.21 1223.55 1397.00 1228.00
C 1397.03 1228.50 1397.01 1229.50 1397.00 1230.00
C 1396.88 1234.59 1394.91 1242.93 1392.00 1246.00
C 1391.94 1246.49 1391.98 1247.50 1392.00 1248.00
C 1392.25 1254.65 1389.57 1265.39 1387.22 1271.22 C 1384.87 1277.05 1385.80 1289.34 1381.00 1293.00
C 1381.03 1293.50 1381.00 1294.00 1381.00 1294.00
C 1382.47 1307.53 1374.59 1323.49 1372.00 1336.00
C 1371.83 1340.14 1371.58 1342.34 1370.00 1346.00
C 1367.29 1359.34 1366.22 1368.98 1364.01 1383.01 C 1361.79 1397.04 1348.85 1387.72 1337.78 1384.22 C 1326.70 1380.73 1314.94 1378.77 1303.33 1375.67 C 1291.72 1372.57 1279.64 1370.89 1267.33 1368.67 C 1255.02 1366.45 1241.89 1365.69 1229.00 1364.00 C 1216.11 1362.31 1202.51 1361.78 1189.00 1361.00 C 1175.49 1360.22 1160.98 1360.08 1147.00 1360.00 C 1133.02 1359.92 1118.66 1360.47 1105.00 1361.00 C 1091.34 1361.53 1078.29 1363.06 1064.93 1363.93 C 1051.56 1364.80 1038.37 1366.99 1025.00 1367.00
C 1024.50 1367.00 1024.00 1367.00 1024.00 1367.00
C 1016.65 1372.44 1002.33 1368.35 993.00 1371.00 C 983.66 1373.64 971.84 1373.96 961.93 1375.93 C 952.02 1377.90 940.84 1379.01 930.78 1380.78 C 920.72 1382.54 910.71 1383.53 900.78 1385.78 C 890.85 1388.03 880.02 1389.11 870.00 1391.00 C 859.97 1392.89 849.90 1394.95 839.93 1396.93 C 829.96 1398.91 820.65 1400.47 810.78 1402.78 C 800.91 1405.09 789.96 1406.10 780.00 1408.00 C 770.04 1409.89 760.85 1413.50 750.78 1414.78 C 740.71 1416.06 730.20 1419.78 720.00 1420.00
C 719.50 1420.01 719.00 1420.00 719.00 1420.00
C 710.56 1424.62 699.24 1423.79 689.78 1426.78 C 680.32 1429.77 668.80 1430.00 659.00 1432.00
C 653.64 1433.09 648.55 1434.21 643.00 1435.00
C 641.63 1435.20 639.06 1436.90 637.00 1436.00
C 631.07 1416.45 653.19 1406.71 664.25 1394.25 C 675.30 1381.79 687.92 1370.92 699.25 1358.25 C 710.58 1345.57 722.28 1332.82 733.25 1320.25 C 744.23 1307.69 755.49 1295.22 766.25 1282.25 C 777.00 1269.27 787.57 1256.43 798.25 1243.25 C 808.92 1230.07 819.83 1216.34 830.25 1203.25 C 840.67 1190.16 850.73 1176.31 861.25 1163.25 C 871.77 1150.19 880.73 1135.66 891.30 1122.30 C 901.88 1108.95 911.59 1093.66 923.00 1082.00
C 923.22 1081.64 923.00 1081.00 923.00 1081.00
C 925.77 1068.37 940.37 1059.55 946.10 1048.10 C 951.83 1036.65 962.77 1026.34 969.75 1014.75 C 976.73 1003.17 985.29 992.20 992.92 980.92 C 1000.55 969.63 1008.09 958.01 1015.77 946.77 C 1023.45 935.53 1030.67 924.17 1037.92 912.92 C 1045.17 901.66 1053.47 890.51 1060.75 878.75 C 1068.03 866.99 1075.59 855.51 1082.77 843.77 C 1089.95 832.03 1097.67 820.63 1104.77 808.77 C 1111.87 796.91 1119.15 785.23 1126.25 773.25 C 1133.36 761.28 1139.33 749.86 1146.77 737.77 C 1154.21 725.69 1159.97 713.30 1166.92 700.92 C 1173.88 688.55 1180.55 676.41 1186.92 663.92 C 1193.29 651.43 1199.65 638.29 1205.78 625.78 C 1211.90 613.27 1218.00 601.15 1223.97 587.97 C 1229.95 574.80 1235.62 561.46 1240.93 547.93 C 1246.23 534.39 1252.20 520.57 1256.75 506.75 C 1261.31 492.94 1264.75 473.40 1266.00 459.00 C 1267.25 444.60 1263.57 429.02 1254.25 417.75 C 1244.93 406.49 1236.77 401.80 1223.25 397.41 C 1209.73 393.02 1187.14 395.04 1172.98 397.98 C 1158.81 400.91 1143.00 407.10 1129.92 411.92 C 1116.85 416.75 1104.87 422.71 1092.31 429.31 C 1079.74 435.90 1067.08 440.84 1055.25 448.25 C 1043.43 455.67 1031.50 462.43 1019.92 469.92 C 1008.35 477.42 997.64 486.48 987.10 494.10 C 976.56 501.72 965.88 510.72 955.75 519.75 C 945.63 528.78 935.29 537.78 925.77 546.77 C 916.25 555.76 907.08 565.42 897.75 574.75 C 888.43 584.09 877.59 592.98 868.75 602.75 C 859.92 612.53 848.79 620.93 840.25 631.25 C 831.70 641.57 815.30 649.27 817.97 662.03 C 820.64 674.80 831.58 692.39 830.00 707.00
C 829.95 707.49 830.00 708.00 830.00 708.00
C 834.61 709.23 833.41 722.42 835.00 728.00 C 836.58 733.59 838.28 742.96 838.99 750.01 C 839.70 757.05 841.01 766.26 841.00 774.00 C 840.99 781.74 841.81 789.20 843.00 797.00 C 844.19 804.81 842.07 814.91 843.00 823.00 C 843.93 831.09 842.59 840.03 841.00 847.00
C 841.00 848.33 841.00 849.67 841.00 851.00
C 841.00 858.85 840.51 866.46 840.00 874.00
C 839.54 880.82 840.23 889.47 839.00 896.00 C 837.77 902.53 838.42 911.25 836.07 917.07 C 833.72 922.90 836.95 933.18 832.00 937.00
C 832.05 937.49 832.00 938.00 832.00 938.00
C 832.92 946.48 828.52 956.68 828.00 965.00 C 827.48 973.32 823.86 982.28 822.02 990.02 C 820.19 997.77 818.61 1008.01 816.01 1015.01 C 813.41 1022.00 813.79 1034.85 808.00 1039.00
C 807.92 1039.49 808.00 1040.00 808.00 1040.00
C 807.27 1044.44 806.51 1048.28 804.00 1051.00
C 803.93 1051.49 804.01 1052.50 804.00 1053.00
C 803.52 1071.31 790.66 1090.31 785.68 1107.68 C 780.70 1125.04 771.02 1142.57 764.23 1159.23 C 757.44 1175.89 748.35 1192.22 740.08 1208.08 C 731.81 1223.95 722.58 1239.27 713.23 1254.23 C 703.88 1269.19 693.66 1283.29 683.23 1297.23 C 672.80 1311.17 661.44 1323.92 649.75 1336.75 C 638.06 1349.58 626.25 1361.18 612.75 1372.75 C 599.26 1384.32 586.56 1394.68 571.77 1404.77 C 556.98 1414.86 542.75 1424.50 525.77 1431.77 C 508.79 1439.05 491.19 1446.13 472.93 1451.93 C 454.66 1457.72 434.76 1463.43 415.33 1467.33 C 395.90 1471.23 374.66 1478.89 354.00 1479.00
C 353.50 1479.00 353.00 1479.00 353.00 1479.00
C 346.16 1484.06 335.57 1480.20 327.00 1483.00 C 318.43 1485.79 306.37 1482.23 297.00 1484.00 C 287.63 1485.77 278.09 1481.45 270.00 1480.00
C 265.49 1479.76 261.30 1479.34 257.00 1479.00
C 243.24 1477.91 227.23 1478.36 215.00 1473.00
C 214.50 1473.00 214.00 1473.00 214.00 1473.00
C 208.38 1472.87 197.21 1470.41 193.00 1467.00
C 192.50 1466.98 192.00 1467.00 192.00 1467.00
C 179.42 1466.71 166.50 1458.11 154.98 1454.02 C 143.46 1449.94 132.97 1441.56 122.75 1435.25 C 112.54 1428.93 103.83 1421.33 95.25 1412.75 C 86.67 1404.18 78.57 1395.48 71.75 1385.25 C 64.92 1375.03 57.93 1365.79 52.70 1354.30 C 47.46 1342.81 41.50 1330.96 37.68 1318.32 C 33.86 1305.68 29.24 1293.27 26.22 1279.78 C 23.21 1266.28 20.61 1250.86 18.22 1236.78 C 15.83 1222.70 14.45 1208.38 13.07 1193.93 C 11.69 1179.47 11.48 1161.02 11.33 1147.33 C 11.18 1133.63 9.15 1115.98 10.67 1103.33 C 12.19 1090.68 6.68 1071.54 12.00 1059.00
C 12.00 1058.50 11.85 1057.45 12.00 1057.00
C 8.15 1048.99 13.48 1034.03 12.00 1024.00 C 10.52 1013.97 13.58 1001.84 13.02 991.97 C 12.47 982.10 14.73 969.33 16.00 960.00
C 16.00 958.67 16.00 957.33 16.00 956.00
C 16.00 938.63 17.75 920.53 20.00 904.00
C 20.00 902.67 20.00 901.33 20.00 900.00
C 20.00 891.18 21.22 882.11 22.00 874.00
C 22.00 870.07 22.68 866.64 23.00 863.00
C 23.38 858.68 23.50 853.67 24.00 850.00
C 24.00 848.67 24.00 847.33 24.00 846.00
C 24.00 827.20 25.76 808.96 27.78 790.78 C 29.80 772.60 28.21 753.27 32.00 736.00
C 32.00 735.00 32.00 734.00 32.00 733.00
C 32.00 720.60 33.71 708.11 35.00 696.00
C 35.00 694.33 35.00 692.67 35.00 691.00
C 35.00 682.75 36.00 675.26 36.00 667.00
C 36.00 666.50 36.00 666.00 36.00 666.00
C 36.00 623.10 50.27 578.89 71.25 543.25 C 92.24 507.62 109.63 480.63 140.75 452.75 C 171.87 424.87 199.30 405.58 238.08 389.08 C 276.85 372.57 325.85 361.99 370.00 361.00 C 414.15 360.01 468.59 369.02 508.02 382.98 C 547.46 396.93 582.65 413.19 616.08 435.92 C 649.51 458.66 676.62 481.11 707.75 504.25 C 738.88 527.39 761.87 557.69 783.00 590.00
C 784.84 570.46 786.85 550.60 787.20 530.75 C 787.55 510.91 790.41 489.98 789.67 470.33 C 788.93 450.68 793.69 431.44 791.00 412.00 C 788.31 392.55 801.84 380.38 815.10 368.10 C 828.36 355.81 837.59 343.70 850.30 332.30 C 863.01 320.90 874.66 308.37 887.30 297.30 C 899.94 286.22 912.15 275.41 925.25 264.25 C 938.34 253.08 951.31 242.23 964.75 231.75 C 978.18 221.26 991.83 210.77 1005.08 201.08 C 1018.34 191.39 1033.19 181.06 1047.25 171.25 C 1061.30 161.43 1076.35 153.20 1091.07 144.07 C 1105.80 134.95 1120.64 125.34 1136.23 117.23 C 1151.82 109.12 1166.90 99.69 1183.23 93.23
C 1185.05 92.53 1185.97 92.40 1187.00 92.00
C 1288.61 34.45 1401.23 7.12 1515.00 0.00
L 0.00 0.00
L 0.00 1491.00 Z"/>
</g>
<g fill="#DADADA" fill-opacity="0.10" stroke="None">
<path d="
M 1187.00 92.00 
C 1223.95 77.76 1251.22 59.96 1288.22 48.22 C 1325.23 36.48 1363.37 23.01 1403.22 15.22 C 1443.08 7.43 1496.68 1.60 1539.00 3.00 C 1581.32 4.40 1621.88 10.77 1656.08 33.92 C 1690.28 57.07 1704.71 94.24 1704.00 134.00 C 1703.29 173.76 1690.35 218.63 1677.68 254.68 C 1665.01 290.73 1649.51 324.66 1633.08 358.08 C 1616.64 391.49 1599.51 421.14 1581.70 452.70 C 1563.88 484.25 1545.84 513.71 1526.70 543.70 C 1507.55 573.68 1488.13 603.86 1468.70 633.70 C 1449.26 663.53 1429.52 692.35 1410.08 722.08 C 1390.64 751.80 1369.84 780.84 1350.25 810.25 C 1330.65 839.66 1310.79 869.60 1290.75 898.75 C 1270.71 927.90 1250.74 957.33 1230.75 986.75 C 1210.76 1016.16 1190.31 1045.32 1171.00 1075.00
C 1264.54 1049.46 1358.43 1023.92 1458.00 1021.00
C 1449.92 1049.06 1439.02 1076.43 1432.00 1105.00
C 1442.01 1076.98 1451.82 1047.21 1460.00 1018.00
C 1361.08 1022.39 1266.79 1045.74 1174.00 1073.00
C 1209.32 1020.63 1243.47 971.20 1278.08 920.08 C 1312.70 868.96 1347.44 818.39 1381.75 766.75 C 1416.06 715.10 1450.32 665.16 1484.25 612.25 C 1518.18 559.34 1551.71 509.09 1583.03 454.03 C 1614.35 398.96 1645.11 342.34 1668.22 282.22 C 1691.34 222.10 1720.44 147.94 1698.92 84.08 C 1677.41 20.21 1599.17 0.83 1537.00 0.00
L 1515.00 0.00
C 1401.23 7.12 1288.61 34.45 1187.00 92.00 Z"/>
</g>
<g fill="#8D8D8D" fill-opacity="0.44" stroke="None">
<path d="
M 1187.00 92.00 
C 1185.97 92.40 1185.05 92.53 1184.00 93.00
C 1170.97 101.48 1156.05 107.79 1142.31 115.31 C 1128.56 122.82 1115.00 130.65 1101.77 138.77 C 1088.54 146.89 1074.99 154.47 1062.30 163.30 C 1049.62 172.14 1036.87 180.09 1024.25 189.25 C 1011.64 198.42 999.08 207.39 986.77 216.77 C 974.46 226.15 962.71 235.16 950.77 244.77 C 938.83 254.38 928.12 264.70 916.25 274.25 C 904.38 283.80 893.83 294.25 882.30 304.30 C 870.78 314.35 860.63 324.39 849.75 335.75 C 838.87 347.11 828.11 356.07 817.25 368.25 C 806.39 380.43 790.45 387.98 792.00 407.00 C 793.55 426.02 791.23 450.28 791.00 470.00 C 790.77 489.72 789.78 512.06 789.00 532.00 C 788.22 551.94 785.90 572.03 785.00 592.00
C 771.03 577.63 760.02 557.33 744.25 541.75 C 728.47 526.17 714.11 510.35 696.25 497.75 C 678.39 485.15 661.57 471.94 644.25 457.75 C 626.92 443.56 608.12 432.87 588.77 421.23 C 569.42 409.59 548.26 400.01 526.78 391.22 C 505.29 382.44 484.77 377.67 460.33 371.67 C 435.88 365.68 402.78 362.50 376.00 363.00 C 349.22 363.50 318.20 366.52 293.78 372.78 C 269.36 379.04 247.19 386.06 225.77 396.77 C 204.35 407.48 186.72 417.22 168.25 431.25 C 149.79 445.28 136.29 458.24 120.25 475.25 C 104.21 492.26 94.12 508.62 81.08 528.08 C 68.04 547.55 60.96 568.06 51.01 590.01 C 41.05 611.96 38.26 641.76 36.00 666.00
C 36.00 666.00 36.00 666.50 36.00 667.00
C 39.74 672.06 35.58 685.56 35.00 691.00
C 35.00 692.67 35.00 694.33 35.00 696.00
C 35.00 708.57 33.47 720.65 33.00 733.00
C 32.68 741.27 31.72 749.55 31.00 757.00
C 31.00 786.20 27.85 817.72 24.00 846.00
C 24.00 847.33 24.00 848.67 24.00 850.00
C 24.00 854.53 23.78 859.18 23.00 863.00
C 22.68 866.64 22.00 870.07 22.00 874.00
C 22.00 882.98 21.11 891.84 20.00 900.00
C 20.00 901.33 20.00 902.67 20.00 904.00
C 20.00 921.73 18.27 939.32 16.00 956.00
C 16.00 957.33 16.00 958.67 16.00 960.00
C 16.00 975.92 16.30 992.56 14.02 1008.02 C 11.75 1023.49 17.06 1042.35 12.00 1057.00
C 11.85 1057.45 12.00 1058.50 12.00 1059.00
C 12.00 1075.11 12.20 1091.96 12.00 1108.00 C 11.80 1124.04 12.35 1140.44 13.00 1156.00 C 13.65 1171.56 14.13 1188.17 16.00 1203.00 C 17.87 1217.83 18.88 1232.57 21.33 1246.67 C 23.78 1260.77 26.94 1273.63 29.93 1287.07 C 32.92 1300.52 37.29 1310.94 40.92 1322.08 C 44.55 1333.22 50.30 1345.77 55.77 1356.23 C 61.24 1366.69 67.05 1377.23 74.30 1386.70 C 81.56 1396.16 89.11 1404.69 97.75 1413.25 C 106.39 1421.80 115.46 1427.56 124.75 1435.25 C 134.03 1442.95 146.39 1445.87 156.23 1452.77 C 166.07 1459.67 183.38 1459.58 192.00 1467.00
C 192.00 1467.00 192.50 1466.98 193.00 1467.00
C 199.06 1467.23 208.96 1470.23 214.00 1473.00
C 214.00 1473.00 214.50 1473.00 215.00 1473.00
C 228.89 1473.00 243.93 1476.48 257.00 1479.00
C 261.30 1479.34 265.49 1479.76 270.00 1480.00
C 283.20 1480.72 298.00 1483.55 312.00 1483.00 C 326.00 1482.45 339.35 1477.67 353.00 1479.00
C 353.00 1479.00 353.50 1479.00 354.00 1479.00
C 370.66 1471.73 396.04 1473.05 414.01 1467.01 C 431.97 1460.97 451.51 1457.81 468.75 1451.41 C 485.99 1445.01 504.02 1440.48 520.68 1432.68 C 537.33 1424.88 552.66 1416.50 567.23 1406.23 C 581.80 1395.96 595.90 1385.99 609.25 1374.25 C 622.59 1362.50 634.71 1349.93 647.25 1337.25 C 659.78 1324.56 670.31 1311.03 681.25 1297.25 C 692.18 1283.47 701.49 1269.47 711.30 1254.30 C 721.11 1239.13 729.68 1223.57 738.77 1207.77 C 747.86 1191.97 754.23 1174.48 762.33 1158.33 C 770.43 1142.17 777.39 1123.56 784.33 1106.33 C 791.27 1089.09 795.77 1069.83 804.00 1053.00
C 804.01 1052.50 803.93 1051.49 804.00 1051.00
C 804.54 1047.07 806.29 1043.25 808.00 1040.00
C 808.00 1040.00 807.92 1039.49 808.00 1039.00
C 809.77 1028.20 813.08 1016.78 816.33 1006.33 C 819.57 995.88 820.35 981.97 824.00 972.00 C 827.65 962.03 825.55 945.96 832.00 938.00
C 832.00 938.00 832.05 937.49 832.00 937.00
C 830.86 926.46 836.18 916.54 836.00 906.00 C 835.82 895.46 838.29 884.49 839.00 874.00
C 839.54 866.08 840.02 858.17 841.00 851.00
C 841.00 849.67 841.00 848.33 841.00 847.00
C 841.00 831.10 840.89 812.65 841.00 797.00 C 841.11 781.35 836.59 766.09 837.00 751.00 C 837.41 735.91 828.40 722.49 830.00 708.00
C 830.00 708.00 829.95 707.49 830.00 707.00
C 824.06 704.30 827.28 690.44 823.22 684.78 C 819.16 679.11 820.91 669.18 816.22 662.78 C 811.54 656.37 818.59 650.37 823.75 645.75 C 828.91 641.13 833.73 635.52 838.75 630.75 C 843.77 625.98 848.31 621.08 853.25 616.25 C 858.18 611.41 862.84 606.66 867.75 601.75 C 872.66 596.85 877.86 591.70 882.75 586.75 C 887.65 581.80 892.40 577.28 897.25 572.25 C 902.10 567.22 906.95 562.69 912.08 558.08 C 917.22 553.48 922.63 548.36 927.75 543.75 C 932.88 539.15 937.44 534.06 942.75 529.75 C 948.06 525.44 952.01 519.44 957.75 515.75 C 963.49 512.06 967.62 506.31 973.25 502.25 C 978.87 498.19 984.85 493.86 990.25 489.25 C 995.64 484.64 1001.59 481.38 1007.25 477.25 C 1012.90 473.11 1018.83 469.53 1024.74 465.74 C 1030.66 461.96 1036.97 457.70 1043.08 454.08 C 1049.19 450.46 1054.94 446.64 1061.23 443.23 C 1067.52 439.82 1073.54 436.27 1080.08 433.08 C 1086.62 429.89 1093.57 426.62 1100.08 423.08 C 1106.59 419.54 1113.29 417.12 1120.08 414.08 C 1126.88 411.04 1133.28 408.56 1140.25 405.25 C 1147.21 401.93 1156.51 401.53 1164.02 399.02 C 1171.54 396.52 1179.90 395.12 1188.00 394.00 C 1196.10 392.88 1207.25 392.44 1215.22 393.78 C 1223.20 395.11 1230.16 397.09 1237.08 400.92 C 1243.99 404.76 1248.61 407.75 1254.25 413.75 C 1259.88 419.76 1262.19 424.41 1264.78 432.22 C 1267.37 440.03 1267.97 449.17 1268.00 458.00 C 1268.03 466.83 1266.60 476.28 1264.22 484.22 C 1261.84 492.16 1261.25 499.49 1257.69 506.69 C 1254.14 513.90 1253.76 521.53 1250.69 528.69 C 1247.62 535.85 1245.08 543.10 1242.07 550.07 C 1239.07 557.05 1236.86 563.64 1233.23 570.23 C 1229.60 576.82 1228.38 584.18 1224.69 590.69 C 1221.01 597.21 1218.09 604.37 1215.03 611.03 C 1211.96 617.69 1208.59 624.11 1205.68 630.68 C 1202.77 637.25 1198.33 642.95 1195.70 649.70 C 1193.06 656.44 1189.38 662.49 1185.75 668.75 C 1182.11 675.00 1179.18 682.25 1175.69 688.70 C 1172.21 695.14 1168.71 700.88 1165.23 707.23 C 1161.75 713.58 1158.64 719.90 1155.23 726.23 C 1151.82 732.56 1147.06 738.67 1144.22 745.22 C 1141.39 751.78 1136.51 756.93 1133.25 763.25 C 1129.98 769.56 1125.99 775.37 1122.70 781.70 C 1119.40 788.02 1114.68 794.01 1111.25 800.25 C 1107.81 806.48 1104.16 812.32 1100.23 818.23 C 1096.30 824.14 1093.30 830.22 1089.23 836.23 C 1085.16 842.24 1081.44 848.58 1077.70 854.70 C 1073.95 860.81 1070.37 866.45 1066.25 872.25 C 1062.12 878.04 1059.26 884.37 1055.08 890.08 C 1050.90 895.79 1047.71 901.70 1043.25 907.25 C 1038.79 912.80 1036.53 920.37 1031.75 925.75 C 1026.97 931.12 1024.26 937.44 1020.23 943.23 C 1016.20 949.02 1012.23 954.40 1008.25 960.25 C 1004.26 966.10 1000.63 972.63 996.25 978.25 C 991.87 983.87 989.32 990.03 984.25 995.25 C 979.18 1000.47 977.41 1007.28 972.75 1012.75 C 968.09 1018.22 964.71 1025.00 960.23 1030.23 C 955.75 1035.46 952.98 1042.10 948.25 1047.25 C 943.52 1052.39 940.94 1059.07 936.23 1064.23 C 931.52 1069.39 928.81 1076.92 923.00 1081.00
C 923.00 1081.00 923.22 1081.64 923.00 1082.00
C 914.10 1096.31 902.47 1109.02 892.75 1122.75 C 883.03 1136.49 872.95 1150.07 862.25 1163.25 C 851.55 1176.43 842.47 1190.65 831.70 1203.70 C 820.92 1216.75 810.53 1229.99 800.23 1243.23 C 789.93 1256.47 778.03 1268.57 767.75 1281.75 C 757.47 1294.94 745.99 1307.41 735.25 1320.25 C 724.51 1333.08 712.56 1344.82 701.25 1357.25 C 689.94 1369.68 677.67 1380.85 666.25 1393.25 C 654.83 1405.65 634.35 1416.72 639.00 1435.00
C 640.33 1435.00 641.67 1435.00 643.00 1435.00
C 648.55 1434.21 653.64 1433.09 659.00 1432.00
C 676.86 1426.20 699.65 1420.45 719.00 1420.00
C 719.00 1420.00 719.50 1420.01 720.00 1420.00
C 732.37 1413.24 749.08 1414.49 763.02 1411.02 C 776.97 1407.55 792.58 1404.11 807.00 1402.00
C 812.79 1400.52 819.68 1399.62 825.00 1399.00
C 837.84 1396.06 850.91 1393.00 864.00 1391.00 C 877.09 1389.01 891.03 1386.07 904.00 1384.00 C 916.98 1381.94 930.94 1377.12 944.00 1377.00 C 957.06 1376.88 969.97 1371.27 983.02 1371.02 C 996.08 1370.77 1011.58 1362.54 1024.00 1367.00
C 1024.00 1367.00 1024.50 1367.00 1025.00 1367.00
C 1032.30 1361.60 1045.62 1365.48 1055.00 1363.00 C 1064.38 1360.52 1076.04 1362.02 1086.22 1360.22 C 1096.40 1358.42 1109.40 1360.44 1120.00 1359.00 C 1130.60 1357.56 1141.91 1358.46 1153.00 1358.00 C 1164.09 1357.54 1175.11 1358.91 1186.00 1359.00 C 1196.89 1359.09 1208.44 1360.34 1219.00 1361.00 C 1229.56 1361.66 1239.03 1363.40 1249.07 1364.93 C 1259.12 1366.46 1269.16 1367.54 1279.01 1368.99 C 1288.86 1370.45 1298.56 1372.81 1308.02 1374.98 C 1317.48 1377.14 1325.90 1379.33 1335.07 1381.93 C 1344.24 1384.52 1352.92 1387.16 1362.00 1390.00
C 1363.61 1375.16 1365.10 1359.59 1370.00 1346.00
C 1371.58 1342.34 1371.83 1340.14 1372.00 1336.00
C 1372.50 1323.66 1375.22 1304.52 1381.00 1294.00
C 1381.00 1294.00 1381.03 1293.50 1381.00 1293.00
C 1380.49 1285.33 1385.53 1277.60 1385.99 1269.99 C 1386.46 1262.39 1389.65 1254.73 1392.00 1248.00
C 1391.98 1247.50 1391.94 1246.49 1392.00 1246.00
C 1392.62 1240.79 1394.18 1234.16 1397.00 1230.00
C 1397.01 1229.50 1397.03 1228.50 1397.00 1228.00
C 1396.49 1220.77 1400.17 1207.64 1404.00 1202.00
C 1403.98 1201.50 1403.94 1200.49 1404.00 1200.00
C 1405.62 1186.36 1411.03 1167.07 1417.00 1155.00
C 1418.85 1151.25 1419.39 1149.25 1420.00 1145.00
C 1420.89 1138.75 1422.77 1130.84 1424.98 1124.98 C 1427.18 1119.11 1428.23 1110.63 1432.00 1106.00
C 1432.00 1106.00 1431.98 1105.50 1432.00 1105.00
C 1439.02 1076.43 1449.92 1049.06 1458.00 1021.00
C 1358.43 1023.92 1264.54 1049.46 1171.00 1075.00
C 1190.31 1045.32 1210.76 1016.16 1230.75 986.75 C 1250.74 957.33 1270.71 927.90 1290.75 898.75 C 1310.79 869.60 1330.65 839.66 1350.25 810.25 C 1369.84 780.84 1390.64 751.80 1410.08 722.08 C 1429.52 692.35 1449.26 663.53 1468.70 633.70 C 1488.13 603.86 1507.55 573.68 1526.70 543.70 C 1545.84 513.71 1563.88 484.25 1581.70 452.70 C 1599.51 421.14 1616.64 391.49 1633.08 358.08 C 1649.51 324.66 1665.01 290.73 1677.68 254.68 C 1690.35 218.63 1703.29 173.76 1704.00 134.00 C 1704.71 94.24 1690.28 57.07 1656.08 33.92 C 1621.88 10.77 1581.32 4.40 1539.00 3.00 C 1496.68 1.60 1443.08 7.43 1403.22 15.22 C 1363.37 23.01 1325.23 36.48 1288.22 48.22 C 1251.22 59.96 1223.95 77.76 1187.00 92.00
M 479.00 1166.00 
C 478.92 1166.49 479.00 1167.00 479.00 1167.00
C 476.04 1185.02 468.18 1204.87 460.08 1221.08 C 451.97 1237.28 445.97 1253.71 433.25 1267.25 C 420.52 1280.78 401.41 1284.19 384.98 1292.98 C 368.54 1301.76 345.65 1303.80 326.99 1307.99 C 308.34 1312.18 282.82 1308.56 274.08 1289.92 C 265.35 1271.28 252.79 1258.72 252.00 1238.00
C 251.98 1237.50 252.00 1237.00 252.00 1237.00
C 245.25 1224.66 246.08 1209.94 243.00 1195.00 C 239.92 1180.05 239.03 1162.06 238.00 1146.00 C 236.98 1129.94 237.49 1108.56 239.00 1093.00
C 239.00 1090.35 238.82 1087.64 239.00 1085.00
C 238.23 1077.01 238.00 1067.68 238.00 1059.00
C 238.00 1048.36 238.04 1036.87 239.00 1027.00
C 239.00 1021.35 238.22 1015.02 239.78 1009.78 C 241.34 1004.53 237.84 996.27 241.00 992.00
C 240.78 991.62 241.00 991.00 241.00 991.00
C 241.00 986.16 241.16 981.13 242.00 977.00
C 242.99 972.13 243.00 967.19 243.00 962.00
C 243.00 954.23 242.04 944.29 244.00 937.00 C 245.96 929.71 243.30 919.48 247.00 913.00
C 247.22 912.62 247.00 912.00 247.00 912.00
C 247.00 864.44 260.09 806.18 271.20 763.75 C 282.30 721.33 307.64 672.99 357.00 673.00
C 357.50 673.00 358.00 673.00 358.00 673.00
C 374.20 673.00 392.37 675.33 405.70 683.31 C 419.02 691.28 428.70 697.54 439.25 708.75 C 449.80 719.96 456.40 729.93 464.30 742.70 C 472.21 755.46 476.68 768.10 482.99 782.01 C 489.30 795.91 494.07 810.08 498.98 825.02 C 503.88 839.97 508.16 855.68 511.33 871.67 C 514.50 887.66 518.87 904.00 520.00 921.00 C 521.13 938.00 524.38 959.40 523.00 977.00 C 521.62 994.60 525.59 1017.79 520.67 1033.67 C 515.75 1049.55 509.30 1058.62 501.75 1072.75 C 494.19 1086.87 497.28 1104.72 491.22 1119.22 C 485.17 1133.72 488.80 1153.91 479.00 1166.00 Z"/>
</g>
<g fill="#DDDDDD" fill-opacity="0.08" stroke="None">
<path d="
M 36.00 666.00 
C 38.26 641.76 41.05 611.96 51.01 590.01 C 60.96 568.06 68.04 547.55 81.08 528.08 C 94.12 508.62 104.21 492.26 120.25 475.25 C 136.29 458.24 149.79 445.28 168.25 431.25 C 186.72 417.22 204.35 407.48 225.77 396.77 C 247.19 386.06 269.36 379.04 293.78 372.78 C 318.20 366.52 349.22 363.50 376.00 363.00 C 402.78 362.50 435.88 365.68 460.33 371.67 C 484.77 377.67 505.29 382.44 526.78 391.22 C 548.26 400.01 569.42 409.59 588.77 421.23 C 608.12 432.87 626.92 443.56 644.25 457.75 C 661.57 471.94 678.39 485.15 696.25 497.75 C 714.11 510.35 728.47 526.17 744.25 541.75 C 760.02 557.33 771.03 577.63 785.00 593.00
C 785.90 572.03 788.22 551.94 789.00 532.00 C 789.78 512.06 790.77 489.72 791.00 470.00 C 791.23 450.28 793.55 426.02 792.00 407.00 C 790.45 387.98 806.39 380.43 817.25 368.25 C 828.11 356.07 838.87 347.11 849.75 335.75 C 860.63 324.39 870.78 314.35 882.30 304.30 C 893.83 294.25 904.38 283.80 916.25 274.25 C 928.12 264.70 938.83 254.38 950.77 244.77 C 962.71 235.16 974.46 226.15 986.77 216.77 C 999.08 207.39 1011.64 198.42 1024.25 189.25 C 1036.87 180.09 1049.62 172.14 1062.30 163.30 C 1074.99 154.47 1088.54 146.89 1101.77 138.77 C 1115.00 130.65 1128.56 122.82 1142.31 115.31 C 1156.05 107.79 1170.97 101.48 1184.00 93.00
C 1166.90 99.69 1151.82 109.12 1136.23 117.23 C 1120.64 125.34 1105.80 134.95 1091.07 144.07 C 1076.35 153.20 1061.30 161.43 1047.25 171.25 C 1033.19 181.06 1018.34 191.39 1005.08 201.08 C 991.83 210.77 978.18 221.26 964.75 231.75 C 951.31 242.23 938.34 253.08 925.25 264.25 C 912.15 275.41 899.94 286.22 887.30 297.30 C 874.66 308.37 863.01 320.90 850.30 332.30 C 837.59 343.70 828.36 355.81 815.10 368.10 C 801.84 380.38 788.31 392.55 791.00 412.00 C 793.69 431.44 788.93 450.68 789.67 470.33 C 790.41 489.98 787.55 510.91 787.20 530.75 C 786.85 550.60 784.84 570.46 783.00 590.00
C 761.87 557.69 738.88 527.39 707.75 504.25 C 676.62 481.11 649.51 458.66 616.08 435.92 C 582.65 413.19 547.46 396.93 508.02 382.98 C 468.59 369.02 414.15 360.01 370.00 361.00 C 325.85 361.99 276.85 372.57 238.08 389.08 C 199.30 405.58 171.87 424.87 140.75 452.75 C 109.63 480.63 92.24 507.62 71.25 543.25 C 50.27 578.89 36.00 623.10 36.00 666.00 Z"/>
</g>
<g fill="#DBDBDB" fill-opacity="0.09" stroke="None">
<path d="
M 830.00 707.00 
C 831.58 692.39 820.64 674.80 817.97 662.03 C 815.30 649.27 831.70 641.57 840.25 631.25 C 848.79 620.93 859.92 612.53 868.75 602.75 C 877.59 592.98 888.43 584.09 897.75 574.75 C 907.08 565.42 916.25 555.76 925.77 546.77 C 935.29 537.78 945.63 528.78 955.75 519.75 C 965.88 510.72 976.56 501.72 987.10 494.10 C 997.64 486.48 1008.35 477.42 1019.92 469.92 C 1031.50 462.43 1043.43 455.67 1055.25 448.25 C 1067.08 440.84 1079.74 435.90 1092.31 429.31 C 1104.87 422.71 1116.85 416.75 1129.92 411.92 C 1143.00 407.10 1158.81 400.91 1172.98 397.98 C 1187.14 395.04 1209.73 393.02 1223.25 397.41 C 1236.77 401.80 1244.93 406.49 1254.25 417.75 C 1263.57 429.02 1267.25 444.60 1266.00 459.00 C 1264.75 473.40 1261.31 492.94 1256.75 506.75 C 1252.20 520.57 1246.23 534.39 1240.93 547.93 C 1235.62 561.46 1229.95 574.80 1223.97 587.97 C 1218.00 601.15 1211.90 613.27 1205.78 625.78 C 1199.65 638.29 1193.29 651.43 1186.92 663.92 C 1180.55 676.41 1173.88 688.55 1166.92 700.92 C 1159.97 713.30 1154.21 725.69 1146.77 737.77 C 1139.33 749.86 1133.36 761.28 1126.25 773.25 C 1119.15 785.23 1111.87 796.91 1104.77 808.77 C 1097.67 820.63 1089.95 832.03 1082.77 843.77 C 1075.59 855.51 1068.03 866.99 1060.75 878.75 C 1053.47 890.51 1045.17 901.66 1037.92 912.92 C 1030.67 924.17 1023.45 935.53 1015.77 946.77 C 1008.09 958.01 1000.55 969.63 992.92 980.92 C 985.29 992.20 976.73 1003.17 969.75 1014.75 C 962.77 1026.34 951.83 1036.65 946.10 1048.10 C 940.37 1059.55 925.77 1068.37 923.00 1081.00
C 928.81 1076.92 931.52 1069.39 936.23 1064.23 C 940.94 1059.07 943.52 1052.39 948.25 1047.25 C 952.98 1042.10 955.75 1035.46 960.23 1030.23 C 964.71 1025.00 968.09 1018.22 972.75 1012.75 C 977.41 1007.28 979.18 1000.47 984.25 995.25 C 989.32 990.03 991.87 983.87 996.25 978.25 C 1000.63 972.63 1004.26 966.10 1008.25 960.25 C 1012.23 954.40 1016.20 949.02 1020.23 943.23 C 1024.26 937.44 1026.97 931.12 1031.75 925.75 C 1036.53 920.37 1038.79 912.80 1043.25 907.25 C 1047.71 901.70 1050.90 895.79 1055.08 890.08 C 1059.26 884.37 1062.12 878.04 1066.25 872.25 C 1070.37 866.45 1073.95 860.81 1077.70 854.70 C 1081.44 848.58 1085.16 842.24 1089.23 836.23 C 1093.30 830.22 1096.30 824.14 1100.23 818.23 C 1104.16 812.32 1107.81 806.48 1111.25 800.25 C 1114.68 794.01 1119.40 788.02 1122.70 781.70 C 1125.99 775.37 1129.98 769.56 1133.25 763.25 C 1136.51 756.93 1141.39 751.78 1144.22 745.22 C 1147.06 738.67 1151.82 732.56 1155.23 726.23 C 1158.64 719.90 1161.75 713.58 1165.23 707.23 C 1168.71 700.88 1172.21 695.14 1175.69 688.70 C 1179.18 682.25 1182.11 675.00 1185.75 668.75 C 1189.38 662.49 1193.06 656.44 1195.70 649.70 C 1198.33 642.95 1202.77 637.25 1205.68 630.68 C 1208.59 624.11 1211.96 617.69 1215.03 611.03 C 1218.09 604.37 1221.01 597.21 1224.69 590.69 C 1228.38 584.18 1229.60 576.82 1233.23 570.23 C 1236.86 563.64 1239.07 557.05 1242.07 550.07 C 1245.08 543.10 1247.62 535.85 1250.69 528.69 C 1253.76 521.53 1254.14 513.90 1257.69 506.69 C 1261.25 499.49 1261.84 492.16 1264.22 484.22 C 1266.60 476.28 1268.03 466.83 1268.00 458.00 C 1267.97 449.17 1267.37 440.03 1264.78 432.22 C 1262.19 424.41 1259.88 419.76 1254.25 413.75 C 1248.61 407.75 1243.99 404.76 1237.08 400.92 C 1230.16 397.09 1223.20 395.11 1215.22 393.78 C 1207.25 392.44 1196.10 392.88 1188.00 394.00 C 1179.90 395.12 1171.54 396.52 1164.02 399.02 C 1156.51 401.53 1147.21 401.93 1140.25 405.25 C 1133.28 408.56 1126.88 411.04 1120.08 414.08 C 1113.29 417.12 1106.59 419.54 1100.08 423.08 C 1093.57 426.62 1086.62 429.89 1080.08 433.08 C 1073.54 436.27 1067.52 439.82 1061.23 443.23 C 1054.94 446.64 1049.19 450.46 1043.08 454.08 C 1036.97 457.70 1030.66 461.96 1024.74 465.74 C 1018.83 469.53 1012.90 473.11 1007.25 477.25 C 1001.59 481.38 995.64 484.64 990.25 489.25 C 984.85 493.86 978.87 498.19 973.25 502.25 C 967.62 506.31 963.49 512.06 957.75 515.75 C 952.01 519.44 948.06 525.44 942.75 529.75 C 937.44 534.06 932.88 539.15 927.75 543.75 C 922.63 548.36 917.22 553.48 912.08 558.08 C 906.95 562.69 902.10 567.22 897.25 572.25 C 892.40 577.28 887.65 581.80 882.75 586.75 C 877.86 591.70 872.66 596.85 867.75 601.75 C 862.84 606.66 858.18 611.41 853.25 616.25 C 848.31 621.08 843.77 625.98 838.75 630.75 C 833.73 635.52 828.91 641.13 823.75 645.75 C 818.59 650.37 811.54 656.37 816.22 662.78 C 820.91 669.18 819.16 679.11 823.22 684.78 C 827.28 690.44 824.06 704.30 830.00 707.00 Z"/>
</g>
<g fill="#DCDCDC" fill-opacity="0.11" stroke="None">
<path d="
M 35.00 691.00 
C 35.58 685.56 39.74 672.06 36.00 667.00
C 36.00 675.26 35.00 682.75 35.00 691.00 Z"/>
</g>
<g fill="#DDDDDD" fill-opacity="0.09" stroke="None">
<path d="
M 247.00 912.00 
C 254.20 895.47 249.36 870.83 254.00 852.00 C 258.64 833.17 260.50 812.99 264.78 793.78 C 269.06 774.57 274.26 759.11 280.93 740.93 C 287.59 722.74 296.39 711.23 308.75 695.75 C 321.11 680.28 341.52 679.76 357.00 673.00
C 307.64 672.99 282.30 721.33 271.20 763.75 C 260.09 806.18 247.00 864.44 247.00 912.00 Z"/>
</g>
<g fill="#000000" fill-opacity="0.00" stroke="None">
<path d="
M 247.00 912.00 
C 247.00 912.00 247.22 912.62 247.00 913.00
C 250.50 917.80 245.16 929.85 245.67 936.67 C 246.18 943.49 243.64 955.38 243.00 962.00
C 243.00 967.19 242.99 972.13 242.00 977.00
C 241.78 981.01 243.63 987.45 241.00 991.00
C 241.00 991.00 240.78 991.62 241.00 992.00
C 244.00 997.25 240.95 1007.28 241.00 1014.00 C 241.05 1020.72 240.00 1030.68 240.00 1038.00
C 240.00 1040.00 240.00 1042.00 240.00 1044.00
C 240.00 1048.33 240.00 1052.67 240.00 1057.00
C 240.00 1057.50 239.98 1058.50 240.00 1059.00
C 240.33 1067.49 239.59 1076.31 239.00 1085.00
C 238.82 1087.64 239.00 1090.35 239.00 1093.00
C 239.00 1109.63 240.66 1126.51 240.00 1143.00 C 239.34 1159.49 243.25 1176.30 244.00 1192.00 C 244.75 1207.71 253.03 1221.46 252.00 1237.00
C 252.00 1237.00 251.98 1237.50 252.00 1238.00
C 260.10 1247.98 259.33 1265.80 267.75 1276.25 C 276.18 1286.70 278.36 1301.42 292.70 1306.31 C 307.03 1311.19 327.59 1306.26 342.07 1304.07 C 356.55 1301.89 371.24 1296.83 384.69 1291.70 C 398.15 1286.56 408.29 1280.58 421.08 1274.08 C 433.86 1267.57 438.86 1255.73 446.31 1244.31 C 453.75 1232.88 457.22 1218.51 463.93 1206.93 C 470.63 1195.34 470.58 1176.80 479.00 1167.00
C 479.00 1167.00 478.92 1166.49 479.00 1166.00
C 480.64 1156.00 483.37 1146.62 485.78 1136.78 C 488.18 1126.93 490.42 1116.02 492.00 1106.00 C 493.58 1095.98 494.05 1084.60 498.77 1075.77 C 503.49 1066.94 507.05 1060.50 511.31 1051.31 C 515.56 1042.11 519.78 1034.68 520.93 1023.93 C 522.07 1013.18 521.80 999.41 522.00 988.00 C 522.20 976.59 521.90 964.08 521.07 952.93 C 520.25 941.77 519.94 929.67 518.02 918.98 C 516.11 908.28 516.14 896.57 513.67 886.33 C 511.21 876.09 509.14 866.24 506.67 856.33 C 504.20 846.42 502.20 836.63 498.68 827.32 C 495.16 818.02 492.99 808.64 489.22 799.78 C 485.46 790.91 482.32 782.88 478.74 774.26 C 475.17 765.63 470.71 757.67 466.69 749.31 C 462.68 740.94 457.21 734.20 452.08 726.92 C 446.96 719.64 441.25 713.67 434.77 707.23 C 428.29 700.79 422.00 695.57 414.77 690.23 C 407.54 684.90 397.56 683.13 389.78 678.22 C 382.00 673.31 364.89 678.09 358.00 673.00
C 358.00 673.00 357.50 673.00 357.00 673.00
C 341.52 679.76 321.11 680.28 308.75 695.75 C 296.39 711.23 287.59 722.74 280.93 740.93 C 274.26 759.11 269.06 774.57 264.78 793.78 C 260.50 812.99 258.64 833.17 254.00 852.00 C 249.36 870.83 254.20 895.47 247.00 912.00 Z"/>
</g>
<g fill="#DBDBDB" fill-opacity="0.09" stroke="None">
<path d="
M 479.00 1166.00 
C 488.80 1153.91 485.17 1133.72 491.22 1119.22 C 497.28 1104.72 494.19 1086.87 501.75 1072.75 C 509.30 1058.62 515.75 1049.55 520.67 1033.67 C 525.59 1017.79 521.62 994.60 523.00 977.00 C 524.38 959.40 521.13 938.00 520.00 921.00 C 518.87 904.00 514.50 887.66 511.33 871.67 C 508.16 855.68 503.88 839.97 498.98 825.02 C 494.07 810.08 489.30 795.91 482.99 782.01 C 476.68 768.10 472.21 755.46 464.30 742.70 C 456.40 729.93 449.80 719.96 439.25 708.75 C 428.70 697.54 419.02 691.28 405.70 683.31 C 392.37 675.33 374.20 673.00 358.00 673.00
C 364.89 678.09 382.00 673.31 389.78 678.22 C 397.56 683.13 407.54 684.90 414.77 690.23 C 422.00 695.57 428.29 700.79 434.77 707.23 C 441.25 713.67 446.96 719.64 452.08 726.92 C 457.21 734.20 462.68 740.94 466.69 749.31 C 470.71 757.67 475.17 765.63 478.74 774.26 C 482.32 782.88 485.46 790.91 489.22 799.78 C 492.99 808.64 495.16 818.02 498.68 827.32 C 502.20 836.63 504.20 846.42 506.67 856.33 C 509.14 866.24 511.21 876.09 513.67 886.33 C 516.14 896.57 516.11 908.28 518.02 918.98 C 519.94 929.67 520.25 941.77 521.07 952.93 C 521.90 964.08 522.20 976.59 522.00 988.00 C 521.80 999.41 522.07 1013.18 520.93 1023.93 C 519.78 1034.68 515.56 1042.11 511.31 1051.31 C 507.05 1060.50 503.49 1066.94 498.77 1075.77 C 494.05 1084.60 493.58 1095.98 492.00 1106.00 C 490.42 1116.02 488.18 1126.93 485.78 1136.78 C 483.37 1146.62 480.64 1156.00 479.00 1166.00 Z"/>
</g>
<g fill="#D3D3D3" fill-opacity="0.14" stroke="None">
<path d="
M 32.00 733.00 
C 32.27 732.75 33.00 733.00 33.00 733.00
C 33.47 720.65 35.00 708.57 35.00 696.00
C 33.71 708.11 32.00 720.60 32.00 733.00 Z"/>
</g>
<g fill="#E5E5E5" fill-opacity="0.08" stroke="None">
<path d="
M 841.00 847.00 
C 842.59 840.03 843.93 831.09 843.00 823.00 C 842.07 814.91 844.19 804.81 843.00 797.00 C 841.81 789.20 840.99 781.74 841.00 774.00 C 841.01 766.26 839.70 757.05 838.99 750.01 C 838.28 742.96 836.58 733.59 835.00 728.00 C 833.41 722.42 834.61 709.23 830.00 708.00
C 828.40 722.49 837.41 735.91 837.00 751.00 C 836.59 766.09 841.11 781.35 841.00 797.00 C 840.89 812.65 841.00 831.10 841.00 847.00 Z"/>
</g>
<g fill="#9F9F9F" fill-opacity="0.29" stroke="None">
<path d="
M 32.00 736.00 
C 32.00 743.27 31.00 749.75 31.00 757.00
C 31.72 749.55 32.68 741.27 33.00 733.00
C 33.00 733.00 32.27 732.75 32.00 733.00
C 32.00 734.00 32.00 735.00 32.00 736.00 Z"/>
</g>
<g fill="#CECECE" fill-opacity="0.09" stroke="None">
<path d="
M 24.00 846.00 
C 27.85 817.72 31.00 786.20 31.00 757.00
C 31.00 749.75 32.00 743.27 32.00 736.00
C 28.21 753.27 29.80 772.60 27.78 790.78 C 25.76 808.96 24.00 827.20 24.00 846.00 Z"/>
</g>
<g fill="#DCDCDC" fill-opacity="0.13" stroke="None">
<path d="
M 23.00 863.00 
C 23.78 859.18 24.00 854.53 24.00 850.00
C 23.50 853.67 23.38 858.68 23.00 863.00 Z"/>
</g>
<g fill="#CDCDCD" fill-opacity="0.19" stroke="None">
<path d="
M 839.00 874.00 
C 839.01 873.94 840.00 874.00 840.00 874.00
C 840.51 866.46 841.00 858.85 841.00 851.00
C 840.02 858.17 839.54 866.08 839.00 874.00 Z"/>
</g>
<g fill="#E4E4E4" fill-opacity="0.08" stroke="None">
<path d="
M 20.00 900.00 
C 21.11 891.84 22.00 882.98 22.00 874.00
C 21.22 882.11 20.00 891.18 20.00 900.00 Z"/>
</g>
<g fill="#DCDCDC" fill-opacity="0.08" stroke="None">
<path d="
M 832.00 937.00 
C 836.95 933.18 833.72 922.90 836.07 917.07 C 838.42 911.25 837.77 902.53 839.00 896.00 C 840.23 889.47 839.54 880.82 840.00 874.00
C 840.00 874.00 839.01 873.94 839.00 874.00
C 838.29 884.49 835.82 895.46 836.00 906.00 C 836.18 916.54 830.86 926.46 832.00 937.00 Z"/>
</g>
<g fill="#CCCCCC" fill-opacity="0.11" stroke="None">
<path d="
M 16.00 956.00 
C 18.27 939.32 20.00 921.73 20.00 904.00
C 17.75 920.53 16.00 938.63 16.00 956.00 Z"/>
</g>
<g fill="#E6E6E6" fill-opacity="0.06" stroke="None">
<path d="
M 243.00 962.00 
C 243.64 955.38 246.18 943.49 245.67 936.67 C 245.16 929.85 250.50 917.80 247.00 913.00
C 243.30 919.48 245.96 929.71 244.00 937.00 C 242.04 944.29 243.00 954.23 243.00 962.00 Z"/>
</g>
<g fill="#DCDCDC" fill-opacity="0.09" stroke="None">
<path d="
M 808.00 1039.00 
C 813.79 1034.85 813.41 1022.00 816.01 1015.01 C 818.61 1008.01 820.19 997.77 822.02 990.02 C 823.86 982.28 827.48 973.32 828.00 965.00 C 828.52 956.68 832.92 946.48 832.00 938.00
C 825.55 945.96 827.65 962.03 824.00 972.00 C 820.35 981.97 819.57 995.88 816.33 1006.33 C 813.08 1016.78 809.77 1028.20 808.00 1039.00 Z"/>
</g>
<g fill="#CCCCCC" fill-opacity="0.10" stroke="None">
<path d="
M 12.00 1057.00 
C 17.06 1042.35 11.75 1023.49 14.02 1008.02 C 16.30 992.56 16.00 975.92 16.00 960.00
C 14.73 969.33 12.47 982.10 13.02 991.97 C 13.58 1001.84 10.52 1013.97 12.00 1024.00 C 13.48 1034.03 8.15 1048.99 12.00 1057.00 Z"/>
</g>
<g fill="#E2E2E2" fill-opacity="0.10" stroke="None">
<path d="
M 241.00 991.00 
C 243.63 987.45 241.78 981.01 242.00 977.00
C 241.16 981.13 241.00 986.16 241.00 991.00 Z"/>
</g>
<g fill="#DADADA" fill-opacity="0.13" stroke="None">
<path d="
M 239.00 1027.00 
C 239.00 1030.75 239.71 1034.99 240.00 1038.00
C 240.00 1030.68 241.05 1020.72 241.00 1014.00 C 240.95 1007.28 244.00 997.25 241.00 992.00
C 237.84 996.27 241.34 1004.53 239.78 1009.78 C 238.22 1015.02 239.00 1021.35 239.00 1027.00 Z"/>
</g>
<g fill="#ACACAC" fill-opacity="0.23" stroke="None">
<path d="
M 238.00 1059.00 
C 238.08 1058.81 239.75 1059.25 240.00 1059.00
C 239.98 1058.50 240.00 1057.50 240.00 1057.00
C 238.22 1052.80 239.61 1048.00 240.00 1044.00
C 240.00 1042.00 240.00 1040.00 240.00 1038.00
C 239.71 1034.99 239.00 1030.75 239.00 1027.00
C 238.04 1036.87 238.00 1048.36 238.00 1059.00 Z"/>
</g>
<g fill="#E7E7E7" fill-opacity="0.08" stroke="None">
<path d="
M 804.00 1051.00 
C 806.51 1048.28 807.27 1044.44 808.00 1040.00
C 806.29 1043.25 804.54 1047.07 804.00 1051.00 Z"/>
</g>
<g fill="#EEEEEE" fill-opacity="0.02" stroke="None">
<path d="
M 240.00 1057.00 
C 240.00 1052.67 240.00 1048.33 240.00 1044.00
C 239.61 1048.00 238.22 1052.80 240.00 1057.00 Z"/>
</g>
<g fill="#DBDBDB" fill-opacity="0.08" stroke="None">
<path d="
M 354.00 1479.00 
C 374.66 1478.89 395.90 1471.23 415.33 1467.33 C 434.76 1463.43 454.66 1457.72 472.93 1451.93 C 491.19 1446.13 508.79 1439.05 525.77 1431.77 C 542.75 1424.50 556.98 1414.86 571.77 1404.77 C 586.56 1394.68 599.26 1384.32 612.75 1372.75 C 626.25 1361.18 638.06 1349.58 649.75 1336.75 C 661.44 1323.92 672.80 1311.17 683.23 1297.23 C 693.66 1283.29 703.88 1269.19 713.23 1254.23 C 722.58 1239.27 731.81 1223.95 740.08 1208.08 C 748.35 1192.22 757.44 1175.89 764.23 1159.23 C 771.02 1142.57 780.70 1125.04 785.68 1107.68 C 790.66 1090.31 803.52 1071.31 804.00 1053.00
C 795.77 1069.83 791.27 1089.09 784.33 1106.33 C 777.39 1123.56 770.43 1142.17 762.33 1158.33 C 754.23 1174.48 747.86 1191.97 738.77 1207.77 C 729.68 1223.57 721.11 1239.13 711.30 1254.30 C 701.49 1269.47 692.18 1283.47 681.25 1297.25 C 670.31 1311.03 659.78 1324.56 647.25 1337.25 C 634.71 1349.93 622.59 1362.50 609.25 1374.25 C 595.90 1385.99 581.80 1395.96 567.23 1406.23 C 552.66 1416.50 537.33 1424.88 520.68 1432.68 C 504.02 1440.48 485.99 1445.01 468.75 1451.41 C 451.51 1457.81 431.97 1460.97 414.01 1467.01 C 396.04 1473.05 370.66 1471.73 354.00 1479.00 Z"/>
</g>
<g fill="#D5D5D5" fill-opacity="0.10" stroke="None">
<path d="
M 192.00 1467.00 
C 183.38 1459.58 166.07 1459.67 156.23 1452.77 C 146.39 1445.87 134.03 1442.95 124.75 1435.25 C 115.46 1427.56 106.39 1421.80 97.75 1413.25 C 89.11 1404.69 81.56 1396.16 74.30 1386.70 C 67.05 1377.23 61.24 1366.69 55.77 1356.23 C 50.30 1345.77 44.55 1333.22 40.92 1322.08 C 37.29 1310.94 32.92 1300.52 29.93 1287.07 C 26.94 1273.63 23.78 1260.77 21.33 1246.67 C 18.88 1232.57 17.87 1217.83 16.00 1203.00 C 14.13 1188.17 13.65 1171.56 13.00 1156.00 C 12.35 1140.44 11.80 1124.04 12.00 1108.00 C 12.20 1091.96 12.00 1075.11 12.00 1059.00
C 6.68 1071.54 12.19 1090.68 10.67 1103.33 C 9.15 1115.98 11.18 1133.63 11.33 1147.33 C 11.48 1161.02 11.69 1179.47 13.07 1193.93 C 14.45 1208.38 15.83 1222.70 18.22 1236.78 C 20.61 1250.86 23.21 1266.28 26.22 1279.78 C 29.24 1293.27 33.86 1305.68 37.68 1318.32 C 41.50 1330.96 47.46 1342.81 52.70 1354.30 C 57.93 1365.79 64.92 1375.03 71.75 1385.25 C 78.57 1395.48 86.67 1404.18 95.25 1412.75 C 103.83 1421.33 112.54 1428.93 122.75 1435.25 C 132.97 1441.56 143.46 1449.94 154.98 1454.02 C 166.50 1458.11 179.42 1466.71 192.00 1467.00 Z"/>
</g>
<g fill="#E0E0E0" fill-opacity="0.06" stroke="None">
<path d="
M 239.00 1085.00 
C 239.59 1076.31 240.33 1067.49 240.00 1059.00
C 239.75 1059.25 238.08 1058.81 238.00 1059.00
C 238.00 1067.68 238.23 1077.01 239.00 1085.00 Z"/>
</g>
<g fill="#D9D9D9" fill-opacity="0.08" stroke="None">
<path d="
M 643.00 1435.00 
C 641.67 1435.00 640.33 1435.00 639.00 1435.00
C 634.35 1416.72 654.83 1405.65 666.25 1393.25 C 677.67 1380.85 689.94 1369.68 701.25 1357.25 C 712.56 1344.82 724.51 1333.08 735.25 1320.25 C 745.99 1307.41 757.47 1294.94 767.75 1281.75 C 778.03 1268.57 789.93 1256.47 800.23 1243.23 C 810.53 1229.99 820.92 1216.75 831.70 1203.70 C 842.47 1190.65 851.55 1176.43 862.25 1163.25 C 872.95 1150.07 883.03 1136.49 892.75 1122.75 C 902.47 1109.02 914.10 1096.31 923.00 1082.00
C 911.59 1093.66 901.88 1108.95 891.30 1122.30 C 880.73 1135.66 871.77 1150.19 861.25 1163.25 C 850.73 1176.31 840.67 1190.16 830.25 1203.25 C 819.83 1216.34 808.92 1230.07 798.25 1243.25 C 787.57 1256.43 777.00 1269.27 766.25 1282.25 C 755.49 1295.22 744.23 1307.69 733.25 1320.25 C 722.28 1332.82 710.58 1345.57 699.25 1358.25 C 687.92 1370.92 675.30 1381.79 664.25 1394.25 C 653.19 1406.71 631.07 1416.45 637.00 1436.00
C 639.06 1436.90 641.63 1435.20 643.00 1435.00 Z"/>
</g>
<g fill="#DDDDDD" fill-opacity="0.08" stroke="None">
<path d="
M 252.00 1237.00 
C 253.03 1221.46 244.75 1207.71 244.00 1192.00 C 243.25 1176.30 239.34 1159.49 240.00 1143.00 C 240.66 1126.51 239.00 1109.63 239.00 1093.00
C 237.49 1108.56 236.98 1129.94 238.00 1146.00 C 239.03 1162.06 239.92 1180.05 243.00 1195.00 C 246.08 1209.94 245.25 1224.66 252.00 1237.00 Z"/>
</g>
<g fill="#DCDCDC" fill-opacity="0.08" stroke="None">
<path d="
M 1420.00 1145.00 
C 1423.81 1132.45 1429.80 1119.40 1432.00 1106.00
C 1428.23 1110.63 1427.18 1119.11 1424.98 1124.98 C 1422.77 1130.84 1420.89 1138.75 1420.00 1145.00 Z"/>
</g>
<g fill="#D9D9D9" fill-opacity="0.09" stroke="None">
<path d="
M 1404.00 1200.00 
C 1412.48 1188.30 1412.56 1168.85 1417.00 1155.00
C 1411.03 1167.07 1405.62 1186.36 1404.00 1200.00 Z"/>
</g>
<g fill="#D7D7D7" fill-opacity="0.09" stroke="None">
<path d="
M 252.00 1238.00 
C 252.79 1258.72 265.35 1271.28 274.08 1289.92 C 282.82 1308.56 308.34 1312.18 326.99 1307.99 C 345.65 1303.80 368.54 1301.76 384.98 1292.98 C 401.41 1284.19 420.52 1280.78 433.25 1267.25 C 445.97 1253.71 451.97 1237.28 460.08 1221.08 C 468.18 1204.87 476.04 1185.02 479.00 1167.00
C 470.58 1176.80 470.63 1195.34 463.93 1206.93 C 457.22 1218.51 453.75 1232.88 446.31 1244.31 C 438.86 1255.73 433.86 1267.57 421.08 1274.08 C 408.29 1280.58 398.15 1286.56 384.69 1291.70 C 371.24 1296.83 356.55 1301.89 342.07 1304.07 C 327.59 1306.26 307.03 1311.19 292.70 1306.31 C 278.36 1301.42 276.18 1286.70 267.75 1276.25 C 259.33 1265.80 260.10 1247.98 252.00 1238.00 Z"/>
</g>
<g fill="#D2D2D2" fill-opacity="0.10" stroke="None">
<path d="
M 1397.00 1228.00 
C 1401.21 1223.55 1404.25 1208.55 1404.00 1202.00
C 1400.17 1207.64 1396.49 1220.77 1397.00 1228.00 Z"/>
</g>
<g fill="#DDDDDD" fill-opacity="0.08" stroke="None">
<path d="
M 1392.00 1246.00 
C 1394.91 1242.93 1396.88 1234.59 1397.00 1230.00
C 1394.18 1234.16 1392.62 1240.79 1392.00 1246.00 Z"/>
</g>
<g fill="#D9D9D9" fill-opacity="0.09" stroke="None">
<path d="
M 1381.00 1293.00 
C 1385.80 1289.34 1384.87 1277.05 1387.22 1271.22 C 1389.57 1265.39 1392.25 1254.65 1392.00 1248.00
C 1389.65 1254.73 1386.46 1262.39 1385.99 1269.99 C 1385.53 1277.60 1380.49 1285.33 1381.00 1293.00 Z"/>
</g>
<g fill="#D2D2D2" fill-opacity="0.10" stroke="None">
<path d="
M 1372.00 1336.00 
C 1374.59 1323.49 1382.47 1307.53 1381.00 1294.00
C 1375.22 1304.52 1372.50 1323.66 1372.00 1336.00 Z"/>
</g>
<g fill="#EAEAEA" fill-opacity="0.06" stroke="None">
<path d="
M 1025.00 1367.00 
C 1038.37 1366.99 1051.56 1364.80 1064.93 1363.93 C 1078.29 1363.06 1091.34 1361.53 1105.00 1361.00 C 1118.66 1360.47 1133.02 1359.92 1147.00 1360.00 C 1160.98 1360.08 1175.49 1360.22 1189.00 1361.00 C 1202.51 1361.78 1216.11 1362.31 1229.00 1364.00 C 1241.89 1365.69 1255.02 1366.45 1267.33 1368.67 C 1279.64 1370.89 1291.72 1372.57 1303.33 1375.67 C 1314.94 1378.77 1326.70 1380.73 1337.78 1384.22 C 1348.85 1387.72 1361.79 1397.04 1364.01 1383.01 C 1366.22 1368.98 1367.29 1359.34 1370.00 1346.00
C 1365.10 1359.59 1363.61 1375.16 1362.00 1390.00
C 1352.92 1387.16 1344.24 1384.52 1335.07 1381.93 C 1325.90 1379.33 1317.48 1377.14 1308.02 1374.98 C 1298.56 1372.81 1288.86 1370.45 1279.01 1368.99 C 1269.16 1367.54 1259.12 1366.46 1249.07 1364.93 C 1239.03 1363.40 1229.56 1361.66 1219.00 1361.00 C 1208.44 1360.34 1196.89 1359.09 1186.00 1359.00 C 1175.11 1358.91 1164.09 1357.54 1153.00 1358.00 C 1141.91 1358.46 1130.60 1357.56 1120.00 1359.00 C 1109.40 1360.44 1096.40 1358.42 1086.22 1360.22 C 1076.04 1362.02 1064.38 1360.52 1055.00 1363.00 C 1045.62 1365.48 1032.30 1361.60 1025.00 1367.00 Z"/>
</g>
<g fill="#D3D3D3" fill-opacity="0.09" stroke="None">
<path d="
M 825.00 1399.00 
C 819.10 1400.35 813.03 1401.12 807.00 1402.00
C 792.58 1404.11 776.97 1407.55 763.02 1411.02 C 749.08 1414.49 732.37 1413.24 720.00 1420.00
C 730.20 1419.78 740.71 1416.06 750.78 1414.78 C 760.85 1413.50 770.04 1409.89 780.00 1408.00 C 789.96 1406.10 800.91 1405.09 810.78 1402.78 C 820.65 1400.47 829.96 1398.91 839.93 1396.93 C 849.90 1394.95 859.97 1392.89 870.00 1391.00 C 880.02 1389.11 890.85 1388.03 900.78 1385.78 C 910.71 1383.53 920.72 1382.54 930.78 1380.78 C 940.84 1379.01 952.02 1377.90 961.93 1375.93 C 971.84 1373.96 983.66 1373.64 993.00 1371.00 C 1002.33 1368.35 1016.65 1372.44 1024.00 1367.00
C 1011.58 1362.54 996.08 1370.77 983.02 1371.02 C 969.97 1371.27 957.06 1376.88 944.00 1377.00 C 930.94 1377.12 916.98 1381.94 904.00 1384.00 C 891.03 1386.07 877.09 1389.01 864.00 1391.00 C 850.91 1393.00 837.84 1396.06 825.00 1399.00 Z"/>
</g>
<g fill="#9B9B9B" fill-opacity="0.29" stroke="None">
<path d="
M 807.00 1402.00 
C 813.03 1401.12 819.10 1400.35 825.00 1399.00
C 819.68 1399.62 812.79 1400.52 807.00 1402.00 Z"/>
</g>
<g fill="#BFBFBF" fill-opacity="0.13" stroke="None">
<path d="
M 659.00 1432.00 
C 668.80 1430.00 680.32 1429.77 689.78 1426.78 C 699.24 1423.79 710.56 1424.62 719.00 1420.00
C 699.65 1420.45 676.86 1426.20 659.00 1432.00 Z"/>
</g>
<g fill="#DFDFDF" fill-opacity="0.09" stroke="None">
<path d="
M 214.00 1473.00 
C 208.96 1470.23 199.06 1467.23 193.00 1467.00
C 197.21 1470.41 208.38 1472.87 214.00 1473.00 Z"/>
</g>
<g fill="#BBBBBB" fill-opacity="0.12" stroke="None">
<path d="
M 257.00 1479.00 
C 243.93 1476.48 228.89 1473.00 215.00 1473.00
C 227.23 1478.36 243.24 1477.91 257.00 1479.00 Z"/>
</g>
<g fill="#E1E1E1" fill-opacity="0.08" stroke="None">
<path d="
M 270.00 1480.00 
C 278.09 1481.45 287.63 1485.77 297.00 1484.00 C 306.37 1482.23 318.43 1485.79 327.00 1483.00 C 335.57 1480.20 346.16 1484.06 353.00 1479.00
C 339.35 1477.67 326.00 1482.45 312.00 1483.00 C 298.00 1483.55 283.20 1480.72 270.00 1480.00 Z"/>
</g>
</svg>