<svg xmlns="http://www.w3.org/2000/svg" xmlns:v="https://svgstorm.com"
viewBox = "0 0 2133 1200"
width="2133"
height="1200">
<g fill="None" fill-opacity="0.0" stroke="#000000" stroke-opacity="0.00" stroke-width="0.3"><path d="
M 0.00 1200.00 
L 2133.00 1200.00
L 2133.00 0.00
L 1478.00 0.00
C 1466.87 13.63 1451.32 22.67 1437.75 33.75 C 1424.19 44.83 1409.46 54.78 1395.77 65.77 C 1382.08 76.76 1368.06 87.35 1353.77 97.77 C 1339.48 108.19 1326.15 122.12 1310.00 129.00
C 1358.19 84.66 1408.89 43.66 1458.00 0.00
L 906.00 0.00
C 948.85 57.67 993.26 116.05 1035.00 176.00
C 1015.84 159.88 1000.41 138.13 983.25 118.75 C 966.09 99.37 950.15 79.24 933.25 59.75 C 916.35 40.27 899.51 20.97 884.00 0.00
L 0.00 0.00
L 0.00 1200.00
M 1266.00 168.00 
C 1245.47 187.05 1223.46 206.01 1201.23 224.23 C 1179.00 242.45 1157.45 262.43 1133.00 277.00
C 1152.67 257.03 1176.50 238.60 1198.10 221.10 C 1219.70 203.60 1242.82 182.99 1266.00 168.00
M 1092.00 250.00 
C 1076.01 234.44 1062.50 216.09 1051.00 197.00
C 1058.94 203.18 1067.80 212.75 1074.70 221.30 C 1081.60 229.85 1090.69 240.05 1092.00 250.00
M 1102.00 301.00 
C 1099.58 308.97 1090.61 313.04 1084.75 318.75 C 1078.89 324.46 1072.25 329.17 1065.75 334.75 C 1059.26 340.33 1052.28 345.82 1045.92 350.92 C 1039.56 356.01 1033.18 362.20 1026.75 366.75 C 1020.32 371.30 1013.47 378.15 1007.25 382.25 C 1001.04 386.36 991.38 398.93 988.00 391.00
C 1026.53 360.59 1062.09 329.43 1102.00 301.00
M 1197.00 383.00 
C 1178.17 367.61 1160.38 346.76 1150.00 324.00
C 1171.40 338.00 1187.13 360.18 1197.00 383.00
M 1583.00 877.00 
C 1460.16 718.91 1324.66 573.01 1215.00 408.00
C 1221.77 412.88 1226.75 420.19 1232.75 426.25 C 1238.76 432.31 1244.04 439.58 1250.25 445.75 C 1256.46 451.93 1261.35 458.43 1267.25 464.75 C 1273.15 471.08 1279.01 477.87 1284.75 484.25 C 1290.50 490.63 1296.46 497.09 1302.25 503.75 C 1308.05 510.40 1313.75 515.90 1319.25 522.75 C 1324.75 529.61 1330.56 536.32 1335.75 543.25 C 1340.94 550.18 1346.05 557.98 1351.30 564.70 C 1356.56 571.42 1361.61 578.24 1366.77 585.23 C 1371.93 592.22 1377.60 599.22 1382.77 606.23 C 1387.94 613.24 1393.20 620.81 1398.31 627.70 C 1403.41 634.58 1408.87 640.82 1413.77 648.23 C 1418.67 655.64 1425.22 661.78 1430.08 668.92 C 1434.95 676.06 1440.74 683.23 1445.90 690.10 C 1451.07 696.96 1455.87 704.02 1461.30 710.70 C 1466.73 717.38 1471.68 725.33 1476.92 732.08 C 1482.17 738.82 1487.89 746.35 1492.92 753.08 C 1497.95 759.81 1503.38 766.74 1508.31 773.70 C 1513.23 780.65 1519.54 787.57 1524.25 794.75 C 1528.97 801.92 1535.63 808.52 1540.25 815.75 C 1544.86 822.98 1551.60 829.25 1555.90 836.10 C 1560.21 842.94 1567.91 850.91 1571.77 857.23 C 1575.63 863.55 1588.28 871.82 1583.00 877.00
M 953.00 424.00 
C 947.40 431.31 940.96 437.61 934.25 444.25 C 927.54 450.88 921.82 457.59 915.23 464.23 C 908.64 470.87 901.86 477.87 895.75 484.75 C 889.63 491.62 882.36 497.02 875.25 503.25 C 868.14 509.48 860.09 514.60 852.77 520.77 C 845.45 526.94 838.76 532.99 831.70 538.70 C 824.64 544.42 816.57 550.14 809.30 556.30 C 802.03 562.47 795.06 568.08 787.75 573.75 C 780.45 579.43 773.12 586.34 765.75 591.75 C 758.39 597.16 751.66 604.02 744.25 609.25 C 736.83 614.47 729.43 624.92 722.00 623.00
C 797.50 554.02 866.86 476.53 953.00 423.00
C 953.73 421.89 954.35 420.64 956.00 421.00
C 956.32 422.69 954.68 424.29 953.00 424.00 Z"/>
</g>
<g fill="None" fill-opacity="0.0" stroke="#0CFFFB" stroke-opacity="0.91" stroke-width="0.3"><path d="
M 906.00 0.00 
L 884.00 0.00
C 899.51 20.97 916.35 40.27 933.25 59.75 C 950.15 79.24 966.09 99.37 983.25 118.75 C 1000.41 138.13 1015.84 159.88 1035.00 176.00
C 993.26 116.05 948.85 57.67 906.00 0.00 Z"/>
</g>
<g fill="None" fill-opacity="0.0" stroke="#0CFFFB" stroke-opacity="0.89" stroke-width="0.3"><path d="
M 1478.00 0.00 
L 1458.00 0.00
C 1408.89 43.66 1358.19 84.66 1310.00 129.00
C 1326.15 122.12 1339.48 108.19 1353.77 97.77 C 1368.06 87.35 1382.08 76.76 1395.77 65.77 C 1409.46 54.78 1424.19 44.83 1437.75 33.75 C 1451.32 22.67 1466.87 13.63 1478.00 0.00 Z"/>
</g>
<g fill="None" fill-opacity="0.0" stroke="#0CFFFB" stroke-opacity="0.71" stroke-width="0.3"><path d="
M 1266.00 168.00 
C 1242.82 182.99 1219.70 203.60 1198.10 221.10 C 1176.50 238.60 1152.67 257.03 1133.00 277.00
C 1157.45 262.43 1179.00 242.45 1201.23 224.23 C 1223.46 206.01 1245.47 187.05 1266.00 168.00 Z"/>
</g>
<g fill="None" fill-opacity="0.0" stroke="#0CFFFA" stroke-opacity="0.75" stroke-width="0.3"><path d="
M 1092.00 250.00 
C 1090.69 240.05 1081.60 229.85 1074.70 221.30 C 1067.80 212.75 1058.94 203.18 1051.00 197.00
C 1062.50 216.09 1076.01 234.44 1092.00 250.00 Z"/>
</g>
<g fill="None" fill-opacity="0.0" stroke="#0CFFFB" stroke-opacity="0.76" stroke-width="0.3"><path d="
M 1102.00 301.00 
C 1062.09 329.43 1026.53 360.59 988.00 391.00
C 991.38 398.93 1001.04 386.36 1007.25 382.25 C 1013.47 378.15 1020.32 371.30 1026.75 366.75 C 1033.18 362.20 1039.56 356.01 1045.92 350.92 C 1052.28 345.82 1059.26 340.33 1065.75 334.75 C 1072.25 329.17 1078.89 324.46 1084.75 318.75 C 1090.61 313.04 1099.58 308.97 1102.00 301.00 Z"/>
</g>
<g fill="None" fill-opacity="0.0" stroke="#0CFFFB" stroke-opacity="0.85" stroke-width="0.3"><path d="
M 1197.00 383.00 
C 1187.13 360.18 1171.40 338.00 1150.00 324.00
C 1160.38 346.76 1178.17 367.61 1197.00 383.00 Z"/>
</g>
<g fill="None" fill-opacity="0.0" stroke="#0CFFFB" stroke-opacity="0.91" stroke-width="0.3"><path d="
M 1583.00 877.00 
C 1588.28 871.82 1575.63 863.55 1571.77 857.23 C 1567.91 850.91 1560.21 842.94 1555.90 836.10 C 1551.60 829.25 1544.86 822.98 1540.25 815.75 C 1535.63 808.52 1528.97 801.92 1524.25 794.75 C 1519.54 787.57 1513.23 780.65 1508.31 773.70 C 1503.38 766.74 1497.95 759.81 1492.92 753.08 C 1487.89 746.35 1482.17 738.82 1476.92 732.08 C 1471.68 725.33 1466.73 717.38 1461.30 710.70 C 1455.87 704.02 1451.07 696.96 1445.90 690.10 C 1440.74 683.23 1434.95 676.06 1430.08 668.92 C 1425.22 661.78 1418.67 655.64 1413.77 648.23 C 1408.87 640.82 1403.41 634.58 1398.31 627.70 C 1393.20 620.81 1387.94 613.24 1382.77 606.23 C 1377.60 599.22 1371.93 592.22 1366.77 585.23 C 1361.61 578.24 1356.56 571.42 1351.30 564.70 C 1346.05 557.98 1340.94 550.18 1335.75 543.25 C 1330.56 536.32 1324.75 529.61 1319.25 522.75 C 1313.75 515.90 1308.05 510.40 1302.25 503.75 C 1296.46 497.09 1290.50 490.63 1284.75 484.25 C 1279.01 477.87 1273.15 471.08 1267.25 464.75 C 1261.35 458.43 1256.46 451.93 1250.25 445.75 C 1244.04 439.58 1238.76 432.31 1232.75 426.25 C 1226.75 420.19 1221.77 412.88 1215.00 408.00
C 1324.66 573.01 1460.16 718.91 1583.00 877.00 Z"/>
</g>
<g fill="None" fill-opacity="0.0" stroke="#0BFFFB" stroke-opacity="0.49" stroke-width="0.3"><path d="
M 953.00 423.00 
C 952.77 423.35 953.00 424.00 953.00 424.00
C 954.68 424.29 956.32 422.69 956.00 421.00
C 954.35 420.64 953.73 421.89 953.00 423.00 Z"/>
</g>
<g fill="None" fill-opacity="0.0" stroke="#0CFFFA" stroke-opacity="0.91" stroke-width="0.3"><path d="
M 953.00 424.00 
C 953.00 424.00 952.77 423.35 953.00 423.00
C 866.86 476.53 797.50 554.02 722.00 623.00
C 729.43 624.92 736.83 614.47 744.25 609.25 C 751.66 604.02 758.39 597.16 765.75 591.75 C 773.12 586.34 780.45 579.43 787.75 573.75 C 795.06 568.08 802.03 562.47 809.30 556.30 C 816.57 550.14 824.64 544.42 831.70 538.70 C 838.76 532.99 845.45 526.94 852.77 520.77 C 860.09 514.60 868.14 509.48 875.25 503.25 C 882.36 497.02 889.63 491.62 895.75 484.75 C 901.86 477.87 908.64 470.87 915.23 464.23 C 921.82 457.59 927.54 450.88 934.25 444.25 C 940.96 437.61 947.40 431.31 953.00 424.00 Z"/>
</g>
<g fill="#000000" fill-opacity="0.00" stroke="None">
<path d="
M 0.00 1200.00 
L 2133.00 1200.00
L 2133.00 0.00
L 1478.00 0.00
C 1466.87 13.63 1451.32 22.67 1437.75 33.75 C 1424.19 44.83 1409.46 54.78 1395.77 65.77 C 1382.08 76.76 1368.06 87.35 1353.77 97.77 C 1339.48 108.19 1326.15 122.12 1310.00 129.00
C 1358.19 84.66 1408.89 43.66 1458.00 0.00
L 906.00 0.00
C 948.85 57.67 993.26 116.05 1035.00 176.00
C 1015.84 159.88 1000.41 138.13 983.25 118.75 C 966.09 99.37 950.15 79.24 933.25 59.75 C 916.35 40.27 899.51 20.97 884.00 0.00
L 0.00 0.00
L 0.00 1200.00
M 1266.00 168.00 
C 1245.47 187.05 1223.46 206.01 1201.23 224.23 C 1179.00 242.45 1157.45 262.43 1133.00 277.00
C 1152.67 257.03 1176.50 238.60 1198.10 221.10 C 1219.70 203.60 1242.82 182.99 1266.00 168.00
M 1092.00 250.00 
C 1076.01 234.44 1062.50 216.09 1051.00 197.00
C 1058.94 203.18 1067.80 212.75 1074.70 221.30 C 1081.60 229.85 1090.69 240.05 1092.00 250.00
M 1102.00 301.00 
C 1099.58 308.97 1090.61 313.04 1084.75 318.75 C 1078.89 324.46 1072.25 329.17 1065.75 334.75 C 1059.26 340.33 1052.28 345.82 1045.92 350.92 C 1039.56 356.01 1033.18 362.20 1026.75 366.75 C 1020.32 371.30 1013.47 378.15 1007.25 382.25 C 1001.04 386.36 991.38 398.93 988.00 391.00
C 1026.53 360.59 1062.09 329.43 1102.00 301.00
M 1197.00 383.00 
C 1178.17 367.61 1160.38 346.76 1150.00 324.00
C 1171.40 338.00 1187.13 360.18 1197.00 383.00
M 1583.00 877.00 
C 1460.16 718.91 1324.66 573.01 1215.00 408.00
C 1221.77 412.88 1226.75 420.19 1232.75 426.25 C 1238.76 432.31 1244.04 439.58 1250.25 445.75 C 1256.46 451.93 1261.35 458.43 1267.25 464.75 C 1273.15 471.08 1279.01 477.87 1284.75 484.25 C 1290.50 490.63 1296.46 497.09 1302.25 503.75 C 1308.05 510.40 1313.75 515.90 1319.25 522.75 C 1324.75 529.61 1330.56 536.32 1335.75 543.25 C 1340.94 550.18 1346.05 557.98 1351.30 564.70 C 1356.56 571.42 1361.61 578.24 1366.77 585.23 C 1371.93 592.22 1377.60 599.22 1382.77 606.23 C 1387.94 613.24 1393.20 620.81 1398.31 627.70 C 1403.41 634.58 1408.87 640.82 1413.77 648.23 C 1418.67 655.64 1425.22 661.78 1430.08 668.92 C 1434.95 676.06 1440.74 683.23 1445.90 690.10 C 1451.07 696.96 1455.87 704.02 1461.30 710.70 C 1466.73 717.38 1471.68 725.33 1476.92 732.08 C 1482.17 738.82 1487.89 746.35 1492.92 753.08 C 1497.95 759.81 1503.38 766.74 1508.31 773.70 C 1513.23 780.65 1519.54 787.57 1524.25 794.75 C 1528.97 801.92 1535.63 808.52 1540.25 815.75 C 1544.86 822.98 1551.60 829.25 1555.90 836.10 C 1560.21 842.94 1567.91 850.91 1571.77 857.23 C 1575.63 863.55 1588.28 871.82 1583.00 877.00
M 953.00 424.00 
C 947.40 431.31 940.96 437.61 934.25 444.25 C 927.54 450.88 921.82 457.59 915.23 464.23 C 908.64 470.87 901.86 477.87 895.75 484.75 C 889.63 491.62 882.36 497.02 875.25 503.25 C 868.14 509.48 860.09 514.60 852.77 520.77 C 845.45 526.94 838.76 532.99 831.70 538.70 C 824.64 544.42 816.57 550.14 809.30 556.30 C 802.03 562.47 795.06 568.08 787.75 573.75 C 780.45 579.43 773.12 586.34 765.75 591.75 C 758.39 597.16 751.66 604.02 744.25 609.25 C 736.83 614.47 729.43 624.92 722.00 623.00
C 797.50 554.02 866.86 476.53 953.00 423.00
C 953.73 421.89 954.35 420.64 956.00 421.00
C 956.32 422.69 954.68 424.29 953.00 424.00 Z"/>
</g>
<g fill="#0CFFFB" fill-opacity="0.91" stroke="None">
<path d="
M 906.00 0.00 
L 884.00 0.00
C 899.51 20.97 916.35 40.27 933.25 59.75 C 950.15 79.24 966.09 99.37 983.25 118.75 C 1000.41 138.13 1015.84 159.88 1035.00 176.00
C 993.26 116.05 948.85 57.67 906.00 0.00 Z"/>
</g>
<g fill="#0CFFFB" fill-opacity="0.89" stroke="None">
<path d="
M 1478.00 0.00 
L 1458.00 0.00
C 1408.89 43.66 1358.19 84.66 1310.00 129.00
C 1326.15 122.12 1339.48 108.19 1353.77 97.77 C 1368.06 87.35 1382.08 76.76 1395.77 65.77 C 1409.46 54.78 1424.19 44.83 1437.75 33.75 C 1451.32 22.67 1466.87 13.63 1478.00 0.00 Z"/>
</g>
<g fill="#0CFFFB" fill-opacity="0.71" stroke="None">
<path d="
M 1266.00 168.00 
C 1242.82 182.99 1219.70 203.60 1198.10 221.10 C 1176.50 238.60 1152.67 257.03 1133.00 277.00
C 1157.45 262.43 1179.00 242.45 1201.23 224.23 C 1223.46 206.01 1245.47 187.05 1266.00 168.00 Z"/>
</g>
<g fill="#0CFFFA" fill-opacity="0.75" stroke="None">
<path d="
M 1092.00 250.00 
C 1090.69 240.05 1081.60 229.85 1074.70 221.30 C 1067.80 212.75 1058.94 203.18 1051.00 197.00
C 1062.50 216.09 1076.01 234.44 1092.00 250.00 Z"/>
</g>
<g fill="#0CFFFB" fill-opacity="0.76" stroke="None">
<path d="
M 1102.00 301.00 
C 1062.09 329.43 1026.53 360.59 988.00 391.00
C 991.38 398.93 1001.04 386.36 1007.25 382.25 C 1013.47 378.15 1020.32 371.30 1026.75 366.75 C 1033.18 362.20 1039.56 356.01 1045.92 350.92 C 1052.28 345.82 1059.26 340.33 1065.75 334.75 C 1072.25 329.17 1078.89 324.46 1084.75 318.75 C 1090.61 313.04 1099.58 308.97 1102.00 301.00 Z"/>
</g>
<g fill="#0CFFFB" fill-opacity="0.85" stroke="None">
<path d="
M 1197.00 383.00 
C 1187.13 360.18 1171.40 338.00 1150.00 324.00
C 1160.38 346.76 1178.17 367.61 1197.00 383.00 Z"/>
</g>
<g fill="#0CFFFB" fill-opacity="0.91" stroke="None">
<path d="
M 1583.00 877.00 
C 1588.28 871.82 1575.63 863.55 1571.77 857.23 C 1567.91 850.91 1560.21 842.94 1555.90 836.10 C 1551.60 829.25 1544.86 822.98 1540.25 815.75 C 1535.63 808.52 1528.97 801.92 1524.25 794.75 C 1519.54 787.57 1513.23 780.65 1508.31 773.70 C 1503.38 766.74 1497.95 759.81 1492.92 753.08 C 1487.89 746.35 1482.17 738.82 1476.92 732.08 C 1471.68 725.33 1466.73 717.38 1461.30 710.70 C 1455.87 704.02 1451.07 696.96 1445.90 690.10 C 1440.74 683.23 1434.95 676.06 1430.08 668.92 C 1425.22 661.78 1418.67 655.64 1413.77 648.23 C 1408.87 640.82 1403.41 634.58 1398.31 627.70 C 1393.20 620.81 1387.94 613.24 1382.77 606.23 C 1377.60 599.22 1371.93 592.22 1366.77 585.23 C 1361.61 578.24 1356.56 571.42 1351.30 564.70 C 1346.05 557.98 1340.94 550.18 1335.75 543.25 C 1330.56 536.32 1324.75 529.61 1319.25 522.75 C 1313.75 515.90 1308.05 510.40 1302.25 503.75 C 1296.46 497.09 1290.50 490.63 1284.75 484.25 C 1279.01 477.87 1273.15 471.08 1267.25 464.75 C 1261.35 458.43 1256.46 451.93 1250.25 445.75 C 1244.04 439.58 1238.76 432.31 1232.75 426.25 C 1226.75 420.19 1221.77 412.88 1215.00 408.00
C 1324.66 573.01 1460.16 718.91 1583.00 877.00 Z"/>
</g>
<g fill="#0BFFFB" fill-opacity="0.49" stroke="None">
<path d="
M 953.00 423.00 
C 952.77 423.35 953.00 424.00 953.00 424.00
C 954.68 424.29 956.32 422.69 956.00 421.00
C 954.35 420.64 953.73 421.89 953.00 423.00 Z"/>
</g>
<g fill="#0CFFFA" fill-opacity="0.91" stroke="None">
<path d="
M 953.00 424.00 
C 953.00 424.00 952.77 423.35 953.00 423.00
C 866.86 476.53 797.50 554.02 722.00 623.00
C 729.43 624.92 736.83 614.47 744.25 609.25 C 751.66 604.02 758.39 597.16 765.75 591.75 C 773.12 586.34 780.45 579.43 787.75 573.75 C 795.06 568.08 802.03 562.47 809.30 556.30 C 816.57 550.14 824.64 544.42 831.70 538.70 C 838.76 532.99 845.45 526.94 852.77 520.77 C 860.09 514.60 868.14 509.48 875.25 503.25 C 882.36 497.02 889.63 491.62 895.75 484.75 C 901.86 477.87 908.64 470.87 915.23 464.23 C 921.82 457.59 927.54 450.88 934.25 444.25 C 940.96 437.61 947.40 431.31 953.00 424.00 Z"/>
</g>
</svg>