<svg xmlns="http://www.w3.org/2000/svg" xmlns:v="https://svgstorm.com"
viewBox = "0 0 2133 1200"
width="2133"
height="1200">
<g fill="None" fill-opacity="0.0" stroke="#FFFFFF" stroke-opacity="0.79" stroke-width="0.3"><path d="
M 0.00 1200.00 
L 989.00 1200.00
C 983.43 1188.12 971.68 1185.46 962.25 1177.75 C 952.83 1170.03 948.08 1159.69 940.70 1150.30 C 933.31 1140.92 927.40 1131.45 921.23 1120.77 C 915.06 1110.09 907.67 1096.63 910.00 1083.00 C 912.33 1069.37 916.84 1058.28 920.98 1044.98 C 925.11 1031.68 922.26 1014.97 919.07 1001.93 C 915.89 988.88 919.77 973.61 926.77 962.77 C 933.77 951.93 935.99 942.58 946.75 933.75 C 957.51 924.93 955.80 908.15 954.00 894.00
C 941.38 887.40 932.23 876.78 925.25 864.75 C 918.26 852.73 905.18 844.46 898.30 832.70 C 891.41 820.94 884.36 808.58 875.25 797.75 C 866.14 786.92 849.94 783.83 840.25 773.75 C 830.56 763.67 817.97 756.85 806.92 748.08 C 795.88 739.30 784.72 731.60 773.31 723.70 C 761.89 715.79 750.70 707.06 740.75 697.25 C 730.81 687.44 719.56 680.03 709.75 670.25 C 699.93 660.48 688.24 652.48 682.08 638.92 C 675.91 625.37 666.57 616.74 656.75 605.25 C 646.92 593.77 648.35 575.04 643.67 560.33 C 638.99 545.61 641.72 523.06 646.00 509.00 C 650.28 494.94 661.81 478.53 649.92 469.08 C 638.03 459.64 628.46 451.63 616.92 443.08 C 605.38 434.53 595.95 424.61 584.70 416.30 C 573.45 407.98 563.11 399.66 552.25 390.75 C 541.39 381.84 530.12 373.87 519.25 364.75 C 508.38 355.62 497.13 347.49 486.25 338.75 C 475.38 330.01 465.22 321.41 454.25 312.75 C 443.27 304.10 432.18 295.40 421.25 286.75 C 410.33 278.10 400.09 269.51 389.25 260.75 C 378.40 251.99 367.03 243.67 356.25 234.75 C 345.48 225.82 334.24 217.31 323.30 208.70 C 312.37 200.08 302.39 191.04 291.25 182.75 C 280.12 174.45 269.73 164.89 258.70 156.30 C 247.68 147.70 236.90 139.71 226.25 130.75 C 215.59 121.80 203.87 113.70 193.30 104.70 C 182.73 95.70 170.98 87.46 160.30 78.70 C 149.63 69.94 138.80 61.37 127.92 53.08 C 117.04 44.80 106.47 34.85 95.70 26.30 C 84.93 17.76 72.66 9.90 63.00 0.00
L 0.00 0.00
L 0.00 1200.00
M 217.00 534.00 
C 226.90 534.00 239.09 536.45 249.00 535.00 C 258.91 533.55 270.31 540.83 262.00 550.00
C 266.28 555.03 266.77 561.59 267.00 568.00
C 275.99 569.60 286.89 575.64 287.00 586.00
C 300.62 588.48 328.22 579.08 329.00 599.00
C 337.07 598.52 347.95 597.29 356.00 598.00 C 364.05 598.71 369.94 593.41 376.00 601.00
C 378.08 601.35 381.54 598.46 384.00 601.00
C 384.25 601.26 384.00 602.00 384.00 602.00
C 394.54 605.76 390.21 622.73 378.00 622.00 C 365.79 621.27 351.62 622.06 339.00 622.00 C 326.38 621.94 313.61 621.49 301.00 621.00 C 288.39 620.51 274.64 621.27 262.00 621.00 C 249.36 620.73 236.87 622.08 225.00 619.00
C 216.60 618.69 206.22 621.03 197.00 620.00 C 187.78 618.97 177.14 620.99 168.00 620.00 C 158.86 619.01 146.59 622.47 140.00 618.00
C 134.35 614.17 127.74 605.67 130.26 599.26 C 132.78 592.85 128.43 580.59 140.00 580.00
C 139.65 577.14 140.27 574.61 141.00 572.00
C 134.31 568.60 137.45 560.69 142.00 557.00
C 133.01 553.70 135.72 540.49 143.70 536.70 C 151.68 532.91 166.89 535.77 176.00 534.00
C 189.55 532.69 203.45 532.69 217.00 534.00 Z"/>
</g>
<g fill="None" fill-opacity="0.0" stroke="#000000" stroke-opacity="0.00" stroke-width="0.3"><path d="
M 989.00 1200.00 
L 1303.00 1200.00
C 1311.25 1188.96 1323.94 1183.51 1334.23 1175.23 C 1344.52 1166.95 1352.21 1155.65 1358.77 1143.77 C 1365.33 1131.89 1366.16 1112.77 1377.00 1105.00
C 1377.17 1096.89 1377.64 1088.48 1381.32 1081.32 C 1385.00 1074.16 1378.10 1062.84 1386.00 1059.00
C 1382.46 1057.15 1378.08 1050.62 1375.00 1048.00
C 1380.06 1050.95 1385.48 1054.11 1389.00 1059.00
C 1398.56 1060.38 1405.40 1073.86 1414.25 1078.75 C 1423.10 1083.64 1430.73 1092.60 1439.25 1098.75 C 1447.77 1104.90 1455.97 1112.22 1464.25 1118.75 C 1472.53 1125.29 1480.74 1132.16 1489.23 1138.77 C 1497.72 1145.38 1505.45 1152.39 1514.08 1158.92 C 1522.71 1165.45 1530.22 1172.43 1538.75 1179.25 C 1547.28 1186.06 1556.56 1192.64 1564.00 1200.00
L 1592.00 1200.00
C 1773.46 971.95 1953.28 745.20 2133.00 521.00
L 2133.00 0.00
L 63.00 0.00
C 72.66 9.90 84.93 17.76 95.70 26.30 C 106.47 34.85 117.04 44.80 127.92 53.08 C 138.80 61.37 149.63 69.94 160.30 78.70 C 170.98 87.46 182.73 95.70 193.30 104.70 C 203.87 113.70 215.59 121.80 226.25 130.75 C 236.90 139.71 247.68 147.70 258.70 156.30 C 269.73 164.89 280.12 174.45 291.25 182.75 C 302.39 191.04 312.37 200.08 323.30 208.70 C 334.24 217.31 345.48 225.82 356.25 234.75 C 367.03 243.67 378.40 251.99 389.25 260.75 C 400.09 269.51 410.33 278.10 421.25 286.75 C 432.18 295.40 443.27 304.10 454.25 312.75 C 465.22 321.41 475.38 330.01 486.25 338.75 C 497.13 347.49 508.38 355.62 519.25 364.75 C 530.12 373.87 541.39 381.84 552.25 390.75 C 563.11 399.66 573.45 407.98 584.70 416.30 C 595.95 424.61 605.38 434.53 616.92 443.08 C 628.46 451.63 638.03 459.64 649.92 469.08 C 661.81 478.53 650.28 494.94 646.00 509.00 C 641.72 523.06 638.99 545.61 643.67 560.33 C 648.35 575.04 646.92 593.77 656.75 605.25 C 666.57 616.74 675.91 625.37 682.08 638.92 C 688.24 652.48 699.93 660.48 709.75 670.25 C 719.56 680.03 730.81 687.44 740.75 697.25 C 750.70 707.06 761.89 715.79 773.31 723.70 C 784.72 731.60 795.88 739.30 806.92 748.08 C 817.97 756.85 830.56 763.67 840.25 773.75 C 849.94 783.83 866.14 786.92 875.25 797.75 C 884.36 808.58 891.41 820.94 898.30 832.70 C 905.18 844.46 918.26 852.73 925.25 864.75 C 932.23 876.78 941.38 887.40 954.00 894.00
C 955.80 908.15 957.51 924.93 946.75 933.75 C 935.99 942.58 933.77 951.93 926.77 962.77 C 919.77 973.61 915.89 988.88 919.07 1001.93 C 922.26 1014.97 925.11 1031.68 920.98 1044.98 C 916.84 1058.28 912.33 1069.37 910.00 1083.00 C 907.67 1096.63 915.06 1110.09 921.23 1120.77 C 927.40 1131.45 933.31 1140.92 940.70 1150.30 C 948.08 1159.69 952.83 1170.03 962.25 1177.75 C 971.68 1185.46 983.43 1188.12 989.00 1200.00
M 1230.00 930.00 
C 1231.44 931.12 1233.48 932.72 1235.00 934.00
C 1236.61 935.35 1238.44 936.63 1240.00 938.00
C 1240.87 938.77 1242.11 939.33 1243.00 940.00
C 1246.19 942.41 1248.78 945.74 1252.00 948.00
C 1246.44 955.09 1238.61 969.67 1229.00 960.00
C 1228.14 959.61 1226.95 959.44 1226.00 959.00
C 1224.63 958.37 1223.33 957.70 1222.00 957.00
C 1220.88 956.42 1219.89 955.51 1219.00 955.00
C 1217.35 954.06 1214.83 952.84 1213.00 952.00
C 1203.21 947.53 1191.96 947.08 1185.70 937.30 C 1179.43 927.53 1170.77 924.61 1164.25 915.75 C 1157.73 906.89 1150.60 902.76 1143.25 894.75 C 1135.90 886.74 1128.64 880.65 1124.70 870.31 C 1120.75 859.96 1116.20 848.36 1115.00 837.00
C 1152.67 866.80 1193.38 898.88 1230.00 930.00 Z"/>
</g>
<g fill="None" fill-opacity="0.0" stroke="#FFFFFF" stroke-opacity="0.78" stroke-width="0.3"><path d="
M 1592.00 1200.00 
L 2133.00 1200.00
L 2133.00 521.00
C 1953.28 745.20 1773.46 971.95 1592.00 1200.00 Z"/>
</g>
<g fill="None" fill-opacity="0.0" stroke="#FFFFFF" stroke-opacity="0.22" stroke-width="0.3"><path d="
M 176.00 534.00 
C 189.67 534.00 203.33 534.00 217.00 534.00
C 203.45 532.69 189.55 532.69 176.00 534.00 Z"/>
</g>
<g fill="None" fill-opacity="0.0" stroke="#000000" stroke-opacity="0.00" stroke-width="0.3"><path d="
M 140.00 618.00 
C 153.05 621.91 169.47 615.83 183.00 618.00 C 196.53 620.17 212.18 615.68 225.00 619.00
C 236.87 622.08 249.36 620.73 262.00 621.00 C 274.64 621.27 288.39 620.51 301.00 621.00 C 313.61 621.49 326.38 621.94 339.00 622.00 C 351.62 622.06 365.79 621.27 378.00 622.00 C 390.21 622.73 394.54 605.76 384.00 602.00
C 381.03 602.27 378.29 601.96 376.00 601.00
C 369.94 593.41 364.05 598.71 356.00 598.00 C 347.95 597.29 337.07 598.52 329.00 599.00
C 328.22 579.08 300.62 588.48 287.00 586.00
C 286.89 575.64 275.99 569.60 267.00 568.00
C 266.77 561.59 266.28 555.03 262.00 550.00
C 270.31 540.83 258.91 533.55 249.00 535.00 C 239.09 536.45 226.90 534.00 217.00 534.00
C 203.33 534.00 189.67 534.00 176.00 534.00
C 166.89 535.77 151.68 532.91 143.70 536.70 C 135.72 540.49 133.01 553.70 142.00 557.00
C 137.45 560.69 134.31 568.60 141.00 572.00
C 140.27 574.61 139.65 577.14 140.00 580.00
C 128.43 580.59 132.78 592.85 130.26 599.26 C 127.74 605.67 134.35 614.17 140.00 618.00 Z"/>
</g>
<g fill="None" fill-opacity="0.0" stroke="#FFFFFF" stroke-opacity="0.59" stroke-width="0.3"><path d="
M 376.00 601.00 
C 378.65 601.18 381.36 600.76 384.00 601.00
C 381.54 598.46 378.08 601.35 376.00 601.00 Z"/>
</g>
<g fill="None" fill-opacity="0.0" stroke="#FFFFFF" stroke-opacity="0.01" stroke-width="0.3"><path d="
M 384.00 602.00 
C 384.00 602.00 384.25 601.26 384.00 601.00
C 381.36 600.76 378.65 601.18 376.00 601.00
C 378.29 601.96 381.03 602.27 384.00 602.00 Z"/>
</g>
<g fill="None" fill-opacity="0.0" stroke="#FFFFFF" stroke-opacity="0.35" stroke-width="0.3"><path d="
M 225.00 619.00 
C 212.18 615.68 196.53 620.17 183.00 618.00 C 169.47 615.83 153.05 621.91 140.00 618.00
C 146.59 622.47 158.86 619.01 168.00 620.00 C 177.14 620.99 187.78 618.97 197.00 620.00 C 206.22 621.03 216.60 618.69 225.00 619.00 Z"/>
</g>
<g fill="None" fill-opacity="0.0" stroke="#FFFFFF" stroke-opacity="0.74" stroke-width="0.3"><path d="
M 1213.00 952.00 
C 1217.14 951.13 1218.42 943.32 1221.75 940.75 C 1225.09 938.19 1229.92 933.22 1230.00 930.00
C 1193.38 898.88 1152.67 866.80 1115.00 837.00
C 1116.20 848.36 1120.75 859.96 1124.70 870.31 C 1128.64 880.65 1135.90 886.74 1143.25 894.75 C 1150.60 902.76 1157.73 906.89 1164.25 915.75 C 1170.77 924.61 1179.43 927.53 1185.70 937.30 C 1191.96 947.08 1203.21 947.53 1213.00 952.00 Z"/>
</g>
<g fill="None" fill-opacity="0.0" stroke="#FFFFFF" stroke-opacity="0.62" stroke-width="0.3"><path d="
M 1213.00 952.00 
C 1214.83 952.84 1217.35 954.06 1219.00 955.00
C 1222.04 954.15 1223.46 945.00 1227.25 944.25 C 1231.04 943.50 1234.26 934.14 1235.00 934.00
C 1233.48 932.72 1231.44 931.12 1230.00 930.00
C 1229.92 933.22 1225.09 938.19 1221.75 940.75 C 1218.42 943.32 1217.14 951.13 1213.00 952.00 Z"/>
</g>
<g fill="None" fill-opacity="0.0" stroke="#FFFFFF" stroke-opacity="0.46" stroke-width="0.3"><path d="
M 1219.00 955.00 
C 1219.89 955.51 1220.88 956.42 1222.00 957.00
C 1224.98 956.72 1227.39 947.68 1230.30 946.30 C 1233.22 944.93 1237.13 936.42 1240.00 938.00
C 1238.44 936.63 1236.61 935.35 1235.00 934.00
C 1234.26 934.14 1231.04 943.50 1227.25 944.25 C 1223.46 945.00 1222.04 954.15 1219.00 955.00 Z"/>
</g>
<g fill="None" fill-opacity="0.0" stroke="#FFFFFF" stroke-opacity="0.31" stroke-width="0.3"><path d="
M 1222.00 957.00 
C 1223.33 957.70 1224.63 958.37 1226.00 959.00
C 1230.87 952.72 1235.46 945.87 1242.00 941.00
C 1241.70 939.75 1240.17 939.29 1240.00 938.00
C 1237.13 936.42 1233.22 944.93 1230.30 946.30 C 1227.39 947.68 1224.98 956.72 1222.00 957.00 Z"/>
</g>
<g fill="None" fill-opacity="0.0" stroke="#FFFFFF" stroke-opacity="0.14" stroke-width="0.3"><path d="
M 1226.00 959.00 
C 1226.95 959.44 1228.14 959.61 1229.00 960.00
C 1232.85 959.68 1234.71 952.26 1238.25 950.25 C 1241.78 948.23 1246.27 943.52 1243.00 940.00
C 1242.11 939.33 1240.87 938.77 1240.00 938.00
C 1240.17 939.29 1241.70 939.75 1242.00 941.00
C 1235.46 945.87 1230.87 952.72 1226.00 959.00 Z"/>
</g>
<g fill="None" fill-opacity="0.0" stroke="#FFFFFF" stroke-opacity="0.02" stroke-width="0.3"><path d="
M 1229.00 960.00 
C 1238.61 969.67 1246.44 955.09 1252.00 948.00
C 1248.78 945.74 1246.19 942.41 1243.00 940.00
C 1246.27 943.52 1241.78 948.23 1238.25 950.25 C 1234.71 952.26 1232.85 959.68 1229.00 960.00 Z"/>
</g>
<g fill="None" fill-opacity="0.0" stroke="#F3F3F3" stroke-opacity="0.06" stroke-width="0.3"><path d="
M 1386.00 1059.00 
C 1386.88 1058.90 1388.13 1058.87 1389.00 1059.00
C 1385.48 1054.11 1380.06 1050.95 1375.00 1048.00
C 1378.08 1050.62 1382.46 1057.15 1386.00 1059.00 Z"/>
</g>
<g fill="None" fill-opacity="0.0" stroke="#FFFFFF" stroke-opacity="0.77" stroke-width="0.3"><path d="
M 1303.00 1200.00 
L 1564.00 1200.00
C 1556.56 1192.64 1547.28 1186.06 1538.75 1179.25 C 1530.22 1172.43 1522.71 1165.45 1514.08 1158.92 C 1505.45 1152.39 1497.72 1145.38 1489.23 1138.77 C 1480.74 1132.16 1472.53 1125.29 1464.25 1118.75 C 1455.97 1112.22 1447.77 1104.90 1439.25 1098.75 C 1430.73 1092.60 1423.10 1083.64 1414.25 1078.75 C 1405.40 1073.86 1398.56 1060.38 1389.00 1059.00
C 1388.13 1058.87 1386.88 1058.90 1386.00 1059.00
C 1378.10 1062.84 1385.00 1074.16 1381.32 1081.32 C 1377.64 1088.48 1377.17 1096.89 1377.00 1105.00
C 1366.16 1112.77 1365.33 1131.89 1358.77 1143.77 C 1352.21 1155.65 1344.52 1166.95 1334.23 1175.23 C 1323.94 1183.51 1311.25 1188.96 1303.00 1200.00 Z"/>
</g>
<g fill="#FFFFFF" fill-opacity="0.79" stroke="None">
<path d="
M 0.00 1200.00 
L 989.00 1200.00
C 983.43 1188.12 971.68 1185.46 962.25 1177.75 C 952.83 1170.03 948.08 1159.69 940.70 1150.30 C 933.31 1140.92 927.40 1131.45 921.23 1120.77 C 915.06 1110.09 907.67 1096.63 910.00 1083.00 C 912.33 1069.37 916.84 1058.28 920.98 1044.98 C 925.11 1031.68 922.26 1014.97 919.07 1001.93 C 915.89 988.88 919.77 973.61 926.77 962.77 C 933.77 951.93 935.99 942.58 946.75 933.75 C 957.51 924.93 955.80 908.15 954.00 894.00
C 941.38 887.40 932.23 876.78 925.25 864.75 C 918.26 852.73 905.18 844.46 898.30 832.70 C 891.41 820.94 884.36 808.58 875.25 797.75 C 866.14 786.92 849.94 783.83 840.25 773.75 C 830.56 763.67 817.97 756.85 806.92 748.08 C 795.88 739.30 784.72 731.60 773.31 723.70 C 761.89 715.79 750.70 707.06 740.75 697.25 C 730.81 687.44 719.56 680.03 709.75 670.25 C 699.93 660.48 688.24 652.48 682.08 638.92 C 675.91 625.37 666.57 616.74 656.75 605.25 C 646.92 593.77 648.35 575.04 643.67 560.33 C 638.99 545.61 641.72 523.06 646.00 509.00 C 650.28 494.94 661.81 478.53 649.92 469.08 C 638.03 459.64 628.46 451.63 616.92 443.08 C 605.38 434.53 595.95 424.61 584.70 416.30 C 573.45 407.98 563.11 399.66 552.25 390.75 C 541.39 381.84 530.12 373.87 519.25 364.75 C 508.38 355.62 497.13 347.49 486.25 338.75 C 475.38 330.01 465.22 321.41 454.25 312.75 C 443.27 304.10 432.18 295.40 421.25 286.75 C 410.33 278.10 400.09 269.51 389.25 260.75 C 378.40 251.99 367.03 243.67 356.25 234.75 C 345.48 225.82 334.24 217.31 323.30 208.70 C 312.37 200.08 302.39 191.04 291.25 182.75 C 280.12 174.45 269.73 164.89 258.70 156.30 C 247.68 147.70 236.90 139.71 226.25 130.75 C 215.59 121.80 203.87 113.70 193.30 104.70 C 182.73 95.70 170.98 87.46 160.30 78.70 C 149.63 69.94 138.80 61.37 127.92 53.08 C 117.04 44.80 106.47 34.85 95.70 26.30 C 84.93 17.76 72.66 9.90 63.00 0.00
L 0.00 0.00
L 0.00 1200.00
M 217.00 534.00 
C 226.90 534.00 239.09 536.45 249.00 535.00 C 258.91 533.55 270.31 540.83 262.00 550.00
C 266.28 555.03 266.77 561.59 267.00 568.00
C 275.99 569.60 286.89 575.64 287.00 586.00
C 300.62 588.48 328.22 579.08 329.00 599.00
C 337.07 598.52 347.95 597.29 356.00 598.00 C 364.05 598.71 369.94 593.41 376.00 601.00
C 378.08 601.35 381.54 598.46 384.00 601.00
C 384.25 601.26 384.00 602.00 384.00 602.00
C 394.54 605.76 390.21 622.73 378.00 622.00 C 365.79 621.27 351.62 622.06 339.00 622.00 C 326.38 621.94 313.61 621.49 301.00 621.00 C 288.39 620.51 274.64 621.27 262.00 621.00 C 249.36 620.73 236.87 622.08 225.00 619.00
C 216.60 618.69 206.22 621.03 197.00 620.00 C 187.78 618.97 177.14 620.99 168.00 620.00 C 158.86 619.01 146.59 622.47 140.00 618.00
C 134.35 614.17 127.74 605.67 130.26 599.26 C 132.78 592.85 128.43 580.59 140.00 580.00
C 139.65 577.14 140.27 574.61 141.00 572.00
C 134.31 568.60 137.45 560.69 142.00 557.00
C 133.01 553.70 135.72 540.49 143.70 536.70 C 151.68 532.91 166.89 535.77 176.00 534.00
C 189.55 532.69 203.45 532.69 217.00 534.00 Z"/>
</g>
<g fill="#000000" fill-opacity="0.00" stroke="None">
<path d="
M 989.00 1200.00 
L 1303.00 1200.00
C 1311.25 1188.96 1323.94 1183.51 1334.23 1175.23 C 1344.52 1166.95 1352.21 1155.65 1358.77 1143.77 C 1365.33 1131.89 1366.16 1112.77 1377.00 1105.00
C 1377.17 1096.89 1377.64 1088.48 1381.32 1081.32 C 1385.00 1074.16 1378.10 1062.84 1386.00 1059.00
C 1382.46 1057.15 1378.08 1050.62 1375.00 1048.00
C 1380.06 1050.95 1385.48 1054.11 1389.00 1059.00
C 1398.56 1060.38 1405.40 1073.86 1414.25 1078.75 C 1423.10 1083.64 1430.73 1092.60 1439.25 1098.75 C 1447.77 1104.90 1455.97 1112.22 1464.25 1118.75 C 1472.53 1125.29 1480.74 1132.16 1489.23 1138.77 C 1497.72 1145.38 1505.45 1152.39 1514.08 1158.92 C 1522.71 1165.45 1530.22 1172.43 1538.75 1179.25 C 1547.28 1186.06 1556.56 1192.64 1564.00 1200.00
L 1592.00 1200.00
C 1773.46 971.95 1953.28 745.20 2133.00 521.00
L 2133.00 0.00
L 63.00 0.00
C 72.66 9.90 84.93 17.76 95.70 26.30 C 106.47 34.85 117.04 44.80 127.92 53.08 C 138.80 61.37 149.63 69.94 160.30 78.70 C 170.98 87.46 182.73 95.70 193.30 104.70 C 203.87 113.70 215.59 121.80 226.25 130.75 C 236.90 139.71 247.68 147.70 258.70 156.30 C 269.73 164.89 280.12 174.45 291.25 182.75 C 302.39 191.04 312.37 200.08 323.30 208.70 C 334.24 217.31 345.48 225.82 356.25 234.75 C 367.03 243.67 378.40 251.99 389.25 260.75 C 400.09 269.51 410.33 278.10 421.25 286.75 C 432.18 295.40 443.27 304.10 454.25 312.75 C 465.22 321.41 475.38 330.01 486.25 338.75 C 497.13 347.49 508.38 355.62 519.25 364.75 C 530.12 373.87 541.39 381.84 552.25 390.75 C 563.11 399.66 573.45 407.98 584.70 416.30 C 595.95 424.61 605.38 434.53 616.92 443.08 C 628.46 451.63 638.03 459.64 649.92 469.08 C 661.81 478.53 650.28 494.94 646.00 509.00 C 641.72 523.06 638.99 545.61 643.67 560.33 C 648.35 575.04 646.92 593.77 656.75 605.25 C 666.57 616.74 675.91 625.37 682.08 638.92 C 688.24 652.48 699.93 660.48 709.75 670.25 C 719.56 680.03 730.81 687.44 740.75 697.25 C 750.70 707.06 761.89 715.79 773.31 723.70 C 784.72 731.60 795.88 739.30 806.92 748.08 C 817.97 756.85 830.56 763.67 840.25 773.75 C 849.94 783.83 866.14 786.92 875.25 797.75 C 884.36 808.58 891.41 820.94 898.30 832.70 C 905.18 844.46 918.26 852.73 925.25 864.75 C 932.23 876.78 941.38 887.40 954.00 894.00
C 955.80 908.15 957.51 924.93 946.75 933.75 C 935.99 942.58 933.77 951.93 926.77 962.77 C 919.77 973.61 915.89 988.88 919.07 1001.93 C 922.26 1014.97 925.11 1031.68 920.98 1044.98 C 916.84 1058.28 912.33 1069.37 910.00 1083.00 C 907.67 1096.63 915.06 1110.09 921.23 1120.77 C 927.40 1131.45 933.31 1140.92 940.70 1150.30 C 948.08 1159.69 952.83 1170.03 962.25 1177.75 C 971.68 1185.46 983.43 1188.12 989.00 1200.00
M 1230.00 930.00 
C 1231.44 931.12 1233.48 932.72 1235.00 934.00
C 1236.61 935.35 1238.44 936.63 1240.00 938.00
C 1240.87 938.77 1242.11 939.33 1243.00 940.00
C 1246.19 942.41 1248.78 945.74 1252.00 948.00
C 1246.44 955.09 1238.61 969.67 1229.00 960.00
C 1228.14 959.61 1226.95 959.44 1226.00 959.00
C 1224.63 958.37 1223.33 957.70 1222.00 957.00
C 1220.88 956.42 1219.89 955.51 1219.00 955.00
C 1217.35 954.06 1214.83 952.84 1213.00 952.00
C 1203.21 947.53 1191.96 947.08 1185.70 937.30 C 1179.43 927.53 1170.77 924.61 1164.25 915.75 C 1157.73 906.89 1150.60 902.76 1143.25 894.75 C 1135.90 886.74 1128.64 880.65 1124.70 870.31 C 1120.75 859.96 1116.20 848.36 1115.00 837.00
C 1152.67 866.80 1193.38 898.88 1230.00 930.00 Z"/>
</g>
<g fill="#FFFFFF" fill-opacity="0.78" stroke="None">
<path d="
M 1592.00 1200.00 
L 2133.00 1200.00
L 2133.00 521.00
C 1953.28 745.20 1773.46 971.95 1592.00 1200.00 Z"/>
</g>
<g fill="#FFFFFF" fill-opacity="0.22" stroke="None">
<path d="
M 176.00 534.00 
C 189.67 534.00 203.33 534.00 217.00 534.00
C 203.45 532.69 189.55 532.69 176.00 534.00 Z"/>
</g>
<g fill="#000000" fill-opacity="0.00" stroke="None">
<path d="
M 140.00 618.00 
C 153.05 621.91 169.47 615.83 183.00 618.00 C 196.53 620.17 212.18 615.68 225.00 619.00
C 236.87 622.08 249.36 620.73 262.00 621.00 C 274.64 621.27 288.39 620.51 301.00 621.00 C 313.61 621.49 326.38 621.94 339.00 622.00 C 351.62 622.06 365.79 621.27 378.00 622.00 C 390.21 622.73 394.54 605.76 384.00 602.00
C 381.03 602.27 378.29 601.96 376.00 601.00
C 369.94 593.41 364.05 598.71 356.00 598.00 C 347.95 597.29 337.07 598.52 329.00 599.00
C 328.22 579.08 300.62 588.48 287.00 586.00
C 286.89 575.64 275.99 569.60 267.00 568.00
C 266.77 561.59 266.28 555.03 262.00 550.00
C 270.31 540.83 258.91 533.55 249.00 535.00 C 239.09 536.45 226.90 534.00 217.00 534.00
C 203.33 534.00 189.67 534.00 176.00 534.00
C 166.89 535.77 151.68 532.91 143.70 536.70 C 135.72 540.49 133.01 553.70 142.00 557.00
C 137.45 560.69 134.31 568.60 141.00 572.00
C 140.27 574.61 139.65 577.14 140.00 580.00
C 128.43 580.59 132.78 592.85 130.26 599.26 C 127.74 605.67 134.35 614.17 140.00 618.00 Z"/>
</g>
<g fill="#FFFFFF" fill-opacity="0.59" stroke="None">
<path d="
M 376.00 601.00 
C 378.65 601.18 381.36 600.76 384.00 601.00
C 381.54 598.46 378.08 601.35 376.00 601.00 Z"/>
</g>
<g fill="#FFFFFF" fill-opacity="0.01" stroke="None">
<path d="
M 384.00 602.00 
C 384.00 602.00 384.25 601.26 384.00 601.00
C 381.36 600.76 378.65 601.18 376.00 601.00
C 378.29 601.96 381.03 602.27 384.00 602.00 Z"/>
</g>
<g fill="#FFFFFF" fill-opacity="0.35" stroke="None">
<path d="
M 225.00 619.00 
C 212.18 615.68 196.53 620.17 183.00 618.00 C 169.47 615.83 153.05 621.91 140.00 618.00
C 146.59 622.47 158.86 619.01 168.00 620.00 C 177.14 620.99 187.78 618.97 197.00 620.00 C 206.22 621.03 216.60 618.69 225.00 619.00 Z"/>
</g>
<g fill="#FFFFFF" fill-opacity="0.74" stroke="None">
<path d="
M 1213.00 952.00 
C 1217.14 951.13 1218.42 943.32 1221.75 940.75 C 1225.09 938.19 1229.92 933.22 1230.00 930.00
C 1193.38 898.88 1152.67 866.80 1115.00 837.00
C 1116.20 848.36 1120.75 859.96 1124.70 870.31 C 1128.64 880.65 1135.90 886.74 1143.25 894.75 C 1150.60 902.76 1157.73 906.89 1164.25 915.75 C 1170.77 924.61 1179.43 927.53 1185.70 937.30 C 1191.96 947.08 1203.21 947.53 1213.00 952.00 Z"/>
</g>
<g fill="#FFFFFF" fill-opacity="0.62" stroke="None">
<path d="
M 1213.00 952.00 
C 1214.83 952.84 1217.35 954.06 1219.00 955.00
C 1222.04 954.15 1223.46 945.00 1227.25 944.25 C 1231.04 943.50 1234.26 934.14 1235.00 934.00
C 1233.48 932.72 1231.44 931.12 1230.00 930.00
C 1229.92 933.22 1225.09 938.19 1221.75 940.75 C 1218.42 943.32 1217.14 951.13 1213.00 952.00 Z"/>
</g>
<g fill="#FFFFFF" fill-opacity="0.46" stroke="None">
<path d="
M 1219.00 955.00 
C 1219.89 955.51 1220.88 956.42 1222.00 957.00
C 1224.98 956.72 1227.39 947.68 1230.30 946.30 C 1233.22 944.93 1237.13 936.42 1240.00 938.00
C 1238.44 936.63 1236.61 935.35 1235.00 934.00
C 1234.26 934.14 1231.04 943.50 1227.25 944.25 C 1223.46 945.00 1222.04 954.15 1219.00 955.00 Z"/>
</g>
<g fill="#FFFFFF" fill-opacity="0.31" stroke="None">
<path d="
M 1222.00 957.00 
C 1223.33 957.70 1224.63 958.37 1226.00 959.00
C 1230.87 952.72 1235.46 945.87 1242.00 941.00
C 1241.70 939.75 1240.17 939.29 1240.00 938.00
C 1237.13 936.42 1233.22 944.93 1230.30 946.30 C 1227.39 947.68 1224.98 956.72 1222.00 957.00 Z"/>
</g>
<g fill="#FFFFFF" fill-opacity="0.14" stroke="None">
<path d="
M 1226.00 959.00 
C 1226.95 959.44 1228.14 959.61 1229.00 960.00
C 1232.85 959.68 1234.71 952.26 1238.25 950.25 C 1241.78 948.23 1246.27 943.52 1243.00 940.00
C 1242.11 939.33 1240.87 938.77 1240.00 938.00
C 1240.17 939.29 1241.70 939.75 1242.00 941.00
C 1235.46 945.87 1230.87 952.72 1226.00 959.00 Z"/>
</g>
<g fill="#FFFFFF" fill-opacity="0.02" stroke="None">
<path d="
M 1229.00 960.00 
C 1238.61 969.67 1246.44 955.09 1252.00 948.00
C 1248.78 945.74 1246.19 942.41 1243.00 940.00
C 1246.27 943.52 1241.78 948.23 1238.25 950.25 C 1234.71 952.26 1232.85 959.68 1229.00 960.00 Z"/>
</g>
<g fill="#F3F3F3" fill-opacity="0.06" stroke="None">
<path d="
M 1386.00 1059.00 
C 1386.88 1058.90 1388.13 1058.87 1389.00 1059.00
C 1385.48 1054.11 1380.06 1050.95 1375.00 1048.00
C 1378.08 1050.62 1382.46 1057.15 1386.00 1059.00 Z"/>
</g>
<g fill="#FFFFFF" fill-opacity="0.77" stroke="None">
<path d="
M 1303.00 1200.00 
L 1564.00 1200.00
C 1556.56 1192.64 1547.28 1186.06 1538.75 1179.25 C 1530.22 1172.43 1522.71 1165.45 1514.08 1158.92 C 1505.45 1152.39 1497.72 1145.38 1489.23 1138.77 C 1480.74 1132.16 1472.53 1125.29 1464.25 1118.75 C 1455.97 1112.22 1447.77 1104.90 1439.25 1098.75 C 1430.73 1092.60 1423.10 1083.64 1414.25 1078.75 C 1405.40 1073.86 1398.56 1060.38 1389.00 1059.00
C 1388.13 1058.87 1386.88 1058.90 1386.00 1059.00
C 1378.10 1062.84 1385.00 1074.16 1381.32 1081.32 C 1377.64 1088.48 1377.17 1096.89 1377.00 1105.00
C 1366.16 1112.77 1365.33 1131.89 1358.77 1143.77 C 1352.21 1155.65 1344.52 1166.95 1334.23 1175.23 C 1323.94 1183.51 1311.25 1188.96 1303.00 1200.00 Z"/>
</g>
</svg>