<svg xmlns="http://www.w3.org/2000/svg" xmlns:v="https://svgstorm.com"
viewBox = "0 0 2133 1200"
width="2133"
height="1200">
<g fill="None" fill-opacity="0.0" stroke="#000000" stroke-opacity="0.00" stroke-width="0.3"><path d="
M 0.00 1200.00 
L 912.00 1200.00
C 906.85 1191.01 902.32 1181.82 900.67 1171.33 C 899.02 1160.84 896.98 1150.09 888.75 1143.25 C 880.52 1136.40 877.54 1128.74 872.08 1119.92 C 866.62 1111.10 864.11 1100.85 861.67 1090.33 C 859.24 1079.81 859.45 1065.08 860.00 1054.00 C 860.55 1042.92 864.71 1032.80 868.92 1022.92 C 873.14 1013.05 861.46 1004.21 863.00 993.00 C 864.55 981.78 868.13 971.48 872.00 961.00
C 852.99 942.07 838.40 918.40 818.25 898.75 C 798.10 879.10 781.45 858.77 763.25 837.75 C 745.05 816.73 729.03 795.08 710.75 774.25 C 692.46 753.43 675.06 732.31 661.68 707.32 C 648.30 682.34 637.06 642.99 659.00 619.00
C 629.39 580.47 624.97 520.20 650.00 478.00
C 453.46 320.84 250.85 158.85 55.00 0.00
L 0.00 0.00
L 0.00 1200.00 Z"/>
</g>
<g fill="None" fill-opacity="0.0" stroke="#FEFEFE" stroke-opacity="0.96" stroke-width="0.3"><path d="
M 659.00 619.00 
C 669.29 609.48 666.74 632.39 673.75 638.25 C 680.77 644.10 685.92 654.23 693.75 660.25 C 701.58 666.26 707.08 675.17 715.25 680.75 C 723.42 686.33 730.59 694.54 738.75 700.25 C 746.91 705.96 754.63 712.44 762.75 718.25 C 770.86 724.06 778.29 730.62 786.25 736.75 C 794.21 742.88 802.82 749.07 810.75 755.25 C 818.68 761.43 825.76 768.21 833.75 774.25 C 841.75 780.29 849.25 786.63 857.08 792.92 C 864.92 799.21 872.06 806.39 879.25 813.75 C 886.43 821.12 891.59 829.32 897.30 837.70 C 903.02 846.07 907.84 854.81 913.75 863.25 C 919.67 871.68 925.77 879.15 934.25 885.75 C 942.72 892.35 953.90 896.39 965.00 897.00 C 976.11 897.60 989.90 892.29 1000.01 890.01 C 1010.11 887.72 1022.33 875.68 1029.00 886.00
C 1018.90 891.99 1010.67 898.33 1002.25 907.25 C 993.82 916.17 978.44 915.90 967.92 920.92 C 957.41 925.95 946.93 930.62 939.25 940.25 C 931.57 949.88 924.48 960.96 923.67 973.67 C 922.86 986.38 921.05 1004.37 928.32 1015.68 C 935.60 1026.98 925.16 1034.38 920.23 1046.23 C 915.30 1058.07 912.15 1074.74 913.00 1088.00 C 913.85 1101.26 918.20 1113.31 924.77 1124.23 C 931.34 1135.15 937.85 1141.92 949.23 1147.77 C 960.61 1153.62 976.83 1156.91 990.00 1154.00
C 989.63 1170.44 993.29 1186.39 1002.00 1200.00
L 1013.00 1200.00
C 1007.47 1191.03 1001.20 1181.63 1000.67 1170.33 C 1000.14 1159.03 1000.62 1139.96 986.93 1144.93 C 973.24 1149.89 963.23 1143.12 952.31 1138.70 C 941.38 1134.27 937.60 1126.62 931.70 1117.30 C 925.79 1107.99 922.49 1095.58 922.00 1084.00 C 921.52 1072.42 925.27 1059.05 929.77 1048.77 C 934.27 1038.50 939.45 1030.45 945.00 1021.00
C 937.51 1014.32 933.62 1006.37 932.22 995.78 C 930.82 985.19 932.39 971.65 936.32 962.32 C 940.25 953.00 945.56 947.09 952.70 940.70 C 959.83 934.31 968.27 930.22 977.08 927.08 C 985.88 923.93 998.46 924.72 1005.25 917.25 C 1012.03 909.77 1018.32 906.33 1025.25 899.25 C 1032.18 892.16 1043.74 894.08 1048.77 884.77 C 1053.80 875.46 1061.26 886.69 1065.77 894.23 C 1070.28 901.77 1078.62 913.76 1087.00 902.00
C 1091.60 908.34 1098.86 910.57 1104.23 915.77 C 1109.60 920.97 1116.19 924.22 1119.70 931.30 C 1123.22 938.38 1129.92 945.33 1128.00 955.00 C 1126.08 964.67 1129.41 970.02 1136.75 975.25 C 1144.10 980.48 1144.27 989.51 1145.00 998.00 C 1145.73 1006.49 1158.52 1005.79 1165.70 1009.31 C 1172.87 1012.82 1179.67 1015.36 1185.25 1020.75 C 1190.82 1026.15 1194.69 1034.85 1196.93 1041.07 C 1199.16 1047.30 1195.79 1061.56 1203.03 1061.97 C 1210.26 1062.39 1217.14 1061.83 1223.25 1068.75 C 1229.35 1075.68 1234.42 1077.52 1236.92 1087.08 C 1239.43 1096.63 1247.48 1095.16 1253.25 1088.25 C 1259.02 1081.33 1267.02 1079.85 1275.00 1078.00
C 1270.66 1091.14 1284.50 1087.98 1286.78 1077.78 C 1289.06 1067.57 1292.38 1059.19 1293.98 1048.98 C 1295.57 1038.77 1297.02 1027.87 1298.93 1017.93 C 1300.83 1007.98 1311.78 1007.73 1313.98 996.98 C 1316.17 986.22 1309.38 980.44 1306.67 970.33 C 1303.96 960.21 1307.30 945.73 1306.00 935.00
C 1317.42 941.72 1327.45 948.94 1331.92 962.08 C 1336.40 975.21 1344.00 983.02 1355.23 991.77 C 1366.46 1000.52 1363.51 1015.22 1373.25 1026.75 C 1383.00 1038.27 1378.13 1056.29 1376.22 1070.22 C 1374.31 1084.16 1375.26 1101.91 1367.08 1114.08 C 1358.89 1126.24 1360.90 1141.25 1353.08 1153.08 C 1345.26 1164.91 1338.93 1172.57 1327.30 1180.30 C 1315.68 1188.03 1299.48 1187.25 1293.00 1200.00
L 1308.00 1200.00
C 1326.90 1194.48 1338.45 1185.61 1352.75 1170.75 C 1367.06 1155.89 1366.72 1138.16 1375.92 1119.92 C 1385.13 1101.69 1384.62 1081.32 1388.99 1060.99 C 1393.36 1040.67 1380.90 1021.77 1374.07 1003.93 C 1367.25 986.09 1349.20 978.58 1342.70 961.31 C 1336.19 944.03 1322.71 930.70 1306.00 924.00
C 1313.10 889.82 1281.04 872.15 1253.00 871.00 C 1224.96 869.85 1208.10 843.14 1194.00 823.00
C 1199.36 820.11 1204.70 815.04 1206.00 809.00
C 1212.52 809.86 1218.17 807.71 1224.67 809.33 C 1231.17 810.95 1234.76 809.52 1242.00 811.00 C 1249.24 812.48 1247.25 807.29 1241.98 806.03 C 1236.70 804.76 1228.83 803.43 1230.00 802.00
C 1227.14 801.72 1222.95 801.04 1220.00 801.00
C 1211.21 800.87 1204.10 805.30 1195.00 804.00
C 1191.35 797.33 1190.91 786.38 1182.00 785.00
C 1179.10 774.99 1179.24 761.70 1185.75 753.75 C 1192.26 745.80 1197.00 736.80 1207.67 735.67 C 1218.34 734.55 1229.44 727.09 1239.00 733.00
C 1229.41 735.25 1217.34 732.98 1209.00 740.00
C 1208.86 740.57 1210.01 741.31 1210.00 742.00
C 1213.94 743.47 1221.07 738.45 1226.00 739.00 C 1230.93 739.56 1238.89 737.09 1244.00 737.00 C 1249.11 736.91 1259.00 738.91 1263.00 736.00
C 1264.22 735.11 1263.00 733.99 1263.00 734.00
C 1259.95 732.04 1252.82 733.65 1249.00 733.00
C 1246.43 732.56 1243.86 731.43 1241.00 732.00
C 1243.10 729.92 1247.15 731.51 1250.00 731.00
C 1252.67 731.00 1255.33 731.00 1258.00 731.00
C 1254.53 725.77 1245.69 727.88 1239.00 727.00 C 1232.31 726.12 1224.34 728.61 1218.00 730.00
C 1221.70 724.32 1226.93 720.56 1231.25 715.25 C 1235.56 709.94 1239.88 704.71 1244.30 699.30 C 1248.73 693.90 1252.80 689.82 1256.75 683.75 C 1260.71 677.69 1263.36 671.42 1266.32 664.32 C 1269.28 657.23 1270.01 647.27 1270.00 639.00 C 1269.99 630.73 1268.19 622.42 1266.22 614.78 C 1264.25 607.14 1260.98 601.02 1258.23 593.77 C 1255.48 586.52 1254.14 579.80 1251.68 572.32 C 1249.21 564.85 1247.93 556.06 1247.00 548.00 C 1246.08 539.94 1248.78 530.13 1250.98 522.98 C 1253.17 515.82 1256.05 509.88 1259.92 503.92 C 1263.79 497.96 1267.52 492.45 1272.30 487.30 C 1277.09 482.15 1282.79 478.70 1288.08 474.08 C 1293.38 469.47 1298.77 466.82 1304.25 462.25 C 1309.73 457.68 1316.40 456.07 1322.08 451.08 C 1327.75 446.08 1333.52 446.19 1339.23 440.23 C 1344.94 434.26 1352.95 438.76 1357.90 433.90 C 1362.85 429.03 1351.44 420.32 1351.07 413.93 C 1350.70 407.53 1344.88 399.28 1346.01 390.99 C 1347.13 382.70 1340.68 374.61 1343.00 365.00 C 1345.32 355.39 1336.61 353.08 1327.98 353.02 C 1319.35 352.97 1313.75 348.69 1306.31 346.69 C 1298.86 344.70 1293.22 340.26 1287.10 336.90 C 1280.98 333.54 1276.25 329.76 1270.75 325.25 C 1265.25 320.74 1260.24 316.98 1255.25 311.75 C 1250.25 306.52 1246.23 301.23 1242.22 295.78 C 1238.22 290.32 1234.46 285.07 1231.23 278.77 C 1227.99 272.48 1224.63 265.79 1222.02 258.98 C 1219.42 252.16 1216.03 246.37 1214.07 238.93 C 1212.12 231.49 1209.91 223.91 1208.02 215.98 C 1206.14 208.04 1206.24 198.46 1205.00 190.00 C 1203.76 181.54 1203.00 173.09 1203.00 164.00 C 1203.00 154.91 1203.48 144.12 1203.00 135.00 C 1202.52 125.88 1204.02 116.40 1204.99 107.99 C 1205.97 99.59 1206.59 91.44 1208.99 83.99 C 1211.39 76.54 1215.09 71.27 1220.23 66.23 C 1225.37 61.20 1230.25 57.83 1236.25 54.25 C 1242.24 50.66 1247.12 46.39 1253.08 42.08 C 1259.04 37.77 1264.94 35.05 1271.08 31.08 C 1277.21 27.10 1284.69 24.93 1292.02 24.02 C 1299.36 23.12 1306.10 19.07 1311.25 14.25 C 1316.40 9.42 1321.56 5.59 1326.00 0.00
L 1312.00 0.00
C 1299.60 17.39 1272.59 14.17 1257.30 27.30 C 1242.01 40.43 1222.87 47.25 1210.08 62.08 C 1197.30 76.92 1181.10 87.20 1169.75 103.75 C 1158.39 120.29 1152.51 140.29 1140.00 156.00
C 1121.80 104.02 1101.97 52.71 1086.00 0.00
L 1075.00 0.00
C 1077.20 7.65 1079.70 15.40 1081.99 23.01 C 1084.28 30.61 1087.63 37.47 1089.93 45.07 C 1092.23 52.68 1095.46 60.57 1097.92 68.08 C 1100.39 75.58 1103.08 82.71 1105.78 90.22 C 1108.47 97.74 1110.87 105.75 1113.92 113.08 C 1116.98 120.41 1118.64 127.98 1121.78 135.22 C 1124.91 142.47 1126.73 149.89 1129.92 157.08 C 1133.12 164.27 1134.80 172.92 1137.98 180.02 C 1141.15 187.13 1143.19 194.60 1146.32 201.68 C 1149.45 208.75 1151.61 217.31 1154.98 224.02 C 1158.34 230.74 1159.28 239.83 1163.32 245.68 C 1167.36 251.53 1167.20 263.43 1172.00 268.00
C 1187.03 268.09 1185.31 282.89 1181.00 292.00
C 1182.86 300.02 1191.61 310.75 1194.75 321.25 C 1197.90 331.74 1204.25 343.20 1208.31 353.69 C 1212.36 364.19 1218.62 374.74 1222.78 385.22 C 1226.93 395.71 1236.45 404.88 1230.70 415.69 C 1224.94 426.51 1220.27 435.28 1216.07 447.07 C 1211.88 458.87 1209.21 471.13 1207.02 484.02 C 1204.84 496.92 1202.95 510.39 1202.22 524.22 C 1201.49 538.05 1201.97 554.98 1201.00 569.00 C 1200.03 583.03 1201.31 600.36 1200.07 614.07 C 1198.84 627.78 1198.54 642.24 1196.02 655.02 C 1193.51 667.80 1191.10 680.37 1187.07 692.07 C 1183.05 703.78 1179.95 715.14 1174.69 725.69 C 1169.44 736.25 1165.05 745.58 1159.08 755.08 C 1153.11 764.59 1146.98 773.45 1140.08 782.08 C 1133.18 790.71 1126.90 798.53 1119.23 807.23 C 1111.56 815.93 1103.83 821.16 1095.92 828.92 C 1088.00 836.67 1079.26 842.18 1070.77 849.77 C 1062.28 857.36 1053.13 861.30 1043.92 868.92 C 1034.70 876.53 1022.56 870.20 1011.32 875.32 C 1000.09 880.44 988.59 883.37 976.78 886.78 C 964.97 890.19 950.18 885.86 940.77 879.23 C 931.36 872.60 926.15 864.37 919.75 855.25 C 913.35 846.13 908.09 836.36 901.70 827.30 C 895.30 818.25 889.33 809.27 881.25 801.75 C 873.17 794.23 865.61 787.82 857.23 780.77 C 848.86 773.72 840.19 767.27 831.75 760.25 C 823.31 753.22 814.73 746.83 806.25 739.75 C 797.77 732.67 789.21 726.99 780.77 720.23 C 772.32 713.47 763.32 706.96 754.75 700.25 C 746.18 693.54 736.89 686.90 728.92 680.08 C 720.94 673.27 712.64 666.45 705.25 658.75 C 697.86 651.05 689.40 644.03 682.77 635.23 C 676.13 626.44 670.16 617.40 664.23 607.77 C 658.30 598.14 652.38 589.76 648.69 578.31 C 645.01 566.85 644.83 549.56 644.00 537.00 C 643.17 524.44 645.49 509.02 651.77 498.77 C 658.05 488.52 663.03 476.47 653.30 468.70 C 643.58 460.93 636.97 455.09 627.92 448.08 C 618.86 441.08 610.94 434.26 602.30 427.70 C 593.67 421.14 586.13 414.03 577.30 407.70 C 568.47 401.36 560.87 393.00 552.10 386.90 C 543.33 380.80 535.17 372.72 526.70 366.30 C 518.23 359.87 510.04 353.05 501.75 346.25 C 493.47 339.45 484.54 332.70 475.92 326.08 C 467.30 319.47 459.52 311.82 450.75 305.25 C 441.99 298.68 434.51 292.16 425.75 285.25 C 417.00 278.33 409.05 271.76 400.25 264.75 C 391.44 257.75 383.44 251.27 374.75 244.25 C 366.07 237.22 358.23 231.15 349.75 224.25 C 341.28 217.34 332.71 210.58 324.25 203.75 C 315.78 196.93 307.04 190.23 298.75 183.25 C 290.47 176.26 281.87 170.35 273.75 163.25 C 265.63 156.14 255.92 150.05 247.92 143.08 C 239.92 136.12 230.61 129.44 222.30 122.70 C 213.99 115.95 205.99 108.95 197.30 102.70 C 188.62 96.45 180.79 88.04 172.10 81.90 C 163.41 75.76 155.38 67.61 146.75 61.25 C 138.12 54.89 130.34 48.09 121.75 41.25 C 113.16 34.41 104.73 28.22 96.25 20.75 C 87.76 13.28 78.82 8.17 71.00 0.00
L 55.00 0.00
C 250.85 158.85 453.46 320.84 650.00 478.00
C 624.97 520.20 629.39 580.47 659.00 619.00
M 1244.00 730.00 
C 1241.06 729.33 1238.82 731.09 1236.00 731.00
C 1237.06 728.14 1242.34 728.30 1244.00 730.00
M 1291.00 936.00 
C 1282.02 935.93 1272.93 935.17 1265.00 939.00
C 1268.47 926.23 1283.48 928.18 1291.00 936.00
M 1261.00 943.00 
C 1261.88 936.77 1267.54 941.48 1261.00 943.00 Z"/>
</g>
<g fill="None" fill-opacity="0.0" stroke="#000000" stroke-opacity="0.00" stroke-width="0.3"><path d="
M 1181.00 292.00 
C 1175.97 302.62 1164.05 308.80 1153.92 314.92 C 1143.80 321.05 1131.99 327.97 1120.31 332.31 C 1108.62 336.64 1097.80 344.16 1093.08 356.08 C 1088.36 368.00 1076.93 374.10 1065.77 379.77 C 1054.62 385.44 1039.82 387.60 1027.78 391.78 C 1015.74 395.96 997.29 392.82 989.25 404.25 C 981.21 415.68 972.18 418.88 962.10 428.10 C 952.03 437.32 938.20 437.87 928.30 428.70 C 918.41 419.53 910.18 415.57 901.75 405.25 C 893.32 394.93 887.17 386.98 880.08 375.92 C 872.98 364.87 868.04 353.63 864.07 340.93 C 860.11 328.22 873.33 320.48 883.08 313.08 C 892.84 305.68 905.80 296.96 919.00 298.00
C 928.39 282.42 942.99 272.10 957.70 262.70 C 972.40 253.29 989.41 247.06 1001.25 232.25 C 1013.08 217.44 1045.75 215.37 1047.00 239.00
C 1059.55 236.75 1067.36 248.58 1075.00 254.00
C 1083.96 244.03 1091.07 234.42 1101.75 225.75 C 1112.43 217.08 1114.92 201.52 1132.00 201.00 C 1149.08 200.48 1139.92 223.96 1133.75 234.75 C 1127.57 245.53 1120.18 257.78 1112.23 268.23 C 1104.28 278.68 1092.93 289.01 1090.00 302.00
C 1120.50 299.58 1142.66 274.19 1172.00 268.00
C 1167.20 263.43 1167.36 251.53 1163.32 245.68 C 1159.28 239.83 1158.34 230.74 1154.98 224.02 C 1151.61 217.31 1149.45 208.75 1146.32 201.68 C 1143.19 194.60 1141.15 187.13 1137.98 180.02 C 1134.80 172.92 1133.12 164.27 1129.92 157.08 C 1126.73 149.89 1124.91 142.47 1121.78 135.22 C 1118.64 127.98 1116.98 120.41 1113.92 113.08 C 1110.87 105.75 1108.47 97.74 1105.78 90.22 C 1103.08 82.71 1100.39 75.58 1097.92 68.08 C 1095.46 60.57 1092.23 52.68 1089.93 45.07 C 1087.63 37.47 1084.28 30.61 1081.99 23.01 C 1079.70 15.40 1077.20 7.65 1075.00 0.00
L 71.00 0.00
C 78.82 8.17 87.76 13.28 96.25 20.75 C 104.73 28.22 113.16 34.41 121.75 41.25 C 130.34 48.09 138.12 54.89 146.75 61.25 C 155.38 67.61 163.41 75.76 172.10 81.90 C 180.79 88.04 188.62 96.45 197.30 102.70 C 205.99 108.95 213.99 115.95 222.30 122.70 C 230.61 129.44 239.92 136.12 247.92 143.08 C 255.92 150.05 265.63 156.14 273.75 163.25 C 281.87 170.35 290.47 176.26 298.75 183.25 C 307.04 190.23 315.78 196.93 324.25 203.75 C 332.71 210.58 341.28 217.34 349.75 224.25 C 358.23 231.15 366.07 237.22 374.75 244.25 C 383.44 251.27 391.44 257.75 400.25 264.75 C 409.05 271.76 417.00 278.33 425.75 285.25 C 434.51 292.16 441.99 298.68 450.75 305.25 C 459.52 311.82 467.30 319.47 475.92 326.08 C 484.54 332.70 493.47 339.45 501.75 346.25 C 510.04 353.05 518.23 359.87 526.70 366.30 C 535.17 372.72 543.33 380.80 552.10 386.90 C 560.87 393.00 568.47 401.36 577.30 407.70 C 586.13 414.03 593.67 421.14 602.30 427.70 C 610.94 434.26 618.86 441.08 627.92 448.08 C 636.97 455.09 643.58 460.93 653.30 468.70 C 663.03 476.47 658.05 488.52 651.77 498.77 C 645.49 509.02 643.17 524.44 644.00 537.00 C 644.83 549.56 645.01 566.85 648.69 578.31 C 652.38 589.76 658.30 598.14 664.23 607.77 C 670.16 617.40 676.13 626.44 682.77 635.23 C 689.40 644.03 697.86 651.05 705.25 658.75 C 712.64 666.45 720.94 673.27 728.92 680.08 C 736.89 686.90 746.18 693.54 754.75 700.25 C 763.32 706.96 772.32 713.47 780.77 720.23 C 789.21 726.99 797.77 732.67 806.25 739.75 C 814.73 746.83 823.31 753.22 831.75 760.25 C 840.19 767.27 848.86 773.72 857.23 780.77 C 865.61 787.82 873.17 794.23 881.25 801.75 C 889.33 809.27 895.30 818.25 901.70 827.30 C 908.09 836.36 913.35 846.13 919.75 855.25 C 926.15 864.37 931.36 872.60 940.77 879.23 C 950.18 885.86 964.97 890.19 976.78 886.78 C 988.59 883.37 1000.09 880.44 1011.32 875.32 C 1022.56 870.20 1034.70 876.53 1043.92 868.92 C 1053.13 861.30 1062.28 857.36 1070.77 849.77 C 1079.26 842.18 1088.00 836.67 1095.92 828.92 C 1103.83 821.16 1111.56 815.93 1119.23 807.23 C 1126.90 798.53 1133.18 790.71 1140.08 782.08 C 1146.98 773.45 1153.11 764.59 1159.08 755.08 C 1165.05 745.58 1169.44 736.25 1174.69 725.69 C 1179.95 715.14 1183.05 703.78 1187.07 692.07 C 1191.10 680.37 1193.51 667.80 1196.02 655.02 C 1198.54 642.24 1198.84 627.78 1200.07 614.07 C 1201.31 600.36 1200.03 583.03 1201.00 569.00 C 1201.97 554.98 1201.49 538.05 1202.22 524.22 C 1202.95 510.39 1204.84 496.92 1207.02 484.02 C 1209.21 471.13 1211.88 458.87 1216.07 447.07 C 1220.27 435.28 1224.94 426.51 1230.70 415.69 C 1236.45 404.88 1226.93 395.71 1222.78 385.22 C 1218.62 374.74 1212.36 364.19 1208.31 353.69 C 1204.25 343.20 1197.90 331.74 1194.75 321.25 C 1191.61 310.75 1182.86 300.02 1181.00 292.00 Z"/>
</g>
<g fill="None" fill-opacity="0.0" stroke="#000000" stroke-opacity="0.00" stroke-width="0.3"><path d="
M 1312.00 0.00 
L 1086.00 0.00
C 1101.97 52.71 1121.80 104.02 1140.00 156.00
C 1152.51 140.29 1158.39 120.29 1169.75 103.75 C 1181.10 87.20 1197.30 76.92 1210.08 62.08 C 1222.87 47.25 1242.01 40.43 1257.30 27.30 C 1272.59 14.17 1299.60 17.39 1312.00 0.00 Z"/>
</g>
<g fill="None" fill-opacity="0.0" stroke="#000000" stroke-opacity="0.00" stroke-width="0.3"><path d="
M 1250.00 731.00 
C 1249.66 731.16 1249.19 732.94 1249.00 733.00
C 1252.82 733.65 1259.95 732.04 1263.00 734.00
C 1266.03 727.66 1279.14 735.09 1278.00 727.00
C 1282.25 726.70 1286.24 727.40 1290.00 729.00
C 1289.23 733.69 1281.33 728.81 1279.00 732.00
C 1285.98 733.04 1293.20 733.17 1300.00 735.00
C 1297.13 739.51 1287.21 734.94 1287.00 741.00
C 1278.86 739.81 1269.80 740.79 1263.00 736.00
C 1259.00 738.91 1249.11 736.91 1244.00 737.00 C 1238.89 737.09 1230.93 739.56 1226.00 739.00 C 1221.07 738.45 1213.94 743.47 1210.00 742.00
C 1209.90 748.95 1203.41 755.27 1200.23 762.23 C 1197.05 769.19 1207.06 775.05 1205.00 784.00
C 1218.57 784.80 1233.72 782.89 1245.00 790.00
C 1243.09 790.97 1241.10 791.58 1239.00 792.00
C 1237.32 792.56 1236.37 793.15 1235.00 794.00
C 1256.08 791.42 1278.56 799.69 1298.00 790.00
C 1293.11 784.88 1285.45 782.08 1278.00 782.00 C 1270.54 781.93 1258.34 779.85 1251.00 781.00 C 1243.66 782.15 1227.26 780.53 1235.08 775.08 C 1242.90 769.62 1249.68 771.83 1258.00 770.00 C 1266.32 768.18 1274.47 772.98 1282.07 773.93 C 1289.68 774.87 1294.84 778.74 1299.75 784.25 C 1304.66 789.76 1304.48 801.51 1295.00 802.00
C 1297.16 805.11 1307.58 813.86 1301.25 818.25 C 1294.91 822.63 1285.70 818.72 1278.99 818.01 C 1272.29 817.30 1265.50 814.64 1260.00 811.00
C 1266.04 809.30 1275.23 811.43 1282.00 811.00 C 1288.77 810.57 1298.04 808.72 1290.00 802.00
C 1270.20 806.44 1250.13 802.01 1230.00 802.00
C 1228.83 803.43 1236.70 804.76 1241.98 806.03 C 1247.25 807.29 1249.24 812.48 1242.00 811.00 C 1234.76 809.52 1231.17 810.95 1224.67 809.33 C 1218.17 807.71 1212.52 809.86 1206.00 809.00
C 1204.70 815.04 1199.36 820.11 1194.00 823.00
C 1208.10 843.14 1224.96 869.85 1253.00 871.00 C 1281.04 872.15 1313.10 889.82 1306.00 924.00
C 1322.71 930.70 1336.19 944.03 1342.70 961.31 C 1349.20 978.58 1367.25 986.09 1374.07 1003.93 C 1380.90 1021.77 1393.36 1040.67 1388.99 1060.99 C 1384.62 1081.32 1385.13 1101.69 1375.92 1119.92 C 1366.72 1138.16 1367.06 1155.89 1352.75 1170.75 C 1338.45 1185.61 1326.90 1194.48 1308.00 1200.00
L 2133.00 1200.00
L 2133.00 0.00
L 1326.00 0.00
C 1321.56 5.59 1316.40 9.42 1311.25 14.25 C 1306.10 19.07 1299.36 23.12 1292.02 24.02 C 1284.69 24.93 1277.21 27.10 1271.08 31.08 C 1264.94 35.05 1259.04 37.77 1253.08 42.08 C 1247.12 46.39 1242.24 50.66 1236.25 54.25 C 1230.25 57.83 1225.37 61.20 1220.23 66.23 C 1215.09 71.27 1211.39 76.54 1208.99 83.99 C 1206.59 91.44 1205.97 99.59 1204.99 107.99 C 1204.02 116.40 1202.52 125.88 1203.00 135.00 C 1203.48 144.12 1203.00 154.91 1203.00 164.00 C 1203.00 173.09 1203.76 181.54 1205.00 190.00 C 1206.24 198.46 1206.14 208.04 1208.02 215.98 C 1209.91 223.91 1212.12 231.49 1214.07 238.93 C 1216.03 246.37 1219.42 252.16 1222.02 258.98 C 1224.63 265.79 1227.99 272.48 1231.23 278.77 C 1234.46 285.07 1238.22 290.32 1242.22 295.78 C 1246.23 301.23 1250.25 306.52 1255.25 311.75 C 1260.24 316.98 1265.25 320.74 1270.75 325.25 C 1276.25 329.76 1280.98 333.54 1287.10 336.90 C 1293.22 340.26 1298.86 344.70 1306.31 346.69 C 1313.75 348.69 1319.35 352.97 1327.98 353.02 C 1336.61 353.08 1345.32 355.39 1343.00 365.00 C 1340.68 374.61 1347.13 382.70 1346.01 390.99 C 1344.88 399.28 1350.70 407.53 1351.07 413.93 C 1351.44 420.32 1362.85 429.03 1357.90 433.90 C 1352.95 438.76 1344.94 434.26 1339.23 440.23 C 1333.52 446.19 1327.75 446.08 1322.08 451.08 C 1316.40 456.07 1309.73 457.68 1304.25 462.25 C 1298.77 466.82 1293.38 469.47 1288.08 474.08 C 1282.79 478.70 1277.09 482.15 1272.30 487.30 C 1267.52 492.45 1263.79 497.96 1259.92 503.92 C 1256.05 509.88 1253.17 515.82 1250.98 522.98 C 1248.78 530.13 1246.08 539.94 1247.00 548.00 C 1247.93 556.06 1249.21 564.85 1251.68 572.32 C 1254.14 579.80 1255.48 586.52 1258.23 593.77 C 1260.98 601.02 1264.25 607.14 1266.22 614.78 C 1268.19 622.42 1269.99 630.73 1270.00 639.00 C 1270.01 647.27 1269.28 657.23 1266.32 664.32 C 1263.36 671.42 1260.71 677.69 1256.75 683.75 C 1252.80 689.82 1248.73 693.90 1244.30 699.30 C 1239.88 704.71 1235.56 709.94 1231.25 715.25 C 1226.93 720.56 1221.70 724.32 1218.00 730.00
C 1224.34 728.61 1232.31 726.12 1239.00 727.00 C 1245.69 727.88 1254.53 725.77 1258.00 731.00
C 1255.33 731.00 1252.67 731.00 1250.00 731.00
M 1340.00 731.00 
C 1326.47 735.54 1310.13 728.49 1296.00 729.00
C 1309.98 722.92 1325.71 729.95 1340.00 731.00 Z"/>
</g>
<g fill="None" fill-opacity="0.0" stroke="#DDDDDD" stroke-opacity="0.94" stroke-width="0.3"><path d="
M 1181.00 292.00 
C 1185.31 282.89 1187.03 268.09 1172.00 268.00
C 1142.66 274.19 1120.50 299.58 1090.00 302.00
C 1092.93 289.01 1104.28 278.68 1112.23 268.23 C 1120.18 257.78 1127.57 245.53 1133.75 234.75 C 1139.92 223.96 1149.08 200.48 1132.00 201.00 C 1114.92 201.52 1112.43 217.08 1101.75 225.75 C 1091.07 234.42 1083.96 244.03 1075.00 254.00
C 1067.36 248.58 1059.55 236.75 1047.00 239.00
C 1045.75 215.37 1013.08 217.44 1001.25 232.25 C 989.41 247.06 972.40 253.29 957.70 262.70 C 942.99 272.10 928.39 282.42 919.00 298.00
C 905.80 296.96 892.84 305.68 883.08 313.08 C 873.33 320.48 860.11 328.22 864.07 340.93 C 868.04 353.63 872.98 364.87 880.08 375.92 C 887.17 386.98 893.32 394.93 901.75 405.25 C 910.18 415.57 918.41 419.53 928.30 428.70 C 938.20 437.87 952.03 437.32 962.10 428.10 C 972.18 418.88 981.21 415.68 989.25 404.25 C 997.29 392.82 1015.74 395.96 1027.78 391.78 C 1039.82 387.60 1054.62 385.44 1065.77 379.77 C 1076.93 374.10 1088.36 368.00 1093.08 356.08 C 1097.80 344.16 1108.62 336.64 1120.31 332.31 C 1131.99 327.97 1143.80 321.05 1153.92 314.92 C 1164.05 308.80 1175.97 302.62 1181.00 292.00
M 1133.00 211.00 
C 1129.73 222.51 1124.61 233.03 1118.23 243.23 C 1111.85 253.43 1105.51 260.39 1098.70 270.70 C 1091.89 281.00 1081.18 285.35 1081.00 300.00 C 1080.82 314.65 1102.14 311.60 1112.22 306.22 C 1122.31 300.85 1133.23 296.35 1143.23 290.23 C 1153.23 284.11 1165.25 278.42 1177.00 277.00
C 1176.37 285.55 1169.48 291.43 1163.25 297.25 C 1157.02 303.07 1149.31 306.66 1141.92 310.92 C 1134.54 315.19 1126.52 319.11 1118.77 322.77 C 1111.02 326.44 1103.06 330.01 1095.77 334.77 C 1088.49 339.53 1087.86 348.24 1082.25 355.25 C 1076.64 362.25 1071.09 366.70 1062.77 370.77 C 1054.46 374.84 1045.29 376.05 1036.33 379.33 C 1027.37 382.60 1017.36 382.86 1007.98 385.98 C 998.60 389.09 988.13 386.49 978.98 387.98 C 969.82 389.46 958.82 390.97 950.77 386.23 C 942.72 381.49 937.60 376.77 932.25 369.75 C 926.89 362.74 921.85 355.88 919.08 347.92 C 916.30 339.96 909.80 329.44 913.92 321.92 C 918.04 314.40 923.01 307.56 927.77 300.77 C 932.53 293.98 938.17 288.98 944.25 283.25 C 950.33 277.52 958.04 273.40 965.08 269.08 C 972.12 264.76 979.95 260.09 987.23 256.23 C 994.51 252.37 1000.34 246.12 1006.25 240.25 C 1012.16 234.38 1020.64 227.27 1029.67 230.33 C 1038.70 233.39 1040.64 244.53 1029.75 250.75 C 1018.86 256.97 1028.80 267.86 1035.75 257.75 C 1042.70 247.65 1050.20 246.51 1058.75 252.25 C 1067.30 257.98 1066.85 264.95 1057.75 271.75 C 1048.64 278.54 1054.97 288.72 1061.77 279.77 C 1068.57 270.82 1072.22 268.82 1078.75 261.75 C 1085.29 254.68 1089.93 250.52 1096.25 244.25 C 1102.56 237.98 1107.71 232.54 1113.30 226.30 C 1118.89 220.06 1124.89 212.19 1133.00 211.00
M 912.00 308.00 
C 902.95 318.17 902.21 327.62 906.92 339.08 C 911.64 350.54 914.21 361.27 922.25 370.75 C 930.29 380.23 934.48 387.31 945.70 393.31 C 956.91 399.30 971.62 400.20 984.00 396.00
C 974.34 407.59 965.24 414.65 952.77 422.77 C 940.30 430.89 927.55 417.14 917.25 407.75 C 906.94 398.37 898.93 386.62 890.70 375.30 C 882.46 363.98 875.47 348.70 872.00 335.00
C 879.01 329.27 885.06 321.81 893.00 318.00
C 889.32 332.54 896.09 348.25 902.31 360.70 C 908.52 373.14 915.47 362.09 910.25 356.75 C 905.02 351.42 905.67 344.27 902.22 337.78 C 898.78 331.29 904.27 319.47 898.00 314.00
C 902.74 312.13 906.82 308.47 912.00 308.00 Z"/>
</g>
<g fill="None" fill-opacity="0.0" stroke="#FEFEFE" stroke-opacity="1.00" stroke-width="0.3"><path d="
M 1133.00 211.00 
C 1124.89 212.19 1118.89 220.06 1113.30 226.30 C 1107.71 232.54 1102.56 237.98 1096.25 244.25 C 1089.93 250.52 1085.29 254.68 1078.75 261.75 C 1072.22 268.82 1068.57 270.82 1061.77 279.77 C 1054.97 288.72 1048.64 278.54 1057.75 271.75 C 1066.85 264.95 1067.30 257.98 1058.75 252.25 C 1050.20 246.51 1042.70 247.65 1035.75 257.75 C 1028.80 267.86 1018.86 256.97 1029.75 250.75 C 1040.64 244.53 1038.70 233.39 1029.67 230.33 C 1020.64 227.27 1012.16 234.38 1006.25 240.25 C 1000.34 246.12 994.51 252.37 987.23 256.23 C 979.95 260.09 972.12 264.76 965.08 269.08 C 958.04 273.40 950.33 277.52 944.25 283.25 C 938.17 288.98 932.53 293.98 927.77 300.77 C 923.01 307.56 918.04 314.40 913.92 321.92 C 909.80 329.44 916.30 339.96 919.08 347.92 C 921.85 355.88 926.89 362.74 932.25 369.75 C 937.60 376.77 942.72 381.49 950.77 386.23 C 958.82 390.97 969.82 389.46 978.98 387.98 C 988.13 386.49 998.60 389.09 1007.98 385.98 C 1017.36 382.86 1027.37 382.60 1036.33 379.33 C 1045.29 376.05 1054.46 374.84 1062.77 370.77 C 1071.09 366.70 1076.64 362.25 1082.25 355.25 C 1087.86 348.24 1088.49 339.53 1095.77 334.77 C 1103.06 330.01 1111.02 326.44 1118.77 322.77 C 1126.52 319.11 1134.54 315.19 1141.92 310.92 C 1149.31 306.66 1157.02 303.07 1163.25 297.25 C 1169.48 291.43 1176.37 285.55 1177.00 277.00
C 1165.25 278.42 1153.23 284.11 1143.23 290.23 C 1133.23 296.35 1122.31 300.85 1112.22 306.22 C 1102.14 311.60 1080.82 314.65 1081.00 300.00 C 1081.18 285.35 1091.89 281.00 1098.70 270.70 C 1105.51 260.39 1111.85 253.43 1118.23 243.23 C 1124.61 233.03 1129.73 222.51 1133.00 211.00 Z"/>
</g>
<g fill="None" fill-opacity="0.0" stroke="#FEFEFE" stroke-opacity="1.00" stroke-width="0.3"><path d="
M 912.00 308.00 
C 906.82 308.47 902.74 312.13 898.00 314.00
C 904.27 319.47 898.78 331.29 902.22 337.78 C 905.67 344.27 905.02 351.42 910.25 356.75 C 915.47 362.09 908.52 373.14 902.31 360.70 C 896.09 348.25 889.32 332.54 893.00 318.00
C 885.06 321.81 879.01 329.27 872.00 335.00
C 875.47 348.70 882.46 363.98 890.70 375.30 C 898.93 386.62 906.94 398.37 917.25 407.75 C 927.55 417.14 940.30 430.89 952.77 422.77 C 965.24 414.65 974.34 407.59 984.00 396.00
C 971.62 400.20 956.91 399.30 945.70 393.31 C 934.48 387.31 930.29 380.23 922.25 370.75 C 914.21 361.27 911.64 350.54 906.92 339.08 C 902.21 327.62 902.95 318.17 912.00 308.00 Z"/>
</g>
<g fill="None" fill-opacity="0.0" stroke="#E2E2E2" stroke-opacity="0.99" stroke-width="0.3"><path d="
M 659.00 619.00 
C 637.06 642.99 648.30 682.34 661.68 707.32 C 675.06 732.31 692.46 753.43 710.75 774.25 C 729.03 795.08 745.05 816.73 763.25 837.75 C 781.45 858.77 798.10 879.10 818.25 898.75 C 838.40 918.40 852.99 942.07 872.00 961.00
C 868.13 971.48 864.55 981.78 863.00 993.00 C 861.46 1004.21 873.14 1013.05 868.92 1022.92 C 864.71 1032.80 860.55 1042.92 860.00 1054.00 C 859.45 1065.08 859.24 1079.81 861.67 1090.33 C 864.11 1100.85 866.62 1111.10 872.08 1119.92 C 877.54 1128.74 880.52 1136.40 888.75 1143.25 C 896.98 1150.09 899.02 1160.84 900.67 1171.33 C 902.32 1181.82 906.85 1191.01 912.00 1200.00
L 1002.00 1200.00
C 993.29 1186.39 989.63 1170.44 990.00 1154.00
C 976.83 1156.91 960.61 1153.62 949.23 1147.77 C 937.85 1141.92 931.34 1135.15 924.77 1124.23 C 918.20 1113.31 913.85 1101.26 913.00 1088.00 C 912.15 1074.74 915.30 1058.07 920.23 1046.23 C 925.16 1034.38 935.60 1026.98 928.32 1015.68 C 921.05 1004.37 922.86 986.38 923.67 973.67 C 924.48 960.96 931.57 949.88 939.25 940.25 C 946.93 930.62 957.41 925.95 967.92 920.92 C 978.44 915.90 993.82 916.17 1002.25 907.25 C 1010.67 898.33 1018.90 891.99 1029.00 886.00
C 1022.33 875.68 1010.11 887.72 1000.01 890.01 C 989.90 892.29 976.11 897.60 965.00 897.00 C 953.90 896.39 942.72 892.35 934.25 885.75 C 925.77 879.15 919.67 871.68 913.75 863.25 C 907.84 854.81 903.02 846.07 897.30 837.70 C 891.59 829.32 886.43 821.12 879.25 813.75 C 872.06 806.39 864.92 799.21 857.08 792.92 C 849.25 786.63 841.75 780.29 833.75 774.25 C 825.76 768.21 818.68 761.43 810.75 755.25 C 802.82 749.07 794.21 742.88 786.25 736.75 C 778.29 730.62 770.86 724.06 762.75 718.25 C 754.63 712.44 746.91 705.96 738.75 700.25 C 730.59 694.54 723.42 686.33 715.25 680.75 C 707.08 675.17 701.58 666.26 693.75 660.25 C 685.92 654.23 680.77 644.10 673.75 638.25 C 666.74 632.39 669.29 609.48 659.00 619.00 Z"/>
</g>
<g fill="None" fill-opacity="0.0" stroke="#FEFEFE" stroke-opacity="0.72" stroke-width="0.3"><path d="
M 1340.00 731.00 
C 1325.71 729.95 1309.98 722.92 1296.00 729.00
C 1310.13 728.49 1326.47 735.54 1340.00 731.00 Z"/>
</g>
<g fill="None" fill-opacity="0.0" stroke="#FDFDFD" stroke-opacity="0.68" stroke-width="0.3"><path d="
M 1263.00 734.00 
C 1263.00 733.99 1264.22 735.11 1263.00 736.00
C 1269.80 740.79 1278.86 739.81 1287.00 741.00
C 1287.21 734.94 1297.13 739.51 1300.00 735.00
C 1293.20 733.17 1285.98 733.04 1279.00 732.00
C 1281.33 728.81 1289.23 733.69 1290.00 729.00
C 1286.24 727.40 1282.25 726.70 1278.00 727.00
C 1279.14 735.09 1266.03 727.66 1263.00 734.00
M 1290.00 735.00 
C 1283.01 738.05 1275.02 738.75 1267.00 736.00
C 1273.74 731.67 1282.19 736.18 1290.00 735.00 Z"/>
</g>
<g fill="None" fill-opacity="0.0" stroke="#FEFEFE" stroke-opacity="0.49" stroke-width="0.3"><path d="
M 1244.00 730.00 
C 1242.34 728.30 1237.06 728.14 1236.00 731.00
C 1238.82 731.09 1241.06 729.33 1244.00 730.00 Z"/>
</g>
<g fill="None" fill-opacity="0.0" stroke="#000000" stroke-opacity="0.00" stroke-width="0.3"><path d="
M 1220.00 801.00 
C 1219.68 800.11 1220.25 798.91 1220.00 798.00
C 1244.33 797.15 1268.72 800.60 1293.00 797.00
C 1274.83 797.08 1254.07 796.88 1235.00 796.00
C 1233.71 795.76 1232.30 796.19 1231.00 796.00
C 1230.00 793.38 1233.33 792.41 1233.00 790.00
C 1217.11 788.23 1201.39 787.42 1186.00 784.00
C 1187.46 780.49 1186.61 780.14 1183.00 781.00
C 1180.51 773.51 1184.74 761.22 1189.75 755.75 C 1194.77 750.28 1199.80 736.77 1206.00 744.00
C 1205.23 741.65 1207.25 740.73 1209.00 740.00
C 1217.34 732.98 1229.41 735.25 1239.00 733.00
C 1229.44 727.09 1218.34 734.55 1207.67 735.67 C 1197.00 736.80 1192.26 745.80 1185.75 753.75 C 1179.24 761.70 1179.10 774.99 1182.00 785.00
C 1190.91 786.38 1191.35 797.33 1195.00 804.00
C 1204.10 805.30 1211.21 800.87 1220.00 801.00 Z"/>
</g>
<g fill="None" fill-opacity="0.0" stroke="#FFFFFF" stroke-opacity="0.16" stroke-width="0.3"><path d="
M 1249.00 733.00 
C 1249.19 732.94 1249.66 731.16 1250.00 731.00
C 1247.15 731.51 1243.10 729.92 1241.00 732.00
C 1243.86 731.43 1246.43 732.56 1249.00 733.00 Z"/>
</g>
<g fill="None" fill-opacity="0.0" stroke="#000000" stroke-opacity="0.00" stroke-width="0.3"><path d="
M 1290.00 735.00 
C 1282.19 736.18 1273.74 731.67 1267.00 736.00
C 1275.02 738.75 1283.01 738.05 1290.00 735.00 Z"/>
</g>
<g fill="None" fill-opacity="0.0" stroke="#FEFEFE" stroke-opacity="0.75" stroke-width="0.3"><path d="
M 1233.00 790.00 
C 1234.72 790.19 1236.16 790.68 1238.00 790.00 C 1239.84 789.32 1239.67 792.06 1239.00 792.00
C 1241.10 791.58 1243.09 790.97 1245.00 790.00
C 1233.72 782.89 1218.57 784.80 1205.00 784.00
C 1207.06 775.05 1197.05 769.19 1200.23 762.23 C 1203.41 755.27 1209.90 748.95 1210.00 742.00
C 1210.01 741.31 1208.86 740.57 1209.00 740.00
C 1207.25 740.73 1205.23 741.65 1206.00 744.00
C 1199.80 736.77 1194.77 750.28 1189.75 755.75 C 1184.74 761.22 1180.51 773.51 1183.00 781.00
C 1186.61 780.14 1187.46 780.49 1186.00 784.00
C 1201.39 787.42 1217.11 788.23 1233.00 790.00
M 1200.00 749.00 
C 1198.55 758.82 1191.83 768.06 1187.00 776.00
C 1183.91 766.04 1193.34 756.55 1199.00 749.00
C 1198.91 746.62 1199.77 745.75 1202.00 745.00
C 1202.30 746.57 1201.75 748.61 1200.00 749.00
M 1196.00 784.00 
C 1189.48 785.74 1189.66 781.25 1192.00 777.00
C 1195.83 776.84 1194.88 781.63 1196.00 784.00 Z"/>
</g>
<g fill="None" fill-opacity="0.0" stroke="#DADADA" stroke-opacity="0.37" stroke-width="0.3"><path d="
M 1199.00 749.00 
C 1199.33 748.76 1200.00 749.00 1200.00 749.00
C 1201.75 748.61 1202.30 746.57 1202.00 745.00
C 1199.77 745.75 1198.91 746.62 1199.00 749.00 Z"/>
</g>
<g fill="None" fill-opacity="0.0" stroke="#000000" stroke-opacity="0.00" stroke-width="0.3"><path d="
M 1200.00 749.00 
C 1200.00 749.00 1199.33 748.76 1199.00 749.00
C 1193.34 756.55 1183.91 766.04 1187.00 776.00
C 1191.83 768.06 1198.55 758.82 1200.00 749.00 Z"/>
</g>
<g fill="None" fill-opacity="0.0" stroke="#FEFEFE" stroke-opacity="0.77" stroke-width="0.3"><path d="
M 1235.00 794.00 
C 1234.92 794.05 1231.03 794.74 1235.00 796.00
C 1254.07 796.88 1274.83 797.08 1293.00 797.00
C 1268.72 800.60 1244.33 797.15 1220.00 798.00
C 1220.25 798.91 1219.68 800.11 1220.00 801.00
C 1222.95 801.04 1227.14 801.72 1230.00 802.00
C 1250.13 802.01 1270.20 806.44 1290.00 802.00
C 1298.04 808.72 1288.77 810.57 1282.00 811.00 C 1275.23 811.43 1266.04 809.30 1260.00 811.00
C 1265.50 814.64 1272.29 817.30 1278.99 818.01 C 1285.70 818.72 1294.91 822.63 1301.25 818.25 C 1307.58 813.86 1297.16 805.11 1295.00 802.00
C 1304.48 801.51 1304.66 789.76 1299.75 784.25 C 1294.84 778.74 1289.68 774.87 1282.07 773.93 C 1274.47 772.98 1266.32 768.18 1258.00 770.00 C 1249.68 771.83 1242.90 769.62 1235.08 775.08 C 1227.26 780.53 1243.66 782.15 1251.00 781.00 C 1258.34 779.85 1270.54 781.93 1278.00 782.00 C 1285.45 782.08 1293.11 784.88 1298.00 790.00
C 1278.56 799.69 1256.08 791.42 1235.00 794.00
M 1265.00 778.00 
C 1259.45 778.80 1253.58 777.40 1248.00 778.00
C 1253.09 775.73 1260.16 777.62 1266.00 777.00
C 1268.52 777.00 1272.30 776.22 1274.00 778.00
C 1272.04 779.52 1266.89 779.72 1265.00 778.00
M 1284.00 816.00 
C 1280.57 815.77 1277.58 814.66 1274.00 815.00
C 1276.10 812.92 1280.15 814.51 1283.00 814.00
C 1289.08 814.00 1294.00 812.85 1298.00 809.00
C 1306.19 817.51 1289.34 816.23 1284.00 816.00 Z"/>
</g>
<g fill="None" fill-opacity="0.0" stroke="#000000" stroke-opacity="0.00" stroke-width="0.3"><path d="
M 1196.00 784.00 
C 1194.88 781.63 1195.83 776.84 1192.00 777.00
C 1189.66 781.25 1189.48 785.74 1196.00 784.00 Z"/>
</g>
<g fill="None" fill-opacity="0.0" stroke="#000000" stroke-opacity="0.00" stroke-width="0.3"><path d="
M 1265.00 778.00 
C 1265.35 777.95 1265.77 777.05 1266.00 777.00
C 1260.16 777.62 1253.09 775.73 1248.00 778.00
C 1253.58 777.40 1259.45 778.80 1265.00 778.00 Z"/>
</g>
<g fill="None" fill-opacity="0.0" stroke="#FEFEFE" stroke-opacity="0.51" stroke-width="0.3"><path d="
M 1265.00 778.00 
C 1266.89 779.72 1272.04 779.52 1274.00 778.00
C 1272.30 776.22 1268.52 777.00 1266.00 777.00
C 1265.77 777.05 1265.35 777.95 1265.00 778.00 Z"/>
</g>
<g fill="None" fill-opacity="0.0" stroke="#FEFEFE" stroke-opacity="0.53" stroke-width="0.3"><path d="
M 1235.00 796.00 
C 1231.03 794.74 1234.92 794.05 1235.00 794.00
C 1236.37 793.15 1237.32 792.56 1239.00 792.00
C 1239.67 792.06 1239.84 789.32 1238.00 790.00 C 1236.16 790.68 1234.72 790.19 1233.00 790.00
C 1233.33 792.41 1230.00 793.38 1231.00 796.00
C 1232.30 796.19 1233.71 795.76 1235.00 796.00 Z"/>
</g>
<g fill="None" fill-opacity="0.0" stroke="#000000" stroke-opacity="0.00" stroke-width="0.3"><path d="
M 1283.00 814.00 
C 1283.41 814.19 1283.74 815.88 1284.00 816.00
C 1289.34 816.23 1306.19 817.51 1298.00 809.00
C 1294.00 812.85 1289.08 814.00 1283.00 814.00 Z"/>
</g>
<g fill="None" fill-opacity="0.0" stroke="#FFFFFF" stroke-opacity="0.20" stroke-width="0.3"><path d="
M 1284.00 816.00 
C 1283.74 815.88 1283.41 814.19 1283.00 814.00
C 1280.15 814.51 1276.10 812.92 1274.00 815.00
C 1277.58 814.66 1280.57 815.77 1284.00 816.00 Z"/>
</g>
<g fill="None" fill-opacity="0.0" stroke="#000000" stroke-opacity="0.00" stroke-width="0.3"><path d="
M 1013.00 1200.00 
L 1293.00 1200.00
C 1299.48 1187.25 1315.68 1188.03 1327.30 1180.30 C 1338.93 1172.57 1345.26 1164.91 1353.08 1153.08 C 1360.90 1141.25 1358.89 1126.24 1367.08 1114.08 C 1375.26 1101.91 1374.31 1084.16 1376.22 1070.22 C 1378.13 1056.29 1383.00 1038.27 1373.25 1026.75 C 1363.51 1015.22 1366.46 1000.52 1355.23 991.77 C 1344.00 983.02 1336.40 975.21 1331.92 962.08 C 1327.45 948.94 1317.42 941.72 1306.00 935.00
C 1307.30 945.73 1303.96 960.21 1306.67 970.33 C 1309.38 980.44 1316.17 986.22 1313.98 996.98 C 1311.78 1007.73 1300.83 1007.98 1298.93 1017.93 C 1297.02 1027.87 1295.57 1038.77 1293.98 1048.98 C 1292.38 1059.19 1289.06 1067.57 1286.78 1077.78 C 1284.50 1087.98 1270.66 1091.14 1275.00 1078.00
C 1267.02 1079.85 1259.02 1081.33 1253.25 1088.25 C 1247.48 1095.16 1239.43 1096.63 1236.92 1087.08 C 1234.42 1077.52 1229.35 1075.68 1223.25 1068.75 C 1217.14 1061.83 1210.26 1062.39 1203.03 1061.97 C 1195.79 1061.56 1199.16 1047.30 1196.93 1041.07 C 1194.69 1034.85 1190.82 1026.15 1185.25 1020.75 C 1179.67 1015.36 1172.87 1012.82 1165.70 1009.31 C 1158.52 1005.79 1145.73 1006.49 1145.00 998.00 C 1144.27 989.51 1144.10 980.48 1136.75 975.25 C 1129.41 970.02 1126.08 964.67 1128.00 955.00 C 1129.92 945.33 1123.22 938.38 1119.70 931.30 C 1116.19 924.22 1109.60 920.97 1104.23 915.77 C 1098.86 910.57 1091.60 908.34 1087.00 902.00
C 1078.62 913.76 1070.28 901.77 1065.77 894.23 C 1061.26 886.69 1053.80 875.46 1048.77 884.77 C 1043.74 894.08 1032.18 892.16 1025.25 899.25 C 1018.32 906.33 1012.03 909.77 1005.25 917.25 C 998.46 924.72 985.88 923.93 977.08 927.08 C 968.27 930.22 959.83 934.31 952.70 940.70 C 945.56 947.09 940.25 953.00 936.32 962.32 C 932.39 971.65 930.82 985.19 932.22 995.78 C 933.62 1006.37 937.51 1014.32 945.00 1021.00
C 939.45 1030.45 934.27 1038.50 929.77 1048.77 C 925.27 1059.05 921.52 1072.42 922.00 1084.00 C 922.49 1095.58 925.79 1107.99 931.70 1117.30 C 937.60 1126.62 941.38 1134.27 952.31 1138.70 C 963.23 1143.12 973.24 1149.89 986.93 1144.93 C 1000.62 1139.96 1000.14 1159.03 1000.67 1170.33 C 1001.20 1181.63 1007.47 1191.03 1013.00 1200.00 Z"/>
</g>
<g fill="None" fill-opacity="0.0" stroke="#000000" stroke-opacity="0.00" stroke-width="0.3"><path d="
M 1291.00 936.00 
C 1283.48 928.18 1268.47 926.23 1265.00 939.00
C 1272.93 935.17 1282.02 935.93 1291.00 936.00 Z"/>
</g>
<g fill="None" fill-opacity="0.0" stroke="#FEFEFE" stroke-opacity="0.36" stroke-width="0.3"><path d="
M 1261.00 943.00 
C 1267.54 941.48 1261.88 936.77 1261.00 943.00 Z"/>
</g>
<g fill="#000000" fill-opacity="0.00" stroke="None">
<path d="
M 0.00 1200.00 
L 912.00 1200.00
C 906.85 1191.01 902.32 1181.82 900.67 1171.33 C 899.02 1160.84 896.98 1150.09 888.75 1143.25 C 880.52 1136.40 877.54 1128.74 872.08 1119.92 C 866.62 1111.10 864.11 1100.85 861.67 1090.33 C 859.24 1079.81 859.45 1065.08 860.00 1054.00 C 860.55 1042.92 864.71 1032.80 868.92 1022.92 C 873.14 1013.05 861.46 1004.21 863.00 993.00 C 864.55 981.78 868.13 971.48 872.00 961.00
C 852.99 942.07 838.40 918.40 818.25 898.75 C 798.10 879.10 781.45 858.77 763.25 837.75 C 745.05 816.73 729.03 795.08 710.75 774.25 C 692.46 753.43 675.06 732.31 661.68 707.32 C 648.30 682.34 637.06 642.99 659.00 619.00
C 629.39 580.47 624.97 520.20 650.00 478.00
C 453.46 320.84 250.85 158.85 55.00 0.00
L 0.00 0.00
L 0.00 1200.00 Z"/>
</g>
<g fill="#FEFEFE" fill-opacity="0.96" stroke="None">
<path d="
M 659.00 619.00 
C 669.29 609.48 666.74 632.39 673.75 638.25 C 680.77 644.10 685.92 654.23 693.75 660.25 C 701.58 666.26 707.08 675.17 715.25 680.75 C 723.42 686.33 730.59 694.54 738.75 700.25 C 746.91 705.96 754.63 712.44 762.75 718.25 C 770.86 724.06 778.29 730.62 786.25 736.75 C 794.21 742.88 802.82 749.07 810.75 755.25 C 818.68 761.43 825.76 768.21 833.75 774.25 C 841.75 780.29 849.25 786.63 857.08 792.92 C 864.92 799.21 872.06 806.39 879.25 813.75 C 886.43 821.12 891.59 829.32 897.30 837.70 C 903.02 846.07 907.84 854.81 913.75 863.25 C 919.67 871.68 925.77 879.15 934.25 885.75 C 942.72 892.35 953.90 896.39 965.00 897.00 C 976.11 897.60 989.90 892.29 1000.01 890.01 C 1010.11 887.72 1022.33 875.68 1029.00 886.00
C 1018.90 891.99 1010.67 898.33 1002.25 907.25 C 993.82 916.17 978.44 915.90 967.92 920.92 C 957.41 925.95 946.93 930.62 939.25 940.25 C 931.57 949.88 924.48 960.96 923.67 973.67 C 922.86 986.38 921.05 1004.37 928.32 1015.68 C 935.60 1026.98 925.16 1034.38 920.23 1046.23 C 915.30 1058.07 912.15 1074.74 913.00 1088.00 C 913.85 1101.26 918.20 1113.31 924.77 1124.23 C 931.34 1135.15 937.85 1141.92 949.23 1147.77 C 960.61 1153.62 976.83 1156.91 990.00 1154.00
C 989.63 1170.44 993.29 1186.39 1002.00 1200.00
L 1013.00 1200.00
C 1007.47 1191.03 1001.20 1181.63 1000.67 1170.33 C 1000.14 1159.03 1000.62 1139.96 986.93 1144.93 C 973.24 1149.89 963.23 1143.12 952.31 1138.70 C 941.38 1134.27 937.60 1126.62 931.70 1117.30 C 925.79 1107.99 922.49 1095.58 922.00 1084.00 C 921.52 1072.42 925.27 1059.05 929.77 1048.77 C 934.27 1038.50 939.45 1030.45 945.00 1021.00
C 937.51 1014.32 933.62 1006.37 932.22 995.78 C 930.82 985.19 932.39 971.65 936.32 962.32 C 940.25 953.00 945.56 947.09 952.70 940.70 C 959.83 934.31 968.27 930.22 977.08 927.08 C 985.88 923.93 998.46 924.72 1005.25 917.25 C 1012.03 909.77 1018.32 906.33 1025.25 899.25 C 1032.18 892.16 1043.74 894.08 1048.77 884.77 C 1053.80 875.46 1061.26 886.69 1065.77 894.23 C 1070.28 901.77 1078.62 913.76 1087.00 902.00
C 1091.60 908.34 1098.86 910.57 1104.23 915.77 C 1109.60 920.97 1116.19 924.22 1119.70 931.30 C 1123.22 938.38 1129.92 945.33 1128.00 955.00 C 1126.08 964.67 1129.41 970.02 1136.75 975.25 C 1144.10 980.48 1144.27 989.51 1145.00 998.00 C 1145.73 1006.49 1158.52 1005.79 1165.70 1009.31 C 1172.87 1012.82 1179.67 1015.36 1185.25 1020.75 C 1190.82 1026.15 1194.69 1034.85 1196.93 1041.07 C 1199.16 1047.30 1195.79 1061.56 1203.03 1061.97 C 1210.26 1062.39 1217.14 1061.83 1223.25 1068.75 C 1229.35 1075.68 1234.42 1077.52 1236.92 1087.08 C 1239.43 1096.63 1247.48 1095.16 1253.25 1088.25 C 1259.02 1081.33 1267.02 1079.85 1275.00 1078.00
C 1270.66 1091.14 1284.50 1087.98 1286.78 1077.78 C 1289.06 1067.57 1292.38 1059.19 1293.98 1048.98 C 1295.57 1038.77 1297.02 1027.87 1298.93 1017.93 C 1300.83 1007.98 1311.78 1007.73 1313.98 996.98 C 1316.17 986.22 1309.38 980.44 1306.67 970.33 C 1303.96 960.21 1307.30 945.73 1306.00 935.00
C 1317.42 941.72 1327.45 948.94 1331.92 962.08 C 1336.40 975.21 1344.00 983.02 1355.23 991.77 C 1366.46 1000.52 1363.51 1015.22 1373.25 1026.75 C 1383.00 1038.27 1378.13 1056.29 1376.22 1070.22 C 1374.31 1084.16 1375.26 1101.91 1367.08 1114.08 C 1358.89 1126.24 1360.90 1141.25 1353.08 1153.08 C 1345.26 1164.91 1338.93 1172.57 1327.30 1180.30 C 1315.68 1188.03 1299.48 1187.25 1293.00 1200.00
L 1308.00 1200.00
C 1326.90 1194.48 1338.45 1185.61 1352.75 1170.75 C 1367.06 1155.89 1366.72 1138.16 1375.92 1119.92 C 1385.13 1101.69 1384.62 1081.32 1388.99 1060.99 C 1393.36 1040.67 1380.90 1021.77 1374.07 1003.93 C 1367.25 986.09 1349.20 978.58 1342.70 961.31 C 1336.19 944.03 1322.71 930.70 1306.00 924.00
C 1313.10 889.82 1281.04 872.15 1253.00 871.00 C 1224.96 869.85 1208.10 843.14 1194.00 823.00
C 1199.36 820.11 1204.70 815.04 1206.00 809.00
C 1212.52 809.86 1218.17 807.71 1224.67 809.33 C 1231.17 810.95 1234.76 809.52 1242.00 811.00 C 1249.24 812.48 1247.25 807.29 1241.98 806.03 C 1236.70 804.76 1228.83 803.43 1230.00 802.00
C 1227.14 801.72 1222.95 801.04 1220.00 801.00
C 1211.21 800.87 1204.10 805.30 1195.00 804.00
C 1191.35 797.33 1190.91 786.38 1182.00 785.00
C 1179.10 774.99 1179.24 761.70 1185.75 753.75 C 1192.26 745.80 1197.00 736.80 1207.67 735.67 C 1218.34 734.55 1229.44 727.09 1239.00 733.00
C 1229.41 735.25 1217.34 732.98 1209.00 740.00
C 1208.86 740.57 1210.01 741.31 1210.00 742.00
C 1213.94 743.47 1221.07 738.45 1226.00 739.00 C 1230.93 739.56 1238.89 737.09 1244.00 737.00 C 1249.11 736.91 1259.00 738.91 1263.00 736.00
C 1264.22 735.11 1263.00 733.99 1263.00 734.00
C 1259.95 732.04 1252.82 733.65 1249.00 733.00
C 1246.43 732.56 1243.86 731.43 1241.00 732.00
C 1243.10 729.92 1247.15 731.51 1250.00 731.00
C 1252.67 731.00 1255.33 731.00 1258.00 731.00
C 1254.53 725.77 1245.69 727.88 1239.00 727.00 C 1232.31 726.12 1224.34 728.61 1218.00 730.00
C 1221.70 724.32 1226.93 720.56 1231.25 715.25 C 1235.56 709.94 1239.88 704.71 1244.30 699.30 C 1248.73 693.90 1252.80 689.82 1256.75 683.75 C 1260.71 677.69 1263.36 671.42 1266.32 664.32 C 1269.28 657.23 1270.01 647.27 1270.00 639.00 C 1269.99 630.73 1268.19 622.42 1266.22 614.78 C 1264.25 607.14 1260.98 601.02 1258.23 593.77 C 1255.48 586.52 1254.14 579.80 1251.68 572.32 C 1249.21 564.85 1247.93 556.06 1247.00 548.00 C 1246.08 539.94 1248.78 530.13 1250.98 522.98 C 1253.17 515.82 1256.05 509.88 1259.92 503.92 C 1263.79 497.96 1267.52 492.45 1272.30 487.30 C 1277.09 482.15 1282.79 478.70 1288.08 474.08 C 1293.38 469.47 1298.77 466.82 1304.25 462.25 C 1309.73 457.68 1316.40 456.07 1322.08 451.08 C 1327.75 446.08 1333.52 446.19 1339.23 440.23 C 1344.94 434.26 1352.95 438.76 1357.90 433.90 C 1362.85 429.03 1351.44 420.32 1351.07 413.93 C 1350.70 407.53 1344.88 399.28 1346.01 390.99 C 1347.13 382.70 1340.68 374.61 1343.00 365.00 C 1345.32 355.39 1336.61 353.08 1327.98 353.02 C 1319.35 352.97 1313.75 348.69 1306.31 346.69 C 1298.86 344.70 1293.22 340.26 1287.10 336.90 C 1280.98 333.54 1276.25 329.76 1270.75 325.25 C 1265.25 320.74 1260.24 316.98 1255.25 311.75 C 1250.25 306.52 1246.23 301.23 1242.22 295.78 C 1238.22 290.32 1234.46 285.07 1231.23 278.77 C 1227.99 272.48 1224.63 265.79 1222.02 258.98 C 1219.42 252.16 1216.03 246.37 1214.07 238.93 C 1212.12 231.49 1209.91 223.91 1208.02 215.98 C 1206.14 208.04 1206.24 198.46 1205.00 190.00 C 1203.76 181.54 1203.00 173.09 1203.00 164.00 C 1203.00 154.91 1203.48 144.12 1203.00 135.00 C 1202.52 125.88 1204.02 116.40 1204.99 107.99 C 1205.97 99.59 1206.59 91.44 1208.99 83.99 C 1211.39 76.54 1215.09 71.27 1220.23 66.23 C 1225.37 61.20 1230.25 57.83 1236.25 54.25 C 1242.24 50.66 1247.12 46.39 1253.08 42.08 C 1259.04 37.77 1264.94 35.05 1271.08 31.08 C 1277.21 27.10 1284.69 24.93 1292.02 24.02 C 1299.36 23.12 1306.10 19.07 1311.25 14.25 C 1316.40 9.42 1321.56 5.59 1326.00 0.00
L 1312.00 0.00
C 1299.60 17.39 1272.59 14.17 1257.30 27.30 C 1242.01 40.43 1222.87 47.25 1210.08 62.08 C 1197.30 76.92 1181.10 87.20 1169.75 103.75 C 1158.39 120.29 1152.51 140.29 1140.00 156.00
C 1121.80 104.02 1101.97 52.71 1086.00 0.00
L 1075.00 0.00
C 1077.20 7.65 1079.70 15.40 1081.99 23.01 C 1084.28 30.61 1087.63 37.47 1089.93 45.07 C 1092.23 52.68 1095.46 60.57 1097.92 68.08 C 1100.39 75.58 1103.08 82.71 1105.78 90.22 C 1108.47 97.74 1110.87 105.75 1113.92 113.08 C 1116.98 120.41 1118.64 127.98 1121.78 135.22 C 1124.91 142.47 1126.73 149.89 1129.92 157.08 C 1133.12 164.27 1134.80 172.92 1137.98 180.02 C 1141.15 187.13 1143.19 194.60 1146.32 201.68 C 1149.45 208.75 1151.61 217.31 1154.98 224.02 C 1158.34 230.74 1159.28 239.83 1163.32 245.68 C 1167.36 251.53 1167.20 263.43 1172.00 268.00
C 1187.03 268.09 1185.31 282.89 1181.00 292.00
C 1182.86 300.02 1191.61 310.75 1194.75 321.25 C 1197.90 331.74 1204.25 343.20 1208.31 353.69 C 1212.36 364.19 1218.62 374.74 1222.78 385.22 C 1226.93 395.71 1236.45 404.88 1230.70 415.69 C 1224.94 426.51 1220.27 435.28 1216.07 447.07 C 1211.88 458.87 1209.21 471.13 1207.02 484.02 C 1204.84 496.92 1202.95 510.39 1202.22 524.22 C 1201.49 538.05 1201.97 554.98 1201.00 569.00 C 1200.03 583.03 1201.31 600.36 1200.07 614.07 C 1198.84 627.78 1198.54 642.24 1196.02 655.02 C 1193.51 667.80 1191.10 680.37 1187.07 692.07 C 1183.05 703.78 1179.95 715.14 1174.69 725.69 C 1169.44 736.25 1165.05 745.58 1159.08 755.08 C 1153.11 764.59 1146.98 773.45 1140.08 782.08 C 1133.18 790.71 1126.90 798.53 1119.23 807.23 C 1111.56 815.93 1103.83 821.16 1095.92 828.92 C 1088.00 836.67 1079.26 842.18 1070.77 849.77 C 1062.28 857.36 1053.13 861.30 1043.92 868.92 C 1034.70 876.53 1022.56 870.20 1011.32 875.32 C 1000.09 880.44 988.59 883.37 976.78 886.78 C 964.97 890.19 950.18 885.86 940.77 879.23 C 931.36 872.60 926.15 864.37 919.75 855.25 C 913.35 846.13 908.09 836.36 901.70 827.30 C 895.30 818.25 889.33 809.27 881.25 801.75 C 873.17 794.23 865.61 787.82 857.23 780.77 C 848.86 773.72 840.19 767.27 831.75 760.25 C 823.31 753.22 814.73 746.83 806.25 739.75 C 797.77 732.67 789.21 726.99 780.77 720.23 C 772.32 713.47 763.32 706.96 754.75 700.25 C 746.18 693.54 736.89 686.90 728.92 680.08 C 720.94 673.27 712.64 666.45 705.25 658.75 C 697.86 651.05 689.40 644.03 682.77 635.23 C 676.13 626.44 670.16 617.40 664.23 607.77 C 658.30 598.14 652.38 589.76 648.69 578.31 C 645.01 566.85 644.83 549.56 644.00 537.00 C 643.17 524.44 645.49 509.02 651.77 498.77 C 658.05 488.52 663.03 476.47 653.30 468.70 C 643.58 460.93 636.97 455.09 627.92 448.08 C 618.86 441.08 610.94 434.26 602.30 427.70 C 593.67 421.14 586.13 414.03 577.30 407.70 C 568.47 401.36 560.87 393.00 552.10 386.90 C 543.33 380.80 535.17 372.72 526.70 366.30 C 518.23 359.87 510.04 353.05 501.75 346.25 C 493.47 339.45 484.54 332.70 475.92 326.08 C 467.30 319.47 459.52 311.82 450.75 305.25 C 441.99 298.68 434.51 292.16 425.75 285.25 C 417.00 278.33 409.05 271.76 400.25 264.75 C 391.44 257.75 383.44 251.27 374.75 244.25 C 366.07 237.22 358.23 231.15 349.75 224.25 C 341.28 217.34 332.71 210.58 324.25 203.75 C 315.78 196.93 307.04 190.23 298.75 183.25 C 290.47 176.26 281.87 170.35 273.75 163.25 C 265.63 156.14 255.92 150.05 247.92 143.08 C 239.92 136.12 230.61 129.44 222.30 122.70 C 213.99 115.95 205.99 108.95 197.30 102.70 C 188.62 96.45 180.79 88.04 172.10 81.90 C 163.41 75.76 155.38 67.61 146.75 61.25 C 138.12 54.89 130.34 48.09 121.75 41.25 C 113.16 34.41 104.73 28.22 96.25 20.75 C 87.76 13.28 78.82 8.17 71.00 0.00
L 55.00 0.00
C 250.85 158.85 453.46 320.84 650.00 478.00
C 624.97 520.20 629.39 580.47 659.00 619.00
M 1244.00 730.00 
C 1241.06 729.33 1238.82 731.09 1236.00 731.00
C 1237.06 728.14 1242.34 728.30 1244.00 730.00
M 1291.00 936.00 
C 1282.02 935.93 1272.93 935.17 1265.00 939.00
C 1268.47 926.23 1283.48 928.18 1291.00 936.00
M 1261.00 943.00 
C 1261.88 936.77 1267.54 941.48 1261.00 943.00 Z"/>
</g>
<g fill="#000000" fill-opacity="0.00" stroke="None">
<path d="
M 1181.00 292.00 
C 1175.97 302.62 1164.05 308.80 1153.92 314.92 C 1143.80 321.05 1131.99 327.97 1120.31 332.31 C 1108.62 336.64 1097.80 344.16 1093.08 356.08 C 1088.36 368.00 1076.93 374.10 1065.77 379.77 C 1054.62 385.44 1039.82 387.60 1027.78 391.78 C 1015.74 395.96 997.29 392.82 989.25 404.25 C 981.21 415.68 972.18 418.88 962.10 428.10 C 952.03 437.32 938.20 437.87 928.30 428.70 C 918.41 419.53 910.18 415.57 901.75 405.25 C 893.32 394.93 887.17 386.98 880.08 375.92 C 872.98 364.87 868.04 353.63 864.07 340.93 C 860.11 328.22 873.33 320.48 883.08 313.08 C 892.84 305.68 905.80 296.96 919.00 298.00
C 928.39 282.42 942.99 272.10 957.70 262.70 C 972.40 253.29 989.41 247.06 1001.25 232.25 C 1013.08 217.44 1045.75 215.37 1047.00 239.00
C 1059.55 236.75 1067.36 248.58 1075.00 254.00
C 1083.96 244.03 1091.07 234.42 1101.75 225.75 C 1112.43 217.08 1114.92 201.52 1132.00 201.00 C 1149.08 200.48 1139.92 223.96 1133.75 234.75 C 1127.57 245.53 1120.18 257.78 1112.23 268.23 C 1104.28 278.68 1092.93 289.01 1090.00 302.00
C 1120.50 299.58 1142.66 274.19 1172.00 268.00
C 1167.20 263.43 1167.36 251.53 1163.32 245.68 C 1159.28 239.83 1158.34 230.74 1154.98 224.02 C 1151.61 217.31 1149.45 208.75 1146.32 201.68 C 1143.19 194.60 1141.15 187.13 1137.98 180.02 C 1134.80 172.92 1133.12 164.27 1129.92 157.08 C 1126.73 149.89 1124.91 142.47 1121.78 135.22 C 1118.64 127.98 1116.98 120.41 1113.92 113.08 C 1110.87 105.75 1108.47 97.74 1105.78 90.22 C 1103.08 82.71 1100.39 75.58 1097.92 68.08 C 1095.46 60.57 1092.23 52.68 1089.93 45.07 C 1087.63 37.47 1084.28 30.61 1081.99 23.01 C 1079.70 15.40 1077.20 7.65 1075.00 0.00
L 71.00 0.00
C 78.82 8.17 87.76 13.28 96.25 20.75 C 104.73 28.22 113.16 34.41 121.75 41.25 C 130.34 48.09 138.12 54.89 146.75 61.25 C 155.38 67.61 163.41 75.76 172.10 81.90 C 180.79 88.04 188.62 96.45 197.30 102.70 C 205.99 108.95 213.99 115.95 222.30 122.70 C 230.61 129.44 239.92 136.12 247.92 143.08 C 255.92 150.05 265.63 156.14 273.75 163.25 C 281.87 170.35 290.47 176.26 298.75 183.25 C 307.04 190.23 315.78 196.93 324.25 203.75 C 332.71 210.58 341.28 217.34 349.75 224.25 C 358.23 231.15 366.07 237.22 374.75 244.25 C 383.44 251.27 391.44 257.75 400.25 264.75 C 409.05 271.76 417.00 278.33 425.75 285.25 C 434.51 292.16 441.99 298.68 450.75 305.25 C 459.52 311.82 467.30 319.47 475.92 326.08 C 484.54 332.70 493.47 339.45 501.75 346.25 C 510.04 353.05 518.23 359.87 526.70 366.30 C 535.17 372.72 543.33 380.80 552.10 386.90 C 560.87 393.00 568.47 401.36 577.30 407.70 C 586.13 414.03 593.67 421.14 602.30 427.70 C 610.94 434.26 618.86 441.08 627.92 448.08 C 636.97 455.09 643.58 460.93 653.30 468.70 C 663.03 476.47 658.05 488.52 651.77 498.77 C 645.49 509.02 643.17 524.44 644.00 537.00 C 644.83 549.56 645.01 566.85 648.69 578.31 C 652.38 589.76 658.30 598.14 664.23 607.77 C 670.16 617.40 676.13 626.44 682.77 635.23 C 689.40 644.03 697.86 651.05 705.25 658.75 C 712.64 666.45 720.94 673.27 728.92 680.08 C 736.89 686.90 746.18 693.54 754.75 700.25 C 763.32 706.96 772.32 713.47 780.77 720.23 C 789.21 726.99 797.77 732.67 806.25 739.75 C 814.73 746.83 823.31 753.22 831.75 760.25 C 840.19 767.27 848.86 773.72 857.23 780.77 C 865.61 787.82 873.17 794.23 881.25 801.75 C 889.33 809.27 895.30 818.25 901.70 827.30 C 908.09 836.36 913.35 846.13 919.75 855.25 C 926.15 864.37 931.36 872.60 940.77 879.23 C 950.18 885.86 964.97 890.19 976.78 886.78 C 988.59 883.37 1000.09 880.44 1011.32 875.32 C 1022.56 870.20 1034.70 876.53 1043.92 868.92 C 1053.13 861.30 1062.28 857.36 1070.77 849.77 C 1079.26 842.18 1088.00 836.67 1095.92 828.92 C 1103.83 821.16 1111.56 815.93 1119.23 807.23 C 1126.90 798.53 1133.18 790.71 1140.08 782.08 C 1146.98 773.45 1153.11 764.59 1159.08 755.08 C 1165.05 745.58 1169.44 736.25 1174.69 725.69 C 1179.95 715.14 1183.05 703.78 1187.07 692.07 C 1191.10 680.37 1193.51 667.80 1196.02 655.02 C 1198.54 642.24 1198.84 627.78 1200.07 614.07 C 1201.31 600.36 1200.03 583.03 1201.00 569.00 C 1201.97 554.98 1201.49 538.05 1202.22 524.22 C 1202.95 510.39 1204.84 496.92 1207.02 484.02 C 1209.21 471.13 1211.88 458.87 1216.07 447.07 C 1220.27 435.28 1224.94 426.51 1230.70 415.69 C 1236.45 404.88 1226.93 395.71 1222.78 385.22 C 1218.62 374.74 1212.36 364.19 1208.31 353.69 C 1204.25 343.20 1197.90 331.74 1194.75 321.25 C 1191.61 310.75 1182.86 300.02 1181.00 292.00 Z"/>
</g>
<g fill="#000000" fill-opacity="0.00" stroke="None">
<path d="
M 1312.00 0.00 
L 1086.00 0.00
C 1101.97 52.71 1121.80 104.02 1140.00 156.00
C 1152.51 140.29 1158.39 120.29 1169.75 103.75 C 1181.10 87.20 1197.30 76.92 1210.08 62.08 C 1222.87 47.25 1242.01 40.43 1257.30 27.30 C 1272.59 14.17 1299.60 17.39 1312.00 0.00 Z"/>
</g>
<g fill="#000000" fill-opacity="0.00" stroke="None">
<path d="
M 1250.00 731.00 
C 1249.66 731.16 1249.19 732.94 1249.00 733.00
C 1252.82 733.65 1259.95 732.04 1263.00 734.00
C 1266.03 727.66 1279.14 735.09 1278.00 727.00
C 1282.25 726.70 1286.24 727.40 1290.00 729.00
C 1289.23 733.69 1281.33 728.81 1279.00 732.00
C 1285.98 733.04 1293.20 733.17 1300.00 735.00
C 1297.13 739.51 1287.21 734.94 1287.00 741.00
C 1278.86 739.81 1269.80 740.79 1263.00 736.00
C 1259.00 738.91 1249.11 736.91 1244.00 737.00 C 1238.89 737.09 1230.93 739.56 1226.00 739.00 C 1221.07 738.45 1213.94 743.47 1210.00 742.00
C 1209.90 748.95 1203.41 755.27 1200.23 762.23 C 1197.05 769.19 1207.06 775.05 1205.00 784.00
C 1218.57 784.80 1233.72 782.89 1245.00 790.00
C 1243.09 790.97 1241.10 791.58 1239.00 792.00
C 1237.32 792.56 1236.37 793.15 1235.00 794.00
C 1256.08 791.42 1278.56 799.69 1298.00 790.00
C 1293.11 784.88 1285.45 782.08 1278.00 782.00 C 1270.54 781.93 1258.34 779.85 1251.00 781.00 C 1243.66 782.15 1227.26 780.53 1235.08 775.08 C 1242.90 769.62 1249.68 771.83 1258.00 770.00 C 1266.32 768.18 1274.47 772.98 1282.07 773.93 C 1289.68 774.87 1294.84 778.74 1299.75 784.25 C 1304.66 789.76 1304.48 801.51 1295.00 802.00
C 1297.16 805.11 1307.58 813.86 1301.25 818.25 C 1294.91 822.63 1285.70 818.72 1278.99 818.01 C 1272.29 817.30 1265.50 814.64 1260.00 811.00
C 1266.04 809.30 1275.23 811.43 1282.00 811.00 C 1288.77 810.57 1298.04 808.72 1290.00 802.00
C 1270.20 806.44 1250.13 802.01 1230.00 802.00
C 1228.83 803.43 1236.70 804.76 1241.98 806.03 C 1247.25 807.29 1249.24 812.48 1242.00 811.00 C 1234.76 809.52 1231.17 810.95 1224.67 809.33 C 1218.17 807.71 1212.52 809.86 1206.00 809.00
C 1204.70 815.04 1199.36 820.11 1194.00 823.00
C 1208.10 843.14 1224.96 869.85 1253.00 871.00 C 1281.04 872.15 1313.10 889.82 1306.00 924.00
C 1322.71 930.70 1336.19 944.03 1342.70 961.31 C 1349.20 978.58 1367.25 986.09 1374.07 1003.93 C 1380.90 1021.77 1393.36 1040.67 1388.99 1060.99 C 1384.62 1081.32 1385.13 1101.69 1375.92 1119.92 C 1366.72 1138.16 1367.06 1155.89 1352.75 1170.75 C 1338.45 1185.61 1326.90 1194.48 1308.00 1200.00
L 2133.00 1200.00
L 2133.00 0.00
L 1326.00 0.00
C 1321.56 5.59 1316.40 9.42 1311.25 14.25 C 1306.10 19.07 1299.36 23.12 1292.02 24.02 C 1284.69 24.93 1277.21 27.10 1271.08 31.08 C 1264.94 35.05 1259.04 37.77 1253.08 42.08 C 1247.12 46.39 1242.24 50.66 1236.25 54.25 C 1230.25 57.83 1225.37 61.20 1220.23 66.23 C 1215.09 71.27 1211.39 76.54 1208.99 83.99 C 1206.59 91.44 1205.97 99.59 1204.99 107.99 C 1204.02 116.40 1202.52 125.88 1203.00 135.00 C 1203.48 144.12 1203.00 154.91 1203.00 164.00 C 1203.00 173.09 1203.76 181.54 1205.00 190.00 C 1206.24 198.46 1206.14 208.04 1208.02 215.98 C 1209.91 223.91 1212.12 231.49 1214.07 238.93 C 1216.03 246.37 1219.42 252.16 1222.02 258.98 C 1224.63 265.79 1227.99 272.48 1231.23 278.77 C 1234.46 285.07 1238.22 290.32 1242.22 295.78 C 1246.23 301.23 1250.25 306.52 1255.25 311.75 C 1260.24 316.98 1265.25 320.74 1270.75 325.25 C 1276.25 329.76 1280.98 333.54 1287.10 336.90 C 1293.22 340.26 1298.86 344.70 1306.31 346.69 C 1313.75 348.69 1319.35 352.97 1327.98 353.02 C 1336.61 353.08 1345.32 355.39 1343.00 365.00 C 1340.68 374.61 1347.13 382.70 1346.01 390.99 C 1344.88 399.28 1350.70 407.53 1351.07 413.93 C 1351.44 420.32 1362.85 429.03 1357.90 433.90 C 1352.95 438.76 1344.94 434.26 1339.23 440.23 C 1333.52 446.19 1327.75 446.08 1322.08 451.08 C 1316.40 456.07 1309.73 457.68 1304.25 462.25 C 1298.77 466.82 1293.38 469.47 1288.08 474.08 C 1282.79 478.70 1277.09 482.15 1272.30 487.30 C 1267.52 492.45 1263.79 497.96 1259.92 503.92 C 1256.05 509.88 1253.17 515.82 1250.98 522.98 C 1248.78 530.13 1246.08 539.94 1247.00 548.00 C 1247.93 556.06 1249.21 564.85 1251.68 572.32 C 1254.14 579.80 1255.48 586.52 1258.23 593.77 C 1260.98 601.02 1264.25 607.14 1266.22 614.78 C 1268.19 622.42 1269.99 630.73 1270.00 639.00 C 1270.01 647.27 1269.28 657.23 1266.32 664.32 C 1263.36 671.42 1260.71 677.69 1256.75 683.75 C 1252.80 689.82 1248.73 693.90 1244.30 699.30 C 1239.88 704.71 1235.56 709.94 1231.25 715.25 C 1226.93 720.56 1221.70 724.32 1218.00 730.00
C 1224.34 728.61 1232.31 726.12 1239.00 727.00 C 1245.69 727.88 1254.53 725.77 1258.00 731.00
C 1255.33 731.00 1252.67 731.00 1250.00 731.00
M 1340.00 731.00 
C 1326.47 735.54 1310.13 728.49 1296.00 729.00
C 1309.98 722.92 1325.71 729.95 1340.00 731.00 Z"/>
</g>
<g fill="#DDDDDD" fill-opacity="0.94" stroke="None">
<path d="
M 1181.00 292.00 
C 1185.31 282.89 1187.03 268.09 1172.00 268.00
C 1142.66 274.19 1120.50 299.58 1090.00 302.00
C 1092.93 289.01 1104.28 278.68 1112.23 268.23 C 1120.18 257.78 1127.57 245.53 1133.75 234.75 C 1139.92 223.96 1149.08 200.48 1132.00 201.00 C 1114.92 201.52 1112.43 217.08 1101.75 225.75 C 1091.07 234.42 1083.96 244.03 1075.00 254.00
C 1067.36 248.58 1059.55 236.75 1047.00 239.00
C 1045.75 215.37 1013.08 217.44 1001.25 232.25 C 989.41 247.06 972.40 253.29 957.70 262.70 C 942.99 272.10 928.39 282.42 919.00 298.00
C 905.80 296.96 892.84 305.68 883.08 313.08 C 873.33 320.48 860.11 328.22 864.07 340.93 C 868.04 353.63 872.98 364.87 880.08 375.92 C 887.17 386.98 893.32 394.93 901.75 405.25 C 910.18 415.57 918.41 419.53 928.30 428.70 C 938.20 437.87 952.03 437.32 962.10 428.10 C 972.18 418.88 981.21 415.68 989.25 404.25 C 997.29 392.82 1015.74 395.96 1027.78 391.78 C 1039.82 387.60 1054.62 385.44 1065.77 379.77 C 1076.93 374.10 1088.36 368.00 1093.08 356.08 C 1097.80 344.16 1108.62 336.64 1120.31 332.31 C 1131.99 327.97 1143.80 321.05 1153.92 314.92 C 1164.05 308.80 1175.97 302.62 1181.00 292.00
M 1133.00 211.00 
C 1129.73 222.51 1124.61 233.03 1118.23 243.23 C 1111.85 253.43 1105.51 260.39 1098.70 270.70 C 1091.89 281.00 1081.18 285.35 1081.00 300.00 C 1080.82 314.65 1102.14 311.60 1112.22 306.22 C 1122.31 300.85 1133.23 296.35 1143.23 290.23 C 1153.23 284.11 1165.25 278.42 1177.00 277.00
C 1176.37 285.55 1169.48 291.43 1163.25 297.25 C 1157.02 303.07 1149.31 306.66 1141.92 310.92 C 1134.54 315.19 1126.52 319.11 1118.77 322.77 C 1111.02 326.44 1103.06 330.01 1095.77 334.77 C 1088.49 339.53 1087.86 348.24 1082.25 355.25 C 1076.64 362.25 1071.09 366.70 1062.77 370.77 C 1054.46 374.84 1045.29 376.05 1036.33 379.33 C 1027.37 382.60 1017.36 382.86 1007.98 385.98 C 998.60 389.09 988.13 386.49 978.98 387.98 C 969.82 389.46 958.82 390.97 950.77 386.23 C 942.72 381.49 937.60 376.77 932.25 369.75 C 926.89 362.74 921.85 355.88 919.08 347.92 C 916.30 339.96 909.80 329.44 913.92 321.92 C 918.04 314.40 923.01 307.56 927.77 300.77 C 932.53 293.98 938.17 288.98 944.25 283.25 C 950.33 277.52 958.04 273.40 965.08 269.08 C 972.12 264.76 979.95 260.09 987.23 256.23 C 994.51 252.37 1000.34 246.12 1006.25 240.25 C 1012.16 234.38 1020.64 227.27 1029.67 230.33 C 1038.70 233.39 1040.64 244.53 1029.75 250.75 C 1018.86 256.97 1028.80 267.86 1035.75 257.75 C 1042.70 247.65 1050.20 246.51 1058.75 252.25 C 1067.30 257.98 1066.85 264.95 1057.75 271.75 C 1048.64 278.54 1054.97 288.72 1061.77 279.77 C 1068.57 270.82 1072.22 268.82 1078.75 261.75 C 1085.29 254.68 1089.93 250.52 1096.25 244.25 C 1102.56 237.98 1107.71 232.54 1113.30 226.30 C 1118.89 220.06 1124.89 212.19 1133.00 211.00
M 912.00 308.00 
C 902.95 318.17 902.21 327.62 906.92 339.08 C 911.64 350.54 914.21 361.27 922.25 370.75 C 930.29 380.23 934.48 387.31 945.70 393.31 C 956.91 399.30 971.62 400.20 984.00 396.00
C 974.34 407.59 965.24 414.65 952.77 422.77 C 940.30 430.89 927.55 417.14 917.25 407.75 C 906.94 398.37 898.93 386.62 890.70 375.30 C 882.46 363.98 875.47 348.70 872.00 335.00
C 879.01 329.27 885.06 321.81 893.00 318.00
C 889.32 332.54 896.09 348.25 902.31 360.70 C 908.52 373.14 915.47 362.09 910.25 356.75 C 905.02 351.42 905.67 344.27 902.22 337.78 C 898.78 331.29 904.27 319.47 898.00 314.00
C 902.74 312.13 906.82 308.47 912.00 308.00 Z"/>
</g>
<g fill="#FEFEFE" fill-opacity="1.00" stroke="None">
<path d="
M 1133.00 211.00 
C 1124.89 212.19 1118.89 220.06 1113.30 226.30 C 1107.71 232.54 1102.56 237.98 1096.25 244.25 C 1089.93 250.52 1085.29 254.68 1078.75 261.75 C 1072.22 268.82 1068.57 270.82 1061.77 279.77 C 1054.97 288.72 1048.64 278.54 1057.75 271.75 C 1066.85 264.95 1067.30 257.98 1058.75 252.25 C 1050.20 246.51 1042.70 247.65 1035.75 257.75 C 1028.80 267.86 1018.86 256.97 1029.75 250.75 C 1040.64 244.53 1038.70 233.39 1029.67 230.33 C 1020.64 227.27 1012.16 234.38 1006.25 240.25 C 1000.34 246.12 994.51 252.37 987.23 256.23 C 979.95 260.09 972.12 264.76 965.08 269.08 C 958.04 273.40 950.33 277.52 944.25 283.25 C 938.17 288.98 932.53 293.98 927.77 300.77 C 923.01 307.56 918.04 314.40 913.92 321.92 C 909.80 329.44 916.30 339.96 919.08 347.92 C 921.85 355.88 926.89 362.74 932.25 369.75 C 937.60 376.77 942.72 381.49 950.77 386.23 C 958.82 390.97 969.82 389.46 978.98 387.98 C 988.13 386.49 998.60 389.09 1007.98 385.98 C 1017.36 382.86 1027.37 382.60 1036.33 379.33 C 1045.29 376.05 1054.46 374.84 1062.77 370.77 C 1071.09 366.70 1076.64 362.25 1082.25 355.25 C 1087.86 348.24 1088.49 339.53 1095.77 334.77 C 1103.06 330.01 1111.02 326.44 1118.77 322.77 C 1126.52 319.11 1134.54 315.19 1141.92 310.92 C 1149.31 306.66 1157.02 303.07 1163.25 297.25 C 1169.48 291.43 1176.37 285.55 1177.00 277.00
C 1165.25 278.42 1153.23 284.11 1143.23 290.23 C 1133.23 296.35 1122.31 300.85 1112.22 306.22 C 1102.14 311.60 1080.82 314.65 1081.00 300.00 C 1081.18 285.35 1091.89 281.00 1098.70 270.70 C 1105.51 260.39 1111.85 253.43 1118.23 243.23 C 1124.61 233.03 1129.73 222.51 1133.00 211.00 Z"/>
</g>
<g fill="#FEFEFE" fill-opacity="1.00" stroke="None">
<path d="
M 912.00 308.00 
C 906.82 308.47 902.74 312.13 898.00 314.00
C 904.27 319.47 898.78 331.29 902.22 337.78 C 905.67 344.27 905.02 351.42 910.25 356.75 C 915.47 362.09 908.52 373.14 902.31 360.70 C 896.09 348.25 889.32 332.54 893.00 318.00
C 885.06 321.81 879.01 329.27 872.00 335.00
C 875.47 348.70 882.46 363.98 890.70 375.30 C 898.93 386.62 906.94 398.37 917.25 407.75 C 927.55 417.14 940.30 430.89 952.77 422.77 C 965.24 414.65 974.34 407.59 984.00 396.00
C 971.62 400.20 956.91 399.30 945.70 393.31 C 934.48 387.31 930.29 380.23 922.25 370.75 C 914.21 361.27 911.64 350.54 906.92 339.08 C 902.21 327.62 902.95 318.17 912.00 308.00 Z"/>
</g>
<g fill="#E2E2E2" fill-opacity="0.99" stroke="None">
<path d="
M 659.00 619.00 
C 637.06 642.99 648.30 682.34 661.68 707.32 C 675.06 732.31 692.46 753.43 710.75 774.25 C 729.03 795.08 745.05 816.73 763.25 837.75 C 781.45 858.77 798.10 879.10 818.25 898.75 C 838.40 918.40 852.99 942.07 872.00 961.00
C 868.13 971.48 864.55 981.78 863.00 993.00 C 861.46 1004.21 873.14 1013.05 868.92 1022.92 C 864.71 1032.80 860.55 1042.92 860.00 1054.00 C 859.45 1065.08 859.24 1079.81 861.67 1090.33 C 864.11 1100.85 866.62 1111.10 872.08 1119.92 C 877.54 1128.74 880.52 1136.40 888.75 1143.25 C 896.98 1150.09 899.02 1160.84 900.67 1171.33 C 902.32 1181.82 906.85 1191.01 912.00 1200.00
L 1002.00 1200.00
C 993.29 1186.39 989.63 1170.44 990.00 1154.00
C 976.83 1156.91 960.61 1153.62 949.23 1147.77 C 937.85 1141.92 931.34 1135.15 924.77 1124.23 C 918.20 1113.31 913.85 1101.26 913.00 1088.00 C 912.15 1074.74 915.30 1058.07 920.23 1046.23 C 925.16 1034.38 935.60 1026.98 928.32 1015.68 C 921.05 1004.37 922.86 986.38 923.67 973.67 C 924.48 960.96 931.57 949.88 939.25 940.25 C 946.93 930.62 957.41 925.95 967.92 920.92 C 978.44 915.90 993.82 916.17 1002.25 907.25 C 1010.67 898.33 1018.90 891.99 1029.00 886.00
C 1022.33 875.68 1010.11 887.72 1000.01 890.01 C 989.90 892.29 976.11 897.60 965.00 897.00 C 953.90 896.39 942.72 892.35 934.25 885.75 C 925.77 879.15 919.67 871.68 913.75 863.25 C 907.84 854.81 903.02 846.07 897.30 837.70 C 891.59 829.32 886.43 821.12 879.25 813.75 C 872.06 806.39 864.92 799.21 857.08 792.92 C 849.25 786.63 841.75 780.29 833.75 774.25 C 825.76 768.21 818.68 761.43 810.75 755.25 C 802.82 749.07 794.21 742.88 786.25 736.75 C 778.29 730.62 770.86 724.06 762.75 718.25 C 754.63 712.44 746.91 705.96 738.75 700.25 C 730.59 694.54 723.42 686.33 715.25 680.75 C 707.08 675.17 701.58 666.26 693.75 660.25 C 685.92 654.23 680.77 644.10 673.75 638.25 C 666.74 632.39 669.29 609.48 659.00 619.00 Z"/>
</g>
<g fill="#FEFEFE" fill-opacity="0.72" stroke="None">
<path d="
M 1340.00 731.00 
C 1325.71 729.95 1309.98 722.92 1296.00 729.00
C 1310.13 728.49 1326.47 735.54 1340.00 731.00 Z"/>
</g>
<g fill="#FDFDFD" fill-opacity="0.68" stroke="None">
<path d="
M 1263.00 734.00 
C 1263.00 733.99 1264.22 735.11 1263.00 736.00
C 1269.80 740.79 1278.86 739.81 1287.00 741.00
C 1287.21 734.94 1297.13 739.51 1300.00 735.00
C 1293.20 733.17 1285.98 733.04 1279.00 732.00
C 1281.33 728.81 1289.23 733.69 1290.00 729.00
C 1286.24 727.40 1282.25 726.70 1278.00 727.00
C 1279.14 735.09 1266.03 727.66 1263.00 734.00
M 1290.00 735.00 
C 1283.01 738.05 1275.02 738.75 1267.00 736.00
C 1273.74 731.67 1282.19 736.18 1290.00 735.00 Z"/>
</g>
<g fill="#FEFEFE" fill-opacity="0.49" stroke="None">
<path d="
M 1244.00 730.00 
C 1242.34 728.30 1237.06 728.14 1236.00 731.00
C 1238.82 731.09 1241.06 729.33 1244.00 730.00 Z"/>
</g>
<g fill="#000000" fill-opacity="0.00" stroke="None">
<path d="
M 1220.00 801.00 
C 1219.68 800.11 1220.25 798.91 1220.00 798.00
C 1244.33 797.15 1268.72 800.60 1293.00 797.00
C 1274.83 797.08 1254.07 796.88 1235.00 796.00
C 1233.71 795.76 1232.30 796.19 1231.00 796.00
C 1230.00 793.38 1233.33 792.41 1233.00 790.00
C 1217.11 788.23 1201.39 787.42 1186.00 784.00
C 1187.46 780.49 1186.61 780.14 1183.00 781.00
C 1180.51 773.51 1184.74 761.22 1189.75 755.75 C 1194.77 750.28 1199.80 736.77 1206.00 744.00
C 1205.23 741.65 1207.25 740.73 1209.00 740.00
C 1217.34 732.98 1229.41 735.25 1239.00 733.00
C 1229.44 727.09 1218.34 734.55 1207.67 735.67 C 1197.00 736.80 1192.26 745.80 1185.75 753.75 C 1179.24 761.70 1179.10 774.99 1182.00 785.00
C 1190.91 786.38 1191.35 797.33 1195.00 804.00
C 1204.10 805.30 1211.21 800.87 1220.00 801.00 Z"/>
</g>
<g fill="#FFFFFF" fill-opacity="0.16" stroke="None">
<path d="
M 1249.00 733.00 
C 1249.19 732.94 1249.66 731.16 1250.00 731.00
C 1247.15 731.51 1243.10 729.92 1241.00 732.00
C 1243.86 731.43 1246.43 732.56 1249.00 733.00 Z"/>
</g>
<g fill="#000000" fill-opacity="0.00" stroke="None">
<path d="
M 1290.00 735.00 
C 1282.19 736.18 1273.74 731.67 1267.00 736.00
C 1275.02 738.75 1283.01 738.05 1290.00 735.00 Z"/>
</g>
<g fill="#FEFEFE" fill-opacity="0.75" stroke="None">
<path d="
M 1233.00 790.00 
C 1234.72 790.19 1236.16 790.68 1238.00 790.00 C 1239.84 789.32 1239.67 792.06 1239.00 792.00
C 1241.10 791.58 1243.09 790.97 1245.00 790.00
C 1233.72 782.89 1218.57 784.80 1205.00 784.00
C 1207.06 775.05 1197.05 769.19 1200.23 762.23 C 1203.41 755.27 1209.90 748.95 1210.00 742.00
C 1210.01 741.31 1208.86 740.57 1209.00 740.00
C 1207.25 740.73 1205.23 741.65 1206.00 744.00
C 1199.80 736.77 1194.77 750.28 1189.75 755.75 C 1184.74 761.22 1180.51 773.51 1183.00 781.00
C 1186.61 780.14 1187.46 780.49 1186.00 784.00
C 1201.39 787.42 1217.11 788.23 1233.00 790.00
M 1200.00 749.00 
C 1198.55 758.82 1191.83 768.06 1187.00 776.00
C 1183.91 766.04 1193.34 756.55 1199.00 749.00
C 1198.91 746.62 1199.77 745.75 1202.00 745.00
C 1202.30 746.57 1201.75 748.61 1200.00 749.00
M 1196.00 784.00 
C 1189.48 785.74 1189.66 781.25 1192.00 777.00
C 1195.83 776.84 1194.88 781.63 1196.00 784.00 Z"/>
</g>
<g fill="#DADADA" fill-opacity="0.37" stroke="None">
<path d="
M 1199.00 749.00 
C 1199.33 748.76 1200.00 749.00 1200.00 749.00
C 1201.75 748.61 1202.30 746.57 1202.00 745.00
C 1199.77 745.75 1198.91 746.62 1199.00 749.00 Z"/>
</g>
<g fill="#000000" fill-opacity="0.00" stroke="None">
<path d="
M 1200.00 749.00 
C 1200.00 749.00 1199.33 748.76 1199.00 749.00
C 1193.34 756.55 1183.91 766.04 1187.00 776.00
C 1191.83 768.06 1198.55 758.82 1200.00 749.00 Z"/>
</g>
<g fill="#FEFEFE" fill-opacity="0.77" stroke="None">
<path d="
M 1235.00 794.00 
C 1234.92 794.05 1231.03 794.74 1235.00 796.00
C 1254.07 796.88 1274.83 797.08 1293.00 797.00
C 1268.72 800.60 1244.33 797.15 1220.00 798.00
C 1220.25 798.91 1219.68 800.11 1220.00 801.00
C 1222.95 801.04 1227.14 801.72 1230.00 802.00
C 1250.13 802.01 1270.20 806.44 1290.00 802.00
C 1298.04 808.72 1288.77 810.57 1282.00 811.00 C 1275.23 811.43 1266.04 809.30 1260.00 811.00
C 1265.50 814.64 1272.29 817.30 1278.99 818.01 C 1285.70 818.72 1294.91 822.63 1301.25 818.25 C 1307.58 813.86 1297.16 805.11 1295.00 802.00
C 1304.48 801.51 1304.66 789.76 1299.75 784.25 C 1294.84 778.74 1289.68 774.87 1282.07 773.93 C 1274.47 772.98 1266.32 768.18 1258.00 770.00 C 1249.68 771.83 1242.90 769.62 1235.08 775.08 C 1227.26 780.53 1243.66 782.15 1251.00 781.00 C 1258.34 779.85 1270.54 781.93 1278.00 782.00 C 1285.45 782.08 1293.11 784.88 1298.00 790.00
C 1278.56 799.69 1256.08 791.42 1235.00 794.00
M 1265.00 778.00 
C 1259.45 778.80 1253.58 777.40 1248.00 778.00
C 1253.09 775.73 1260.16 777.62 1266.00 777.00
C 1268.52 777.00 1272.30 776.22 1274.00 778.00
C 1272.04 779.52 1266.89 779.72 1265.00 778.00
M 1284.00 816.00 
C 1280.57 815.77 1277.58 814.66 1274.00 815.00
C 1276.10 812.92 1280.15 814.51 1283.00 814.00
C 1289.08 814.00 1294.00 812.85 1298.00 809.00
C 1306.19 817.51 1289.34 816.23 1284.00 816.00 Z"/>
</g>
<g fill="#000000" fill-opacity="0.00" stroke="None">
<path d="
M 1196.00 784.00 
C 1194.88 781.63 1195.83 776.84 1192.00 777.00
C 1189.66 781.25 1189.48 785.74 1196.00 784.00 Z"/>
</g>
<g fill="#000000" fill-opacity="0.00" stroke="None">
<path d="
M 1265.00 778.00 
C 1265.35 777.95 1265.77 777.05 1266.00 777.00
C 1260.16 777.62 1253.09 775.73 1248.00 778.00
C 1253.58 777.40 1259.45 778.80 1265.00 778.00 Z"/>
</g>
<g fill="#FEFEFE" fill-opacity="0.51" stroke="None">
<path d="
M 1265.00 778.00 
C 1266.89 779.72 1272.04 779.52 1274.00 778.00
C 1272.30 776.22 1268.52 777.00 1266.00 777.00
C 1265.77 777.05 1265.35 777.95 1265.00 778.00 Z"/>
</g>
<g fill="#FEFEFE" fill-opacity="0.53" stroke="None">
<path d="
M 1235.00 796.00 
C 1231.03 794.74 1234.92 794.05 1235.00 794.00
C 1236.37 793.15 1237.32 792.56 1239.00 792.00
C 1239.67 792.06 1239.84 789.32 1238.00 790.00 C 1236.16 790.68 1234.72 790.19 1233.00 790.00
C 1233.33 792.41 1230.00 793.38 1231.00 796.00
C 1232.30 796.19 1233.71 795.76 1235.00 796.00 Z"/>
</g>
<g fill="#000000" fill-opacity="0.00" stroke="None">
<path d="
M 1283.00 814.00 
C 1283.41 814.19 1283.74 815.88 1284.00 816.00
C 1289.34 816.23 1306.19 817.51 1298.00 809.00
C 1294.00 812.85 1289.08 814.00 1283.00 814.00 Z"/>
</g>
<g fill="#FFFFFF" fill-opacity="0.20" stroke="None">
<path d="
M 1284.00 816.00 
C 1283.74 815.88 1283.41 814.19 1283.00 814.00
C 1280.15 814.51 1276.10 812.92 1274.00 815.00
C 1277.58 814.66 1280.57 815.77 1284.00 816.00 Z"/>
</g>
<g fill="#000000" fill-opacity="0.00" stroke="None">
<path d="
M 1013.00 1200.00 
L 1293.00 1200.00
C 1299.48 1187.25 1315.68 1188.03 1327.30 1180.30 C 1338.93 1172.57 1345.26 1164.91 1353.08 1153.08 C 1360.90 1141.25 1358.89 1126.24 1367.08 1114.08 C 1375.26 1101.91 1374.31 1084.16 1376.22 1070.22 C 1378.13 1056.29 1383.00 1038.27 1373.25 1026.75 C 1363.51 1015.22 1366.46 1000.52 1355.23 991.77 C 1344.00 983.02 1336.40 975.21 1331.92 962.08 C 1327.45 948.94 1317.42 941.72 1306.00 935.00
C 1307.30 945.73 1303.96 960.21 1306.67 970.33 C 1309.38 980.44 1316.17 986.22 1313.98 996.98 C 1311.78 1007.73 1300.83 1007.98 1298.93 1017.93 C 1297.02 1027.87 1295.57 1038.77 1293.98 1048.98 C 1292.38 1059.19 1289.06 1067.57 1286.78 1077.78 C 1284.50 1087.98 1270.66 1091.14 1275.00 1078.00
C 1267.02 1079.85 1259.02 1081.33 1253.25 1088.25 C 1247.48 1095.16 1239.43 1096.63 1236.92 1087.08 C 1234.42 1077.52 1229.35 1075.68 1223.25 1068.75 C 1217.14 1061.83 1210.26 1062.39 1203.03 1061.97 C 1195.79 1061.56 1199.16 1047.30 1196.93 1041.07 C 1194.69 1034.85 1190.82 1026.15 1185.25 1020.75 C 1179.67 1015.36 1172.87 1012.82 1165.70 1009.31 C 1158.52 1005.79 1145.73 1006.49 1145.00 998.00 C 1144.27 989.51 1144.10 980.48 1136.75 975.25 C 1129.41 970.02 1126.08 964.67 1128.00 955.00 C 1129.92 945.33 1123.22 938.38 1119.70 931.30 C 1116.19 924.22 1109.60 920.97 1104.23 915.77 C 1098.86 910.57 1091.60 908.34 1087.00 902.00
C 1078.62 913.76 1070.28 901.77 1065.77 894.23 C 1061.26 886.69 1053.80 875.46 1048.77 884.77 C 1043.74 894.08 1032.18 892.16 1025.25 899.25 C 1018.32 906.33 1012.03 909.77 1005.25 917.25 C 998.46 924.72 985.88 923.93 977.08 927.08 C 968.27 930.22 959.83 934.31 952.70 940.70 C 945.56 947.09 940.25 953.00 936.32 962.32 C 932.39 971.65 930.82 985.19 932.22 995.78 C 933.62 1006.37 937.51 1014.32 945.00 1021.00
C 939.45 1030.45 934.27 1038.50 929.77 1048.77 C 925.27 1059.05 921.52 1072.42 922.00 1084.00 C 922.49 1095.58 925.79 1107.99 931.70 1117.30 C 937.60 1126.62 941.38 1134.27 952.31 1138.70 C 963.23 1143.12 973.24 1149.89 986.93 1144.93 C 1000.62 1139.96 1000.14 1159.03 1000.67 1170.33 C 1001.20 1181.63 1007.47 1191.03 1013.00 1200.00 Z"/>
</g>
<g fill="#000000" fill-opacity="0.00" stroke="None">
<path d="
M 1291.00 936.00 
C 1283.48 928.18 1268.47 926.23 1265.00 939.00
C 1272.93 935.17 1282.02 935.93 1291.00 936.00 Z"/>
</g>
<g fill="#FEFEFE" fill-opacity="0.36" stroke="None">
<path d="
M 1261.00 943.00 
C 1267.54 941.48 1261.88 936.77 1261.00 943.00 Z"/>
</g>
</svg>