<svg xmlns="http://www.w3.org/2000/svg" xmlns:v="https://svgstorm.com"
viewBox = "0 0 1333 750"
width="1333"
height="750">
<g fill="None" fill-opacity="0.0" stroke="#000000" stroke-opacity="0.00" stroke-width="0.3"><path d="
M 0.00 750.00 
L 894.00 750.00
C 894.00 749.50 894.00 749.00 894.00 749.00
C 894.52 747.47 895.93 746.88 897.00 746.00
C 901.77 741.32 906.93 735.71 911.00 731.00
C 911.24 730.73 911.77 730.26 912.00 730.00
C 915.63 725.92 919.85 720.41 925.00 718.00
C 930.76 715.30 933.31 729.64 931.00 735.00 C 928.69 740.36 921.89 745.59 917.00 749.00
C 916.84 749.44 917.00 750.00 917.00 750.00
L 1086.00 750.00
C 1087.46 745.84 1076.78 736.23 1084.00 735.00
C 1084.82 734.56 1087.05 735.04 1088.00 735.00
C 1090.39 734.90 1092.01 734.97 1094.00 735.00
C 1096.10 734.79 1098.80 732.72 1101.00 735.00
C 1101.25 735.26 1101.00 736.00 1101.00 736.00
C 1103.89 737.81 1103.99 741.05 1105.00 744.00
C 1105.69 746.01 1106.79 747.83 1107.00 750.00
L 1333.00 750.00
L 1333.00 0.00
L 260.00 0.00
C 260.79 2.05 263.30 2.96 264.00 5.00
C 264.04 5.06 267.77 6.87 265.00 8.00
C 264.90 9.79 262.73 12.34 262.00 14.00
C 261.13 15.96 260.34 17.87 260.00 20.00
C 257.99 20.82 258.53 18.18 257.00 18.00
C 254.25 16.62 250.20 14.02 248.00 12.00
C 248.05 12.02 244.78 13.11 244.00 12.00
C 244.25 9.64 245.69 7.00 248.00 6.00
C 249.08 4.00 250.59 2.20 251.00 0.00
L 0.00 0.00
L 0.00 750.00
M 237.00 30.00 
C 237.73 31.57 236.35 35.39 236.00 37.00
C 234.26 45.00 226.34 58.29 231.00 62.00
C 227.66 62.35 223.97 64.03 224.00 68.00
C 222.44 68.41 221.31 67.54 220.00 67.00
C 212.29 70.69 203.49 73.80 195.00 75.00
C 194.77 71.83 195.05 68.88 196.00 66.00
C 196.32 61.81 197.27 53.11 199.99 48.99 C 202.71 44.87 202.99 34.57 207.00 32.00
C 209.17 30.61 214.95 31.31 218.00 31.00
C 219.41 30.70 220.98 29.99 223.00 30.00
C 224.00 30.00 225.00 30.00 226.00 30.00
C 228.27 29.59 235.29 26.33 237.00 30.00
M 145.00 34.00 
C 146.13 34.26 146.48 35.19 147.00 36.00
C 151.18 42.55 153.47 50.24 157.00 57.00
C 158.57 60.01 160.21 62.64 161.00 66.00
C 162.22 68.47 165.39 70.74 165.00 74.00
C 163.11 73.94 161.71 75.42 160.00 76.00
C 153.69 79.48 152.79 81.50 145.92 84.92 C 139.05 88.35 139.37 76.39 139.00 71.00
C 138.78 67.70 139.00 64.31 139.00 61.00
C 137.45 63.10 137.23 70.60 137.00 73.00
C 137.00 74.96 137.20 77.05 137.00 79.00
C 136.86 80.39 136.43 83.60 136.00 85.00
C 135.52 86.57 135.47 89.43 133.00 87.00
C 131.57 86.80 130.69 84.93 130.00 84.00
C 129.74 84.25 129.00 84.00 129.00 84.00
C 125.74 81.97 122.54 79.65 120.00 77.00
C 119.64 77.22 119.00 77.00 119.00 77.00
C 112.20 72.77 106.28 66.11 98.77 63.23 C 91.26 60.35 91.23 41.31 100.00 43.00
C 104.37 43.84 108.85 46.37 113.00 48.00
C 116.94 49.55 124.74 51.39 127.00 55.00
C 127.47 55.11 128.00 55.00 128.00 55.00
C 131.72 55.61 136.31 57.13 139.00 60.00
C 139.00 59.50 139.00 59.00 139.00 59.00
C 139.00 57.67 139.00 56.33 139.00 55.00
C 138.33 50.06 136.15 43.88 138.00 39.00
C 138.78 36.96 139.12 36.30 141.00 35.00
C 141.27 34.82 141.81 34.27 142.00 34.00
C 144.06 31.13 143.50 32.68 145.00 34.00
M 644.00 462.00 
C 647.40 464.47 649.78 468.02 653.00 471.00
C 653.96 471.89 655.78 472.47 656.00 474.00
C 657.34 474.74 658.40 476.16 658.00 478.00
C 655.86 478.17 653.16 477.89 652.00 476.00
C 649.14 474.62 646.75 472.81 644.00 471.00
C 642.29 469.88 641.22 469.67 640.00 468.00
C 639.64 468.23 639.00 468.00 639.00 468.00
C 637.72 467.54 636.48 466.20 636.00 465.00
C 637.94 463.57 642.63 457.00 644.00 462.00
M 606.00 480.00 
C 606.07 479.51 606.00 479.00 606.00 479.00
C 606.16 471.00 613.96 468.23 615.92 474.08 C 617.88 479.94 604.96 487.69 606.00 480.00
M 895.00 497.00 
C 897.46 498.49 899.07 499.56 901.00 502.00
C 901.92 503.16 903.29 504.53 904.00 506.00
C 902.51 507.55 899.93 506.56 899.00 505.00
C 891.61 502.48 885.65 499.00 879.00 495.00
C 877.40 494.03 875.88 494.19 875.00 492.00
C 874.72 491.29 873.33 490.31 874.00 489.00
C 876.72 489.63 878.41 486.93 881.00 487.00
C 881.43 486.76 880.66 484.40 881.00 484.00
C 885.66 487.38 890.68 491.92 895.00 497.00
M 669.00 531.00 
C 670.26 531.31 671.72 530.77 673.00 531.00
C 673.53 533.16 671.89 535.24 670.00 536.00
C 669.43 537.63 668.79 537.77 668.00 539.00
C 667.13 541.19 666.25 542.92 665.00 545.00
C 663.22 547.96 661.92 551.30 659.00 551.00
C 657.76 550.87 655.96 549.76 654.00 550.00
C 653.51 550.06 653.00 550.00 653.00 550.00
C 651.59 550.67 645.89 552.74 644.00 552.00
C 643.19 552.65 640.93 551.50 640.00 552.00
C 643.95 542.77 655.64 537.55 663.00 530.00
C 664.05 529.76 665.93 529.85 667.00 530.00
C 668.42 530.20 668.13 530.00 669.00 531.00
M 699.00 600.00 
C 702.15 599.19 697.95 591.56 699.00 589.00
C 699.37 588.09 699.29 586.86 700.00 586.00
C 702.51 586.80 705.19 587.28 708.00 587.00
C 712.03 595.99 721.58 604.15 711.00 613.00
C 709.83 614.90 708.49 616.88 708.00 619.00
C 705.65 619.77 704.73 617.75 704.00 616.00
C 701.82 611.99 705.69 607.39 697.33 609.33 C 688.97 611.27 678.80 611.15 670.00 612.00
C 660.83 612.89 662.29 609.02 659.00 601.00
C 658.44 599.64 657.36 598.42 657.00 597.00
C 655.37 590.57 664.45 592.67 668.70 587.70 C 672.94 582.72 681.26 587.53 685.08 589.92 C 688.91 592.31 695.80 600.29 699.00 600.00
M 790.00 610.00 
C 791.10 613.45 789.61 621.43 788.00 624.00
C 788.02 636.42 787.60 640.35 777.00 645.00
C 775.61 645.61 774.41 646.48 773.00 647.00
C 770.33 647.99 767.97 648.08 765.00 648.00
C 764.03 647.97 762.95 648.15 762.00 648.00
C 761.00 647.84 760.23 646.51 759.00 647.00
C 762.08 639.70 763.43 631.45 768.00 625.00
C 768.11 624.53 768.00 624.00 768.00 624.00
C 768.10 619.19 772.91 604.56 777.00 602.00
C 777.11 601.53 777.00 601.00 777.00 601.00
C 776.85 599.02 777.85 597.89 778.00 596.00
C 783.98 598.15 786.34 605.97 790.00 610.00
M 698.00 629.00 
C 694.14 631.07 691.21 631.16 687.00 632.00
C 684.58 632.48 682.76 634.88 682.00 630.00
C 681.92 629.51 682.00 629.00 682.00 629.00
C 682.00 625.67 682.00 622.33 682.00 619.00
C 684.56 618.34 686.47 616.53 689.00 616.00
C 689.43 615.83 690.00 616.00 690.00 616.00
C 692.99 613.74 700.49 624.25 702.00 627.00
C 700.66 627.73 699.36 628.34 698.00 629.00
M 889.00 646.00 
C 888.73 647.15 888.24 648.22 888.00 649.00
C 887.70 649.97 888.60 651.74 887.00 652.00
C 886.52 653.20 886.25 654.68 886.00 656.00
C 883.52 656.36 881.44 654.20 881.00 652.00
C 878.62 650.97 877.65 650.12 876.00 648.00
C 875.79 647.74 875.06 647.35 875.00 647.00
C 874.42 643.84 876.61 641.88 877.00 639.00
C 878.67 639.00 880.33 639.00 882.00 639.00
C 885.92 643.01 890.59 639.24 889.00 646.00
M 917.00 646.00 
C 920.44 646.36 922.38 650.40 924.00 653.00
C 924.39 653.62 924.63 654.42 925.00 655.00
C 925.56 655.86 925.87 655.67 926.00 657.00
C 927.98 659.79 930.84 660.19 931.00 664.00
C 931.06 665.51 931.48 666.76 928.00 666.00
C 925.06 664.19 922.16 662.44 919.00 661.00
C 917.74 660.43 916.09 659.52 915.00 659.00
C 910.61 656.91 905.33 655.89 901.00 653.00
C 898.86 651.57 898.01 652.23 899.00 650.00
C 899.01 648.91 901.37 647.47 902.00 647.00
C 906.12 643.95 910.99 646.13 917.00 646.00
M 779.00 658.00 
C 781.93 659.90 783.13 666.36 785.92 669.08 C 788.70 671.81 790.93 677.70 793.00 681.00
C 794.17 682.87 795.19 683.66 796.00 686.00
C 797.35 689.91 797.78 694.03 799.00 698.00
C 793.55 698.98 789.40 703.22 784.00 704.00
C 779.82 706.14 776.00 710.11 771.00 711.00
C 771.59 708.16 769.78 704.02 772.00 702.00
C 771.78 691.20 773.60 681.43 774.00 671.00
C 774.11 668.10 774.57 665.25 775.00 663.00
C 774.90 659.77 775.22 655.55 779.00 658.00
M 965.00 678.00 
C 968.55 681.00 967.59 680.05 964.00 682.00
C 943.60 693.07 920.22 704.79 898.00 712.00
C 896.29 712.56 894.68 713.32 893.00 714.00
C 892.24 711.81 894.30 710.68 895.00 709.00
C 900.08 700.35 906.75 697.45 912.70 688.70 C 918.66 679.95 926.74 678.13 938.00 682.00
C 944.36 672.49 956.27 668.29 965.00 678.00
M 1076.00 731.00 
C 1075.02 734.42 1072.54 737.81 1069.00 740.00
C 1066.82 736.40 1063.74 733.23 1063.00 729.00
C 1063.00 724.61 1067.67 723.11 1068.00 719.00
C 1072.60 719.87 1083.41 727.56 1076.00 731.00 Z"/>
</g>
<g fill="None" fill-opacity="0.0" stroke="#8C30C7" stroke-opacity="0.31" stroke-width="0.3"><path d="
M 248.00 6.00 
C 246.83 8.16 245.96 7.97 247.00 10.00
C 246.74 6.35 252.08 3.34 253.00 0.00
L 251.00 0.00
C 250.59 2.20 249.08 4.00 248.00 6.00 Z"/>
</g>
<g fill="None" fill-opacity="0.0" stroke="#54379A" stroke-opacity="0.91" stroke-width="0.3"><path d="
M 247.00 10.00 
C 247.19 10.37 247.76 11.78 248.00 12.00
C 250.20 14.02 254.25 16.62 257.00 18.00
C 258.18 17.51 259.06 15.75 260.00 15.00
C 261.57 12.35 261.91 9.59 264.00 7.00
C 263.88 6.53 264.15 5.45 264.00 5.00
C 263.30 2.96 260.79 2.05 260.00 0.00
L 253.00 0.00
C 252.08 3.34 246.74 6.35 247.00 10.00 Z"/>
</g>
<g fill="None" fill-opacity="0.0" stroke="#C029DB" stroke-opacity="0.13" stroke-width="0.3"><path d="
M 264.00 7.00 
C 264.09 7.35 265.01 7.85 265.00 8.00
C 267.77 6.87 264.04 5.06 264.00 5.00
C 264.15 5.45 263.88 6.53 264.00 7.00 Z"/>
</g>
<g fill="None" fill-opacity="0.0" stroke="#E21EF5" stroke-opacity="0.07" stroke-width="0.3"><path d="
M 248.00 12.00 
C 247.76 11.78 247.19 10.37 247.00 10.00
C 245.96 7.97 246.83 8.16 248.00 6.00
C 245.69 7.00 244.25 9.64 244.00 12.00
C 244.78 13.11 248.05 12.02 248.00 12.00 Z"/>
</g>
<g fill="None" fill-opacity="0.0" stroke="#7133AC" stroke-opacity="0.67" stroke-width="0.3"><path d="
M 260.00 15.00 
C 260.44 14.65 261.68 14.35 262.00 14.00
C 262.73 12.34 264.90 9.79 265.00 8.00
C 265.01 7.85 264.09 7.35 264.00 7.00
C 261.91 9.59 261.57 12.35 260.00 15.00 Z"/>
</g>
<g fill="None" fill-opacity="0.0" stroke="#D234E1" stroke-opacity="0.14" stroke-width="0.3"><path d="
M 260.00 15.00 
C 259.06 15.75 258.18 17.51 257.00 18.00
C 258.53 18.18 257.99 20.82 260.00 20.00
C 260.34 17.87 261.13 15.96 262.00 14.00
C 261.68 14.35 260.44 14.65 260.00 15.00 Z"/>
</g>
<g fill="None" fill-opacity="0.0" stroke="#F219FC" stroke-opacity="0.19" stroke-width="0.3"><path d="
M 226.00 30.00 
C 229.67 30.00 233.33 30.00 237.00 30.00
C 235.29 26.33 228.27 29.59 226.00 30.00 Z"/>
</g>
<g fill="None" fill-opacity="0.0" stroke="#DE1EEE" stroke-opacity="0.08" stroke-width="0.3"><path d="
M 218.00 31.00 
C 219.80 30.82 221.78 30.22 223.00 30.00
C 220.98 29.99 219.41 30.70 218.00 31.00 Z"/>
</g>
<g fill="None" fill-opacity="0.0" stroke="#513798" stroke-opacity="0.94" stroke-width="0.3"><path d="
M 218.00 31.00 
C 214.95 31.31 209.17 30.61 207.00 32.00
C 203.82 34.84 203.73 44.50 202.02 49.02 C 200.32 53.55 197.44 61.49 196.00 66.00
C 195.05 68.88 194.77 71.83 195.00 75.00
C 203.49 73.80 212.29 70.69 220.00 67.00
C 224.31 64.93 226.26 58.27 227.93 52.93 C 229.59 47.58 234.25 41.09 236.00 37.00
C 236.35 35.39 237.73 31.57 237.00 30.00
C 233.33 30.00 229.67 30.00 226.00 30.00
C 225.00 30.00 224.00 30.00 223.00 30.00
C 221.78 30.22 219.80 30.82 218.00 31.00 Z"/>
</g>
<g fill="None" fill-opacity="0.0" stroke="#FA19FF" stroke-opacity="0.07" stroke-width="0.3"><path d="
M 142.00 34.00 
C 142.60 33.82 144.39 33.86 145.00 34.00
C 143.50 32.68 144.06 31.13 142.00 34.00 Z"/>
</g>
<g fill="None" fill-opacity="0.0" stroke="#E81EF5" stroke-opacity="0.13" stroke-width="0.3"><path d="
M 196.00 66.00 
C 197.44 61.49 200.32 53.55 202.02 49.02 C 203.73 44.50 203.82 34.84 207.00 32.00
C 202.99 34.57 202.71 44.87 199.99 48.99 C 197.27 53.11 196.32 61.81 196.00 66.00 Z"/>
</g>
<g fill="None" fill-opacity="0.0" stroke="#8330B0" stroke-opacity="0.25" stroke-width="0.3"><path d="
M 141.00 35.00 
C 141.69 35.96 145.36 34.88 147.00 36.00
C 146.48 35.19 146.13 34.26 145.00 34.00
C 144.39 33.86 142.60 33.82 142.00 34.00
C 141.81 34.27 141.27 34.82 141.00 35.00 Z"/>
</g>
<g fill="None" fill-opacity="0.0" stroke="#55379A" stroke-opacity="0.92" stroke-width="0.3"><path d="
M 138.00 39.00 
C 137.47 42.30 139.00 47.28 139.00 51.00
C 139.20 53.10 140.00 56.23 140.00 59.00
C 140.00 62.92 139.09 67.88 139.00 71.00
C 139.37 76.39 139.05 88.35 145.92 84.92 C 152.79 81.50 153.69 79.48 160.00 76.00
C 160.97 75.12 161.41 73.17 163.00 73.00
C 162.61 70.93 161.91 68.94 161.00 67.00
C 159.33 63.69 157.80 59.61 157.00 57.00
C 153.47 50.24 151.18 42.55 147.00 36.00
C 145.36 34.88 141.69 35.96 141.00 35.00
C 139.12 36.30 138.78 36.96 138.00 39.00 Z"/>
</g>
<g fill="None" fill-opacity="0.0" stroke="#E91FF3" stroke-opacity="0.16" stroke-width="0.3"><path d="
M 220.00 67.00 
C 221.31 67.54 222.44 68.41 224.00 68.00
C 223.97 64.03 227.66 62.35 231.00 62.00
C 226.34 58.29 234.26 45.00 236.00 37.00
C 234.25 41.09 229.59 47.58 227.93 52.93 C 226.26 58.27 224.31 64.93 220.00 67.00 Z"/>
</g>
<g fill="None" fill-opacity="0.0" stroke="#E620F5" stroke-opacity="0.15" stroke-width="0.3"><path d="
M 139.00 55.00 
C 139.00 53.67 139.00 52.33 139.00 51.00
C 139.00 47.28 137.47 42.30 138.00 39.00
C 136.15 43.88 138.33 50.06 139.00 55.00 Z"/>
</g>
<g fill="None" fill-opacity="0.0" stroke="#C227DD" stroke-opacity="0.22" stroke-width="0.3"><path d="
M 119.00 77.00 
C 116.03 64.45 83.09 63.17 96.00 44.00
C 97.28 43.72 99.50 44.76 100.00 43.00
C 91.23 41.31 91.26 60.35 98.77 63.23 C 106.28 66.11 112.20 72.77 119.00 77.00 Z"/>
</g>
<g fill="None" fill-opacity="0.0" stroke="#543798" stroke-opacity="0.97" stroke-width="0.3"><path d="
M 119.00 77.00 
C 119.00 77.00 119.64 77.22 120.00 77.00
C 121.92 75.81 128.44 81.63 129.00 84.00
C 129.00 84.00 129.74 84.25 130.00 84.00
C 130.75 83.28 132.16 83.97 133.00 85.00
C 135.95 84.21 134.50 81.22 136.00 79.00
C 135.74 76.12 136.80 73.10 137.00 71.00
C 137.00 59.40 135.23 61.21 128.00 55.00
C 128.00 55.00 127.47 55.11 127.00 55.00
C 121.83 53.79 117.29 50.34 113.00 48.00
C 108.85 46.37 104.37 43.84 100.00 43.00
C 99.50 44.76 97.28 43.72 96.00 44.00
C 83.09 63.17 116.03 64.45 119.00 77.00 Z"/>
</g>
<g fill="None" fill-opacity="0.0" stroke="#D820E8" stroke-opacity="0.10" stroke-width="0.3"><path d="
M 127.00 55.00 
C 124.74 51.39 116.94 49.55 113.00 48.00
C 117.29 50.34 121.83 53.79 127.00 55.00 Z"/>
</g>
<g fill="None" fill-opacity="0.0" stroke="#7831B0" stroke-opacity="0.69" stroke-width="0.3"><path d="
M 139.00 55.00 
C 139.00 56.33 139.00 57.67 139.00 59.00
C 139.25 58.75 140.00 59.00 140.00 59.00
C 140.00 56.23 139.20 53.10 139.00 51.00
C 139.00 52.33 139.00 53.67 139.00 55.00 Z"/>
</g>
<g fill="None" fill-opacity="0.0" stroke="#E023F1" stroke-opacity="0.15" stroke-width="0.3"><path d="
M 137.00 71.00 
C 137.00 71.50 137.00 72.50 137.00 73.00
C 137.23 70.60 137.45 63.10 139.00 61.00
C 139.00 60.50 139.00 60.00 139.00 60.00
C 136.31 57.13 131.72 55.61 128.00 55.00
C 135.23 61.21 137.00 59.40 137.00 71.00 Z"/>
</g>
<g fill="None" fill-opacity="0.0" stroke="#B227D4" stroke-opacity="0.34" stroke-width="0.3"><path d="
M 161.00 67.00 
C 160.82 66.57 161.00 66.00 161.00 66.00
C 160.21 62.64 158.57 60.01 157.00 57.00
C 157.80 59.61 159.33 63.69 161.00 67.00 Z"/>
</g>
<g fill="None" fill-opacity="0.0" stroke="#872EB9" stroke-opacity="0.29" stroke-width="0.3"><path d="
M 139.00 60.00 
C 139.00 60.00 139.00 60.50 139.00 61.00
C 139.00 64.31 138.78 67.70 139.00 71.00
C 139.09 67.88 140.00 62.92 140.00 59.00
C 140.00 59.00 139.25 58.75 139.00 59.00
C 139.00 59.00 139.00 59.50 139.00 60.00 Z"/>
</g>
<g fill="None" fill-opacity="0.0" stroke="#DA22EB" stroke-opacity="0.17" stroke-width="0.3"><path d="
M 161.00 67.00 
C 161.91 68.94 162.61 70.93 163.00 73.00
C 161.41 73.17 160.97 75.12 160.00 76.00
C 161.71 75.42 163.11 73.94 165.00 74.00
C 165.39 70.74 162.22 68.47 161.00 66.00
C 161.00 66.00 160.82 66.57 161.00 67.00 Z"/>
</g>
<g fill="None" fill-opacity="0.0" stroke="#BA25DA" stroke-opacity="0.33" stroke-width="0.3"><path d="
M 136.00 79.00 
C 136.16 78.77 137.00 79.00 137.00 79.00
C 137.20 77.05 137.00 74.96 137.00 73.00
C 137.00 72.50 137.00 71.50 137.00 71.00
C 136.80 73.10 135.74 76.12 136.00 79.00 Z"/>
</g>
<g fill="None" fill-opacity="0.0" stroke="#A32CCB" stroke-opacity="0.36" stroke-width="0.3"><path d="
M 120.00 77.00 
C 122.54 79.65 125.74 81.97 129.00 84.00
C 128.44 81.63 121.92 75.81 120.00 77.00 Z"/>
</g>
<g fill="None" fill-opacity="0.0" stroke="#852FB7" stroke-opacity="0.63" stroke-width="0.3"><path d="
M 133.00 85.00 
C 133.25 85.30 133.00 86.00 133.00 86.00
C 133.61 85.62 135.45 85.77 136.00 85.00
C 136.43 83.60 136.86 80.39 137.00 79.00
C 137.00 79.00 136.16 78.77 136.00 79.00
C 134.50 81.22 135.95 84.21 133.00 85.00 Z"/>
</g>
<g fill="None" fill-opacity="0.0" stroke="#8C2AC7" stroke-opacity="0.35" stroke-width="0.3"><path d="
M 130.00 84.00 
C 130.69 84.93 131.57 86.80 133.00 87.00
C 132.75 86.75 133.00 86.00 133.00 86.00
C 133.00 86.00 133.25 85.30 133.00 85.00
C 132.16 83.97 130.75 83.28 130.00 84.00 Z"/>
</g>
<g fill="None" fill-opacity="0.0" stroke="#EF19FA" stroke-opacity="0.09" stroke-width="0.3"><path d="
M 133.00 86.00 
C 133.00 86.00 132.75 86.75 133.00 87.00
C 135.47 89.43 135.52 86.57 136.00 85.00
C 135.45 85.77 133.61 85.62 133.00 86.00 Z"/>
</g>
<g fill="None" fill-opacity="0.0" stroke="#ED20F7" stroke-opacity="0.10" stroke-width="0.3"><path d="
M 639.00 468.00 
C 636.19 464.71 640.66 461.22 644.00 462.00
C 642.63 457.00 637.94 463.57 636.00 465.00
C 636.48 466.20 637.72 467.54 639.00 468.00 Z"/>
</g>
<g fill="None" fill-opacity="0.0" stroke="#8832A9" stroke-opacity="0.74" stroke-width="0.3"><path d="
M 639.00 468.00 
C 639.00 468.00 639.64 468.23 640.00 468.00
C 641.79 466.86 642.64 469.74 644.00 471.00
C 646.75 472.81 649.14 474.62 652.00 476.00
C 653.70 475.89 654.17 475.38 655.00 474.00
C 652.87 473.19 653.14 471.21 653.00 471.00
C 649.78 468.02 647.40 464.47 644.00 462.00
C 640.66 461.22 636.19 464.71 639.00 468.00 Z"/>
</g>
<g fill="None" fill-opacity="0.0" stroke="#D425E1" stroke-opacity="0.20" stroke-width="0.3"><path d="
M 640.00 468.00 
C 641.22 469.67 642.29 469.88 644.00 471.00
C 642.64 469.74 641.79 466.86 640.00 468.00 Z"/>
</g>
<g fill="None" fill-opacity="0.0" stroke="#E41FF0" stroke-opacity="0.13" stroke-width="0.3"><path d="
M 606.00 479.00 
C 606.25 478.75 607.00 479.00 607.00 479.00
C 610.20 467.89 616.94 473.46 611.00 480.00
C 610.24 480.83 609.52 482.03 609.00 483.00
C 607.12 482.76 607.54 480.45 606.00 480.00
C 604.96 487.69 617.88 479.94 615.92 474.08 C 613.96 468.23 606.16 471.00 606.00 479.00 Z"/>
</g>
<g fill="None" fill-opacity="0.0" stroke="#84349E" stroke-opacity="0.91" stroke-width="0.3"><path d="
M 607.00 479.00 
C 608.08 481.12 609.09 481.01 611.00 480.00
C 616.94 473.46 610.20 467.89 607.00 479.00 Z"/>
</g>
<g fill="None" fill-opacity="0.0" stroke="#7E32A2" stroke-opacity="0.31" stroke-width="0.3"><path d="
M 655.00 474.00 
C 655.13 473.78 656.00 474.00 656.00 474.00
C 655.78 472.47 653.96 471.89 653.00 471.00
C 653.14 471.21 652.87 473.19 655.00 474.00 Z"/>
</g>
<g fill="None" fill-opacity="0.0" stroke="#E021ED" stroke-opacity="0.18" stroke-width="0.3"><path d="
M 652.00 476.00 
C 653.16 477.89 655.86 478.17 658.00 478.00
C 658.40 476.16 657.34 474.74 656.00 474.00
C 656.00 474.00 655.13 473.78 655.00 474.00
C 654.17 475.38 653.70 475.89 652.00 476.00 Z"/>
</g>
<g fill="None" fill-opacity="0.0" stroke="#D025DF" stroke-opacity="0.42" stroke-width="0.3"><path d="
M 606.00 480.00 
C 607.54 480.45 607.12 482.76 609.00 483.00
C 609.52 482.03 610.24 480.83 611.00 480.00
C 609.09 481.01 608.08 481.12 607.00 479.00
C 607.00 479.00 606.25 478.75 606.00 479.00
C 606.00 479.00 606.07 479.51 606.00 480.00 Z"/>
</g>
<g fill="None" fill-opacity="0.0" stroke="#DF22EC" stroke-opacity="0.18" stroke-width="0.3"><path d="
M 881.00 487.00 
C 885.78 487.22 890.99 494.57 895.00 497.00
C 890.68 491.92 885.66 487.38 881.00 484.00
C 880.66 484.40 881.43 486.76 881.00 487.00 Z"/>
</g>
<g fill="None" fill-opacity="0.0" stroke="#7F34A0" stroke-opacity="0.78" stroke-width="0.3"><path d="
M 875.00 492.00 
C 875.33 492.53 878.41 494.55 879.00 495.00
C 885.65 499.00 891.61 502.48 899.00 505.00
C 900.41 504.53 901.04 503.44 901.00 502.00
C 899.07 499.56 897.46 498.49 895.00 497.00
C 890.99 494.57 885.78 487.22 881.00 487.00
C 878.41 486.93 876.72 489.63 874.00 489.00
C 873.33 490.31 874.72 491.29 875.00 492.00 Z"/>
</g>
<g fill="None" fill-opacity="0.0" stroke="#BB2BD1" stroke-opacity="0.18" stroke-width="0.3"><path d="
M 879.00 495.00 
C 878.41 494.55 875.33 492.53 875.00 492.00
C 875.88 494.19 877.40 494.03 879.00 495.00 Z"/>
</g>
<g fill="None" fill-opacity="0.0" stroke="#DE2AEC" stroke-opacity="0.19" stroke-width="0.3"><path d="
M 899.00 505.00 
C 899.93 506.56 902.51 507.55 904.00 506.00
C 903.29 504.53 901.92 503.16 901.00 502.00
C 901.04 503.44 900.41 504.53 899.00 505.00 Z"/>
</g>
<g fill="None" fill-opacity="0.0" stroke="#E21EF0" stroke-opacity="0.18" stroke-width="0.3"><path d="
M 644.00 552.00 
C 643.73 551.89 642.99 550.30 643.00 550.00
C 643.09 547.90 647.66 545.15 649.00 544.00
C 650.69 542.31 652.17 540.50 654.00 539.00
C 655.26 537.97 656.79 536.99 658.00 536.00
C 659.24 534.81 661.54 530.50 663.00 530.00
C 655.64 537.55 643.95 542.77 640.00 552.00
C 640.93 551.50 643.19 552.65 644.00 552.00 Z"/>
</g>
<g fill="None" fill-opacity="0.0" stroke="#A02CB7" stroke-opacity="0.55" stroke-width="0.3"><path d="
M 658.00 536.00 
C 660.59 533.87 663.89 530.16 667.00 530.00
C 665.93 529.85 664.05 529.76 663.00 530.00
C 661.54 530.50 659.24 534.81 658.00 536.00 Z"/>
</g>
<g fill="None" fill-opacity="0.0" stroke="#7D3599" stroke-opacity="0.96" stroke-width="0.3"><path d="
M 658.00 536.00 
C 656.79 536.99 655.26 537.97 654.00 539.00
C 652.32 540.61 650.76 542.49 649.00 544.00
C 647.66 545.15 643.09 547.90 643.00 550.00
C 644.10 548.97 651.34 550.00 653.00 550.00
C 653.00 550.00 653.51 550.06 654.00 550.00
C 656.16 548.40 658.60 549.98 661.00 549.00
C 662.17 547.47 663.85 546.32 665.00 545.00
C 666.25 542.92 667.13 541.19 668.00 539.00
C 668.60 537.50 670.14 534.67 670.00 533.00
C 669.76 532.52 669.31 531.35 669.00 531.00
C 668.13 530.00 668.42 530.20 667.00 530.00
C 663.89 530.16 660.59 533.87 658.00 536.00 Z"/>
</g>
<g fill="None" fill-opacity="0.0" stroke="#EE1BF6" stroke-opacity="0.11" stroke-width="0.3"><path d="
M 670.00 533.00 
C 670.78 534.53 670.66 534.13 670.00 536.00
C 671.89 535.24 673.53 533.16 673.00 531.00
C 671.72 530.77 670.26 531.31 669.00 531.00
C 669.31 531.35 669.76 532.52 670.00 533.00 Z"/>
</g>
<g fill="None" fill-opacity="0.0" stroke="#B12AC5" stroke-opacity="0.40" stroke-width="0.3"><path d="
M 668.00 539.00 
C 668.79 537.77 669.43 537.63 670.00 536.00
C 670.66 534.13 670.78 534.53 670.00 533.00
C 670.14 534.67 668.60 537.50 668.00 539.00 Z"/>
</g>
<g fill="None" fill-opacity="0.0" stroke="#C624D7" stroke-opacity="0.67" stroke-width="0.3"><path d="
M 649.00 544.00 
C 650.76 542.49 652.32 540.61 654.00 539.00
C 652.17 540.50 650.69 542.31 649.00 544.00 Z"/>
</g>
<g fill="None" fill-opacity="0.0" stroke="#D822E4" stroke-opacity="0.16" stroke-width="0.3"><path d="
M 661.00 549.00 
C 660.37 549.83 660.18 550.77 659.00 551.00
C 661.92 551.30 663.22 547.96 665.00 545.00
C 663.85 546.32 662.17 547.47 661.00 549.00 Z"/>
</g>
<g fill="None" fill-opacity="0.0" stroke="#CD24DC" stroke-opacity="0.38" stroke-width="0.3"><path d="
M 654.00 550.00 
C 655.96 549.76 657.76 550.87 659.00 551.00
C 660.18 550.77 660.37 549.83 661.00 549.00
C 658.60 549.98 656.16 548.40 654.00 550.00 Z"/>
</g>
<g fill="None" fill-opacity="0.0" stroke="#B92BCE" stroke-opacity="0.34" stroke-width="0.3"><path d="
M 644.00 552.00 
C 645.89 552.74 651.59 550.67 653.00 550.00
C 651.34 550.00 644.10 548.97 643.00 550.00
C 642.99 550.30 643.73 551.89 644.00 552.00 Z"/>
</g>
<g fill="None" fill-opacity="0.0" stroke="#E821F4" stroke-opacity="0.19" stroke-width="0.3"><path d="
M 657.00 597.00 
C 657.60 591.74 666.43 592.90 670.03 589.02 C 673.62 585.15 681.91 589.28 685.23 591.77 C 688.55 594.26 694.96 601.04 699.00 600.00
C 695.80 600.29 688.91 592.31 685.08 589.92 C 681.26 587.53 672.94 582.72 668.70 587.70 C 664.45 592.67 655.37 590.57 657.00 597.00 Z"/>
</g>
<g fill="None" fill-opacity="0.0" stroke="#D624E7" stroke-opacity="0.25" stroke-width="0.3"><path d="
M 699.00 589.00 
C 704.78 583.28 708.04 591.23 711.25 595.75 C 714.47 600.26 715.09 604.77 711.00 610.00
C 710.65 611.04 711.03 612.89 711.00 613.00
C 721.58 604.15 712.03 595.99 708.00 587.00
C 705.19 587.28 702.51 586.80 700.00 586.00
C 699.29 586.86 699.37 588.09 699.00 589.00 Z"/>
</g>
<g fill="None" fill-opacity="0.0" stroke="#7C3695" stroke-opacity="0.94" stroke-width="0.3"><path d="
M 657.00 597.00 
C 657.36 598.42 658.44 599.64 659.00 601.00
C 662.45 606.56 662.45 611.42 670.00 612.00
C 678.80 611.15 688.97 611.27 697.33 609.33 C 705.69 607.39 701.82 611.99 704.00 616.00
C 705.89 617.73 709.71 611.66 711.00 610.00
C 715.09 604.77 714.47 600.26 711.25 595.75 C 708.04 591.23 704.78 583.28 699.00 589.00
C 697.95 591.56 702.15 599.19 699.00 600.00
C 694.96 601.04 688.55 594.26 685.23 591.77 C 681.91 589.28 673.62 585.15 670.03 589.02 C 666.43 592.90 657.60 591.74 657.00 597.00 Z"/>
</g>
<g fill="None" fill-opacity="0.0" stroke="#E71DF4" stroke-opacity="0.26" stroke-width="0.3"><path d="
M 777.00 601.00 
C 780.44 594.50 786.01 610.23 789.00 611.00
C 789.03 610.65 790.02 610.12 790.00 610.00
C 786.34 605.97 783.98 598.15 778.00 596.00
C 777.85 597.89 776.85 599.02 777.00 601.00 Z"/>
</g>
<g fill="None" fill-opacity="0.0" stroke="#773694" stroke-opacity="0.97" stroke-width="0.3"><path d="
M 777.00 601.00 
C 777.00 601.00 777.11 601.53 777.00 602.00
C 775.46 608.58 772.34 618.91 768.00 624.00
C 768.00 624.00 768.11 624.53 768.00 625.00
C 766.56 631.13 763.27 636.76 762.00 643.00
C 762.21 645.24 762.55 646.36 765.00 647.00
C 767.10 647.08 772.01 647.25 773.00 647.00
C 774.41 646.48 775.61 645.61 777.00 645.00
C 785.93 639.21 786.66 634.11 788.00 623.00
C 787.61 618.85 788.62 615.06 789.00 611.00
C 786.01 610.23 780.44 594.50 777.00 601.00 Z"/>
</g>
<g fill="None" fill-opacity="0.0" stroke="#C128D6" stroke-opacity="0.18" stroke-width="0.3"><path d="
M 670.00 612.00 
C 662.45 611.42 662.45 606.56 659.00 601.00
C 662.29 609.02 660.83 612.89 670.00 612.00 Z"/>
</g>
<g fill="None" fill-opacity="0.0" stroke="#DF1EEC" stroke-opacity="0.18" stroke-width="0.3"><path d="
M 768.00 624.00 
C 772.34 618.91 775.46 608.58 777.00 602.00
C 772.91 604.56 768.10 619.19 768.00 624.00 Z"/>
</g>
<g fill="None" fill-opacity="0.0" stroke="#DA27E7" stroke-opacity="0.52" stroke-width="0.3"><path d="
M 704.00 616.00 
C 704.73 617.75 705.65 619.77 708.00 619.00
C 708.49 616.88 709.83 614.90 711.00 613.00
C 711.03 612.89 710.65 611.04 711.00 610.00
C 709.71 611.66 705.89 617.73 704.00 616.00 Z"/>
</g>
<g fill="None" fill-opacity="0.0" stroke="#E820F9" stroke-opacity="0.09" stroke-width="0.3"><path d="
M 789.00 611.00 
C 788.62 615.06 787.61 618.85 788.00 623.00
C 788.05 623.50 788.00 624.00 788.00 624.00
C 789.61 621.43 791.10 613.45 790.00 610.00
C 790.02 610.12 789.03 610.65 789.00 611.00 Z"/>
</g>
<g fill="None" fill-opacity="0.0" stroke="#DE1EEF" stroke-opacity="0.16" stroke-width="0.3"><path d="
M 690.00 616.00 
C 693.44 617.01 701.05 624.98 698.00 629.00
C 699.36 628.34 700.66 627.73 702.00 627.00
C 700.49 624.25 692.99 613.74 690.00 616.00 Z"/>
</g>
<g fill="None" fill-opacity="0.0" stroke="#E41DF0" stroke-opacity="0.18" stroke-width="0.3"><path d="
M 682.00 629.00 
C 684.41 623.90 685.84 620.85 689.00 616.00
C 686.47 616.53 684.56 618.34 682.00 619.00
C 682.00 622.33 682.00 625.67 682.00 629.00 Z"/>
</g>
<g fill="None" fill-opacity="0.0" stroke="#813698" stroke-opacity="0.89" stroke-width="0.3"><path d="
M 682.00 629.00 
C 682.00 629.00 681.92 629.51 682.00 630.00
C 683.16 631.63 685.23 631.82 687.00 632.00
C 691.21 631.16 694.14 631.07 698.00 629.00
C 701.05 624.98 693.44 617.01 690.00 616.00
C 690.00 616.00 689.43 615.83 689.00 616.00
C 685.84 620.85 684.41 623.90 682.00 629.00 Z"/>
</g>
<g fill="None" fill-opacity="0.0" stroke="#D624E3" stroke-opacity="0.25" stroke-width="0.3"><path d="
M 777.00 645.00 
C 787.60 640.35 788.02 636.42 788.00 624.00
C 788.00 624.00 788.05 623.50 788.00 623.00
C 786.66 634.11 785.93 639.21 777.00 645.00 Z"/>
</g>
<g fill="None" fill-opacity="0.0" stroke="#E01FEE" stroke-opacity="0.15" stroke-width="0.3"><path d="
M 762.00 648.00 
C 760.36 647.05 761.86 643.68 762.00 643.00
C 763.27 636.76 766.56 631.13 768.00 625.00
C 763.43 631.45 762.08 639.70 759.00 647.00
C 760.23 646.51 761.00 647.84 762.00 648.00 Z"/>
</g>
<g fill="None" fill-opacity="0.0" stroke="#D820E5" stroke-opacity="0.10" stroke-width="0.3"><path d="
M 687.00 632.00 
C 685.23 631.82 683.16 631.63 682.00 630.00
C 682.76 634.88 684.58 632.48 687.00 632.00 Z"/>
</g>
<g fill="None" fill-opacity="0.0" stroke="#E420EF" stroke-opacity="0.16" stroke-width="0.3"><path d="
M 875.00 647.00 
C 875.44 644.93 878.10 642.58 878.00 640.00
C 879.33 640.00 880.67 640.00 882.00 640.00
C 881.80 639.60 882.00 639.00 882.00 639.00
C 880.33 639.00 878.67 639.00 877.00 639.00
C 876.61 641.88 874.42 643.84 875.00 647.00 Z"/>
</g>
<g fill="None" fill-opacity="0.0" stroke="#C327D1" stroke-opacity="0.30" stroke-width="0.3"><path d="
M 882.00 640.00 
C 883.66 643.31 888.70 641.19 889.00 646.00
C 890.59 639.24 885.92 643.01 882.00 639.00
C 882.00 639.00 881.80 639.60 882.00 640.00 Z"/>
</g>
<g fill="None" fill-opacity="0.0" stroke="#7B3696" stroke-opacity="0.93" stroke-width="0.3"><path d="
M 875.00 647.00 
C 875.06 647.35 875.79 647.74 876.00 648.00
C 878.51 647.80 880.47 652.48 883.00 653.00
C 884.58 653.31 885.05 652.88 886.00 652.00
C 886.00 649.78 888.14 648.81 888.00 649.00
C 888.24 648.22 888.73 647.15 889.00 646.00
C 888.70 641.19 883.66 643.31 882.00 640.00
C 880.67 640.00 879.33 640.00 878.00 640.00
C 878.10 642.58 875.44 644.93 875.00 647.00 Z"/>
</g>
<g fill="None" fill-opacity="0.0" stroke="#9A2CAF" stroke-opacity="0.39" stroke-width="0.3"><path d="
M 762.00 648.00 
C 762.95 648.15 764.03 647.97 765.00 648.00
C 765.25 647.73 765.00 647.00 765.00 647.00
C 762.55 646.36 762.21 645.24 762.00 643.00
C 761.86 643.68 760.36 647.05 762.00 648.00 Z"/>
</g>
<g fill="None" fill-opacity="0.0" stroke="#A728BE" stroke-opacity="0.34" stroke-width="0.3"><path d="
M 902.00 647.00 
C 905.22 645.55 912.87 647.00 917.00 647.00
C 916.75 646.75 917.00 646.00 917.00 646.00
C 910.99 646.13 906.12 643.95 902.00 647.00 Z"/>
</g>
<g fill="None" fill-opacity="0.0" stroke="#EA1BF3" stroke-opacity="0.08" stroke-width="0.3"><path d="
M 765.00 647.00 
C 765.00 647.00 765.25 647.73 765.00 648.00
C 767.97 648.08 770.33 647.99 773.00 647.00
C 772.01 647.25 767.10 647.08 765.00 647.00 Z"/>
</g>
<g fill="None" fill-opacity="0.0" stroke="#7E3698" stroke-opacity="0.89" stroke-width="0.3"><path d="
M 902.00 647.00 
C 901.37 647.47 899.01 648.91 899.00 650.00
C 899.00 649.89 900.83 652.82 901.00 653.00
C 905.33 655.89 910.61 656.91 915.00 659.00
C 916.14 659.34 917.31 659.86 919.00 661.00
C 922.16 662.44 925.06 664.19 928.00 666.00
C 927.90 665.98 928.00 665.00 928.00 665.00
C 928.06 664.82 928.46 663.32 929.00 662.00
C 927.65 661.10 924.71 658.06 926.00 657.00
C 925.87 655.67 925.56 655.86 925.00 655.00
C 922.82 653.80 920.57 649.94 918.00 647.00
C 917.59 646.81 917.00 647.00 917.00 647.00
C 912.87 647.00 905.22 645.55 902.00 647.00 Z"/>
</g>
<g fill="None" fill-opacity="0.0" stroke="#ED19F7" stroke-opacity="0.07" stroke-width="0.3"><path d="
M 917.00 647.00 
C 917.00 647.00 917.59 646.81 918.00 647.00
C 920.23 648.01 922.39 651.27 924.00 653.00
C 922.38 650.40 920.44 646.36 917.00 646.00
C 917.00 646.00 916.75 646.75 917.00 647.00 Z"/>
</g>
<g fill="None" fill-opacity="0.0" stroke="#9D31B6" stroke-opacity="0.36" stroke-width="0.3"><path d="
M 876.00 648.00 
C 877.65 650.12 878.62 650.97 881.00 652.00
C 881.76 652.33 882.16 652.84 883.00 653.00
C 880.47 652.48 878.51 647.80 876.00 648.00 Z"/>
</g>
<g fill="None" fill-opacity="0.0" stroke="#A92EBC" stroke-opacity="0.37" stroke-width="0.3"><path d="
M 925.00 655.00 
C 924.63 654.42 924.39 653.62 924.00 653.00
C 922.39 651.27 920.23 648.01 918.00 647.00
C 920.57 649.94 922.82 653.80 925.00 655.00 Z"/>
</g>
<g fill="None" fill-opacity="0.0" stroke="#9E2CB1" stroke-opacity="0.39" stroke-width="0.3"><path d="
M 886.00 652.00 
C 886.27 651.75 887.00 652.00 887.00 652.00
C 888.60 651.74 887.70 649.97 888.00 649.00
C 888.14 648.81 886.00 649.78 886.00 652.00 Z"/>
</g>
<g fill="None" fill-opacity="0.0" stroke="#D91EE4" stroke-opacity="0.11" stroke-width="0.3"><path d="
M 901.00 653.00 
C 900.83 652.82 899.00 649.89 899.00 650.00
C 898.01 652.23 898.86 651.57 901.00 653.00 Z"/>
</g>
<g fill="None" fill-opacity="0.0" stroke="#EA1CF5" stroke-opacity="0.15" stroke-width="0.3"><path d="
M 887.00 652.00 
C 887.00 652.00 886.27 651.75 886.00 652.00
C 885.05 652.88 884.58 653.31 883.00 653.00
C 882.16 652.84 881.76 652.33 881.00 652.00
C 881.44 654.20 883.52 656.36 886.00 656.00
C 886.25 654.68 886.52 653.20 887.00 652.00 Z"/>
</g>
<g fill="None" fill-opacity="0.0" stroke="#B12EC1" stroke-opacity="0.29" stroke-width="0.3"><path d="
M 775.00 663.00 
C 775.03 664.00 775.00 665.00 775.00 666.00
C 775.25 664.29 775.60 657.36 779.00 658.00
C 775.22 655.55 774.90 659.77 775.00 663.00 Z"/>
</g>
<g fill="None" fill-opacity="0.0" stroke="#9A38AD" stroke-opacity="0.43" stroke-width="0.3"><path d="
M 928.00 665.00 
C 928.53 664.67 930.56 664.76 931.00 664.00
C 930.84 660.19 927.98 659.79 926.00 657.00
C 924.71 658.06 927.65 661.10 929.00 662.00
C 928.46 663.32 928.06 664.82 928.00 665.00 Z"/>
</g>
<g fill="None" fill-opacity="0.0" stroke="#813598" stroke-opacity="0.90" stroke-width="0.3"><path d="
M 775.00 666.00 
C 775.01 668.00 774.23 669.67 774.00 671.00
C 773.60 681.43 771.78 691.20 772.00 702.00
C 772.05 704.33 771.96 706.67 772.00 709.00
C 776.45 708.85 779.50 704.42 784.00 704.00
C 789.40 703.22 793.55 698.98 799.00 698.00
C 797.78 694.03 797.35 689.91 796.00 686.00
C 794.58 683.64 793.75 683.03 793.00 681.00
C 790.93 677.70 788.70 671.81 785.92 669.08 C 783.13 666.36 781.93 659.90 779.00 658.00
C 775.60 657.36 775.25 664.29 775.00 666.00 Z"/>
</g>
<g fill="None" fill-opacity="0.0" stroke="#AE2AD0" stroke-opacity="0.29" stroke-width="0.3"><path d="
M 915.00 659.00 
C 916.09 659.52 917.74 660.43 919.00 661.00
C 917.31 659.86 916.14 659.34 915.00 659.00 Z"/>
</g>
<g fill="None" fill-opacity="0.0" stroke="#CF20DE" stroke-opacity="0.03" stroke-width="0.3"><path d="
M 774.00 671.00 
C 774.23 669.67 775.01 668.00 775.00 666.00
C 775.00 665.00 775.03 664.00 775.00 663.00
C 774.57 665.25 774.11 668.10 774.00 671.00 Z"/>
</g>
<g fill="None" fill-opacity="0.0" stroke="#E61BEE" stroke-opacity="0.11" stroke-width="0.3"><path d="
M 928.00 665.00 
C 928.00 665.00 927.90 665.98 928.00 666.00
C 931.48 666.76 931.06 665.51 931.00 664.00
C 930.56 664.76 928.53 664.67 928.00 665.00 Z"/>
</g>
<g fill="None" fill-opacity="0.0" stroke="#803696" stroke-opacity="0.85" stroke-width="0.3"><path d="
M 895.00 709.00 
C 895.08 709.47 897.55 711.87 898.00 712.00
C 920.22 704.79 943.60 693.07 964.00 682.00
C 965.34 680.56 965.90 679.72 965.00 678.00
C 956.27 668.29 944.36 672.49 938.00 682.00
C 926.74 678.13 918.66 679.95 912.70 688.70 C 906.75 697.45 900.08 700.35 895.00 709.00 Z"/>
</g>
<g fill="None" fill-opacity="0.0" stroke="#DE21E5" stroke-opacity="0.15" stroke-width="0.3"><path d="
M 964.00 682.00 
C 967.59 680.05 968.55 681.00 965.00 678.00
C 965.90 679.72 965.34 680.56 964.00 682.00 Z"/>
</g>
<g fill="None" fill-opacity="0.0" stroke="#B12BBF" stroke-opacity="0.33" stroke-width="0.3"><path d="
M 796.00 686.00 
C 795.19 683.66 794.17 682.87 793.00 681.00
C 793.75 683.03 794.58 683.64 796.00 686.00 Z"/>
</g>
<g fill="None" fill-opacity="0.0" stroke="#E720F0" stroke-opacity="0.16" stroke-width="0.3"><path d="
M 784.00 704.00 
C 779.50 704.42 776.45 708.85 772.00 709.00
C 771.96 706.67 772.05 704.33 772.00 702.00
C 769.78 704.02 771.59 708.16 771.00 711.00
C 776.00 710.11 779.82 706.14 784.00 704.00 Z"/>
</g>
<g fill="None" fill-opacity="0.0" stroke="#DD21EA" stroke-opacity="0.11" stroke-width="0.3"><path d="
M 898.00 712.00 
C 897.55 711.87 895.08 709.47 895.00 709.00
C 894.30 710.68 892.24 711.81 893.00 714.00
C 894.68 713.32 896.29 712.56 898.00 712.00 Z"/>
</g>
<g fill="None" fill-opacity="0.0" stroke="#D226DD" stroke-opacity="0.11" stroke-width="0.3"><path d="
M 925.00 718.00 
C 926.87 718.00 929.46 720.19 930.00 722.00
C 931.74 727.80 929.35 735.12 926.00 739.00
C 923.86 741.48 921.12 743.69 919.00 746.00
C 918.30 746.76 917.35 748.04 917.00 749.00
C 921.89 745.59 928.69 740.36 931.00 735.00 C 933.31 729.64 930.76 715.30 925.00 718.00 Z"/>
</g>
<g fill="None" fill-opacity="0.0" stroke="#B925C6" stroke-opacity="0.25" stroke-width="0.3"><path d="
M 912.00 730.00 
C 913.33 730.11 915.42 728.58 917.00 727.00
C 919.44 724.14 926.85 714.27 930.00 722.00
C 929.46 720.19 926.87 718.00 925.00 718.00
C 919.85 720.41 915.63 725.92 912.00 730.00 Z"/>
</g>
<g fill="None" fill-opacity="0.0" stroke="#803692" stroke-opacity="0.99" stroke-width="0.3"><path d="
M 917.00 727.00 
C 912.72 732.01 907.59 736.42 903.00 741.00
C 900.07 743.93 897.98 747.71 894.00 749.00
C 894.00 749.00 894.00 749.50 894.00 750.00
L 915.00 750.00
C 915.61 748.08 917.78 747.22 919.00 746.00
C 921.26 743.74 923.77 741.21 926.00 739.00
C 929.35 735.12 931.74 727.80 930.00 722.00
C 926.85 714.27 919.44 724.14 917.00 727.00 Z"/>
</g>
<g fill="None" fill-opacity="0.0" stroke="#DA29E5" stroke-opacity="0.18" stroke-width="0.3"><path d="
M 1063.00 729.00 
C 1063.98 719.12 1079.06 720.28 1076.00 731.00
C 1083.41 727.56 1072.60 719.87 1068.00 719.00
C 1067.67 723.11 1063.00 724.61 1063.00 729.00 Z"/>
</g>
<g fill="None" fill-opacity="0.0" stroke="#89379A" stroke-opacity="0.84" stroke-width="0.3"><path d="
M 1063.00 729.00 
C 1063.74 733.23 1066.82 736.40 1069.00 740.00
C 1072.54 737.81 1075.02 734.42 1076.00 731.00
C 1079.06 720.28 1063.98 719.12 1063.00 729.00 Z"/>
</g>
<g fill="None" fill-opacity="0.0" stroke="#9632B4" stroke-opacity="0.66" stroke-width="0.3"><path d="
M 912.00 730.00 
C 911.77 730.26 911.24 730.73 911.00 731.00
C 911.18 733.30 905.32 738.68 903.00 741.00
C 907.59 736.42 912.72 732.01 917.00 727.00
C 915.42 728.58 913.33 730.11 912.00 730.00 Z"/>
</g>
<g fill="None" fill-opacity="0.0" stroke="#C627D9" stroke-opacity="0.06" stroke-width="0.3"><path d="
M 897.00 746.00 
C 898.92 744.41 901.29 742.71 903.00 741.00
C 905.32 738.68 911.18 733.30 911.00 731.00
C 906.93 735.71 901.77 741.32 897.00 746.00 Z"/>
</g>
<g fill="None" fill-opacity="0.0" stroke="#D422DF" stroke-opacity="0.42" stroke-width="0.3"><path d="
M 1088.00 735.00 
C 1088.27 735.13 1088.65 735.95 1089.00 736.00
C 1090.43 736.21 1094.69 736.95 1096.00 736.00 C 1097.31 735.05 1101.89 738.09 1102.00 738.00
C 1101.76 737.19 1101.16 736.87 1101.00 736.00
C 1101.00 736.00 1101.25 735.26 1101.00 735.00
C 1098.74 734.70 1096.28 735.04 1094.00 735.00
C 1092.01 734.97 1090.39 734.90 1088.00 735.00 Z"/>
</g>
<g fill="None" fill-opacity="0.0" stroke="#F505FF" stroke-opacity="0.01" stroke-width="0.3"><path d="
M 1094.00 735.00 
C 1096.28 735.04 1098.74 734.70 1101.00 735.00
C 1098.80 732.72 1096.10 734.79 1094.00 735.00 Z"/>
</g>
<g fill="None" fill-opacity="0.0" stroke="#EA1BF4" stroke-opacity="0.14" stroke-width="0.3"><path d="
M 1086.00 750.00 
L 1089.00 750.00
C 1088.43 745.95 1083.07 742.06 1083.00 738.00
C 1082.99 737.42 1083.42 735.31 1084.00 735.00
C 1076.78 736.23 1087.46 745.84 1086.00 750.00 Z"/>
</g>
<g fill="None" fill-opacity="0.0" stroke="#9F2FAF" stroke-opacity="0.71" stroke-width="0.3"><path d="
M 1083.00 738.00 
C 1084.76 737.47 1087.61 736.20 1089.00 736.00
C 1088.65 735.95 1088.27 735.13 1088.00 735.00
C 1087.05 735.04 1084.82 734.56 1084.00 735.00
C 1083.42 735.31 1082.99 737.42 1083.00 738.00 Z"/>
</g>
<g fill="None" fill-opacity="0.0" stroke="#813693" stroke-opacity="0.96" stroke-width="0.3"><path d="
M 1083.00 738.00 
C 1083.07 742.06 1088.43 745.95 1089.00 750.00
L 1107.00 750.00
C 1106.79 747.83 1105.69 746.01 1105.00 744.00
C 1103.71 741.69 1102.83 740.85 1102.00 738.00
C 1101.89 738.09 1097.31 735.05 1096.00 736.00 C 1094.69 736.95 1090.43 736.21 1089.00 736.00
C 1087.61 736.20 1084.76 737.47 1083.00 738.00 Z"/>
</g>
<g fill="None" fill-opacity="0.0" stroke="#B625D0" stroke-opacity="0.18" stroke-width="0.3"><path d="
M 1102.00 738.00 
C 1102.83 740.85 1103.71 741.69 1105.00 744.00
C 1103.99 741.05 1103.89 737.81 1101.00 736.00
C 1101.16 736.87 1101.76 737.19 1102.00 738.00 Z"/>
</g>
<g fill="None" fill-opacity="0.0" stroke="#A52DB4" stroke-opacity="0.73" stroke-width="0.3"><path d="
M 919.00 746.00 
C 921.12 743.69 923.86 741.48 926.00 739.00
C 923.77 741.21 921.26 743.74 919.00 746.00 Z"/>
</g>
<g fill="None" fill-opacity="0.0" stroke="#C126CB" stroke-opacity="0.31" stroke-width="0.3"><path d="
M 897.00 746.00 
C 895.93 746.88 894.52 747.47 894.00 749.00
C 897.98 747.71 900.07 743.93 903.00 741.00
C 901.29 742.71 898.92 744.41 897.00 746.00 Z"/>
</g>
<g fill="None" fill-opacity="0.0" stroke="#A72CB3" stroke-opacity="0.44" stroke-width="0.3"><path d="
M 915.00 750.00 
L 917.00 750.00
C 917.00 750.00 916.84 749.44 917.00 749.00
C 917.35 748.04 918.30 746.76 919.00 746.00
C 917.78 747.22 915.61 748.08 915.00 750.00 Z"/>
</g>
<g fill="#000000" fill-opacity="0.00" stroke="None">
<path d="
M 0.00 750.00 
L 894.00 750.00
C 894.00 749.50 894.00 749.00 894.00 749.00
C 894.52 747.47 895.93 746.88 897.00 746.00
C 901.77 741.32 906.93 735.71 911.00 731.00
C 911.24 730.73 911.77 730.26 912.00 730.00
C 915.63 725.92 919.85 720.41 925.00 718.00
C 930.76 715.30 933.31 729.64 931.00 735.00 C 928.69 740.36 921.89 745.59 917.00 749.00
C 916.84 749.44 917.00 750.00 917.00 750.00
L 1086.00 750.00
C 1087.46 745.84 1076.78 736.23 1084.00 735.00
C 1084.82 734.56 1087.05 735.04 1088.00 735.00
C 1090.39 734.90 1092.01 734.97 1094.00 735.00
C 1096.10 734.79 1098.80 732.72 1101.00 735.00
C 1101.25 735.26 1101.00 736.00 1101.00 736.00
C 1103.89 737.81 1103.99 741.05 1105.00 744.00
C 1105.69 746.01 1106.79 747.83 1107.00 750.00
L 1333.00 750.00
L 1333.00 0.00
L 260.00 0.00
C 260.79 2.05 263.30 2.96 264.00 5.00
C 264.04 5.06 267.77 6.87 265.00 8.00
C 264.90 9.79 262.73 12.34 262.00 14.00
C 261.13 15.96 260.34 17.87 260.00 20.00
C 257.99 20.82 258.53 18.18 257.00 18.00
C 254.25 16.62 250.20 14.02 248.00 12.00
C 248.05 12.02 244.78 13.11 244.00 12.00
C 244.25 9.64 245.69 7.00 248.00 6.00
C 249.08 4.00 250.59 2.20 251.00 0.00
L 0.00 0.00
L 0.00 750.00
M 237.00 30.00 
C 237.73 31.57 236.35 35.39 236.00 37.00
C 234.26 45.00 226.34 58.29 231.00 62.00
C 227.66 62.35 223.97 64.03 224.00 68.00
C 222.44 68.41 221.31 67.54 220.00 67.00
C 212.29 70.69 203.49 73.80 195.00 75.00
C 194.77 71.83 195.05 68.88 196.00 66.00
C 196.32 61.81 197.27 53.11 199.99 48.99 C 202.71 44.87 202.99 34.57 207.00 32.00
C 209.17 30.61 214.95 31.31 218.00 31.00
C 219.41 30.70 220.98 29.99 223.00 30.00
C 224.00 30.00 225.00 30.00 226.00 30.00
C 228.27 29.59 235.29 26.33 237.00 30.00
M 145.00 34.00 
C 146.13 34.26 146.48 35.19 147.00 36.00
C 151.18 42.55 153.47 50.24 157.00 57.00
C 158.57 60.01 160.21 62.64 161.00 66.00
C 162.22 68.47 165.39 70.74 165.00 74.00
C 163.11 73.94 161.71 75.42 160.00 76.00
C 153.69 79.48 152.79 81.50 145.92 84.92 C 139.05 88.35 139.37 76.39 139.00 71.00
C 138.78 67.70 139.00 64.31 139.00 61.00
C 137.45 63.10 137.23 70.60 137.00 73.00
C 137.00 74.96 137.20 77.05 137.00 79.00
C 136.86 80.39 136.43 83.60 136.00 85.00
C 135.52 86.57 135.47 89.43 133.00 87.00
C 131.57 86.80 130.69 84.93 130.00 84.00
C 129.74 84.25 129.00 84.00 129.00 84.00
C 125.74 81.97 122.54 79.65 120.00 77.00
C 119.64 77.22 119.00 77.00 119.00 77.00
C 112.20 72.77 106.28 66.11 98.77 63.23 C 91.26 60.35 91.23 41.31 100.00 43.00
C 104.37 43.84 108.85 46.37 113.00 48.00
C 116.94 49.55 124.74 51.39 127.00 55.00
C 127.47 55.11 128.00 55.00 128.00 55.00
C 131.72 55.61 136.31 57.13 139.00 60.00
C 139.00 59.50 139.00 59.00 139.00 59.00
C 139.00 57.67 139.00 56.33 139.00 55.00
C 138.33 50.06 136.15 43.88 138.00 39.00
C 138.78 36.96 139.12 36.30 141.00 35.00
C 141.27 34.82 141.81 34.27 142.00 34.00
C 144.06 31.13 143.50 32.68 145.00 34.00
M 644.00 462.00 
C 647.40 464.47 649.78 468.02 653.00 471.00
C 653.96 471.89 655.78 472.47 656.00 474.00
C 657.34 474.74 658.40 476.16 658.00 478.00
C 655.86 478.17 653.16 477.89 652.00 476.00
C 649.14 474.62 646.75 472.81 644.00 471.00
C 642.29 469.88 641.22 469.67 640.00 468.00
C 639.64 468.23 639.00 468.00 639.00 468.00
C 637.72 467.54 636.48 466.20 636.00 465.00
C 637.94 463.57 642.63 457.00 644.00 462.00
M 606.00 480.00 
C 606.07 479.51 606.00 479.00 606.00 479.00
C 606.16 471.00 613.96 468.23 615.92 474.08 C 617.88 479.94 604.96 487.69 606.00 480.00
M 895.00 497.00 
C 897.46 498.49 899.07 499.56 901.00 502.00
C 901.92 503.16 903.29 504.53 904.00 506.00
C 902.51 507.55 899.93 506.56 899.00 505.00
C 891.61 502.48 885.65 499.00 879.00 495.00
C 877.40 494.03 875.88 494.19 875.00 492.00
C 874.72 491.29 873.33 490.31 874.00 489.00
C 876.72 489.63 878.41 486.93 881.00 487.00
C 881.43 486.76 880.66 484.40 881.00 484.00
C 885.66 487.38 890.68 491.92 895.00 497.00
M 669.00 531.00 
C 670.26 531.31 671.72 530.77 673.00 531.00
C 673.53 533.16 671.89 535.24 670.00 536.00
C 669.43 537.63 668.79 537.77 668.00 539.00
C 667.13 541.19 666.25 542.92 665.00 545.00
C 663.22 547.96 661.92 551.30 659.00 551.00
C 657.76 550.87 655.96 549.76 654.00 550.00
C 653.51 550.06 653.00 550.00 653.00 550.00
C 651.59 550.67 645.89 552.74 644.00 552.00
C 643.19 552.65 640.93 551.50 640.00 552.00
C 643.95 542.77 655.64 537.55 663.00 530.00
C 664.05 529.76 665.93 529.85 667.00 530.00
C 668.42 530.20 668.13 530.00 669.00 531.00
M 699.00 600.00 
C 702.15 599.19 697.95 591.56 699.00 589.00
C 699.37 588.09 699.29 586.86 700.00 586.00
C 702.51 586.80 705.19 587.28 708.00 587.00
C 712.03 595.99 721.58 604.15 711.00 613.00
C 709.83 614.90 708.49 616.88 708.00 619.00
C 705.65 619.77 704.73 617.75 704.00 616.00
C 701.82 611.99 705.69 607.39 697.33 609.33 C 688.97 611.27 678.80 611.15 670.00 612.00
C 660.83 612.89 662.29 609.02 659.00 601.00
C 658.44 599.64 657.36 598.42 657.00 597.00
C 655.37 590.57 664.45 592.67 668.70 587.70 C 672.94 582.72 681.26 587.53 685.08 589.92 C 688.91 592.31 695.80 600.29 699.00 600.00
M 790.00 610.00 
C 791.10 613.45 789.61 621.43 788.00 624.00
C 788.02 636.42 787.60 640.35 777.00 645.00
C 775.61 645.61 774.41 646.48 773.00 647.00
C 770.33 647.99 767.97 648.08 765.00 648.00
C 764.03 647.97 762.95 648.15 762.00 648.00
C 761.00 647.84 760.23 646.51 759.00 647.00
C 762.08 639.70 763.43 631.45 768.00 625.00
C 768.11 624.53 768.00 624.00 768.00 624.00
C 768.10 619.19 772.91 604.56 777.00 602.00
C 777.11 601.53 777.00 601.00 777.00 601.00
C 776.85 599.02 777.85 597.89 778.00 596.00
C 783.98 598.15 786.34 605.97 790.00 610.00
M 698.00 629.00 
C 694.14 631.07 691.21 631.16 687.00 632.00
C 684.58 632.48 682.76 634.88 682.00 630.00
C 681.92 629.51 682.00 629.00 682.00 629.00
C 682.00 625.67 682.00 622.33 682.00 619.00
C 684.56 618.34 686.47 616.53 689.00 616.00
C 689.43 615.83 690.00 616.00 690.00 616.00
C 692.99 613.74 700.49 624.25 702.00 627.00
C 700.66 627.73 699.36 628.34 698.00 629.00
M 889.00 646.00 
C 888.73 647.15 888.24 648.22 888.00 649.00
C 887.70 649.97 888.60 651.74 887.00 652.00
C 886.52 653.20 886.25 654.68 886.00 656.00
C 883.52 656.36 881.44 654.20 881.00 652.00
C 878.62 650.97 877.65 650.12 876.00 648.00
C 875.79 647.74 875.06 647.35 875.00 647.00
C 874.42 643.84 876.61 641.88 877.00 639.00
C 878.67 639.00 880.33 639.00 882.00 639.00
C 885.92 643.01 890.59 639.24 889.00 646.00
M 917.00 646.00 
C 920.44 646.36 922.38 650.40 924.00 653.00
C 924.39 653.62 924.63 654.42 925.00 655.00
C 925.56 655.86 925.87 655.67 926.00 657.00
C 927.98 659.79 930.84 660.19 931.00 664.00
C 931.06 665.51 931.48 666.76 928.00 666.00
C 925.06 664.19 922.16 662.44 919.00 661.00
C 917.74 660.43 916.09 659.52 915.00 659.00
C 910.61 656.91 905.33 655.89 901.00 653.00
C 898.86 651.57 898.01 652.23 899.00 650.00
C 899.01 648.91 901.37 647.47 902.00 647.00
C 906.12 643.95 910.99 646.13 917.00 646.00
M 779.00 658.00 
C 781.93 659.90 783.13 666.36 785.92 669.08 C 788.70 671.81 790.93 677.70 793.00 681.00
C 794.17 682.87 795.19 683.66 796.00 686.00
C 797.35 689.91 797.78 694.03 799.00 698.00
C 793.55 698.98 789.40 703.22 784.00 704.00
C 779.82 706.14 776.00 710.11 771.00 711.00
C 771.59 708.16 769.78 704.02 772.00 702.00
C 771.78 691.20 773.60 681.43 774.00 671.00
C 774.11 668.10 774.57 665.25 775.00 663.00
C 774.90 659.77 775.22 655.55 779.00 658.00
M 965.00 678.00 
C 968.55 681.00 967.59 680.05 964.00 682.00
C 943.60 693.07 920.22 704.79 898.00 712.00
C 896.29 712.56 894.68 713.32 893.00 714.00
C 892.24 711.81 894.30 710.68 895.00 709.00
C 900.08 700.35 906.75 697.45 912.70 688.70 C 918.66 679.95 926.74 678.13 938.00 682.00
C 944.36 672.49 956.27 668.29 965.00 678.00
M 1076.00 731.00 
C 1075.02 734.42 1072.54 737.81 1069.00 740.00
C 1066.82 736.40 1063.74 733.23 1063.00 729.00
C 1063.00 724.61 1067.67 723.11 1068.00 719.00
C 1072.60 719.87 1083.41 727.56 1076.00 731.00 Z"/>
</g>
<g fill="#8C30C7" fill-opacity="0.31" stroke="None">
<path d="
M 248.00 6.00 
C 246.83 8.16 245.96 7.97 247.00 10.00
C 246.74 6.35 252.08 3.34 253.00 0.00
L 251.00 0.00
C 250.59 2.20 249.08 4.00 248.00 6.00 Z"/>
</g>
<g fill="#54379A" fill-opacity="0.91" stroke="None">
<path d="
M 247.00 10.00 
C 247.19 10.37 247.76 11.78 248.00 12.00
C 250.20 14.02 254.25 16.62 257.00 18.00
C 258.18 17.51 259.06 15.75 260.00 15.00
C 261.57 12.35 261.91 9.59 264.00 7.00
C 263.88 6.53 264.15 5.45 264.00 5.00
C 263.30 2.96 260.79 2.05 260.00 0.00
L 253.00 0.00
C 252.08 3.34 246.74 6.35 247.00 10.00 Z"/>
</g>
<g fill="#C029DB" fill-opacity="0.13" stroke="None">
<path d="
M 264.00 7.00 
C 264.09 7.35 265.01 7.85 265.00 8.00
C 267.77 6.87 264.04 5.06 264.00 5.00
C 264.15 5.45 263.88 6.53 264.00 7.00 Z"/>
</g>
<g fill="#E21EF5" fill-opacity="0.07" stroke="None">
<path d="
M 248.00 12.00 
C 247.76 11.78 247.19 10.37 247.00 10.00
C 245.96 7.97 246.83 8.16 248.00 6.00
C 245.69 7.00 244.25 9.64 244.00 12.00
C 244.78 13.11 248.05 12.02 248.00 12.00 Z"/>
</g>
<g fill="#7133AC" fill-opacity="0.67" stroke="None">
<path d="
M 260.00 15.00 
C 260.44 14.65 261.68 14.35 262.00 14.00
C 262.73 12.34 264.90 9.79 265.00 8.00
C 265.01 7.85 264.09 7.35 264.00 7.00
C 261.91 9.59 261.57 12.35 260.00 15.00 Z"/>
</g>
<g fill="#D234E1" fill-opacity="0.14" stroke="None">
<path d="
M 260.00 15.00 
C 259.06 15.75 258.18 17.51 257.00 18.00
C 258.53 18.18 257.99 20.82 260.00 20.00
C 260.34 17.87 261.13 15.96 262.00 14.00
C 261.68 14.35 260.44 14.65 260.00 15.00 Z"/>
</g>
<g fill="#F219FC" fill-opacity="0.19" stroke="None">
<path d="
M 226.00 30.00 
C 229.67 30.00 233.33 30.00 237.00 30.00
C 235.29 26.33 228.27 29.59 226.00 30.00 Z"/>
</g>
<g fill="#DE1EEE" fill-opacity="0.08" stroke="None">
<path d="
M 218.00 31.00 
C 219.80 30.82 221.78 30.22 223.00 30.00
C 220.98 29.99 219.41 30.70 218.00 31.00 Z"/>
</g>
<g fill="#513798" fill-opacity="0.94" stroke="None">
<path d="
M 218.00 31.00 
C 214.95 31.31 209.17 30.61 207.00 32.00
C 203.82 34.84 203.73 44.50 202.02 49.02 C 200.32 53.55 197.44 61.49 196.00 66.00
C 195.05 68.88 194.77 71.83 195.00 75.00
C 203.49 73.80 212.29 70.69 220.00 67.00
C 224.31 64.93 226.26 58.27 227.93 52.93 C 229.59 47.58 234.25 41.09 236.00 37.00
C 236.35 35.39 237.73 31.57 237.00 30.00
C 233.33 30.00 229.67 30.00 226.00 30.00
C 225.00 30.00 224.00 30.00 223.00 30.00
C 221.78 30.22 219.80 30.82 218.00 31.00 Z"/>
</g>
<g fill="#FA19FF" fill-opacity="0.07" stroke="None">
<path d="
M 142.00 34.00 
C 142.60 33.82 144.39 33.86 145.00 34.00
C 143.50 32.68 144.06 31.13 142.00 34.00 Z"/>
</g>
<g fill="#E81EF5" fill-opacity="0.13" stroke="None">
<path d="
M 196.00 66.00 
C 197.44 61.49 200.32 53.55 202.02 49.02 C 203.73 44.50 203.82 34.84 207.00 32.00
C 202.99 34.57 202.71 44.87 199.99 48.99 C 197.27 53.11 196.32 61.81 196.00 66.00 Z"/>
</g>
<g fill="#8330B0" fill-opacity="0.25" stroke="None">
<path d="
M 141.00 35.00 
C 141.69 35.96 145.36 34.88 147.00 36.00
C 146.48 35.19 146.13 34.26 145.00 34.00
C 144.39 33.86 142.60 33.82 142.00 34.00
C 141.81 34.27 141.27 34.82 141.00 35.00 Z"/>
</g>
<g fill="#55379A" fill-opacity="0.92" stroke="None">
<path d="
M 138.00 39.00 
C 137.47 42.30 139.00 47.28 139.00 51.00
C 139.20 53.10 140.00 56.23 140.00 59.00
C 140.00 62.92 139.09 67.88 139.00 71.00
C 139.37 76.39 139.05 88.35 145.92 84.92 C 152.79 81.50 153.69 79.48 160.00 76.00
C 160.97 75.12 161.41 73.17 163.00 73.00
C 162.61 70.93 161.91 68.94 161.00 67.00
C 159.33 63.69 157.80 59.61 157.00 57.00
C 153.47 50.24 151.18 42.55 147.00 36.00
C 145.36 34.88 141.69 35.96 141.00 35.00
C 139.12 36.30 138.78 36.96 138.00 39.00 Z"/>
</g>
<g fill="#E91FF3" fill-opacity="0.16" stroke="None">
<path d="
M 220.00 67.00 
C 221.31 67.54 222.44 68.41 224.00 68.00
C 223.97 64.03 227.66 62.35 231.00 62.00
C 226.34 58.29 234.26 45.00 236.00 37.00
C 234.25 41.09 229.59 47.58 227.93 52.93 C 226.26 58.27 224.31 64.93 220.00 67.00 Z"/>
</g>
<g fill="#E620F5" fill-opacity="0.15" stroke="None">
<path d="
M 139.00 55.00 
C 139.00 53.67 139.00 52.33 139.00 51.00
C 139.00 47.28 137.47 42.30 138.00 39.00
C 136.15 43.88 138.33 50.06 139.00 55.00 Z"/>
</g>
<g fill="#C227DD" fill-opacity="0.22" stroke="None">
<path d="
M 119.00 77.00 
C 116.03 64.45 83.09 63.17 96.00 44.00
C 97.28 43.72 99.50 44.76 100.00 43.00
C 91.23 41.31 91.26 60.35 98.77 63.23 C 106.28 66.11 112.20 72.77 119.00 77.00 Z"/>
</g>
<g fill="#543798" fill-opacity="0.97" stroke="None">
<path d="
M 119.00 77.00 
C 119.00 77.00 119.64 77.22 120.00 77.00
C 121.92 75.81 128.44 81.63 129.00 84.00
C 129.00 84.00 129.74 84.25 130.00 84.00
C 130.75 83.28 132.16 83.97 133.00 85.00
C 135.95 84.21 134.50 81.22 136.00 79.00
C 135.74 76.12 136.80 73.10 137.00 71.00
C 137.00 59.40 135.23 61.21 128.00 55.00
C 128.00 55.00 127.47 55.11 127.00 55.00
C 121.83 53.79 117.29 50.34 113.00 48.00
C 108.85 46.37 104.37 43.84 100.00 43.00
C 99.50 44.76 97.28 43.72 96.00 44.00
C 83.09 63.17 116.03 64.45 119.00 77.00 Z"/>
</g>
<g fill="#D820E8" fill-opacity="0.10" stroke="None">
<path d="
M 127.00 55.00 
C 124.74 51.39 116.94 49.55 113.00 48.00
C 117.29 50.34 121.83 53.79 127.00 55.00 Z"/>
</g>
<g fill="#7831B0" fill-opacity="0.69" stroke="None">
<path d="
M 139.00 55.00 
C 139.00 56.33 139.00 57.67 139.00 59.00
C 139.25 58.75 140.00 59.00 140.00 59.00
C 140.00 56.23 139.20 53.10 139.00 51.00
C 139.00 52.33 139.00 53.67 139.00 55.00 Z"/>
</g>
<g fill="#E023F1" fill-opacity="0.15" stroke="None">
<path d="
M 137.00 71.00 
C 137.00 71.50 137.00 72.50 137.00 73.00
C 137.23 70.60 137.45 63.10 139.00 61.00
C 139.00 60.50 139.00 60.00 139.00 60.00
C 136.31 57.13 131.72 55.61 128.00 55.00
C 135.23 61.21 137.00 59.40 137.00 71.00 Z"/>
</g>
<g fill="#B227D4" fill-opacity="0.34" stroke="None">
<path d="
M 161.00 67.00 
C 160.82 66.57 161.00 66.00 161.00 66.00
C 160.21 62.64 158.57 60.01 157.00 57.00
C 157.80 59.61 159.33 63.69 161.00 67.00 Z"/>
</g>
<g fill="#872EB9" fill-opacity="0.29" stroke="None">
<path d="
M 139.00 60.00 
C 139.00 60.00 139.00 60.50 139.00 61.00
C 139.00 64.31 138.78 67.70 139.00 71.00
C 139.09 67.88 140.00 62.92 140.00 59.00
C 140.00 59.00 139.25 58.75 139.00 59.00
C 139.00 59.00 139.00 59.50 139.00 60.00 Z"/>
</g>
<g fill="#DA22EB" fill-opacity="0.17" stroke="None">
<path d="
M 161.00 67.00 
C 161.91 68.94 162.61 70.93 163.00 73.00
C 161.41 73.17 160.97 75.12 160.00 76.00
C 161.71 75.42 163.11 73.94 165.00 74.00
C 165.39 70.74 162.22 68.47 161.00 66.00
C 161.00 66.00 160.82 66.57 161.00 67.00 Z"/>
</g>
<g fill="#BA25DA" fill-opacity="0.33" stroke="None">
<path d="
M 136.00 79.00 
C 136.16 78.77 137.00 79.00 137.00 79.00
C 137.20 77.05 137.00 74.96 137.00 73.00
C 137.00 72.50 137.00 71.50 137.00 71.00
C 136.80 73.10 135.74 76.12 136.00 79.00 Z"/>
</g>
<g fill="#A32CCB" fill-opacity="0.36" stroke="None">
<path d="
M 120.00 77.00 
C 122.54 79.65 125.74 81.97 129.00 84.00
C 128.44 81.63 121.92 75.81 120.00 77.00 Z"/>
</g>
<g fill="#852FB7" fill-opacity="0.63" stroke="None">
<path d="
M 133.00 85.00 
C 133.25 85.30 133.00 86.00 133.00 86.00
C 133.61 85.62 135.45 85.77 136.00 85.00
C 136.43 83.60 136.86 80.39 137.00 79.00
C 137.00 79.00 136.16 78.77 136.00 79.00
C 134.50 81.22 135.95 84.21 133.00 85.00 Z"/>
</g>
<g fill="#8C2AC7" fill-opacity="0.35" stroke="None">
<path d="
M 130.00 84.00 
C 130.69 84.93 131.57 86.80 133.00 87.00
C 132.75 86.75 133.00 86.00 133.00 86.00
C 133.00 86.00 133.25 85.30 133.00 85.00
C 132.16 83.97 130.75 83.28 130.00 84.00 Z"/>
</g>
<g fill="#EF19FA" fill-opacity="0.09" stroke="None">
<path d="
M 133.00 86.00 
C 133.00 86.00 132.75 86.75 133.00 87.00
C 135.47 89.43 135.52 86.57 136.00 85.00
C 135.45 85.77 133.61 85.62 133.00 86.00 Z"/>
</g>
<g fill="#ED20F7" fill-opacity="0.10" stroke="None">
<path d="
M 639.00 468.00 
C 636.19 464.71 640.66 461.22 644.00 462.00
C 642.63 457.00 637.94 463.57 636.00 465.00
C 636.48 466.20 637.72 467.54 639.00 468.00 Z"/>
</g>
<g fill="#8832A9" fill-opacity="0.74" stroke="None">
<path d="
M 639.00 468.00 
C 639.00 468.00 639.64 468.23 640.00 468.00
C 641.79 466.86 642.64 469.74 644.00 471.00
C 646.75 472.81 649.14 474.62 652.00 476.00
C 653.70 475.89 654.17 475.38 655.00 474.00
C 652.87 473.19 653.14 471.21 653.00 471.00
C 649.78 468.02 647.40 464.47 644.00 462.00
C 640.66 461.22 636.19 464.71 639.00 468.00 Z"/>
</g>
<g fill="#D425E1" fill-opacity="0.20" stroke="None">
<path d="
M 640.00 468.00 
C 641.22 469.67 642.29 469.88 644.00 471.00
C 642.64 469.74 641.79 466.86 640.00 468.00 Z"/>
</g>
<g fill="#E41FF0" fill-opacity="0.13" stroke="None">
<path d="
M 606.00 479.00 
C 606.25 478.75 607.00 479.00 607.00 479.00
C 610.20 467.89 616.94 473.46 611.00 480.00
C 610.24 480.83 609.52 482.03 609.00 483.00
C 607.12 482.76 607.54 480.45 606.00 480.00
C 604.96 487.69 617.88 479.94 615.92 474.08 C 613.96 468.23 606.16 471.00 606.00 479.00 Z"/>
</g>
<g fill="#84349E" fill-opacity="0.91" stroke="None">
<path d="
M 607.00 479.00 
C 608.08 481.12 609.09 481.01 611.00 480.00
C 616.94 473.46 610.20 467.89 607.00 479.00 Z"/>
</g>
<g fill="#7E32A2" fill-opacity="0.31" stroke="None">
<path d="
M 655.00 474.00 
C 655.13 473.78 656.00 474.00 656.00 474.00
C 655.78 472.47 653.96 471.89 653.00 471.00
C 653.14 471.21 652.87 473.19 655.00 474.00 Z"/>
</g>
<g fill="#E021ED" fill-opacity="0.18" stroke="None">
<path d="
M 652.00 476.00 
C 653.16 477.89 655.86 478.17 658.00 478.00
C 658.40 476.16 657.34 474.74 656.00 474.00
C 656.00 474.00 655.13 473.78 655.00 474.00
C 654.17 475.38 653.70 475.89 652.00 476.00 Z"/>
</g>
<g fill="#D025DF" fill-opacity="0.42" stroke="None">
<path d="
M 606.00 480.00 
C 607.54 480.45 607.12 482.76 609.00 483.00
C 609.52 482.03 610.24 480.83 611.00 480.00
C 609.09 481.01 608.08 481.12 607.00 479.00
C 607.00 479.00 606.25 478.75 606.00 479.00
C 606.00 479.00 606.07 479.51 606.00 480.00 Z"/>
</g>
<g fill="#DF22EC" fill-opacity="0.18" stroke="None">
<path d="
M 881.00 487.00 
C 885.78 487.22 890.99 494.57 895.00 497.00
C 890.68 491.92 885.66 487.38 881.00 484.00
C 880.66 484.40 881.43 486.76 881.00 487.00 Z"/>
</g>
<g fill="#7F34A0" fill-opacity="0.78" stroke="None">
<path d="
M 875.00 492.00 
C 875.33 492.53 878.41 494.55 879.00 495.00
C 885.65 499.00 891.61 502.48 899.00 505.00
C 900.41 504.53 901.04 503.44 901.00 502.00
C 899.07 499.56 897.46 498.49 895.00 497.00
C 890.99 494.57 885.78 487.22 881.00 487.00
C 878.41 486.93 876.72 489.63 874.00 489.00
C 873.33 490.31 874.72 491.29 875.00 492.00 Z"/>
</g>
<g fill="#BB2BD1" fill-opacity="0.18" stroke="None">
<path d="
M 879.00 495.00 
C 878.41 494.55 875.33 492.53 875.00 492.00
C 875.88 494.19 877.40 494.03 879.00 495.00 Z"/>
</g>
<g fill="#DE2AEC" fill-opacity="0.19" stroke="None">
<path d="
M 899.00 505.00 
C 899.93 506.56 902.51 507.55 904.00 506.00
C 903.29 504.53 901.92 503.16 901.00 502.00
C 901.04 503.44 900.41 504.53 899.00 505.00 Z"/>
</g>
<g fill="#E21EF0" fill-opacity="0.18" stroke="None">
<path d="
M 644.00 552.00 
C 643.73 551.89 642.99 550.30 643.00 550.00
C 643.09 547.90 647.66 545.15 649.00 544.00
C 650.69 542.31 652.17 540.50 654.00 539.00
C 655.26 537.97 656.79 536.99 658.00 536.00
C 659.24 534.81 661.54 530.50 663.00 530.00
C 655.64 537.55 643.95 542.77 640.00 552.00
C 640.93 551.50 643.19 552.65 644.00 552.00 Z"/>
</g>
<g fill="#A02CB7" fill-opacity="0.55" stroke="None">
<path d="
M 658.00 536.00 
C 660.59 533.87 663.89 530.16 667.00 530.00
C 665.93 529.85 664.05 529.76 663.00 530.00
C 661.54 530.50 659.24 534.81 658.00 536.00 Z"/>
</g>
<g fill="#7D3599" fill-opacity="0.96" stroke="None">
<path d="
M 658.00 536.00 
C 656.79 536.99 655.26 537.97 654.00 539.00
C 652.32 540.61 650.76 542.49 649.00 544.00
C 647.66 545.15 643.09 547.90 643.00 550.00
C 644.10 548.97 651.34 550.00 653.00 550.00
C 653.00 550.00 653.51 550.06 654.00 550.00
C 656.16 548.40 658.60 549.98 661.00 549.00
C 662.17 547.47 663.85 546.32 665.00 545.00
C 666.25 542.92 667.13 541.19 668.00 539.00
C 668.60 537.50 670.14 534.67 670.00 533.00
C 669.76 532.52 669.31 531.35 669.00 531.00
C 668.13 530.00 668.42 530.20 667.00 530.00
C 663.89 530.16 660.59 533.87 658.00 536.00 Z"/>
</g>
<g fill="#EE1BF6" fill-opacity="0.11" stroke="None">
<path d="
M 670.00 533.00 
C 670.78 534.53 670.66 534.13 670.00 536.00
C 671.89 535.24 673.53 533.16 673.00 531.00
C 671.72 530.77 670.26 531.31 669.00 531.00
C 669.31 531.35 669.76 532.52 670.00 533.00 Z"/>
</g>
<g fill="#B12AC5" fill-opacity="0.40" stroke="None">
<path d="
M 668.00 539.00 
C 668.79 537.77 669.43 537.63 670.00 536.00
C 670.66 534.13 670.78 534.53 670.00 533.00
C 670.14 534.67 668.60 537.50 668.00 539.00 Z"/>
</g>
<g fill="#C624D7" fill-opacity="0.67" stroke="None">
<path d="
M 649.00 544.00 
C 650.76 542.49 652.32 540.61 654.00 539.00
C 652.17 540.50 650.69 542.31 649.00 544.00 Z"/>
</g>
<g fill="#D822E4" fill-opacity="0.16" stroke="None">
<path d="
M 661.00 549.00 
C 660.37 549.83 660.18 550.77 659.00 551.00
C 661.92 551.30 663.22 547.96 665.00 545.00
C 663.85 546.32 662.17 547.47 661.00 549.00 Z"/>
</g>
<g fill="#CD24DC" fill-opacity="0.38" stroke="None">
<path d="
M 654.00 550.00 
C 655.96 549.76 657.76 550.87 659.00 551.00
C 660.18 550.77 660.37 549.83 661.00 549.00
C 658.60 549.98 656.16 548.40 654.00 550.00 Z"/>
</g>
<g fill="#B92BCE" fill-opacity="0.34" stroke="None">
<path d="
M 644.00 552.00 
C 645.89 552.74 651.59 550.67 653.00 550.00
C 651.34 550.00 644.10 548.97 643.00 550.00
C 642.99 550.30 643.73 551.89 644.00 552.00 Z"/>
</g>
<g fill="#E821F4" fill-opacity="0.19" stroke="None">
<path d="
M 657.00 597.00 
C 657.60 591.74 666.43 592.90 670.03 589.02 C 673.62 585.15 681.91 589.28 685.23 591.77 C 688.55 594.26 694.96 601.04 699.00 600.00
C 695.80 600.29 688.91 592.31 685.08 589.92 C 681.26 587.53 672.94 582.72 668.70 587.70 C 664.45 592.67 655.37 590.57 657.00 597.00 Z"/>
</g>
<g fill="#D624E7" fill-opacity="0.25" stroke="None">
<path d="
M 699.00 589.00 
C 704.78 583.28 708.04 591.23 711.25 595.75 C 714.47 600.26 715.09 604.77 711.00 610.00
C 710.65 611.04 711.03 612.89 711.00 613.00
C 721.58 604.15 712.03 595.99 708.00 587.00
C 705.19 587.28 702.51 586.80 700.00 586.00
C 699.29 586.86 699.37 588.09 699.00 589.00 Z"/>
</g>
<g fill="#7C3695" fill-opacity="0.94" stroke="None">
<path d="
M 657.00 597.00 
C 657.36 598.42 658.44 599.64 659.00 601.00
C 662.45 606.56 662.45 611.42 670.00 612.00
C 678.80 611.15 688.97 611.27 697.33 609.33 C 705.69 607.39 701.82 611.99 704.00 616.00
C 705.89 617.73 709.71 611.66 711.00 610.00
C 715.09 604.77 714.47 600.26 711.25 595.75 C 708.04 591.23 704.78 583.28 699.00 589.00
C 697.95 591.56 702.15 599.19 699.00 600.00
C 694.96 601.04 688.55 594.26 685.23 591.77 C 681.91 589.28 673.62 585.15 670.03 589.02 C 666.43 592.90 657.60 591.74 657.00 597.00 Z"/>
</g>
<g fill="#E71DF4" fill-opacity="0.26" stroke="None">
<path d="
M 777.00 601.00 
C 780.44 594.50 786.01 610.23 789.00 611.00
C 789.03 610.65 790.02 610.12 790.00 610.00
C 786.34 605.97 783.98 598.15 778.00 596.00
C 777.85 597.89 776.85 599.02 777.00 601.00 Z"/>
</g>
<g fill="#773694" fill-opacity="0.97" stroke="None">
<path d="
M 777.00 601.00 
C 777.00 601.00 777.11 601.53 777.00 602.00
C 775.46 608.58 772.34 618.91 768.00 624.00
C 768.00 624.00 768.11 624.53 768.00 625.00
C 766.56 631.13 763.27 636.76 762.00 643.00
C 762.21 645.24 762.55 646.36 765.00 647.00
C 767.10 647.08 772.01 647.25 773.00 647.00
C 774.41 646.48 775.61 645.61 777.00 645.00
C 785.93 639.21 786.66 634.11 788.00 623.00
C 787.61 618.85 788.62 615.06 789.00 611.00
C 786.01 610.23 780.44 594.50 777.00 601.00 Z"/>
</g>
<g fill="#C128D6" fill-opacity="0.18" stroke="None">
<path d="
M 670.00 612.00 
C 662.45 611.42 662.45 606.56 659.00 601.00
C 662.29 609.02 660.83 612.89 670.00 612.00 Z"/>
</g>
<g fill="#DF1EEC" fill-opacity="0.18" stroke="None">
<path d="
M 768.00 624.00 
C 772.34 618.91 775.46 608.58 777.00 602.00
C 772.91 604.56 768.10 619.19 768.00 624.00 Z"/>
</g>
<g fill="#DA27E7" fill-opacity="0.52" stroke="None">
<path d="
M 704.00 616.00 
C 704.73 617.75 705.65 619.77 708.00 619.00
C 708.49 616.88 709.83 614.90 711.00 613.00
C 711.03 612.89 710.65 611.04 711.00 610.00
C 709.71 611.66 705.89 617.73 704.00 616.00 Z"/>
</g>
<g fill="#E820F9" fill-opacity="0.09" stroke="None">
<path d="
M 789.00 611.00 
C 788.62 615.06 787.61 618.85 788.00 623.00
C 788.05 623.50 788.00 624.00 788.00 624.00
C 789.61 621.43 791.10 613.45 790.00 610.00
C 790.02 610.12 789.03 610.65 789.00 611.00 Z"/>
</g>
<g fill="#DE1EEF" fill-opacity="0.16" stroke="None">
<path d="
M 690.00 616.00 
C 693.44 617.01 701.05 624.98 698.00 629.00
C 699.36 628.34 700.66 627.73 702.00 627.00
C 700.49 624.25 692.99 613.74 690.00 616.00 Z"/>
</g>
<g fill="#E41DF0" fill-opacity="0.18" stroke="None">
<path d="
M 682.00 629.00 
C 684.41 623.90 685.84 620.85 689.00 616.00
C 686.47 616.53 684.56 618.34 682.00 619.00
C 682.00 622.33 682.00 625.67 682.00 629.00 Z"/>
</g>
<g fill="#813698" fill-opacity="0.89" stroke="None">
<path d="
M 682.00 629.00 
C 682.00 629.00 681.92 629.51 682.00 630.00
C 683.16 631.63 685.23 631.82 687.00 632.00
C 691.21 631.16 694.14 631.07 698.00 629.00
C 701.05 624.98 693.44 617.01 690.00 616.00
C 690.00 616.00 689.43 615.83 689.00 616.00
C 685.84 620.85 684.41 623.90 682.00 629.00 Z"/>
</g>
<g fill="#D624E3" fill-opacity="0.25" stroke="None">
<path d="
M 777.00 645.00 
C 787.60 640.35 788.02 636.42 788.00 624.00
C 788.00 624.00 788.05 623.50 788.00 623.00
C 786.66 634.11 785.93 639.21 777.00 645.00 Z"/>
</g>
<g fill="#E01FEE" fill-opacity="0.15" stroke="None">
<path d="
M 762.00 648.00 
C 760.36 647.05 761.86 643.68 762.00 643.00
C 763.27 636.76 766.56 631.13 768.00 625.00
C 763.43 631.45 762.08 639.70 759.00 647.00
C 760.23 646.51 761.00 647.84 762.00 648.00 Z"/>
</g>
<g fill="#D820E5" fill-opacity="0.10" stroke="None">
<path d="
M 687.00 632.00 
C 685.23 631.82 683.16 631.63 682.00 630.00
C 682.76 634.88 684.58 632.48 687.00 632.00 Z"/>
</g>
<g fill="#E420EF" fill-opacity="0.16" stroke="None">
<path d="
M 875.00 647.00 
C 875.44 644.93 878.10 642.58 878.00 640.00
C 879.33 640.00 880.67 640.00 882.00 640.00
C 881.80 639.60 882.00 639.00 882.00 639.00
C 880.33 639.00 878.67 639.00 877.00 639.00
C 876.61 641.88 874.42 643.84 875.00 647.00 Z"/>
</g>
<g fill="#C327D1" fill-opacity="0.30" stroke="None">
<path d="
M 882.00 640.00 
C 883.66 643.31 888.70 641.19 889.00 646.00
C 890.59 639.24 885.92 643.01 882.00 639.00
C 882.00 639.00 881.80 639.60 882.00 640.00 Z"/>
</g>
<g fill="#7B3696" fill-opacity="0.93" stroke="None">
<path d="
M 875.00 647.00 
C 875.06 647.35 875.79 647.74 876.00 648.00
C 878.51 647.80 880.47 652.48 883.00 653.00
C 884.58 653.31 885.05 652.88 886.00 652.00
C 886.00 649.78 888.14 648.81 888.00 649.00
C 888.24 648.22 888.73 647.15 889.00 646.00
C 888.70 641.19 883.66 643.31 882.00 640.00
C 880.67 640.00 879.33 640.00 878.00 640.00
C 878.10 642.58 875.44 644.93 875.00 647.00 Z"/>
</g>
<g fill="#9A2CAF" fill-opacity="0.39" stroke="None">
<path d="
M 762.00 648.00 
C 762.95 648.15 764.03 647.97 765.00 648.00
C 765.25 647.73 765.00 647.00 765.00 647.00
C 762.55 646.36 762.21 645.24 762.00 643.00
C 761.86 643.68 760.36 647.05 762.00 648.00 Z"/>
</g>
<g fill="#A728BE" fill-opacity="0.34" stroke="None">
<path d="
M 902.00 647.00 
C 905.22 645.55 912.87 647.00 917.00 647.00
C 916.75 646.75 917.00 646.00 917.00 646.00
C 910.99 646.13 906.12 643.95 902.00 647.00 Z"/>
</g>
<g fill="#EA1BF3" fill-opacity="0.08" stroke="None">
<path d="
M 765.00 647.00 
C 765.00 647.00 765.25 647.73 765.00 648.00
C 767.97 648.08 770.33 647.99 773.00 647.00
C 772.01 647.25 767.10 647.08 765.00 647.00 Z"/>
</g>
<g fill="#7E3698" fill-opacity="0.89" stroke="None">
<path d="
M 902.00 647.00 
C 901.37 647.47 899.01 648.91 899.00 650.00
C 899.00 649.89 900.83 652.82 901.00 653.00
C 905.33 655.89 910.61 656.91 915.00 659.00
C 916.14 659.34 917.31 659.86 919.00 661.00
C 922.16 662.44 925.06 664.19 928.00 666.00
C 927.90 665.98 928.00 665.00 928.00 665.00
C 928.06 664.82 928.46 663.32 929.00 662.00
C 927.65 661.10 924.71 658.06 926.00 657.00
C 925.87 655.67 925.56 655.86 925.00 655.00
C 922.82 653.80 920.57 649.94 918.00 647.00
C 917.59 646.81 917.00 647.00 917.00 647.00
C 912.87 647.00 905.22 645.55 902.00 647.00 Z"/>
</g>
<g fill="#ED19F7" fill-opacity="0.07" stroke="None">
<path d="
M 917.00 647.00 
C 917.00 647.00 917.59 646.81 918.00 647.00
C 920.23 648.01 922.39 651.27 924.00 653.00
C 922.38 650.40 920.44 646.36 917.00 646.00
C 917.00 646.00 916.75 646.75 917.00 647.00 Z"/>
</g>
<g fill="#9D31B6" fill-opacity="0.36" stroke="None">
<path d="
M 876.00 648.00 
C 877.65 650.12 878.62 650.97 881.00 652.00
C 881.76 652.33 882.16 652.84 883.00 653.00
C 880.47 652.48 878.51 647.80 876.00 648.00 Z"/>
</g>
<g fill="#A92EBC" fill-opacity="0.37" stroke="None">
<path d="
M 925.00 655.00 
C 924.63 654.42 924.39 653.62 924.00 653.00
C 922.39 651.27 920.23 648.01 918.00 647.00
C 920.57 649.94 922.82 653.80 925.00 655.00 Z"/>
</g>
<g fill="#9E2CB1" fill-opacity="0.39" stroke="None">
<path d="
M 886.00 652.00 
C 886.27 651.75 887.00 652.00 887.00 652.00
C 888.60 651.74 887.70 649.97 888.00 649.00
C 888.14 648.81 886.00 649.78 886.00 652.00 Z"/>
</g>
<g fill="#D91EE4" fill-opacity="0.11" stroke="None">
<path d="
M 901.00 653.00 
C 900.83 652.82 899.00 649.89 899.00 650.00
C 898.01 652.23 898.86 651.57 901.00 653.00 Z"/>
</g>
<g fill="#EA1CF5" fill-opacity="0.15" stroke="None">
<path d="
M 887.00 652.00 
C 887.00 652.00 886.27 651.75 886.00 652.00
C 885.05 652.88 884.58 653.31 883.00 653.00
C 882.16 652.84 881.76 652.33 881.00 652.00
C 881.44 654.20 883.52 656.36 886.00 656.00
C 886.25 654.68 886.52 653.20 887.00 652.00 Z"/>
</g>
<g fill="#B12EC1" fill-opacity="0.29" stroke="None">
<path d="
M 775.00 663.00 
C 775.03 664.00 775.00 665.00 775.00 666.00
C 775.25 664.29 775.60 657.36 779.00 658.00
C 775.22 655.55 774.90 659.77 775.00 663.00 Z"/>
</g>
<g fill="#9A38AD" fill-opacity="0.43" stroke="None">
<path d="
M 928.00 665.00 
C 928.53 664.67 930.56 664.76 931.00 664.00
C 930.84 660.19 927.98 659.79 926.00 657.00
C 924.71 658.06 927.65 661.10 929.00 662.00
C 928.46 663.32 928.06 664.82 928.00 665.00 Z"/>
</g>
<g fill="#813598" fill-opacity="0.90" stroke="None">
<path d="
M 775.00 666.00 
C 775.01 668.00 774.23 669.67 774.00 671.00
C 773.60 681.43 771.78 691.20 772.00 702.00
C 772.05 704.33 771.96 706.67 772.00 709.00
C 776.45 708.85 779.50 704.42 784.00 704.00
C 789.40 703.22 793.55 698.98 799.00 698.00
C 797.78 694.03 797.35 689.91 796.00 686.00
C 794.58 683.64 793.75 683.03 793.00 681.00
C 790.93 677.70 788.70 671.81 785.92 669.08 C 783.13 666.36 781.93 659.90 779.00 658.00
C 775.60 657.36 775.25 664.29 775.00 666.00 Z"/>
</g>
<g fill="#AE2AD0" fill-opacity="0.29" stroke="None">
<path d="
M 915.00 659.00 
C 916.09 659.52 917.74 660.43 919.00 661.00
C 917.31 659.86 916.14 659.34 915.00 659.00 Z"/>
</g>
<g fill="#CF20DE" fill-opacity="0.03" stroke="None">
<path d="
M 774.00 671.00 
C 774.23 669.67 775.01 668.00 775.00 666.00
C 775.00 665.00 775.03 664.00 775.00 663.00
C 774.57 665.25 774.11 668.10 774.00 671.00 Z"/>
</g>
<g fill="#E61BEE" fill-opacity="0.11" stroke="None">
<path d="
M 928.00 665.00 
C 928.00 665.00 927.90 665.98 928.00 666.00
C 931.48 666.76 931.06 665.51 931.00 664.00
C 930.56 664.76 928.53 664.67 928.00 665.00 Z"/>
</g>
<g fill="#803696" fill-opacity="0.85" stroke="None">
<path d="
M 895.00 709.00 
C 895.08 709.47 897.55 711.87 898.00 712.00
C 920.22 704.79 943.60 693.07 964.00 682.00
C 965.34 680.56 965.90 679.72 965.00 678.00
C 956.27 668.29 944.36 672.49 938.00 682.00
C 926.74 678.13 918.66 679.95 912.70 688.70 C 906.75 697.45 900.08 700.35 895.00 709.00 Z"/>
</g>
<g fill="#DE21E5" fill-opacity="0.15" stroke="None">
<path d="
M 964.00 682.00 
C 967.59 680.05 968.55 681.00 965.00 678.00
C 965.90 679.72 965.34 680.56 964.00 682.00 Z"/>
</g>
<g fill="#B12BBF" fill-opacity="0.33" stroke="None">
<path d="
M 796.00 686.00 
C 795.19 683.66 794.17 682.87 793.00 681.00
C 793.75 683.03 794.58 683.64 796.00 686.00 Z"/>
</g>
<g fill="#E720F0" fill-opacity="0.16" stroke="None">
<path d="
M 784.00 704.00 
C 779.50 704.42 776.45 708.85 772.00 709.00
C 771.96 706.67 772.05 704.33 772.00 702.00
C 769.78 704.02 771.59 708.16 771.00 711.00
C 776.00 710.11 779.82 706.14 784.00 704.00 Z"/>
</g>
<g fill="#DD21EA" fill-opacity="0.11" stroke="None">
<path d="
M 898.00 712.00 
C 897.55 711.87 895.08 709.47 895.00 709.00
C 894.30 710.68 892.24 711.81 893.00 714.00
C 894.68 713.32 896.29 712.56 898.00 712.00 Z"/>
</g>
<g fill="#D226DD" fill-opacity="0.11" stroke="None">
<path d="
M 925.00 718.00 
C 926.87 718.00 929.46 720.19 930.00 722.00
C 931.74 727.80 929.35 735.12 926.00 739.00
C 923.86 741.48 921.12 743.69 919.00 746.00
C 918.30 746.76 917.35 748.04 917.00 749.00
C 921.89 745.59 928.69 740.36 931.00 735.00 C 933.31 729.64 930.76 715.30 925.00 718.00 Z"/>
</g>
<g fill="#B925C6" fill-opacity="0.25" stroke="None">
<path d="
M 912.00 730.00 
C 913.33 730.11 915.42 728.58 917.00 727.00
C 919.44 724.14 926.85 714.27 930.00 722.00
C 929.46 720.19 926.87 718.00 925.00 718.00
C 919.85 720.41 915.63 725.92 912.00 730.00 Z"/>
</g>
<g fill="#803692" fill-opacity="0.99" stroke="None">
<path d="
M 917.00 727.00 
C 912.72 732.01 907.59 736.42 903.00 741.00
C 900.07 743.93 897.98 747.71 894.00 749.00
C 894.00 749.00 894.00 749.50 894.00 750.00
L 915.00 750.00
C 915.61 748.08 917.78 747.22 919.00 746.00
C 921.26 743.74 923.77 741.21 926.00 739.00
C 929.35 735.12 931.74 727.80 930.00 722.00
C 926.85 714.27 919.44 724.14 917.00 727.00 Z"/>
</g>
<g fill="#DA29E5" fill-opacity="0.18" stroke="None">
<path d="
M 1063.00 729.00 
C 1063.98 719.12 1079.06 720.28 1076.00 731.00
C 1083.41 727.56 1072.60 719.87 1068.00 719.00
C 1067.67 723.11 1063.00 724.61 1063.00 729.00 Z"/>
</g>
<g fill="#89379A" fill-opacity="0.84" stroke="None">
<path d="
M 1063.00 729.00 
C 1063.74 733.23 1066.82 736.40 1069.00 740.00
C 1072.54 737.81 1075.02 734.42 1076.00 731.00
C 1079.06 720.28 1063.98 719.12 1063.00 729.00 Z"/>
</g>
<g fill="#9632B4" fill-opacity="0.66" stroke="None">
<path d="
M 912.00 730.00 
C 911.77 730.26 911.24 730.73 911.00 731.00
C 911.18 733.30 905.32 738.68 903.00 741.00
C 907.59 736.42 912.72 732.01 917.00 727.00
C 915.42 728.58 913.33 730.11 912.00 730.00 Z"/>
</g>
<g fill="#C627D9" fill-opacity="0.06" stroke="None">
<path d="
M 897.00 746.00 
C 898.92 744.41 901.29 742.71 903.00 741.00
C 905.32 738.68 911.18 733.30 911.00 731.00
C 906.93 735.71 901.77 741.32 897.00 746.00 Z"/>
</g>
<g fill="#D422DF" fill-opacity="0.42" stroke="None">
<path d="
M 1088.00 735.00 
C 1088.27 735.13 1088.65 735.95 1089.00 736.00
C 1090.43 736.21 1094.69 736.95 1096.00 736.00 C 1097.31 735.05 1101.89 738.09 1102.00 738.00
C 1101.76 737.19 1101.16 736.87 1101.00 736.00
C 1101.00 736.00 1101.25 735.26 1101.00 735.00
C 1098.74 734.70 1096.28 735.04 1094.00 735.00
C 1092.01 734.97 1090.39 734.90 1088.00 735.00 Z"/>
</g>
<g fill="#F505FF" fill-opacity="0.01" stroke="None">
<path d="
M 1094.00 735.00 
C 1096.28 735.04 1098.74 734.70 1101.00 735.00
C 1098.80 732.72 1096.10 734.79 1094.00 735.00 Z"/>
</g>
<g fill="#EA1BF4" fill-opacity="0.14" stroke="None">
<path d="
M 1086.00 750.00 
L 1089.00 750.00
C 1088.43 745.95 1083.07 742.06 1083.00 738.00
C 1082.99 737.42 1083.42 735.31 1084.00 735.00
C 1076.78 736.23 1087.46 745.84 1086.00 750.00 Z"/>
</g>
<g fill="#9F2FAF" fill-opacity="0.71" stroke="None">
<path d="
M 1083.00 738.00 
C 1084.76 737.47 1087.61 736.20 1089.00 736.00
C 1088.65 735.95 1088.27 735.13 1088.00 735.00
C 1087.05 735.04 1084.82 734.56 1084.00 735.00
C 1083.42 735.31 1082.99 737.42 1083.00 738.00 Z"/>
</g>
<g fill="#813693" fill-opacity="0.96" stroke="None">
<path d="
M 1083.00 738.00 
C 1083.07 742.06 1088.43 745.95 1089.00 750.00
L 1107.00 750.00
C 1106.79 747.83 1105.69 746.01 1105.00 744.00
C 1103.71 741.69 1102.83 740.85 1102.00 738.00
C 1101.89 738.09 1097.31 735.05 1096.00 736.00 C 1094.69 736.95 1090.43 736.21 1089.00 736.00
C 1087.61 736.20 1084.76 737.47 1083.00 738.00 Z"/>
</g>
<g fill="#B625D0" fill-opacity="0.18" stroke="None">
<path d="
M 1102.00 738.00 
C 1102.83 740.85 1103.71 741.69 1105.00 744.00
C 1103.99 741.05 1103.89 737.81 1101.00 736.00
C 1101.16 736.87 1101.76 737.19 1102.00 738.00 Z"/>
</g>
<g fill="#A52DB4" fill-opacity="0.73" stroke="None">
<path d="
M 919.00 746.00 
C 921.12 743.69 923.86 741.48 926.00 739.00
C 923.77 741.21 921.26 743.74 919.00 746.00 Z"/>
</g>
<g fill="#C126CB" fill-opacity="0.31" stroke="None">
<path d="
M 897.00 746.00 
C 895.93 746.88 894.52 747.47 894.00 749.00
C 897.98 747.71 900.07 743.93 903.00 741.00
C 901.29 742.71 898.92 744.41 897.00 746.00 Z"/>
</g>
<g fill="#A72CB3" fill-opacity="0.44" stroke="None">
<path d="
M 915.00 750.00 
L 917.00 750.00
C 917.00 750.00 916.84 749.44 917.00 749.00
C 917.35 748.04 918.30 746.76 919.00 746.00
C 917.78 747.22 915.61 748.08 915.00 750.00 Z"/>
</g>
</svg>