<?xml version="1.0" encoding="UTF-8"?>
<!DOCTYPE svg PUBLIC "-//W3C//DTD SVG 1.1//EN" "http://www.w3.org/Graphics/SVG/1.1/DTD/svg11.dtd">
<svg xmlns="http://www.w3.org/2000/svg" version="1.1" width="457px" height="157px" style="shape-rendering:geometricPrecision; text-rendering:geometricPrecision; image-rendering:optimizeQuality; fill-rule:evenodd; clip-rule:evenodd" xmlns:xlink="http://www.w3.org/1999/xlink">
<g><path style="opacity:0.961" fill="#fefefe" d="M 252.5,-0.5 C 261.167,-0.5 269.833,-0.5 278.5,-0.5C 292.745,2.38097 304.245,9.7143 313,21.5C 317.803,30.3419 319.303,39.6752 317.5,49.5C 307.188,50.4986 296.855,50.8319 286.5,50.5C 287.988,39.3069 283.322,32.1402 272.5,29C 265.082,27.0809 257.749,27.4142 250.5,30C 237.234,37.6573 236.234,46.6573 247.5,57C 255.667,61.0553 264.001,64.722 272.5,68C 295.94,77.0623 305.773,93.8957 302,118.5C 299.01,130.815 292.177,140.315 281.5,147C 274.119,151.066 266.452,154.232 258.5,156.5C 245.167,156.5 231.833,156.5 218.5,156.5C 192.826,149.306 181.16,132.473 183.5,106C 193.828,105.5 204.161,105.334 214.5,105.5C 213.134,117.273 218.134,124.773 229.5,128C 240.148,130.211 250.481,129.211 260.5,125C 271.443,115.267 271.11,105.934 259.5,97C 247.749,91.8603 236.082,86.527 224.5,81C 209.045,70.0994 203.545,55.266 208,36.5C 210.979,23.8527 218.146,14.3527 229.5,8C 236.88,4.04395 244.547,1.21062 252.5,-0.5 Z"/></g>
<g><path style="opacity:0.971" fill="#fefefe" d="M 37.5,2.5 C 48.1667,2.5 58.8333,2.5 69.5,2.5C 60.5501,43.2484 51.2168,83.9151 41.5,124.5C 63.8234,125.5 86.1567,125.833 108.5,125.5C 106.659,135.199 104.659,144.866 102.5,154.5C 69.5,154.5 36.5,154.5 3.5,154.5C 14.5162,103.768 25.8496,53.1012 37.5,2.5 Z"/></g>
<g><path style="opacity:0.963" fill="#fefefe" d="M 154.5,2.5 C 165.167,2.5 175.833,2.5 186.5,2.5C 175.167,53.1667 163.833,103.833 152.5,154.5C 141.833,154.5 131.167,154.5 120.5,154.5C 131.516,103.768 142.85,53.1012 154.5,2.5 Z"/></g>
<g><path style="opacity:0.968" fill="#fefefe" d="M 337.5,2.5 C 375.833,2.5 414.167,2.5 452.5,2.5C 450.818,12.5619 448.818,22.5619 446.5,32.5C 432.5,32.5 418.5,32.5 404.5,32.5C 395.4,72.5001 386.233,112.5 377,152.5C 366.423,154.463 355.59,155.13 344.5,154.5C 353.445,113.889 362.778,73.3891 372.5,33C 358.488,32.8328 344.488,32.3328 330.5,31.5C 332.993,21.8623 335.326,12.1956 337.5,2.5 Z"/></g>
</svg>
