<svg version="1.1" id="Layer_1" xmlns="http://www.w3.org/2000/svg" xmlns:xlink="http://www.w3.org/1999/xlink" x="0px" y="0px"
	 width="100%" viewBox="0 0 1227 297" enable-background="new 0 0 1227 297" xml:space="preserve">
<path fill="#FCFCFC" opacity="1.000000" stroke="none" 
	d="
M822.000000,298.000000 
	C548.000000,298.000000 274.500000,298.000000 1.000000,298.000000 
	C1.000000,199.000000 1.000000,100.000000 1.000000,1.000000 
	C410.000000,1.000000 819.000000,1.000000 1228.000000,1.000000 
	C1228.000000,100.000000 1228.000000,199.000000 1228.000000,298.000000 
	C1092.833374,298.000000 957.666687,298.000000 822.000000,298.000000 
M447.181671,21.795628 
	C391.696136,22.219301 336.209686,22.552561 280.725311,23.095284 
	C236.406403,23.528790 192.090820,24.342360 147.771439,24.640636 
	C141.974777,24.679649 135.911575,23.372049 130.412949,21.435596 
	C119.138214,17.464979 108.103256,12.784389 97.095551,8.100102 
	C93.104103,6.401559 89.284584,6.583012 86.359848,9.144570 
	C83.673584,11.497276 81.361580,14.819066 80.143524,18.171310 
	C78.567734,22.508148 77.497719,25.793055 71.647980,25.298857 
	C65.376587,24.769037 59.002876,25.543762 52.672508,25.599167 
	C39.008453,25.718754 25.342699,25.851749 11.679483,25.744482 
	C7.045014,25.708097 5.237560,27.643665 5.746103,32.077393 
	C5.897876,33.400623 6.061792,34.724503 6.283638,36.037357 
	C12.163346,70.832672 18.082663,105.621384 23.862633,140.433243 
	C24.220879,142.590912 23.898783,145.063309 23.201019,147.158783 
	C20.522902,155.201553 17.459183,163.115326 14.737996,171.144547 
	C12.296844,178.347504 13.525570,183.124695 19.490061,187.403320 
	C22.804497,189.780914 26.740011,191.398102 30.571594,192.912811 
	C33.176987,193.942825 34.409538,195.233871 34.846539,198.145294 
	C39.045521,226.119797 43.419392,254.068100 47.768505,282.019989 
	C48.876938,289.143951 49.775814,289.855560 57.228161,289.866516 
	C131.719940,289.976257 206.211716,290.099548 280.703522,290.187988 
	C455.186157,290.395111 629.668823,290.584015 804.151428,290.782623 
	C942.137756,290.939667 1080.124146,291.086334 1218.110352,291.319427 
	C1222.730347,291.327240 1224.056641,289.547577 1223.254883,285.251556 
	C1221.912476,278.057892 1220.770996,270.827026 1219.501709,263.619446 
	C1211.655273,219.061874 1203.816040,174.503021 1195.936279,129.951324 
	C1189.389282,92.934998 1182.763184,55.932640 1176.259888,18.908686 
	C1175.687500,15.650076 1174.660889,13.892688 1170.886108,13.951760 
	C1130.570068,14.582680 1090.252808,15.167230 1049.933960,15.581639 
	C994.450806,16.151915 938.965637,16.512714 883.482239,17.061272 
	C839.329529,17.497801 795.179138,18.156727 751.026367,18.583065 
	C668.883179,19.376242 586.738892,20.044744 504.595581,20.828619 
	C485.769928,21.008265 466.946747,21.445312 447.181671,21.795628 
z"/>
<path fill="#070707" opacity="1.000000" stroke="none" 
	d="
M447.652039,21.779762 
	C466.946747,21.445312 485.769928,21.008265 504.595581,20.828619 
	C586.738892,20.044744 668.883179,19.376242 751.026367,18.583065 
	C795.179138,18.156727 839.329529,17.497801 883.482239,17.061272 
	C938.965637,16.512714 994.450806,16.151915 1049.933960,15.581639 
	C1090.252808,15.167230 1130.570068,14.582680 1170.886108,13.951760 
	C1174.660889,13.892688 1175.687500,15.650076 1176.259888,18.908686 
	C1182.763184,55.932640 1189.389282,92.934998 1195.936279,129.951324 
	C1203.816040,174.503021 1211.655273,219.061874 1219.501709,263.619446 
	C1220.770996,270.827026 1221.912476,278.057892 1223.254883,285.251556 
	C1224.056641,289.547577 1222.730347,291.327240 1218.110352,291.319427 
	C1080.124146,291.086334 942.137756,290.939667 804.151428,290.782623 
	C629.668823,290.584015 455.186157,290.395111 280.703522,290.187988 
	C206.211716,290.099548 131.719940,289.976257 57.228161,289.866516 
	C49.775814,289.855560 48.876938,289.143951 47.768505,282.019989 
	C43.419392,254.068100 39.045521,226.119797 34.846539,198.145294 
	C34.409538,195.233871 33.176987,193.942825 30.571594,192.912811 
	C26.740011,191.398102 22.804497,189.780914 19.490061,187.403320 
	C13.525570,183.124695 12.296844,178.347504 14.737996,171.144547 
	C17.459183,163.115326 20.522902,155.201553 23.201019,147.158783 
	C23.898783,145.063309 24.220879,142.590912 23.862633,140.433243 
	C18.082663,105.621384 12.163346,70.832672 6.283638,36.037357 
	C6.061792,34.724503 5.897876,33.400623 5.746103,32.077393 
	C5.237560,27.643665 7.045014,25.708097 11.679483,25.744482 
	C25.342699,25.851749 39.008453,25.718754 52.672508,25.599167 
	C59.002876,25.543762 65.376587,24.769037 71.647980,25.298857 
	C77.497719,25.793055 78.567734,22.508148 80.143524,18.171310 
	C81.361580,14.819066 83.673584,11.497276 86.359848,9.144570 
	C89.284584,6.583012 93.104103,6.401559 97.095551,8.100102 
	C108.103256,12.784389 119.138214,17.464979 130.412949,21.435596 
	C135.911575,23.372049 141.974777,24.679649 147.771439,24.640636 
	C192.090820,24.342360 236.406403,23.528790 280.725311,23.095284 
	C336.209686,22.552561 391.696136,22.219301 447.652039,21.779762 
M859.627686,24.211674 
	C852.468689,24.401266 845.310669,24.686346 838.150452,24.764919 
	C792.332825,25.267725 746.514709,25.735567 700.696594,26.195045 
	C633.218079,26.871746 565.739502,27.538912 498.260864,28.196705 
	C447.276672,28.693708 396.292511,29.192873 345.307922,29.649059 
	C284.326141,30.194698 223.343918,30.695927 162.361877,31.214142 
	C160.734421,31.227972 159.106735,31.215889 157.479156,31.215889 
	C168.200241,36.671734 178.976318,40.954365 189.748581,45.246548 
	C194.994461,47.336758 196.966156,50.576042 195.722839,56.067680 
	C194.886429,59.762016 193.508408,63.351238 192.172165,66.912247 
	C175.070694,112.486389 157.937805,158.048752 140.799271,203.608963 
	C138.234848,210.426117 135.612549,211.498764 129.021286,208.575333 
	C122.643921,205.746765 116.213112,203.032120 109.910324,200.046738 
	C108.406227,199.334290 106.640587,197.974976 106.144791,196.521149 
	C101.897858,184.067993 92.709801,177.483490 80.446800,174.694519 
	C73.862022,173.196930 67.714859,174.413544 61.990635,178.498337 
	C60.089684,179.854843 56.683270,180.402420 54.437061,179.733978 
	C47.287796,177.606415 40.352634,174.753906 33.350212,172.140076 
	C27.629358,170.004623 27.104418,168.946564 29.087791,163.294891 
	C42.241577,125.812767 55.422306,88.340103 68.578117,50.858685 
	C70.698059,44.818867 72.737305,38.750721 74.784706,32.780663 
	C53.934765,32.780663 33.663273,32.780663 13.068875,32.780663 
	C19.193882,68.953621 25.232857,104.512672 31.191339,140.085220 
	C31.529343,142.103104 31.727642,144.404648 31.103901,146.278992 
	C28.166681,155.105377 25.084564,163.892670 21.718807,172.563751 
	C19.837677,177.410034 21.228275,180.691803 25.523575,182.927628 
	C28.459152,184.455688 31.539188,185.755524 34.656830,186.872040 
	C38.574055,188.274887 40.894035,190.411926 41.539352,194.944641 
	C44.164265,213.382034 47.178421,231.764038 50.051594,250.166061 
	C51.736839,260.959686 53.426788,271.752563 55.222794,283.237518 
	C442.269958,283.237518 828.910156,283.237518 1215.726685,283.237518 
	C1200.311279,196.020355 1184.882446,108.726952 1169.455933,21.446558 
	C1066.157104,22.372042 963.378357,23.292866 859.627686,24.211674 
M179.037598,81.479233 
	C182.029724,73.380997 184.968750,65.262543 188.041092,57.194855 
	C189.207535,54.131870 188.745926,52.267048 185.333984,51.156837 
	C181.237579,49.823910 177.291367,48.029022 173.281464,46.430782 
	C147.685303,36.228848 122.092384,26.018761 96.489960,15.832584 
	C93.303001,14.564621 90.020302,13.345110 88.068626,17.686687 
	C87.261284,19.482660 86.572731,21.337223 85.919624,23.196568 
	C73.150581,59.549496 60.395836,95.907440 47.635590,132.263458 
	C43.757198,143.313629 39.871109,154.361115 35.958939,165.494080 
	C40.196033,167.057693 43.961868,168.355820 47.656376,169.832428 
	C53.066986,171.994934 58.357254,174.224380 63.618973,169.330978 
	C64.608421,168.410812 66.380096,168.267700 67.826866,167.913132 
	C84.307938,163.874146 103.720566,173.778961 111.626656,190.170502 
	C112.318001,191.603836 113.104233,193.465744 114.357872,194.073425 
	C120.580147,197.089676 126.974037,199.751892 133.423447,202.589859 
	C148.691971,162.113419 163.759033,122.171043 179.037598,81.479233 
z"/>
<path fill="#FEFEFE" opacity="1.000000" stroke="none" 
	d="
M860.113647,24.212683 
	C963.378357,23.292866 1066.157104,22.372042 1169.455933,21.446558 
	C1184.882446,108.726952 1200.311279,196.020355 1215.726685,283.237518 
	C828.910156,283.237518 442.269958,283.237518 55.222794,283.237518 
	C53.426788,271.752563 51.736839,260.959686 50.051594,250.166061 
	C47.178421,231.764038 44.164265,213.382034 41.539352,194.944641 
	C40.894035,190.411926 38.574055,188.274887 34.656830,186.872040 
	C31.539188,185.755524 28.459152,184.455688 25.523575,182.927628 
	C21.228275,180.691803 19.837677,177.410034 21.718807,172.563751 
	C25.084564,163.892670 28.166681,155.105377 31.103901,146.278992 
	C31.727642,144.404648 31.529343,142.103104 31.191339,140.085220 
	C25.232857,104.512672 19.193882,68.953621 13.068875,32.780663 
	C33.663273,32.780663 53.934765,32.780663 74.784706,32.780663 
	C72.737305,38.750721 70.698059,44.818867 68.578117,50.858685 
	C55.422306,88.340103 42.241577,125.812767 29.087791,163.294891 
	C27.104418,168.946564 27.629358,170.004623 33.350212,172.140076 
	C40.352634,174.753906 47.287796,177.606415 54.437061,179.733978 
	C56.683270,180.402420 60.089684,179.854843 61.990635,178.498337 
	C67.714859,174.413544 73.862022,173.196930 80.446800,174.694519 
	C92.709801,177.483490 101.897858,184.067993 106.144791,196.521149 
	C106.640587,197.974976 108.406227,199.334290 109.910324,200.046738 
	C116.213112,203.032120 122.643921,205.746765 129.021286,208.575333 
	C135.612549,211.498764 138.234848,210.426117 140.799271,203.608963 
	C157.937805,158.048752 175.070694,112.486389 192.172165,66.912247 
	C193.508408,63.351238 194.886429,59.762016 195.722839,56.067680 
	C196.966156,50.576042 194.994461,47.336758 189.748581,45.246548 
	C178.976318,40.954365 168.200241,36.671734 157.479156,31.215889 
	C159.106735,31.215889 160.734421,31.227972 162.361877,31.214142 
	C223.343918,30.695927 284.326141,30.194698 345.307922,29.649059 
	C396.292511,29.192873 447.276672,28.693708 498.260864,28.196705 
	C565.739502,27.538912 633.218079,26.871746 700.696594,26.195045 
	C746.514709,25.735567 792.332825,25.267725 838.150452,24.764919 
	C845.310669,24.686346 852.468689,24.401266 860.113647,24.212683 
M888.500000,171.813446 
	C871.505371,171.885757 854.510742,171.956406 837.516113,172.030716 
	C779.028442,172.286377 720.541077,172.628311 662.053101,172.777451 
	C594.564392,172.949539 527.075134,172.894669 459.586304,173.042068 
	C367.102661,173.244034 274.619232,173.544327 182.135696,173.795990 
	C180.471283,173.800522 178.669235,174.123108 177.168808,173.607025 
	C173.231323,172.252716 171.444168,174.117584 169.762772,177.346390 
	C161.931610,192.384644 153.942703,207.340866 145.982513,222.311691 
	C144.312210,225.453049 142.525070,228.532257 140.783554,231.654785 
	C123.746750,224.156708 107.324402,216.920517 90.894379,209.701797 
	C83.238731,206.338196 80.471710,208.052353 80.093636,216.374603 
	C79.360741,232.507187 78.662994,248.641434 77.904083,264.772766 
	C77.590248,271.443695 79.104813,273.160004 85.751213,273.202942 
	C138.070572,273.541046 190.389877,273.891327 242.709457,274.190125 
	C305.860046,274.550781 369.010864,274.868164 432.161621,275.197632 
	C496.479309,275.533173 560.797058,275.856903 625.114807,276.192596 
	C688.432922,276.523041 751.751038,276.864502 815.069153,277.196503 
	C879.053711,277.532013 943.038269,277.863892 1007.022827,278.193481 
	C1049.346558,278.411469 1091.670654,278.579681 1133.994019,278.857086 
	C1152.135254,278.976013 1153.331787,278.212311 1158.905151,260.843750 
	C1159.006592,260.527527 1159.037231,260.188660 1159.137085,259.871704 
	C1165.037720,241.134766 1166.527222,221.920959 1163.651123,202.622925 
	C1162.248657,193.213638 1158.687012,184.116501 1155.962036,174.919769 
	C1155.127563,172.103119 1153.217163,170.878723 1149.949097,170.920471 
	C1122.958374,171.265411 1095.965576,171.527191 1068.972900,171.590958 
	C1009.148743,171.732254 949.324280,171.743683 888.500000,171.813446 
z"/>
<path fill="#FEFEFE" opacity="1.000000" stroke="none" 
	d="
M178.931839,81.853958 
	C163.759033,122.171043 148.691971,162.113419 133.423447,202.589859 
	C126.974037,199.751892 120.580147,197.089676 114.357872,194.073425 
	C113.104233,193.465744 112.318001,191.603836 111.626656,190.170502 
	C103.720566,173.778961 84.307938,163.874146 67.826866,167.913132 
	C66.380096,168.267700 64.608421,168.410812 63.618973,169.330978 
	C58.357254,174.224380 53.066986,171.994934 47.656376,169.832428 
	C43.961868,168.355820 40.196033,167.057693 35.958939,165.494080 
	C39.871109,154.361115 43.757198,143.313629 47.635590,132.263458 
	C60.395836,95.907440 73.150581,59.549496 85.919624,23.196568 
	C86.572731,21.337223 87.261284,19.482660 88.068626,17.686687 
	C90.020302,13.345110 93.303001,14.564621 96.489960,15.832584 
	C122.092384,26.018761 147.685303,36.228848 173.281464,46.430782 
	C177.291367,48.029022 181.237579,49.823910 185.333984,51.156837 
	C188.745926,52.267048 189.207535,54.131870 188.041092,57.194855 
	C184.968750,65.262543 182.029724,73.380997 178.931839,81.853958 
z"/>
<path fill="#070707" opacity="1.000000" stroke="none" 
	d="
M889.000000,171.810760 
	C949.324280,171.743683 1009.148743,171.732254 1068.972900,171.590958 
	C1095.965576,171.527191 1122.958374,171.265411 1149.949097,170.920471 
	C1153.217163,170.878723 1155.127563,172.103119 1155.962036,174.919769 
	C1158.687012,184.116501 1162.248657,193.213638 1163.651123,202.622925 
	C1166.527222,221.920959 1165.037720,241.134766 1159.137085,259.871704 
	C1159.037231,260.188660 1159.006592,260.527527 1158.905151,260.843750 
	C1153.331787,278.212311 1152.135254,278.976013 1133.994019,278.857086 
	C1091.670654,278.579681 1049.346558,278.411469 1007.022827,278.193481 
	C943.038269,277.863892 879.053711,277.532013 815.069153,277.196503 
	C751.751038,276.864502 688.432922,276.523041 625.114807,276.192596 
	C560.797058,275.856903 496.479309,275.533173 432.161621,275.197632 
	C369.010864,274.868164 305.860046,274.550781 242.709457,274.190125 
	C190.389877,273.891327 138.070572,273.541046 85.751213,273.202942 
	C79.104813,273.160004 77.590248,271.443695 77.904083,264.772766 
	C78.662994,248.641434 79.360741,232.507187 80.093636,216.374603 
	C80.471710,208.052353 83.238731,206.338196 90.894379,209.701797 
	C107.324402,216.920517 123.746750,224.156708 140.783554,231.654785 
	C142.525070,228.532257 144.312210,225.453049 145.982513,222.311691 
	C153.942703,207.340866 161.931610,192.384644 169.762772,177.346390 
	C171.444168,174.117584 173.231323,172.252716 177.168808,173.607025 
	C178.669235,174.123108 180.471283,173.800522 182.135696,173.795990 
	C274.619232,173.544327 367.102661,173.244034 459.586304,173.042068 
	C527.075134,172.894669 594.564392,172.949539 662.053101,172.777451 
	C720.541077,172.628311 779.028442,172.286377 837.516113,172.030716 
	C854.510742,171.956406 871.505371,171.885757 889.000000,171.810760 
M967.500000,178.914383 
	C938.170837,179.005905 908.841736,179.117203 879.512512,179.185043 
	C809.185181,179.347702 738.857849,179.468338 668.530579,179.647018 
	C609.369202,179.797318 550.207947,180.027969 491.046570,180.183334 
	C387.387848,180.455551 283.729126,180.708115 180.070236,180.893860 
	C177.291779,180.898834 175.613754,181.475571 174.232742,184.143616 
	C165.216614,201.562225 155.912857,218.832138 146.927322,236.266205 
	C145.078705,239.852966 143.177505,240.829300 139.484344,239.071594 
	C133.186630,236.074310 126.752869,233.362259 120.369659,230.545319 
	C109.475685,225.737747 98.576591,220.941742 87.348938,215.995163 
	C86.564537,232.955063 85.808083,249.310684 85.008598,266.596558 
	C105.170151,266.596558 124.636955,266.510010 144.102768,266.612213 
	C212.425629,266.970856 280.748016,267.423889 349.070892,267.784546 
	C408.396606,268.097778 467.722931,268.300903 527.048645,268.613678 
	C594.871399,268.971252 662.693665,269.410522 730.516235,269.787842 
	C793.840149,270.140137 857.164001,270.477417 920.488098,270.785522 
	C993.645020,271.141479 1066.802368,271.398834 1139.958008,271.922882 
	C1144.963623,271.958740 1147.457642,270.276581 1149.181152,265.893219 
	C1159.882324,238.677200 1160.801270,211.190536 1151.945435,183.320969 
	C1150.717163,179.455612 1148.766113,178.063446 1144.479980,178.093048 
	C1085.820923,178.498489 1027.160278,178.677780 967.500000,178.914383 
z"/>
<path fill="#FEFEFE" opacity="1.000000" stroke="none" 
	d="
M968.000000,178.913544 
	C1027.160278,178.677780 1085.820923,178.498489 1144.479980,178.093048 
	C1148.766113,178.063446 1150.717163,179.455612 1151.945435,183.320969 
	C1160.801270,211.190536 1159.882324,238.677200 1149.181152,265.893219 
	C1147.457642,270.276581 1144.963623,271.958740 1139.958008,271.922882 
	C1066.802368,271.398834 993.645020,271.141479 920.488098,270.785522 
	C857.164001,270.477417 793.840149,270.140137 730.516235,269.787842 
	C662.693665,269.410522 594.871399,268.971252 527.048645,268.613678 
	C467.722931,268.300903 408.396606,268.097778 349.070892,267.784546 
	C280.748016,267.423889 212.425629,266.970856 144.102768,266.612213 
	C124.636955,266.510010 105.170151,266.596558 85.008598,266.596558 
	C85.808083,249.310684 86.564537,232.955063 87.348938,215.995163 
	C98.576591,220.941742 109.475685,225.737747 120.369659,230.545319 
	C126.752869,233.362259 133.186630,236.074310 139.484344,239.071594 
	C143.177505,240.829300 145.078705,239.852966 146.927322,236.266205 
	C155.912857,218.832138 165.216614,201.562225 174.232742,184.143616 
	C175.613754,181.475571 177.291779,180.898834 180.070236,180.893860 
	C283.729126,180.708115 387.387848,180.455551 491.046570,180.183334 
	C550.207947,180.027969 609.369202,179.797318 668.530579,179.647018 
	C738.857849,179.468338 809.185181,179.347702 879.512512,179.185043 
	C908.841736,179.117203 938.170837,179.005905 968.000000,178.913544 
z"/>
</svg>