<?xml version="1.0" standalone="no"?>
<!DOCTYPE svg PUBLIC "-//W3C//DTD SVG 20010904//EN"
 "http://www.w3.org/TR/2001/REC-SVG-20010904/DTD/svg10.dtd">
<svg version="1.0" xmlns="http://www.w3.org/2000/svg"
 width="1227.000000pt" height="297.000000pt" viewBox="0 0 1227.000000 297.000000"
 preserveAspectRatio="xMidYMid meet">

<g transform="translate(0.000000,297.000000) scale(0.100000,-0.100000)"
fill="#000000" stroke="none">
<path d="M875 2898 c-44 -24 -75 -64 -90 -113 l-15 -52 -76 -7 c-43 -3 -199
-6 -349 -6 -286 0 -295 -1 -295 -46 0 -12 42 -272 94 -577 l94 -556 -54 -147
c-30 -82 -54 -164 -54 -185 0 -54 47 -104 135 -144 l70 -32 68 -442 c38 -244
73 -456 79 -471 6 -20 18 -30 36 -34 15 -2 2653 -6 5862 -8 l5835 -3 3 27 c4
38 -468 2711 -482 2724 -8 8 -1431 -3 -5189 -42 l-5178 -52 -221 89 c-122 49
-229 89 -238 89 -8 0 -24 -6 -35 -12z m525 -251 c463 -187 475 -193 473 -218
-1 -15 -44 -141 -97 -280 -88 -236 -430 -1143 -444 -1181 -6 -14 -19 -11 -107
27 -95 41 -101 46 -125 92 -94 181 -333 272 -491 186 l-48 -26 -107 38 c-82
29 -105 41 -101 54 8 30 496 1416 511 1453 13 31 30 45 56 46 3 0 219 -86 480
-191z m10285 111 c2 -7 106 -589 230 -1293 124 -704 228 -1291 231 -1303 l5
-24 -5803 7 c-3192 4 -5804 8 -5805 10 -2 1 -35 206 -74 456 -50 325 -75 459
-86 471 -9 10 -42 28 -75 39 -69 26 -108 59 -108 92 0 14 25 91 55 173 l55
148 -75 445 c-42 246 -85 495 -95 555 -11 60 -19 110 -17 111 1 1 141 5 311 9
253 6 308 5 304 -6 -3 -7 -57 -161 -121 -343 -64 -181 -168 -478 -231 -659
-64 -181 -116 -335 -116 -341 0 -23 36 -42 165 -88 72 -26 133 -47 137 -47 4
0 28 15 54 32 41 30 52 33 117 33 57 0 84 -6 127 -26 96 -46 135 -89 189 -207
8 -16 247 -122 276 -122 12 0 29 8 37 18 22 25 570 1488 575 1536 4 31 0 47
-13 62 -11 12 -102 55 -204 95 l-185 74 205 2 c177 3 4943 50 8285 83 1140 12
1364 14 1538 18 79 1 109 -1 112 -10z"/>
<path d="M900 2415 c0 -11 11 -15 35 -15 42 0 90 -22 99 -45 8 -22 8 -848 0
-870 -9 -23 -57 -45 -99 -45 -24 0 -35 -4 -35 -15 0 -13 31 -15 220 -15 189 0
220 2 220 15 0 11 -12 15 -46 15 -37 0 -51 5 -75 30 l-30 29 3 426 3 427 28
24 c21 18 40 24 73 24 32 0 44 4 44 15 0 13 -31 15 -220 15 -189 0 -220 -2
-220 -15z"/>
<path d="M3399 2460 c-9 -5 -22 -23 -29 -39 -35 -85 97 -143 137 -60 31 65
-47 135 -108 99z"/>
<path d="M2386 2374 c-11 -87 -7 -194 8 -194 8 0 15 16 19 40 6 47 48 107 83
120 34 13 177 24 208 16 l27 -7 -3 -435 -3 -436 -28 -24 c-21 -18 -40 -24 -73
-24 -32 0 -44 -4 -44 -15 0 -13 31 -15 220 -15 189 0 220 2 220 15 0 11 -12
15 -44 15 -57 0 -86 23 -97 80 -4 25 -8 223 -9 441 l0 396 71 6 c80 7 161 -5
197 -29 26 -17 61 -86 62 -121 0 -14 6 -23 15 -23 12 0 15 14 15 68 0 37 -3
91 -6 120 l-7 52 -412 0 -412 0 -7 -46z"/>
<path d="M4896 2359 c-11 -107 -8 -179 8 -179 8 0 16 15 20 38 8 50 39 98 74
116 34 17 177 32 216 22 l27 -7 -3 -435 -3 -436 -28 -24 c-19 -17 -40 -24 -68
-24 -28 0 -39 -4 -39 -15 0 -13 31 -15 215 -15 184 0 215 2 215 15 0 11 -12
15 -45 15 -70 0 -91 27 -101 126 -7 78 2 783 10 792 3 2 49 5 103 5 74 0 106
-4 131 -17 39 -20 70 -67 78 -118 4 -23 12 -38 20 -38 11 0 14 19 14 83 0 45
-3 99 -6 120 l-7 37 -412 0 -412 0 -7 -61z"/>
<path d="M7610 2377 c0 -24 -3 -78 -6 -120 -6 -63 -4 -77 7 -77 9 0 20 18 27
45 28 104 62 125 205 128 l102 2 3 -415 c1 -228 0 -430 -3 -447 -7 -39 -45
-63 -100 -63 -24 0 -35 -4 -35 -15 0 -13 31 -15 215 -15 184 0 215 2 215 15 0
11 -11 15 -35 15 -47 0 -91 23 -99 52 -3 13 -6 212 -6 444 l0 421 65 6 c60 6
88 4 152 -9 42 -8 82 -53 99 -110 10 -36 21 -54 31 -54 12 0 14 8 9 38 -3 20
-6 74 -6 120 l0 82 -420 0 -420 0 0 -43z"/>
<path d="M3363 2067 c-57 -23 -101 -46 -100 -52 2 -5 23 -10 46 -10 26 0 45
-6 51 -15 17 -27 22 -112 18 -316 -3 -182 -5 -204 -22 -223 -12 -13 -31 -21
-53 -21 -23 0 -33 -5 -33 -15 0 -13 26 -15 170 -15 144 0 170 2 170 15 0 10
-10 15 -29 15 -16 0 -39 9 -52 19 l-24 19 -3 321 c-3 294 -4 321 -20 321 -9
-1 -63 -20 -119 -43z"/>
<path d="M3922 2092 c-76 -28 -141 -86 -182 -166 -30 -59 -35 -78 -38 -161 -6
-131 19 -213 88 -288 118 -129 287 -129 400 0 35 39 76 122 82 162 5 39 -17
35 -36 -8 -21 -46 -80 -106 -119 -120 -39 -15 -112 -14 -150 3 -45 19 -81 61
-114 131 -24 53 -28 72 -28 160 0 85 4 107 24 148 34 69 81 102 147 102 67 0
99 -27 109 -91 7 -48 24 -71 61 -80 58 -15 104 25 90 80 -9 37 -62 94 -110
118 -58 30 -156 34 -224 10z"/>
<path d="M5908 2097 c-91 -26 -148 -90 -148 -166 0 -49 31 -76 74 -65 34 8 46
31 46 89 0 38 5 52 29 76 25 24 38 29 78 29 83 0 123 -49 123 -152 l0 -53 -52
-19 c-160 -56 -287 -138 -314 -203 -49 -117 29 -243 149 -243 59 0 90 12 154
61 29 21 54 39 56 39 2 0 9 -18 16 -40 20 -68 89 -81 157 -32 49 36 63 53 74
91 l9 31 -40 -32 c-32 -26 -44 -30 -57 -22 -15 10 -18 40 -22 255 -6 283 -9
296 -94 338 -58 29 -168 37 -238 18z m198 -553 c-3 -7 -34 -27 -70 -44 -76
-38 -104 -35 -148 12 -24 26 -28 38 -28 86 0 53 2 58 48 101 30 30 74 57 122
78 l75 31 3 -126 c1 -69 1 -131 -2 -138z"/>
<path d="M6665 2101 c-164 -43 -266 -201 -252 -391 13 -187 119 -315 270 -327
83 -7 149 21 212 88 65 69 117 199 81 199 -9 0 -16 -6 -16 -13 0 -31 -71 -115
-115 -137 -67 -32 -150 -25 -202 17 -110 88 -144 309 -68 439 42 72 130 103
194 69 28 -14 51 -58 51 -97 0 -29 45 -68 77 -68 110 0 87 142 -32 200 -50 24
-149 35 -200 21z"/>
<path d="M8673 2092 c-92 -33 -150 -90 -198 -195 -80 -174 -13 -395 145 -482
50 -27 64 -30 145 -30 84 0 94 2 155 36 120 66 187 202 178 362 -5 93 -33 159
-94 227 -77 85 -222 121 -331 82z m141 -46 c43 -18 91 -77 118 -146 19 -47 22
-75 23 -195 0 -118 -3 -146 -19 -178 -46 -93 -156 -122 -233 -61 -82 66 -129
209 -121 366 4 67 11 100 30 136 41 79 123 111 202 78z"/>
<path d="M9455 2101 c-86 -21 -170 -94 -206 -179 -28 -65 -40 -174 -28 -256
17 -121 76 -209 175 -257 58 -29 70 -31 133 -27 88 7 145 38 197 110 47 63 78
147 62 166 -9 10 -17 2 -37 -39 -67 -137 -223 -157 -337 -44 -55 54 -80 110
-91 202 l-6 53 243 0 242 0 -7 43 c-10 61 -41 127 -77 165 -57 58 -171 85
-263 63z m110 -70 c37 -21 62 -63 71 -119 l7 -42 -161 0 -161 0 6 33 c18 95
104 166 183 150 14 -2 38 -12 55 -22z"/>
<path d="M4390 1745 l0 -55 195 0 195 0 0 55 0 55 -195 0 -195 0 0 -55z"/>
<path d="M7100 1745 l0 -55 195 0 195 0 0 55 0 55 -195 0 -195 0 0 -55z"/>
<path d="M8240 1260 c-4128 -12 -6534 -20 -6535 -23 -1 -1 -70 -130 -153 -287
-84 -157 -155 -284 -159 -283 -5 1 -126 54 -270 117 -144 64 -271 116 -282
116 -42 0 -48 -30 -60 -335 -14 -337 -21 -315 93 -315 39 -1 2438 -14 5331
-29 4538 -25 5263 -27 5282 -15 57 36 122 232 144 431 21 195 -9 438 -70 569
l-30 64 -383 -2 c-211 -1 -1519 -5 -2908 -8z m3266 -97 c8 -21 25 -76 37 -123
29 -115 31 -392 3 -520 -20 -94 -70 -232 -89 -249 -14 -11 -10602 40 -10613
52 -5 5 15 489 21 495 1 1 125 -52 275 -118 251 -110 310 -130 310 -101 0 12
286 551 299 564 10 10 3474 23 9013 35 l728 2 16 -37z"/>
<path d="M6976 1084 c-21 -20 -20 -30 3 -53 25 -25 59 -17 67 15 12 46 -37 72
-70 38z"/>
<path d="M4405 1058 c57 -20 55 -12 55 -277 0 -248 -3 -271 -36 -271 -6 0 -17
13 -24 30 -18 44 -36 55 -65 42 -31 -14 -33 -54 -5 -82 27 -27 94 -27 138 0
61 37 72 80 72 290 0 226 6 254 58 268 30 8 12 10 -93 10 -103 0 -124 -2 -100
-10z"/>
<path d="M7668 960 c-15 -27 -44 -60 -63 -72 -42 -28 -44 -38 -7 -38 l29 0 6
-161 c7 -174 12 -191 63 -203 33 -9 80 17 99 54 18 35 13 38 -15 10 -15 -15
-25 -17 -42 -11 -22 8 -23 13 -26 160 l-3 151 46 0 c33 0 45 4 45 15 0 11 -12
15 -45 15 l-45 0 0 65 c0 36 -3 65 -7 65 -5 0 -20 -23 -35 -50z"/>
<path d="M4780 888 c-75 -13 -132 -99 -83 -127 28 -15 53 5 53 44 0 54 60 84
105 51 13 -9 19 -27 19 -60 l1 -47 -71 -30 c-108 -45 -141 -84 -135 -159 2
-30 53 -80 81 -80 24 0 75 22 107 46 22 15 23 15 32 -9 9 -22 29 -37 51 -37
17 0 80 62 80 78 0 13 -2 13 -18 -1 -44 -40 -52 -17 -52 154 0 155 -6 166
-110 183 -8 1 -35 -1 -60 -6z m100 -243 c0 -81 -9 -95 -72 -110 -63 -16 -93
78 -40 127 23 23 82 55 105 57 4 1 7 -33 7 -74z"/>
<path d="M5610 888 c-75 -13 -132 -99 -83 -127 28 -15 53 5 53 44 0 59 68 87
111 44 15 -15 19 -30 17 -60 -3 -40 -4 -41 -74 -70 -95 -40 -137 -83 -136
-141 1 -35 6 -48 33 -72 26 -23 38 -27 67 -22 19 3 52 17 74 31 l38 25 9 -23
c9 -22 29 -37 51 -37 16 0 80 62 80 77 0 12 -2 12 -16 -1 -42 -43 -54 -8 -54
163 0 146 -7 158 -110 175 -8 1 -35 -1 -60 -6z m100 -243 c0 -74 0 -76 -32
-95 -42 -25 -63 -25 -88 0 -30 30 -26 80 8 112 23 23 82 55 105 57 4 1 7 -33
7 -74z"/>
<path d="M5988 892 c-15 -2 -41 -17 -58 -33 -24 -24 -30 -39 -30 -73 0 -57 17
-77 109 -130 46 -27 82 -54 86 -67 19 -59 -36 -101 -99 -75 -37 15 -76 60 -76
87 0 10 -4 21 -10 24 -6 4 -10 -21 -10 -67 l0 -73 85 -3 c124 -4 175 29 175
114 0 57 -24 83 -119 133 -43 22 -82 48 -85 57 -11 30 -6 53 16 68 50 35 116
6 138 -59 18 -54 30 -42 30 29 0 58 -12 94 -22 65 -2 -7 -19 -8 -53 -2 -28 4
-62 7 -77 5z"/>
<path d="M6367 885 c-86 -22 -136 -94 -137 -196 0 -69 15 -115 49 -152 72 -79
174 -76 234 5 26 35 51 98 39 98 -4 0 -16 -14 -26 -30 -35 -60 -108 -81 -162
-45 -57 37 -84 177 -48 246 33 66 128 71 141 9 7 -35 36 -60 63 -53 24 6 32
27 20 58 -20 52 -98 79 -173 60z"/>
<path d="M6653 872 c-62 -25 -86 -48 -39 -36 38 9 46 -19 46 -168 0 -138 -5
-158 -42 -158 -10 0 -18 -4 -18 -10 0 -6 40 -10 100 -10 60 0 100 4 100 10 0
6 -11 10 -25 10 -37 0 -45 27 -45 154 0 108 1 116 26 145 25 30 27 30 54 16
38 -20 57 -19 69 3 15 29 -13 62 -51 62 -22 0 -40 -10 -64 -36 l-34 -35 0 40
c0 23 -3 41 -7 40 -5 0 -36 -12 -70 -27z"/>
<path d="M6970 875 c-30 -12 -56 -28 -58 -34 -2 -6 3 -9 12 -5 9 3 23 1 31 -6
12 -10 15 -41 15 -154 0 -147 -5 -166 -42 -166 -10 0 -18 -4 -18 -10 0 -6 38
-10 95 -10 57 0 95 4 95 10 0 6 -9 10 -20 10 -34 0 -40 32 -40 214 0 97 -3
176 -7 175 -5 0 -33 -11 -63 -24z"/>
<path d="M7353 888 c-18 -5 -45 -25 -62 -45 l-31 -38 0 43 c0 50 -5 51 -86 17
-58 -24 -60 -26 -26 -29 41 -3 42 -8 42 -255 0 -251 -2 -261 -47 -261 -13 0
-23 -4 -23 -10 0 -6 42 -10 105 -10 63 0 105 4 105 10 0 6 -10 10 -23 10 -39
0 -47 18 -47 106 l0 82 31 -15 c41 -20 117 -13 157 15 48 35 82 114 82 191 -1
135 -76 215 -177 189z m54 -80 c36 -41 47 -72 47 -143 1 -118 -55 -183 -132
-153 -52 19 -62 46 -62 165 0 101 0 101 31 127 39 33 88 35 116 4z"/>
<path d="M5033 874 c4 -4 17 -12 29 -18 16 -8 43 -60 98 -191 42 -98 81 -180
87 -182 10 -4 30 41 133 290 23 54 40 82 59 92 25 13 22 14 -44 14 -52 0 -64
-3 -47 -9 12 -5 22 -17 22 -25 0 -20 -93 -245 -100 -245 -9 0 -100 222 -100
242 0 9 12 21 28 26 21 8 6 11 -72 11 -55 1 -96 -2 -93 -5z"/>
</g>
</svg>
